<?xml version="1.0" encoding="UTF-8" standalone="no"?>
<!DOCTYPE svg PUBLIC "-//W3C//DTD SVG 1.1//EN"
 "http://www.w3.org/Graphics/SVG/1.1/DTD/svg11.dtd">
<!-- Generated by graphviz version 10.0.1 (20240210.2158)
 -->
<!-- Title: C:/Users/Muddyblack/Downloads/MetaDataEditorCpp/src/app/src/AppConstants.cpp Pages: 1 -->
<svg width="162pt" height="164pt"
 viewBox="0.00 0.00 162.00 164.00" xmlns="http://www.w3.org/2000/svg" xmlns:xlink="http://www.w3.org/1999/xlink">
<g id="graph0" class="graph" transform="scale(1 1) rotate(0) translate(4 160)">
<title>C:/Users/Muddyblack/Downloads/MetaDataEditorCpp/src/app/src/AppConstants.cpp</title>
<!-- Node1 -->
<g id="Node000001" class="node">
<title>Node1</title>
<g id="a_Node000001"><a xlink:title="Implements the constants used throughout the application.">
<polygon fill="#999999" stroke="#666666" points="154,-156 0,-156 0,-112 154,-112 154,-156"/>
<text text-anchor="start" x="8" y="-142.5" font-family="Helvetica,sans-Serif" font-size="10.00">C:/Users/Muddyblack</text>
<text text-anchor="start" x="8" y="-130.5" font-family="Helvetica,sans-Serif" font-size="10.00">/Downloads/MetaDataEditorCpp</text>
<text text-anchor="middle" x="77" y="-118.5" font-family="Helvetica,sans-Serif" font-size="10.00">/src/app/src/AppConstants.cpp</text>
</a>
</g>
</g>
<!-- Node2 -->
<g id="Node000002" class="node">
<title>Node2</title>
<g id="a_Node000002"><a xlink:href="_app_constants_8h.html" target="_top" xlink:title="Defines constants used throughout the application.">
<polygon fill="white" stroke="#666666" points="119.88,-76 34.12,-76 34.12,-56 119.88,-56 119.88,-76"/>
<text text-anchor="middle" x="77" y="-62.5" font-family="Helvetica,sans-Serif" font-size="10.00">AppConstants.h</text>
</a>
</g>
</g>
<!-- Node1&#45;&gt;Node2 -->
<g id="edge1_Node000001_Node000002" class="edge">
<title>Node1&#45;&gt;Node2</title>
<g id="a_edge1_Node000001_Node000002"><a xlink:title=" ">
<path fill="none" stroke="#63b8ff" d="M77,-111.75C77,-104.13 77,-95.53 77,-87.93"/>
<polygon fill="#63b8ff" stroke="#63b8ff" points="80.5,-87.93 77,-77.93 73.5,-87.93 80.5,-87.93"/>
</a>
</g>
</g>
<!-- Node3 -->
<g id="Node000003" class="node">
<title>Node3</title>
<g id="a_Node000003"><a xlink:title=" ">
<polygon fill="#e0e0e0" stroke="#999999" points="101.5,-20 52.5,-20 52.5,0 101.5,0 101.5,-20"/>
<text text-anchor="middle" x="77" y="-6.5" font-family="Helvetica,sans-Serif" font-size="10.00">QString</text>
</a>
</g>
</g>
<!-- Node2&#45;&gt;Node3 -->
<g id="edge2_Node000002_Node000003" class="edge">
<title>Node2&#45;&gt;Node3</title>
<g id="a_edge2_Node000002_Node000003"><a xlink:title=" ">
<path fill="none" stroke="#63b8ff" d="M77,-55.59C77,-49.01 77,-39.96 77,-31.73"/>
<polygon fill="#63b8ff" stroke="#63b8ff" points="80.5,-31.81 77,-21.81 73.5,-31.81 80.5,-31.81"/>
</a>
</g>
</g>
</g>
</svg>
