<?xml version="1.0" encoding="UTF-8" standalone="no"?>
<!DOCTYPE svg PUBLIC "-//W3C//DTD SVG 1.1//EN"
 "http://www.w3.org/Graphics/SVG/1.1/DTD/svg11.dtd">
<!-- Generated by graphviz version 10.0.1 (20240210.2158)
 -->
<!-- Title: C:/Users/Muddyblack/Downloads/MetaDataEditorCpp/src/app/include/AppConstants.h Pages: 1 -->
<svg width="510pt" height="132pt"
 viewBox="0.00 0.00 509.88 132.00" xmlns="http://www.w3.org/2000/svg" xmlns:xlink="http://www.w3.org/1999/xlink">
<g id="graph0" class="graph" transform="scale(1 1) rotate(0) translate(4 128)">
<title>C:/Users/Muddyblack/Downloads/MetaDataEditorCpp/src/app/include/AppConstants.h</title>
<!-- Node1 -->
<g id="Node000001" class="node">
<title>Node1</title>
<g id="a_Node000001"><a xlink:title="Defines constants used throughout the application.">
<polygon fill="#999999" stroke="#666666" points="327.88,-124 170.12,-124 170.12,-80 327.88,-80 327.88,-124"/>
<text text-anchor="start" x="178.12" y="-110.5" font-family="Helvetica,sans-Serif" font-size="10.00">C:/Users/Muddyblack</text>
<text text-anchor="start" x="178.12" y="-98.5" font-family="Helvetica,sans-Serif" font-size="10.00">/Downloads/MetaDataEditorCpp</text>
<text text-anchor="middle" x="249" y="-86.5" font-family="Helvetica,sans-Serif" font-size="10.00">/src/app/include/AppConstants.h</text>
</a>
</g>
</g>
<!-- Node2 -->
<g id="Node000002" class="node">
<title>Node2</title>
<g id="a_Node000002"><a xlink:href="main_8cpp.html" target="_top" xlink:title="Entry point for the MetaData Editor application.">
<polygon fill="white" stroke="#666666" points="154,-44 0,-44 0,0 154,0 154,-44"/>
<text text-anchor="start" x="8" y="-30.5" font-family="Helvetica,sans-Serif" font-size="10.00">C:/Users/Muddyblack</text>
<text text-anchor="start" x="8" y="-18.5" font-family="Helvetica,sans-Serif" font-size="10.00">/Downloads/MetaDataEditorCpp</text>
<text text-anchor="middle" x="77" y="-6.5" font-family="Helvetica,sans-Serif" font-size="10.00">/src/app/main.cpp</text>
</a>
</g>
</g>
<!-- Node1&#45;&gt;Node2 -->
<g id="edge1_Node000001_Node000002" class="edge">
<title>Node1&#45;&gt;Node2</title>
<g id="a_edge1_Node000001_Node000002"><a xlink:title=" ">
<path fill="none" stroke="#63b8ff" d="M191.52,-74.93C169.67,-65.02 145.04,-53.86 124.24,-44.42"/>
<polygon fill="#63b8ff" stroke="#63b8ff" points="190.07,-78.12 200.62,-79.06 192.96,-71.74 190.07,-78.12"/>
</a>
</g>
</g>
<!-- Node3 -->
<g id="Node000003" class="node">
<title>Node3</title>
<g id="a_Node000003"><a xlink:href="_app_constants_8cpp.html" target="_top" xlink:title=" ">
<polygon fill="white" stroke="#666666" points="326,-44 172,-44 172,0 326,0 326,-44"/>
<text text-anchor="start" x="180" y="-30.5" font-family="Helvetica,sans-Serif" font-size="10.00">C:/Users/Muddyblack</text>
<text text-anchor="start" x="180" y="-18.5" font-family="Helvetica,sans-Serif" font-size="10.00">/Downloads/MetaDataEditorCpp</text>
<text text-anchor="middle" x="249" y="-6.5" font-family="Helvetica,sans-Serif" font-size="10.00">/src/app/src/AppConstants.cpp</text>
</a>
</g>
</g>
<!-- Node1&#45;&gt;Node3 -->
<g id="edge2_Node000001_Node000003" class="edge">
<title>Node1&#45;&gt;Node3</title>
<g id="a_edge2_Node000001_Node000003"><a xlink:title=" ">
<path fill="none" stroke="#63b8ff" d="M249,-68.25C249,-60.15 249,-51.68 249,-44.29"/>
<polygon fill="#63b8ff" stroke="#63b8ff" points="245.5,-68.17 249,-78.17 252.5,-68.17 245.5,-68.17"/>
</a>
</g>
</g>
<!-- Node4 -->
<g id="Node000004" class="node">
<title>Node4</title>
<g id="a_Node000004"><a xlink:href="_image_editor_g_u_i_8cpp.html" target="_top" xlink:title=" ">
<polygon fill="white" stroke="#666666" points="501.88,-44 344.12,-44 344.12,0 501.88,0 501.88,-44"/>
<text text-anchor="start" x="352.12" y="-30.5" font-family="Helvetica,sans-Serif" font-size="10.00">C:/Users/Muddyblack</text>
<text text-anchor="start" x="352.12" y="-18.5" font-family="Helvetica,sans-Serif" font-size="10.00">/Downloads/MetaDataEditorCpp</text>
<text text-anchor="middle" x="423" y="-6.5" font-family="Helvetica,sans-Serif" font-size="10.00">/src/app/src/ImageEditorGUI.cpp</text>
</a>
</g>
</g>
<!-- Node1&#45;&gt;Node4 -->
<g id="edge3_Node000001_Node000004" class="edge">
<title>Node1&#45;&gt;Node4</title>
<g id="a_edge3_Node000001_Node000004"><a xlink:title=" ">
<path fill="none" stroke="#63b8ff" d="M306.84,-75.07C329.03,-65.13 354.07,-53.9 375.21,-44.42"/>
<polygon fill="#63b8ff" stroke="#63b8ff" points="305.62,-71.78 297.93,-79.07 308.48,-78.17 305.62,-71.78"/>
</a>
</g>
</g>
</g>
</svg>
