<?xml version="1.0" encoding="UTF-8" standalone="no"?>
<!DOCTYPE svg PUBLIC "-//W3C//DTD SVG 1.1//EN"
 "http://www.w3.org/Graphics/SVG/1.1/DTD/svg11.dtd">
<!-- Generated by graphviz version 10.0.1 (20240210.2158)
 -->
<!-- Title: C:/Users/Muddyblack/Downloads/MetaDataEditorCpp/src/app/src/ImageEditorGUI.cpp Pages: 1 -->
<svg width="2042pt" height="220pt"
 viewBox="0.00 0.00 2041.50 220.00" xmlns="http://www.w3.org/2000/svg" xmlns:xlink="http://www.w3.org/1999/xlink">
<g id="graph0" class="graph" transform="scale(1 1) rotate(0) translate(4 216)">
<title>C:/Users/Muddyblack/Downloads/MetaDataEditorCpp/src/app/src/ImageEditorGUI.cpp</title>
<!-- Node1 -->
<g id="Node000001" class="node">
<title>Node1</title>
<g id="a_Node000001"><a xlink:title="Implements the ImageEditorGUI class for editing files.">
<polygon fill="#999999" stroke="#666666" points="930.62,-212 772.88,-212 772.88,-168 930.62,-168 930.62,-212"/>
<text text-anchor="start" x="780.88" y="-198.5" font-family="Helvetica,sans-Serif" font-size="10.00">C:/Users/Muddyblack</text>
<text text-anchor="start" x="780.88" y="-186.5" font-family="Helvetica,sans-Serif" font-size="10.00">/Downloads/MetaDataEditorCpp</text>
<text text-anchor="middle" x="851.75" y="-174.5" font-family="Helvetica,sans-Serif" font-size="10.00">/src/app/src/ImageEditorGUI.cpp</text>
</a>
</g>
</g>
<!-- Node2 -->
<g id="Node000002" class="node">
<title>Node2</title>
<g id="a_Node000002"><a xlink:title=" ">
<polygon fill="#e0e0e0" stroke="#999999" points="77.5,-132 0,-132 0,-112 77.5,-112 77.5,-132"/>
<text text-anchor="middle" x="38.75" y="-118.5" font-family="Helvetica,sans-Serif" font-size="10.00">QAudioOutput</text>
</a>
</g>
</g>
<!-- Node1&#45;&gt;Node2 -->
<g id="edge1_Node000001_Node000002" class="edge">
<title>Node1&#45;&gt;Node2</title>
<g id="a_edge1_Node000001_Node000002"><a xlink:title=" ">
<path fill="none" stroke="#63b8ff" d="M772.44,-185.99C635.22,-180.16 344.52,-164.98 89.34,-132.2"/>
<polygon fill="#63b8ff" stroke="#63b8ff" points="89.85,-128.73 79.49,-130.92 88.95,-135.68 89.85,-128.73"/>
</a>
</g>
</g>
<!-- Node3 -->
<g id="Node000003" class="node">
<title>Node3</title>
<g id="a_Node000003"><a xlink:title=" ">
<polygon fill="#e0e0e0" stroke="#999999" points="139.62,-132 95.88,-132 95.88,-112 139.62,-112 139.62,-132"/>
<text text-anchor="middle" x="117.75" y="-118.5" font-family="Helvetica,sans-Serif" font-size="10.00">QDate</text>
</a>
</g>
</g>
<!-- Node1&#45;&gt;Node3 -->
<g id="edge2_Node000001_Node000003" class="edge">
<title>Node1&#45;&gt;Node3</title>
<g id="a_edge2_Node000001_Node000003"><a xlink:title=" ">
<path fill="none" stroke="#63b8ff" d="M772.53,-187.77C643.75,-184.62 381.09,-173.47 151.24,-132.09"/>
<polygon fill="#63b8ff" stroke="#63b8ff" points="151.93,-128.66 141.46,-130.31 150.67,-135.55 151.93,-128.66"/>
</a>
</g>
</g>
<!-- Node4 -->
<g id="Node000004" class="node">
<title>Node4</title>
<g id="a_Node000004"><a xlink:title=" ">
<polygon fill="#e0e0e0" stroke="#999999" points="209.38,-132 158.12,-132 158.12,-112 209.38,-112 209.38,-132"/>
<text text-anchor="middle" x="183.75" y="-118.5" font-family="Helvetica,sans-Serif" font-size="10.00">QDebug</text>
</a>
</g>
</g>
<!-- Node1&#45;&gt;Node4 -->
<g id="edge3_Node000001_Node000004" class="edge">
<title>Node1&#45;&gt;Node4</title>
<g id="a_edge3_Node000001_Node000004"><a xlink:title=" ">
<path fill="none" stroke="#63b8ff" d="M772.76,-186C654.62,-180.6 424.87,-166.59 220.88,-132.08"/>
<polygon fill="#63b8ff" stroke="#63b8ff" points="221.58,-128.65 211.13,-130.41 220.4,-135.55 221.58,-128.65"/>
</a>
</g>
</g>
<!-- Node5 -->
<g id="Node000005" class="node">
<title>Node5</title>
<g id="a_Node000005"><a xlink:title=" ">
<polygon fill="#e0e0e0" stroke="#999999" points="293.88,-132 227.62,-132 227.62,-112 293.88,-112 293.88,-132"/>
<text text-anchor="middle" x="260.75" y="-118.5" font-family="Helvetica,sans-Serif" font-size="10.00">QFileDialog</text>
</a>
</g>
</g>
<!-- Node1&#45;&gt;Node5 -->
<g id="edge4_Node000001_Node000005" class="edge">
<title>Node1&#45;&gt;Node5</title>
<g id="a_edge4_Node000001_Node000005"><a xlink:title=" ">
<path fill="none" stroke="#63b8ff" d="M772.47,-183.32C667.9,-175.26 477.99,-158.65 305.37,-132.08"/>
<polygon fill="#63b8ff" stroke="#63b8ff" points="305.94,-128.63 295.52,-130.55 304.86,-135.54 305.94,-128.63"/>
</a>
</g>
</g>
<!-- Node6 -->
<g id="Node000006" class="node">
<title>Node6</title>
<g id="a_Node000006"><a xlink:title=" ">
<polygon fill="#e0e0e0" stroke="#999999" points="389.12,-132 312.38,-132 312.38,-112 389.12,-112 389.12,-132"/>
<text text-anchor="middle" x="350.75" y="-118.5" font-family="Helvetica,sans-Serif" font-size="10.00">QHBoxLayout</text>
</a>
</g>
</g>
<!-- Node1&#45;&gt;Node6 -->
<g id="edge5_Node000001_Node000006" class="edge">
<title>Node1&#45;&gt;Node6</title>
<g id="a_edge5_Node000001_Node000006"><a xlink:title=" ">
<path fill="none" stroke="#63b8ff" d="M772.39,-180.6C683.99,-170.89 536.61,-153.66 400.48,-132.35"/>
<polygon fill="#63b8ff" stroke="#63b8ff" points="401.36,-128.95 390.94,-130.85 400.27,-135.86 401.36,-128.95"/>
</a>
</g>
</g>
<!-- Node7 -->
<g id="Node000007" class="node">
<title>Node7</title>
<g id="a_Node000007"><a xlink:title=" ">
<polygon fill="#e0e0e0" stroke="#999999" points="448.5,-132 407,-132 407,-112 448.5,-112 448.5,-132"/>
<text text-anchor="middle" x="427.75" y="-118.5" font-family="Helvetica,sans-Serif" font-size="10.00">QIcon</text>
</a>
</g>
</g>
<!-- Node1&#45;&gt;Node7 -->
<g id="edge6_Node000001_Node000007" class="edge">
<title>Node1&#45;&gt;Node7</title>
<g id="a_edge6_Node000001_Node000007"><a xlink:title=" ">
<path fill="none" stroke="#63b8ff" d="M772.72,-179.92C693.83,-170.27 569.31,-153.44 462.75,-132 461.75,-131.8 460.74,-131.59 459.73,-131.37"/>
<polygon fill="#63b8ff" stroke="#63b8ff" points="460.77,-128.02 450.24,-129.14 459.17,-134.83 460.77,-128.02"/>
</a>
</g>
</g>
<!-- Node8 -->
<g id="Node000008" class="node">
<title>Node8</title>
<g id="a_Node000008"><a xlink:title=" ">
<polygon fill="#e0e0e0" stroke="#999999" points="565.62,-20 515.88,-20 515.88,0 565.62,0 565.62,-20"/>
<text text-anchor="middle" x="540.75" y="-6.5" font-family="Helvetica,sans-Serif" font-size="10.00">QImage</text>
</a>
</g>
</g>
<!-- Node1&#45;&gt;Node8 -->
<g id="edge7_Node000001_Node000008" class="edge">
<title>Node1&#45;&gt;Node8</title>
<g id="a_edge7_Node000001_Node000008"><a xlink:title=" ">
<path fill="none" stroke="#63b8ff" d="M772.38,-187.82C678.51,-184.54 530.57,-172.84 495.75,-132 469.59,-101.32 502.42,-54 524.25,-28.58"/>
<polygon fill="#63b8ff" stroke="#63b8ff" points="526.61,-31.2 530.66,-21.41 521.39,-26.54 526.61,-31.2"/>
</a>
</g>
</g>
<!-- Node9 -->
<g id="Node000009" class="node">
<title>Node9</title>
<g id="a_Node000009"><a xlink:title=" ">
<polygon fill="#e0e0e0" stroke="#999999" points="600.88,-132 504.62,-132 504.62,-112 600.88,-112 600.88,-132"/>
<text text-anchor="middle" x="552.75" y="-118.5" font-family="Helvetica,sans-Serif" font-size="10.00">QLoggingCategory</text>
</a>
</g>
</g>
<!-- Node1&#45;&gt;Node9 -->
<g id="edge8_Node000001_Node000009" class="edge">
<title>Node1&#45;&gt;Node9</title>
<g id="a_edge8_Node000001_Node000009"><a xlink:title=" ">
<path fill="none" stroke="#63b8ff" d="M772.41,-171.49C719.98,-159.91 652.67,-145.06 606.46,-134.86"/>
<polygon fill="#63b8ff" stroke="#63b8ff" points="607.48,-131.5 596.96,-132.76 605.97,-138.33 607.48,-131.5"/>
</a>
</g>
</g>
<!-- Node10 -->
<g id="Node000010" class="node">
<title>Node10</title>
<g id="a_Node000010"><a xlink:title=" ">
<polygon fill="#e0e0e0" stroke="#999999" points="688.88,-20 646.62,-20 646.62,0 688.88,0 688.88,-20"/>
<text text-anchor="middle" x="667.75" y="-6.5" font-family="Helvetica,sans-Serif" font-size="10.00">QMap</text>
</a>
</g>
</g>
<!-- Node1&#45;&gt;Node10 -->
<g id="edge9_Node000001_Node000010" class="edge">
<title>Node1&#45;&gt;Node10</title>
<g id="a_edge9_Node000001_Node000010"><a xlink:title=" ">
<path fill="none" stroke="#63b8ff" d="M772.66,-176.45C740.44,-168.15 704.54,-154.47 677.75,-132 649.92,-108.67 640.21,-91.52 647.75,-56 649.61,-47.23 653.3,-38.1 657.01,-30.38"/>
<polygon fill="#63b8ff" stroke="#63b8ff" points="660.06,-32.1 661.55,-21.61 653.84,-28.88 660.06,-32.1"/>
</a>
</g>
</g>
<!-- Node11 -->
<g id="Node000011" class="node">
<title>Node11</title>
<g id="a_Node000011"><a xlink:title=" ">
<polygon fill="#e0e0e0" stroke="#999999" points="851.5,-76 774,-76 774,-56 851.5,-56 851.5,-76"/>
<text text-anchor="middle" x="812.75" y="-62.5" font-family="Helvetica,sans-Serif" font-size="10.00">QMediaPlayer</text>
</a>
</g>
</g>
<!-- Node1&#45;&gt;Node11 -->
<g id="edge10_Node000001_Node000011" class="edge">
<title>Node1&#45;&gt;Node11</title>
<g id="a_edge10_Node000001_Node000011"><a xlink:title=" ">
<path fill="none" stroke="#63b8ff" d="M930.69,-183.52C1041.59,-174.31 1226.17,-152.6 1189.75,-112 1142.66,-59.5 950.66,-84.48 863.31,-76.13"/>
<polygon fill="#63b8ff" stroke="#63b8ff" points="863.8,-72.66 853.45,-74.93 862.96,-79.61 863.8,-72.66"/>
</a>
</g>
</g>
<!-- Node12 -->
<g id="Node000012" class="node">
<title>Node12</title>
<g id="a_Node000012"><a xlink:title=" ">
<polygon fill="#e0e0e0" stroke="#999999" points="775,-132 694.5,-132 694.5,-112 775,-112 775,-132"/>
<text text-anchor="middle" x="734.75" y="-118.5" font-family="Helvetica,sans-Serif" font-size="10.00">QMessageBox</text>
</a>
</g>
</g>
<!-- Node1&#45;&gt;Node12 -->
<g id="edge11_Node000001_Node000012" class="edge">
<title>Node1&#45;&gt;Node12</title>
<g id="a_edge11_Node000001_Node000012"><a xlink:title=" ">
<path fill="none" stroke="#63b8ff" d="M813.76,-167.57C796.63,-157.91 776.81,-146.73 761.31,-137.98"/>
<polygon fill="#63b8ff" stroke="#63b8ff" points="763.1,-134.97 752.67,-133.11 759.66,-141.07 763.1,-134.97"/>
</a>
</g>
</g>
<!-- Node13 -->
<g id="Node000013" class="node">
<title>Node13</title>
<g id="a_Node000013"><a xlink:title=" ">
<polygon fill="#e0e0e0" stroke="#999999" points="840.88,-132 792.62,-132 792.62,-112 840.88,-112 840.88,-132"/>
<text text-anchor="middle" x="816.75" y="-118.5" font-family="Helvetica,sans-Serif" font-size="10.00">QMovie</text>
</a>
</g>
</g>
<!-- Node1&#45;&gt;Node13 -->
<g id="edge12_Node000001_Node000013" class="edge">
<title>Node1&#45;&gt;Node13</title>
<g id="a_edge12_Node000001_Node000013"><a xlink:title=" ">
<path fill="none" stroke="#63b8ff" d="M840.48,-167.75C836.19,-159.66 831.32,-150.48 827.12,-142.55"/>
<polygon fill="#63b8ff" stroke="#63b8ff" points="830.23,-140.95 822.45,-133.76 824.05,-144.23 830.23,-140.95"/>
</a>
</g>
</g>
<!-- Node14 -->
<g id="Node000014" class="node">
<title>Node14</title>
<g id="a_Node000014"><a xlink:title=" ">
<polygon fill="#e0e0e0" stroke="#999999" points="915,-132 858.5,-132 858.5,-112 915,-112 915,-132"/>
<text text-anchor="middle" x="886.75" y="-118.5" font-family="Helvetica,sans-Serif" font-size="10.00">QPixmap</text>
</a>
</g>
</g>
<!-- Node1&#45;&gt;Node14 -->
<g id="edge13_Node000001_Node000014" class="edge">
<title>Node1&#45;&gt;Node14</title>
<g id="a_edge13_Node000001_Node000014"><a xlink:title=" ">
<path fill="none" stroke="#63b8ff" d="M863.02,-167.75C867.31,-159.66 872.18,-150.48 876.38,-142.55"/>
<polygon fill="#63b8ff" stroke="#63b8ff" points="879.45,-144.23 881.05,-133.76 873.27,-140.95 879.45,-144.23"/>
</a>
</g>
</g>
<!-- Node15 -->
<g id="Node000015" class="node">
<title>Node15</title>
<g id="a_Node000015"><a xlink:title=" ">
<polygon fill="#e0e0e0" stroke="#999999" points="992.5,-132 933,-132 933,-112 992.5,-112 992.5,-132"/>
<text text-anchor="middle" x="962.75" y="-118.5" font-family="Helvetica,sans-Serif" font-size="10.00">QSettings</text>
</a>
</g>
</g>
<!-- Node1&#45;&gt;Node15 -->
<g id="edge14_Node000001_Node000015" class="edge">
<title>Node1&#45;&gt;Node15</title>
<g id="a_edge14_Node000001_Node000015"><a xlink:title=" ">
<path fill="none" stroke="#63b8ff" d="M887.79,-167.57C903.89,-158 922.48,-146.94 937.13,-138.24"/>
<polygon fill="#63b8ff" stroke="#63b8ff" points="938.89,-141.26 945.7,-133.14 935.31,-135.24 938.89,-141.26"/>
</a>
</g>
</g>
<!-- Node16 -->
<g id="Node000016" class="node">
<title>Node16</title>
<g id="a_Node000016"><a xlink:title=" ">
<polygon fill="#e0e0e0" stroke="#999999" points="1098.75,-132 1010.75,-132 1010.75,-112 1098.75,-112 1098.75,-132"/>
<text text-anchor="middle" x="1054.75" y="-118.5" font-family="Helvetica,sans-Serif" font-size="10.00">QStandardPaths</text>
</a>
</g>
</g>
<!-- Node1&#45;&gt;Node16 -->
<g id="edge15_Node000001_Node000016" class="edge">
<title>Node1&#45;&gt;Node16</title>
<g id="a_edge15_Node000001_Node000016"><a xlink:title=" ">
<path fill="none" stroke="#63b8ff" d="M917.66,-167.57C949.71,-157.15 987.18,-144.97 1014.84,-135.97"/>
<polygon fill="#63b8ff" stroke="#63b8ff" points="1015.81,-139.34 1024.24,-132.92 1013.65,-132.68 1015.81,-139.34"/>
</a>
</g>
</g>
<!-- Node17 -->
<g id="Node000017" class="node">
<title>Node17</title>
<g id="a_Node000017"><a xlink:title=" ">
<polygon fill="#e0e0e0" stroke="#999999" points="1181.12,-132 1116.38,-132 1116.38,-112 1181.12,-112 1181.12,-132"/>
<text text-anchor="middle" x="1148.75" y="-118.5" font-family="Helvetica,sans-Serif" font-size="10.00">QStringList</text>
</a>
</g>
</g>
<!-- Node1&#45;&gt;Node17 -->
<g id="edge16_Node000001_Node000017" class="edge">
<title>Node1&#45;&gt;Node17</title>
<g id="a_edge16_Node000001_Node000017"><a xlink:title=" ">
<path fill="none" stroke="#63b8ff" d="M930.95,-171.4C986.71,-159.01 1059.28,-142.88 1104.95,-132.73"/>
<polygon fill="#63b8ff" stroke="#63b8ff" points="1105.48,-136.2 1114.48,-130.62 1103.96,-129.37 1105.48,-136.2"/>
</a>
</g>
</g>
<!-- Node18 -->
<g id="Node000018" class="node">
<title>Node18</title>
<g id="a_Node000018"><a xlink:title=" ">
<polygon fill="#e0e0e0" stroke="#999999" points="948.25,-76 869.25,-76 869.25,-56 948.25,-56 948.25,-76"/>
<text text-anchor="middle" x="908.75" y="-62.5" font-family="Helvetica,sans-Serif" font-size="10.00">QVideoWidget</text>
</a>
</g>
</g>
<!-- Node1&#45;&gt;Node18 -->
<g id="edge17_Node000001_Node000018" class="edge">
<title>Node1&#45;&gt;Node18</title>
<g id="a_edge17_Node000001_Node000018"><a xlink:title=" ">
<path fill="none" stroke="#63b8ff" d="M930.9,-187.78C1024.51,-184.48 1172.03,-172.74 1206.75,-132 1212.52,-125.23 1212.57,-118.72 1206.75,-112 1172.01,-71.9 1029.03,-83.64 959.78,-76.11"/>
<polygon fill="#63b8ff" stroke="#63b8ff" points="960.42,-72.66 950.04,-74.8 959.48,-79.6 960.42,-72.66"/>
</a>
</g>
</g>
<!-- Node19 -->
<g id="Node000019" class="node">
<title>Node19</title>
<g id="a_Node000019"><a xlink:href="_app_constants_8h.html" target="_top" xlink:title="Defines constants used throughout the application.">
<polygon fill="white" stroke="#666666" points="1697.62,-76 1611.88,-76 1611.88,-56 1697.62,-56 1697.62,-76"/>
<text text-anchor="middle" x="1654.75" y="-62.5" font-family="Helvetica,sans-Serif" font-size="10.00">AppConstants.h</text>
</a>
</g>
</g>
<!-- Node1&#45;&gt;Node19 -->
<g id="edge18_Node000001_Node000019" class="edge">
<title>Node1&#45;&gt;Node19</title>
<g id="a_edge18_Node000001_Node000019"><a xlink:title=" ">
<path fill="none" stroke="#63b8ff" d="M930.86,-185.84C1082.96,-179.18 1410.78,-161.8 1519.75,-132 1560.55,-120.84 1603.98,-97.64 1630.24,-82.19"/>
<polygon fill="#63b8ff" stroke="#63b8ff" points="1631.99,-85.22 1638.77,-77.08 1628.39,-79.22 1631.99,-85.22"/>
</a>
</g>
</g>
<!-- Node21 -->
<g id="Node000021" class="node">
<title>Node21</title>
<g id="a_Node000021"><a xlink:href="_image_editor_g_u_i_8h.html" target="_top" xlink:title="Defines the ImageEditorGUI class for editing files.">
<polygon fill="white" stroke="#666666" points="1367,-132 1274.5,-132 1274.5,-112 1367,-112 1367,-132"/>
<text text-anchor="middle" x="1320.75" y="-118.5" font-family="Helvetica,sans-Serif" font-size="10.00">ImageEditorGUI.h</text>
</a>
</g>
</g>
<!-- Node1&#45;&gt;Node21 -->
<g id="edge20_Node000001_Node000021" class="edge">
<title>Node1&#45;&gt;Node21</title>
<g id="a_edge20_Node000001_Node000021"><a xlink:title=" ">
<path fill="none" stroke="#63b8ff" d="M930.96,-178.21C1013.37,-166.92 1146.16,-148.58 1260.75,-132 1261.57,-131.88 1262.4,-131.76 1263.23,-131.64"/>
<polygon fill="#63b8ff" stroke="#63b8ff" points="1263.36,-135.16 1272.75,-130.24 1262.34,-128.23 1263.36,-135.16"/>
</a>
</g>
</g>
<!-- Node27 -->
<g id="Node000027" class="node">
<title>Node27</title>
<g id="a_Node000027"><a xlink:href="_meta_data_handler_8h.html" target="_top" xlink:title="Handles reading and writing metadata.">
<polygon fill="white" stroke="#666666" points="756.38,-76 657.12,-76 657.12,-56 756.38,-56 756.38,-76"/>
<text text-anchor="middle" x="706.75" y="-62.5" font-family="Helvetica,sans-Serif" font-size="10.00">MetaDataHandler.h</text>
</a>
</g>
</g>
<!-- Node1&#45;&gt;Node27 -->
<g id="edge36_Node000001_Node000027" class="edge">
<title>Node1&#45;&gt;Node27</title>
<g id="a_edge36_Node000001_Node000027"><a xlink:title=" ">
<path fill="none" stroke="#63b8ff" d="M772.52,-181.65C740.14,-174.29 705.67,-159.9 685.75,-132 675.77,-118.02 683.81,-99.05 692.67,-85.21"/>
<polygon fill="#63b8ff" stroke="#63b8ff" points="695.25,-87.62 698.15,-77.43 689.53,-83.59 695.25,-87.62"/>
</a>
</g>
</g>
<!-- Node28 -->
<g id="Node000028" class="node">
<title>Node28</title>
<g id="a_Node000028"><a xlink:href="_tag_text_edit_8h.html" target="_top" xlink:title="Defines the TagTextEdit class for handling key press events.">
<polygon fill="white" stroke="#666666" points="1593.75,-76 1517.75,-76 1517.75,-56 1593.75,-56 1593.75,-76"/>
<text text-anchor="middle" x="1555.75" y="-62.5" font-family="Helvetica,sans-Serif" font-size="10.00">TagTextEdit.h</text>
</a>
</g>
</g>
<!-- Node1&#45;&gt;Node28 -->
<g id="edge40_Node000001_Node000028" class="edge">
<title>Node1&#45;&gt;Node28</title>
<g id="a_edge40_Node000001_Node000028"><a xlink:title=" ">
<path fill="none" stroke="#63b8ff" d="M931.11,-188.61C1079.63,-186.79 1393.38,-177.51 1490.75,-132 1512.81,-121.69 1531.66,-100.58 1543.3,-85.21"/>
<polygon fill="#63b8ff" stroke="#63b8ff" points="1545.97,-87.49 1548.97,-77.33 1540.29,-83.4 1545.97,-87.49"/>
</a>
</g>
</g>
<!-- Node31 -->
<g id="Node000031" class="node">
<title>Node31</title>
<g id="a_Node000031"><a xlink:href="_styles_8h.html" target="_top" xlink:title="Defines the function for loading and applying a stylesheet to a QApplication.">
<polygon fill="white" stroke="#666666" points="1751.75,-132 1699.75,-132 1699.75,-112 1751.75,-112 1751.75,-132"/>
<text text-anchor="middle" x="1725.75" y="-118.5" font-family="Helvetica,sans-Serif" font-size="10.00">Styles.h</text>
</a>
</g>
</g>
<!-- Node1&#45;&gt;Node31 -->
<g id="edge37_Node000001_Node000031" class="edge">
<title>Node1&#45;&gt;Node31</title>
<g id="a_edge37_Node000001_Node000031"><a xlink:title=" ">
<path fill="none" stroke="#63b8ff" d="M930.85,-184.08C1072.76,-175.07 1379.98,-154.75 1638.75,-132 1655.02,-130.57 1672.98,-128.75 1688.34,-127.13"/>
<polygon fill="#63b8ff" stroke="#63b8ff" points="1688.43,-130.64 1698,-126.09 1687.68,-123.68 1688.43,-130.64"/>
</a>
</g>
</g>
<!-- Node33 -->
<g id="Node000033" class="node">
<title>Node33</title>
<g id="a_Node000033"><a xlink:href="_tag_widget_8h.html" target="_top" xlink:title="Defines the TagWidget class, a widget for displaying and editing tags.">
<polygon fill="white" stroke="#666666" points="1482.12,-132 1411.38,-132 1411.38,-112 1482.12,-112 1482.12,-132"/>
<text text-anchor="middle" x="1446.75" y="-118.5" font-family="Helvetica,sans-Serif" font-size="10.00">TagWidget.h</text>
</a>
</g>
</g>
<!-- Node1&#45;&gt;Node33 -->
<g id="edge41_Node000001_Node000033" class="edge">
<title>Node1&#45;&gt;Node33</title>
<g id="a_edge41_Node000001_Node000033"><a xlink:title=" ">
<path fill="none" stroke="#63b8ff" d="M930.81,-180.84C1033.44,-170.15 1218.07,-150.57 1375.75,-132 1383.46,-131.09 1391.64,-130.09 1399.59,-129.1"/>
<polygon fill="#63b8ff" stroke="#63b8ff" points="1400.02,-132.57 1409.51,-127.85 1399.15,-125.63 1400.02,-132.57"/>
</a>
</g>
</g>
<!-- Node34 -->
<g id="Node000034" class="node">
<title>Node34</title>
<g id="a_Node000034"><a xlink:href="_logger_8h.html" target="_top" xlink:title="Defines the Logger class and convenience functions for logging.">
<polygon fill="white" stroke="#666666" points="1924.5,-132 1871,-132 1871,-112 1924.5,-112 1924.5,-132"/>
<text text-anchor="middle" x="1897.75" y="-118.5" font-family="Helvetica,sans-Serif" font-size="10.00">Logger.h</text>
</a>
</g>
</g>
<!-- Node1&#45;&gt;Node34 -->
<g id="edge45_Node000001_Node000034" class="edge">
<title>Node1&#45;&gt;Node34</title>
<g id="a_edge45_Node000001_Node000034"><a xlink:title=" ">
<path fill="none" stroke="#63b8ff" d="M931.09,-184.1C1089.04,-174.34 1454.03,-151.69 1760.75,-132 1794.01,-129.86 1831.8,-127.38 1859.26,-125.56"/>
<polygon fill="#63b8ff" stroke="#63b8ff" points="1859.46,-129.05 1869.21,-124.9 1859,-122.07 1859.46,-129.05"/>
</a>
</g>
</g>
<!-- Node20 -->
<g id="Node000020" class="node">
<title>Node20</title>
<g id="a_Node000020"><a xlink:title=" ">
<polygon fill="#e0e0e0" stroke="#999999" points="1429.25,-20 1380.25,-20 1380.25,0 1429.25,0 1429.25,-20"/>
<text text-anchor="middle" x="1404.75" y="-6.5" font-family="Helvetica,sans-Serif" font-size="10.00">QString</text>
</a>
</g>
</g>
<!-- Node19&#45;&gt;Node20 -->
<g id="edge19_Node000019_Node000020" class="edge">
<title>Node19&#45;&gt;Node20</title>
<g id="a_edge19_Node000019_Node000020"><a xlink:title=" ">
<path fill="none" stroke="#63b8ff" d="M1611.49,-55.66C1563.15,-45.21 1485.77,-28.5 1440.65,-18.75"/>
<polygon fill="#63b8ff" stroke="#63b8ff" points="1441.63,-15.39 1431.12,-16.7 1440.15,-22.23 1441.63,-15.39"/>
</a>
</g>
</g>
<!-- Node21&#45;&gt;Node11 -->
<g id="edge22_Node000021_Node000011" class="edge">
<title>Node21&#45;&gt;Node11</title>
<g id="a_edge22_Node000021_Node000011"><a xlink:title=" ">
<path fill="none" stroke="#63b8ff" d="M1274.04,-116.69C1171.64,-107.2 931.56,-84.76 862.98,-76.25"/>
<polygon fill="#63b8ff" stroke="#63b8ff" points="863.82,-72.83 853.44,-74.98 862.9,-79.77 863.82,-72.83"/>
</a>
</g>
</g>
<!-- Node21&#45;&gt;Node18 -->
<g id="edge27_Node000021_Node000018" class="edge">
<title>Node21&#45;&gt;Node18</title>
<g id="a_edge27_Node000021_Node000018"><a xlink:title=" ">
<path fill="none" stroke="#63b8ff" d="M1274.26,-113.88C1269.7,-113.23 1265.13,-112.59 1260.75,-112 1129.46,-94.38 1093.14,-96.42 959.59,-76.35"/>
<polygon fill="#63b8ff" stroke="#63b8ff" points="960.44,-72.94 950.02,-74.9 959.39,-79.86 960.44,-72.94"/>
</a>
</g>
</g>
<!-- Node21&#45;&gt;Node20 -->
<g id="edge25_Node000021_Node000020" class="edge">
<title>Node21&#45;&gt;Node20</title>
<g id="a_edge25_Node000021_Node000020"><a xlink:title=" ">
<path fill="none" stroke="#63b8ff" d="M1322.42,-111.81C1325.2,-98.44 1331.81,-73.36 1344.75,-56 1353.54,-44.21 1366.25,-34.07 1377.71,-26.41"/>
<polygon fill="#63b8ff" stroke="#63b8ff" points="1379.46,-29.44 1386.05,-21.15 1375.72,-23.52 1379.46,-29.44"/>
</a>
</g>
</g>
<!-- Node22 -->
<g id="Node000022" class="node">
<title>Node22</title>
<g id="a_Node000022"><a xlink:title=" ">
<polygon fill="#e0e0e0" stroke="#999999" points="1116.12,-76 1069.38,-76 1069.38,-56 1116.12,-56 1116.12,-76"/>
<text text-anchor="middle" x="1092.75" y="-62.5" font-family="Helvetica,sans-Serif" font-size="10.00">QLabel</text>
</a>
</g>
</g>
<!-- Node21&#45;&gt;Node22 -->
<g id="edge21_Node000021_Node000022" class="edge">
<title>Node21&#45;&gt;Node22</title>
<g id="a_edge21_Node000021_Node000022"><a xlink:title=" ">
<path fill="none" stroke="#63b8ff" d="M1277.65,-111.57C1240.45,-103.31 1185.03,-90.74 1127.63,-76.4"/>
<polygon fill="#63b8ff" stroke="#63b8ff" points="1128.53,-73.01 1117.98,-73.97 1126.83,-79.8 1128.53,-73.01"/>
</a>
</g>
</g>
<!-- Node23 -->
<g id="Node000023" class="node">
<title>Node23</title>
<g id="a_Node000023"><a xlink:title=" ">
<polygon fill="#e0e0e0" stroke="#999999" points="1428,-76 1353.5,-76 1353.5,-56 1428,-56 1428,-76"/>
<text text-anchor="middle" x="1390.75" y="-62.5" font-family="Helvetica,sans-Serif" font-size="10.00">QPushButton</text>
</a>
</g>
</g>
<!-- Node21&#45;&gt;Node23 -->
<g id="edge23_Node000021_Node000023" class="edge">
<title>Node21&#45;&gt;Node23</title>
<g id="a_edge23_Node000021_Node000023"><a xlink:title=" ">
<path fill="none" stroke="#63b8ff" d="M1332.94,-111.59C1343.08,-103.77 1357.74,-92.46 1369.76,-83.19"/>
<polygon fill="#63b8ff" stroke="#63b8ff" points="1371.72,-86.1 1377.5,-77.22 1367.44,-80.56 1371.72,-86.1"/>
</a>
</g>
</g>
<!-- Node24 -->
<g id="Node000024" class="node">
<title>Node24</title>
<g id="a_Node000024"><a xlink:title=" ">
<polygon fill="#e0e0e0" stroke="#999999" points="1203,-76 1134.5,-76 1134.5,-56 1203,-56 1203,-76"/>
<text text-anchor="middle" x="1168.75" y="-62.5" font-family="Helvetica,sans-Serif" font-size="10.00">QScrollArea</text>
</a>
</g>
</g>
<!-- Node21&#45;&gt;Node24 -->
<g id="edge24_Node000021_Node000024" class="edge">
<title>Node21&#45;&gt;Node24</title>
<g id="a_edge24_Node000021_Node000024"><a xlink:title=" ">
<path fill="none" stroke="#63b8ff" d="M1294.27,-111.59C1269.9,-102.94 1233.5,-90 1206.16,-80.29"/>
<polygon fill="#63b8ff" stroke="#63b8ff" points="1207.45,-77.04 1196.86,-76.99 1205.11,-83.63 1207.45,-77.04"/>
</a>
</g>
</g>
<!-- Node25 -->
<g id="Node000025" class="node">
<title>Node25</title>
<g id="a_Node000025"><a xlink:title=" ">
<polygon fill="#e0e0e0" stroke="#999999" points="1298.12,-76 1221.38,-76 1221.38,-56 1298.12,-56 1298.12,-76"/>
<text text-anchor="middle" x="1259.75" y="-62.5" font-family="Helvetica,sans-Serif" font-size="10.00">QVBoxLayout</text>
</a>
</g>
</g>
<!-- Node21&#45;&gt;Node25 -->
<g id="edge26_Node000021_Node000025" class="edge">
<title>Node21&#45;&gt;Node25</title>
<g id="a_edge26_Node000021_Node000025"><a xlink:title=" ">
<path fill="none" stroke="#63b8ff" d="M1310.12,-111.59C1301.47,-103.93 1289.02,-92.91 1278.67,-83.75"/>
<polygon fill="#63b8ff" stroke="#63b8ff" points="1281.19,-81.31 1271.39,-77.3 1276.55,-86.55 1281.19,-81.31"/>
</a>
</g>
</g>
<!-- Node26 -->
<g id="Node000026" class="node">
<title>Node26</title>
<g id="a_Node000026"><a xlink:title=" ">
<polygon fill="#e0e0e0" stroke="#999999" points="1499.88,-76 1445.62,-76 1445.62,-56 1499.88,-56 1499.88,-76"/>
<text text-anchor="middle" x="1472.75" y="-62.5" font-family="Helvetica,sans-Serif" font-size="10.00">QWidget</text>
</a>
</g>
</g>
<!-- Node21&#45;&gt;Node26 -->
<g id="edge28_Node000021_Node000026" class="edge">
<title>Node21&#45;&gt;Node26</title>
<g id="a_edge28_Node000021_Node000026"><a xlink:title=" ">
<path fill="none" stroke="#63b8ff" d="M1347.23,-111.59C1371.6,-102.94 1408,-90 1435.34,-80.29"/>
<polygon fill="#63b8ff" stroke="#63b8ff" points="1436.39,-83.63 1444.64,-76.99 1434.05,-77.04 1436.39,-83.63"/>
</a>
</g>
</g>
<!-- Node21&#45;&gt;Node27 -->
<g id="edge29_Node000021_Node000027" class="edge">
<title>Node21&#45;&gt;Node27</title>
<g id="a_edge29_Node000021_Node000027"><a xlink:title=" ">
<path fill="none" stroke="#63b8ff" d="M1274.24,-117.68C1162.94,-109.66 882.55,-89.03 767.92,-76.27"/>
<polygon fill="#63b8ff" stroke="#63b8ff" points="768.54,-72.82 758.21,-75.16 767.75,-79.78 768.54,-72.82"/>
</a>
</g>
</g>
<!-- Node21&#45;&gt;Node28 -->
<g id="edge33_Node000021_Node000028" class="edge">
<title>Node21&#45;&gt;Node28</title>
<g id="a_edge33_Node000021_Node000028"><a xlink:title=" ">
<path fill="none" stroke="#63b8ff" d="M1361.95,-111.53C1402.19,-102.29 1463.46,-88.21 1506.31,-78.36"/>
<polygon fill="#63b8ff" stroke="#63b8ff" points="1506.89,-81.82 1515.85,-76.17 1505.32,-75 1506.89,-81.82"/>
</a>
</g>
</g>
<!-- Node30 -->
<g id="Node000030" class="node">
<title>Node30</title>
<g id="a_Node000030"><a xlink:title=" ">
<polygon fill="#e0e0e0" stroke="#999999" points="1051.25,-76 966.25,-76 966.25,-56 1051.25,-56 1051.25,-76"/>
<text text-anchor="middle" x="1008.75" y="-62.5" font-family="Helvetica,sans-Serif" font-size="10.00">QTemporaryFile</text>
</a>
</g>
</g>
<!-- Node21&#45;&gt;Node30 -->
<g id="edge35_Node000021_Node000030" class="edge">
<title>Node21&#45;&gt;Node30</title>
<g id="a_edge35_Node000021_Node000030"><a xlink:title=" ">
<path fill="none" stroke="#63b8ff" d="M1274.04,-112.92C1217.35,-103.1 1121.95,-86.59 1062.33,-76.27"/>
<polygon fill="#63b8ff" stroke="#63b8ff" points="1063.2,-72.87 1052.75,-74.62 1062.01,-79.77 1063.2,-72.87"/>
</a>
</g>
</g>
<!-- Node27&#45;&gt;Node8 -->
<g id="edge32_Node000027_Node000008" class="edge">
<title>Node27&#45;&gt;Node8</title>
<g id="a_edge32_Node000027_Node000008"><a xlink:title=" ">
<path fill="none" stroke="#63b8ff" d="M677.84,-55.59C649.83,-46.48 607.27,-32.64 577.01,-22.8"/>
<polygon fill="#63b8ff" stroke="#63b8ff" points="578.11,-19.47 567.51,-19.71 575.94,-26.13 578.11,-19.47"/>
</a>
</g>
</g>
<!-- Node27&#45;&gt;Node10 -->
<g id="edge30_Node000027_Node000010" class="edge">
<title>Node27&#45;&gt;Node10</title>
<g id="a_edge30_Node000027_Node000010"><a xlink:title=" ">
<path fill="none" stroke="#63b8ff" d="M699.96,-55.59C694.76,-48.39 687.42,-38.23 681.06,-29.43"/>
<polygon fill="#63b8ff" stroke="#63b8ff" points="684.04,-27.58 675.35,-21.53 678.37,-31.68 684.04,-27.58"/>
</a>
</g>
</g>
<!-- Node27&#45;&gt;Node20 -->
<g id="edge31_Node000027_Node000020" class="edge">
<title>Node27&#45;&gt;Node20</title>
<g id="a_edge31_Node000027_Node000020"><a xlink:title=" ">
<path fill="none" stroke="#63b8ff" d="M756.7,-56.98C759.42,-56.63 762.12,-56.3 764.75,-56 993.99,-30.2 1271.21,-16.69 1368.72,-12.47"/>
<polygon fill="#63b8ff" stroke="#63b8ff" points="1368.62,-15.98 1378.46,-12.06 1368.32,-8.99 1368.62,-15.98"/>
</a>
</g>
</g>
<!-- Node29 -->
<g id="Node000029" class="node">
<title>Node29</title>
<g id="a_Node000029"><a xlink:title=" ">
<polygon fill="#e0e0e0" stroke="#999999" points="1585.5,-20 1526,-20 1526,0 1585.5,0 1585.5,-20"/>
<text text-anchor="middle" x="1555.75" y="-6.5" font-family="Helvetica,sans-Serif" font-size="10.00">QTextEdit</text>
</a>
</g>
</g>
<!-- Node28&#45;&gt;Node29 -->
<g id="edge34_Node000028_Node000029" class="edge">
<title>Node28&#45;&gt;Node29</title>
<g id="a_edge34_Node000028_Node000029"><a xlink:title=" ">
<path fill="none" stroke="#63b8ff" d="M1555.75,-55.59C1555.75,-49.01 1555.75,-39.96 1555.75,-31.73"/>
<polygon fill="#63b8ff" stroke="#63b8ff" points="1559.25,-31.81 1555.75,-21.81 1552.25,-31.81 1559.25,-31.81"/>
</a>
</g>
</g>
<!-- Node31&#45;&gt;Node20 -->
<g id="edge39_Node000031_Node000020" class="edge">
<title>Node31&#45;&gt;Node20</title>
<g id="a_edge39_Node000031_Node000020"><a xlink:title=" ">
<path fill="none" stroke="#63b8ff" d="M1725.96,-111.84C1725.74,-97.58 1723.05,-70.22 1706.75,-56 1686.94,-38.72 1516.47,-21.2 1440.74,-14.19"/>
<polygon fill="#63b8ff" stroke="#63b8ff" points="1441.22,-10.72 1430.95,-13.29 1440.59,-17.69 1441.22,-10.72"/>
</a>
</g>
</g>
<!-- Node32 -->
<g id="Node000032" class="node">
<title>Node32</title>
<g id="a_Node000032"><a xlink:title=" ">
<polygon fill="#e0e0e0" stroke="#999999" points="1825.5,-76 1754,-76 1754,-56 1825.5,-56 1825.5,-76"/>
<text text-anchor="middle" x="1789.75" y="-62.5" font-family="Helvetica,sans-Serif" font-size="10.00">QApplication</text>
</a>
</g>
</g>
<!-- Node31&#45;&gt;Node32 -->
<g id="edge38_Node000031_Node000032" class="edge">
<title>Node31&#45;&gt;Node32</title>
<g id="a_edge38_Node000031_Node000032"><a xlink:title=" ">
<path fill="none" stroke="#63b8ff" d="M1736.9,-111.59C1746.08,-103.85 1759.3,-92.69 1770.23,-83.47"/>
<polygon fill="#63b8ff" stroke="#63b8ff" points="1772.19,-86.4 1777.57,-77.27 1767.67,-81.05 1772.19,-86.4"/>
</a>
</g>
</g>
<!-- Node33&#45;&gt;Node23 -->
<g id="edge43_Node000033_Node000023" class="edge">
<title>Node33&#45;&gt;Node23</title>
<g id="a_edge43_Node000033_Node000023"><a xlink:title=" ">
<path fill="none" stroke="#63b8ff" d="M1437,-111.59C1429.13,-104.01 1417.85,-93.13 1408.4,-84.02"/>
<polygon fill="#63b8ff" stroke="#63b8ff" points="1411.11,-81.77 1401.48,-77.35 1406.25,-86.81 1411.11,-81.77"/>
</a>
</g>
</g>
<!-- Node33&#45;&gt;Node26 -->
<g id="edge42_Node000033_Node000026" class="edge">
<title>Node33&#45;&gt;Node26</title>
<g id="a_edge42_Node000033_Node000026"><a xlink:title=" ">
<path fill="none" stroke="#63b8ff" d="M1451.28,-111.59C1454.6,-104.7 1459.22,-95.1 1463.33,-86.57"/>
<polygon fill="#63b8ff" stroke="#63b8ff" points="1466.43,-88.19 1467.62,-77.66 1460.12,-85.15 1466.43,-88.19"/>
</a>
</g>
</g>
<!-- Node33&#45;&gt;Node28 -->
<g id="edge44_Node000033_Node000028" class="edge">
<title>Node33&#45;&gt;Node28</title>
<g id="a_edge44_Node000033_Node000028"><a xlink:title=" ">
<path fill="none" stroke="#63b8ff" d="M1465.74,-111.59C1482.51,-103.28 1507.24,-91.03 1526.54,-81.47"/>
<polygon fill="#63b8ff" stroke="#63b8ff" points="1527.85,-84.73 1535.26,-77.15 1524.74,-78.45 1527.85,-84.73"/>
</a>
</g>
</g>
<!-- Node35 -->
<g id="Node000035" class="node">
<title>Node35</title>
<g id="a_Node000035"><a xlink:title=" ">
<polygon fill="#e0e0e0" stroke="#999999" points="1883.75,-76 1843.75,-76 1843.75,-56 1883.75,-56 1883.75,-76"/>
<text text-anchor="middle" x="1863.75" y="-62.5" font-family="Helvetica,sans-Serif" font-size="10.00">string</text>
</a>
</g>
</g>
<!-- Node34&#45;&gt;Node35 -->
<g id="edge46_Node000034_Node000035" class="edge">
<title>Node34&#45;&gt;Node35</title>
<g id="a_edge46_Node000034_Node000035"><a xlink:title=" ">
<path fill="none" stroke="#63b8ff" d="M1891.83,-111.59C1887.39,-104.55 1881.17,-94.67 1875.71,-86"/>
<polygon fill="#63b8ff" stroke="#63b8ff" points="1878.7,-84.18 1870.41,-77.58 1872.78,-87.91 1878.7,-84.18"/>
</a>
</g>
</g>
<!-- Node36 -->
<g id="Node000036" class="node">
<title>Node36</title>
<g id="a_Node000036"><a xlink:title=" ">
<polygon fill="#e0e0e0" stroke="#999999" points="1961.88,-76 1901.62,-76 1901.62,-56 1961.88,-56 1961.88,-76"/>
<text text-anchor="middle" x="1931.75" y="-62.5" font-family="Helvetica,sans-Serif" font-size="10.00">filesystem</text>
</a>
</g>
</g>
<!-- Node34&#45;&gt;Node36 -->
<g id="edge47_Node000034_Node000036" class="edge">
<title>Node34&#45;&gt;Node36</title>
<g id="a_edge47_Node000034_Node000036"><a xlink:title=" ">
<path fill="none" stroke="#63b8ff" d="M1903.67,-111.59C1908.11,-104.55 1914.33,-94.67 1919.79,-86"/>
<polygon fill="#63b8ff" stroke="#63b8ff" points="1922.72,-87.91 1925.09,-77.58 1916.8,-84.18 1922.72,-87.91"/>
</a>
</g>
</g>
<!-- Node37 -->
<g id="Node000037" class="node">
<title>Node37</title>
<g id="a_Node000037"><a xlink:title=" ">
<polygon fill="#e0e0e0" stroke="#999999" points="2033.5,-76 1980,-76 1980,-56 2033.5,-56 2033.5,-76"/>
<text text-anchor="middle" x="2006.75" y="-62.5" font-family="Helvetica,sans-Serif" font-size="10.00">iostream</text>
</a>
</g>
</g>
<!-- Node34&#45;&gt;Node37 -->
<g id="edge48_Node000034_Node000037" class="edge">
<title>Node34&#45;&gt;Node37</title>
<g id="a_edge48_Node000034_Node000037"><a xlink:title=" ">
<path fill="none" stroke="#63b8ff" d="M1916.74,-111.59C1933.51,-103.28 1958.24,-91.03 1977.54,-81.47"/>
<polygon fill="#63b8ff" stroke="#63b8ff" points="1978.85,-84.73 1986.26,-77.15 1975.74,-78.45 1978.85,-84.73"/>
</a>
</g>
</g>
</g>
</svg>
