<?xml version="1.0" encoding="UTF-8" standalone="no"?>
<!DOCTYPE svg PUBLIC "-//W3C//DTD SVG 1.1//EN"
 "http://www.w3.org/Graphics/SVG/1.1/DTD/svg11.dtd">
<!-- Generated by graphviz version 10.0.1 (20240210.2158)
 -->
<!-- Title: C:/Users/Muddyblack/Downloads/MetaDataEditorCpp/src/app/src/ImageEditorGUI.cpp Pages: 1 -->
<!--zoomable 220 -->

<svg id="main" version="1.1" xmlns="http://www.w3.org/2000/svg" xmlns:xlink="http://www.w3.org/1999/xlink" xml:space="preserve" onload="init(evt)">
<style type="text/css"><![CDATA[
.node, .edge {opacity: 0.7;}
.node.selected, .edge.selected {opacity: 1;}
.edge:hover path { stroke: red; }
.edge:hover polygon { stroke: red; fill: red; }
]]></style>

<defs>
  <circle id="rim" cx="0" cy="0" r="7"/>
  <circle id="rim2" cx="0" cy="0" r="3.5"/>
  <g id="zoomPlus">
    <use xlink:href="#rim" fill="#404040"><set attributeName="fill" to="#808080" begin="zoomplus.mouseover" end="zoomplus.mouseout"/></use>
    <path d="M-4,0h8M0,-4v8" fill="none" stroke="white" stroke-width="1.5" pointer-events="none"/>
  </g>
  <g id="zoomMin">
    <use xlink:href="#rim" fill="#404040"><set attributeName="fill" to="#808080" begin="zoomminus.mouseover" end="zoomminus.mouseout"/></use>
    <path d="M-4,0h8" fill="none" stroke="white" stroke-width="1.5" pointer-events="none"/>
  </g>
  <g id="arrowUp" transform="translate(30 24)">
    <use xlink:href="#rim"/>
    <path pointer-events="none" fill="none" stroke="white" stroke-width="1.5" d="M0,-3.0v7 M-2.5,-0.5L0,-3.0L2.5,-0.5"/>
  </g>
  <g id="arrowRight" transform="rotate(90) translate(36 -43)">
    <use xlink:href="#rim"/>
    <path pointer-events="none" fill="none" stroke="white" stroke-width="1.5" d="M0,-3.0v7 M-2.5,-0.5L0,-3.0L2.5,-0.5"/>
  </g>
  <g id="arrowDown" transform="rotate(180) translate(-30 -48)">
    <use xlink:href="#rim"/>
    <path pointer-events="none" fill="none" stroke="white" stroke-width="1.5" d="M0,-3.0v7 M-2.5,-0.5L0,-3.0L2.5,-0.5"/>
  </g>
  <g id="arrowLeft" transform="rotate(270) translate(-36 17)">
    <use xlink:href="#rim"/>
    <path pointer-events="none" fill="none" stroke="white" stroke-width="1.5" d="M0,-3.0v7 M-2.5,-0.5L0,-3.0L2.5,-0.5"/>
  </g>
  <g id="resetDef">
    <use xlink:href="#rim2" fill="#404040"><set attributeName="fill" to="#808080" begin="reset.mouseover" end="reset.mouseout"/></use>
  </g>
</defs>
<script type="application/ecmascript">
var viewWidth = 1862;
var viewHeight = 220;
var sectionId = 'dynsection-0';
</script>
<script type="application/ecmascript" xlink:href="svg.min.js"/>
<svg id="graph" class="graph">
<g id="viewport">
<title>C:/Users/Muddyblack/Downloads/MetaDataEditorCpp/src/app/src/ImageEditorGUI.cpp</title>
<!-- Node1 -->
<g id="Node000001" class="node">
<title>Node1</title>
<g id="a_Node000001"><a xlink:title=" ">
<polygon fill="#999999" stroke="#666666" points="895.62,-212 737.88,-212 737.88,-168 895.62,-168 895.62,-212"/>
<text text-anchor="start" x="745.88" y="-198.5" font-family="Helvetica,sans-Serif" font-size="10.00">C:/Users/Muddyblack</text>
<text text-anchor="start" x="745.88" y="-186.5" font-family="Helvetica,sans-Serif" font-size="10.00">/Downloads/MetaDataEditorCpp</text>
<text text-anchor="middle" x="816.75" y="-174.5" font-family="Helvetica,sans-Serif" font-size="10.00">/src/app/src/ImageEditorGUI.cpp</text>
</a>
</g>
</g>
<!-- Node2 -->
<g id="Node000002" class="node">
<title>Node2</title>
<g id="a_Node000002"><a xlink:title=" ">
<polygon fill="#e0e0e0" stroke="#999999" points="77.5,-132 0,-132 0,-112 77.5,-112 77.5,-132"/>
<text text-anchor="middle" x="38.75" y="-118.5" font-family="Helvetica,sans-Serif" font-size="10.00">QAudioOutput</text>
</a>
</g>
</g>
<!-- Node1&#45;&gt;Node2 -->
<g id="edge1_Node000001_Node000002" class="edge">
<title>Node1&#45;&gt;Node2</title>
<g id="a_edge1_Node000001_Node000002"><a xlink:title=" ">
<path fill="none" stroke="#63b8ff" d="M737.6,-185.61C605.34,-179.33 330.88,-163.69 89.11,-132.18"/>
<polygon fill="#63b8ff" stroke="#63b8ff" points="89.86,-128.74 79.49,-130.91 88.95,-135.68 89.86,-128.74"/>
</a>
</g>
</g>
<!-- Node3 -->
<g id="Node000003" class="node">
<title>Node3</title>
<g id="a_Node000003"><a xlink:title=" ">
<polygon fill="#e0e0e0" stroke="#999999" points="139.62,-132 95.88,-132 95.88,-112 139.62,-112 139.62,-132"/>
<text text-anchor="middle" x="117.75" y="-118.5" font-family="Helvetica,sans-Serif" font-size="10.00">QDate</text>
</a>
</g>
</g>
<!-- Node1&#45;&gt;Node3 -->
<g id="edge2_Node000001_Node000003" class="edge">
<title>Node1&#45;&gt;Node3</title>
<g id="a_edge2_Node000001_Node000003"><a xlink:title=" ">
<path fill="none" stroke="#63b8ff" d="M737.41,-187.28C613.74,-183.5 367.62,-171.52 151.23,-132.1"/>
<polygon fill="#63b8ff" stroke="#63b8ff" points="151.93,-128.67 141.46,-130.3 150.66,-135.56 151.93,-128.67"/>
</a>
</g>
</g>
<!-- Node4 -->
<g id="Node000004" class="node">
<title>Node4</title>
<g id="a_Node000004"><a xlink:title=" ">
<polygon fill="#e0e0e0" stroke="#999999" points="209.38,-132 158.12,-132 158.12,-112 209.38,-112 209.38,-132"/>
<text text-anchor="middle" x="183.75" y="-118.5" font-family="Helvetica,sans-Serif" font-size="10.00">QDebug</text>
</a>
</g>
</g>
<!-- Node1&#45;&gt;Node4 -->
<g id="edge3_Node000001_Node000004" class="edge">
<title>Node1&#45;&gt;Node4</title>
<g id="a_edge3_Node000001_Node000004"><a xlink:title=" ">
<path fill="none" stroke="#63b8ff" d="M737.38,-185.4C624.53,-179.4 411.21,-164.82 220.71,-132.07"/>
<polygon fill="#63b8ff" stroke="#63b8ff" points="221.59,-128.67 211.14,-130.4 220.39,-135.56 221.59,-128.67"/>
</a>
</g>
</g>
<!-- Node5 -->
<g id="Node000005" class="node">
<title>Node5</title>
<g id="a_Node000005"><a xlink:title=" ">
<polygon fill="#e0e0e0" stroke="#999999" points="293.88,-132 227.62,-132 227.62,-112 293.88,-112 293.88,-132"/>
<text text-anchor="middle" x="260.75" y="-118.5" font-family="Helvetica,sans-Serif" font-size="10.00">QFileDialog</text>
</a>
</g>
</g>
<!-- Node1&#45;&gt;Node5 -->
<g id="edge4_Node000001_Node000005" class="edge">
<title>Node1&#45;&gt;Node5</title>
<g id="a_edge4_Node000001_Node000005"><a xlink:title=" ">
<path fill="none" stroke="#63b8ff" d="M737.78,-182.59C639.04,-174.04 464.67,-157.21 305.01,-132.04"/>
<polygon fill="#63b8ff" stroke="#63b8ff" points="305.95,-128.65 295.52,-130.53 304.85,-135.56 305.95,-128.65"/>
</a>
</g>
</g>
<!-- Node6 -->
<g id="Node000006" class="node">
<title>Node6</title>
<g id="a_Node000006"><a xlink:title=" ">
<polygon fill="#e0e0e0" stroke="#999999" points="389.12,-132 312.38,-132 312.38,-112 389.12,-112 389.12,-132"/>
<text text-anchor="middle" x="350.75" y="-118.5" font-family="Helvetica,sans-Serif" font-size="10.00">QHBoxLayout</text>
</a>
</g>
</g>
<!-- Node1&#45;&gt;Node6 -->
<g id="edge5_Node000001_Node000006" class="edge">
<title>Node1&#45;&gt;Node6</title>
<g id="a_edge5_Node000001_Node000006"><a xlink:title=" ">
<path fill="none" stroke="#63b8ff" d="M737.4,-179.5C655.47,-169.4 523.66,-152.33 400.57,-132.39"/>
<polygon fill="#63b8ff" stroke="#63b8ff" points="401.38,-128.98 390.94,-130.83 400.25,-135.89 401.38,-128.98"/>
</a>
</g>
</g>
<!-- Node7 -->
<g id="Node000007" class="node">
<title>Node7</title>
<g id="a_Node000007"><a xlink:title=" ">
<polygon fill="#e0e0e0" stroke="#999999" points="448.5,-132 407,-132 407,-112 448.5,-112 448.5,-132"/>
<text text-anchor="middle" x="427.75" y="-118.5" font-family="Helvetica,sans-Serif" font-size="10.00">QIcon</text>
</a>
</g>
</g>
<!-- Node1&#45;&gt;Node7 -->
<g id="edge6_Node000001_Node000007" class="edge">
<title>Node1&#45;&gt;Node7</title>
<g id="a_edge6_Node000001_Node000007"><a xlink:title=" ">
<path fill="none" stroke="#63b8ff" d="M737.63,-178.39C665.64,-168.23 556.59,-151.58 462.75,-132 461.76,-131.79 460.75,-131.58 459.73,-131.35"/>
<polygon fill="#63b8ff" stroke="#63b8ff" points="460.79,-128 450.25,-129.09 459.16,-134.81 460.79,-128"/>
</a>
</g>
</g>
<!-- Node8 -->
<g id="Node000008" class="node">
<title>Node8</title>
<g id="a_Node000008"><a xlink:title=" ">
<polygon fill="#e0e0e0" stroke="#999999" points="565.62,-20 515.88,-20 515.88,0 565.62,0 565.62,-20"/>
<text text-anchor="middle" x="540.75" y="-6.5" font-family="Helvetica,sans-Serif" font-size="10.00">QImage</text>
</a>
</g>
</g>
<!-- Node1&#45;&gt;Node8 -->
<g id="edge7_Node000001_Node000008" class="edge">
<title>Node1&#45;&gt;Node8</title>
<g id="a_edge7_Node000001_Node000008"><a xlink:title=" ">
<path fill="none" stroke="#63b8ff" d="M737.58,-186.21C652.7,-181.36 526.02,-168.11 495.75,-132 469.85,-101.1 502.58,-53.87 524.32,-28.53"/>
<polygon fill="#63b8ff" stroke="#63b8ff" points="526.65,-31.17 530.7,-21.38 521.43,-26.51 526.65,-31.17"/>
</a>
</g>
</g>
<!-- Node9 -->
<g id="Node000009" class="node">
<title>Node9</title>
<g id="a_Node000009"><a xlink:title=" ">
<polygon fill="#e0e0e0" stroke="#999999" points="600.88,-132 504.62,-132 504.62,-112 600.88,-112 600.88,-132"/>
<text text-anchor="middle" x="552.75" y="-118.5" font-family="Helvetica,sans-Serif" font-size="10.00">QLoggingCategory</text>
</a>
</g>
</g>
<!-- Node1&#45;&gt;Node9 -->
<g id="edge8_Node000001_Node000009" class="edge">
<title>Node1&#45;&gt;Node9</title>
<g id="a_edge8_Node000001_Node000009"><a xlink:title=" ">
<path fill="none" stroke="#63b8ff" d="M737.54,-169.2C693.31,-158.14 639.6,-144.71 601.51,-135.19"/>
<polygon fill="#63b8ff" stroke="#63b8ff" points="602.73,-131.89 592.18,-132.86 601.04,-138.68 602.73,-131.89"/>
</a>
</g>
</g>
<!-- Node10 -->
<g id="Node000010" class="node">
<title>Node10</title>
<g id="a_Node000010"><a xlink:title=" ">
<polygon fill="#e0e0e0" stroke="#999999" points="688.88,-20 646.62,-20 646.62,0 688.88,0 688.88,-20"/>
<text text-anchor="middle" x="667.75" y="-6.5" font-family="Helvetica,sans-Serif" font-size="10.00">QMap</text>
</a>
</g>
</g>
<!-- Node1&#45;&gt;Node10 -->
<g id="edge9_Node000001_Node000010" class="edge">
<title>Node1&#45;&gt;Node10</title>
<g id="a_edge9_Node000001_Node000010"><a xlink:title=" ">
<path fill="none" stroke="#63b8ff" d="M738.11,-167.59C716.79,-159.05 694.89,-147.46 677.75,-132 650.79,-107.67 640.21,-91.52 647.75,-56 649.61,-47.23 653.3,-38.1 657.01,-30.38"/>
<polygon fill="#63b8ff" stroke="#63b8ff" points="660.06,-32.1 661.55,-21.61 653.84,-28.88 660.06,-32.1"/>
</a>
</g>
</g>
<!-- Node11 -->
<g id="Node000011" class="node">
<title>Node11</title>
<g id="a_Node000011"><a xlink:title=" ">
<polygon fill="#e0e0e0" stroke="#999999" points="878.5,-76 801,-76 801,-56 878.5,-56 878.5,-76"/>
<text text-anchor="middle" x="839.75" y="-62.5" font-family="Helvetica,sans-Serif" font-size="10.00">QMediaPlayer</text>
</a>
</g>
</g>
<!-- Node1&#45;&gt;Node11 -->
<g id="edge10_Node000001_Node000011" class="edge">
<title>Node1&#45;&gt;Node11</title>
<g id="a_edge10_Node000001_Node000011"><a xlink:title=" ">
<path fill="none" stroke="#63b8ff" d="M896.04,-188.5C994.1,-186 1152.67,-175.17 1189.75,-132 1195.54,-125.26 1195.65,-118.65 1189.75,-112 1146.83,-63.68 971.34,-84.2 890.21,-76.13"/>
<polygon fill="#63b8ff" stroke="#63b8ff" points="890.81,-72.68 880.45,-74.91 889.94,-79.63 890.81,-72.68"/>
</a>
</g>
</g>
<!-- Node12 -->
<g id="Node000012" class="node">
<title>Node12</title>
<g id="a_Node000012"><a xlink:title=" ">
<polygon fill="#e0e0e0" stroke="#999999" points="775,-132 694.5,-132 694.5,-112 775,-112 775,-132"/>
<text text-anchor="middle" x="734.75" y="-118.5" font-family="Helvetica,sans-Serif" font-size="10.00">QMessageBox</text>
</a>
</g>
</g>
<!-- Node1&#45;&gt;Node12 -->
<g id="edge11_Node000001_Node000012" class="edge">
<title>Node1&#45;&gt;Node12</title>
<g id="a_edge11_Node000001_Node000012"><a xlink:title=" ">
<path fill="none" stroke="#63b8ff" d="M790.35,-167.75C779.03,-158.64 765.99,-148.14 755.39,-139.61"/>
<polygon fill="#63b8ff" stroke="#63b8ff" points="757.62,-136.91 747.63,-133.37 753.23,-142.36 757.62,-136.91"/>
</a>
</g>
</g>
<!-- Node13 -->
<g id="Node000013" class="node">
<title>Node13</title>
<g id="a_Node000013"><a xlink:title=" ">
<polygon fill="#e0e0e0" stroke="#999999" points="840.88,-132 792.62,-132 792.62,-112 840.88,-112 840.88,-132"/>
<text text-anchor="middle" x="816.75" y="-118.5" font-family="Helvetica,sans-Serif" font-size="10.00">QMovie</text>
</a>
</g>
</g>
<!-- Node1&#45;&gt;Node13 -->
<g id="edge12_Node000001_Node000013" class="edge">
<title>Node1&#45;&gt;Node13</title>
<g id="a_edge12_Node000001_Node000013"><a xlink:title=" ">
<path fill="none" stroke="#63b8ff" d="M816.75,-167.75C816.75,-160.13 816.75,-151.53 816.75,-143.93"/>
<polygon fill="#63b8ff" stroke="#63b8ff" points="820.25,-143.93 816.75,-133.93 813.25,-143.93 820.25,-143.93"/>
</a>
</g>
</g>
<!-- Node14 -->
<g id="Node000014" class="node">
<title>Node14</title>
<g id="a_Node000014"><a xlink:title=" ">
<polygon fill="#e0e0e0" stroke="#999999" points="915,-132 858.5,-132 858.5,-112 915,-112 915,-132"/>
<text text-anchor="middle" x="886.75" y="-118.5" font-family="Helvetica,sans-Serif" font-size="10.00">QPixmap</text>
</a>
</g>
</g>
<!-- Node1&#45;&gt;Node14 -->
<g id="edge13_Node000001_Node000014" class="edge">
<title>Node1&#45;&gt;Node14</title>
<g id="a_edge13_Node000001_Node000014"><a xlink:title=" ">
<path fill="none" stroke="#63b8ff" d="M839.28,-167.75C848.76,-158.82 859.63,-148.57 868.58,-140.13"/>
<polygon fill="#63b8ff" stroke="#63b8ff" points="870.78,-142.86 875.66,-133.46 865.98,-137.77 870.78,-142.86"/>
</a>
</g>
</g>
<!-- Node15 -->
<g id="Node000015" class="node">
<title>Node15</title>
<g id="a_Node000015"><a xlink:title=" ">
<polygon fill="#e0e0e0" stroke="#999999" points="992.5,-132 933,-132 933,-112 992.5,-112 992.5,-132"/>
<text text-anchor="middle" x="962.75" y="-118.5" font-family="Helvetica,sans-Serif" font-size="10.00">QSettings</text>
</a>
</g>
</g>
<!-- Node1&#45;&gt;Node15 -->
<g id="edge14_Node000001_Node000015" class="edge">
<title>Node1&#45;&gt;Node15</title>
<g id="a_edge14_Node000001_Node000015"><a xlink:title=" ">
<path fill="none" stroke="#63b8ff" d="M864.15,-167.57C886.25,-157.58 911.93,-145.97 931.54,-137.11"/>
<polygon fill="#63b8ff" stroke="#63b8ff" points="932.98,-140.3 940.65,-132.99 930.1,-133.92 932.98,-140.3"/>
</a>
</g>
</g>
<!-- Node16 -->
<g id="Node000016" class="node">
<title>Node16</title>
<g id="a_Node000016"><a xlink:title=" ">
<polygon fill="#e0e0e0" stroke="#999999" points="1098.75,-132 1010.75,-132 1010.75,-112 1098.75,-112 1098.75,-132"/>
<text text-anchor="middle" x="1054.75" y="-118.5" font-family="Helvetica,sans-Serif" font-size="10.00">QStandardPaths</text>
</a>
</g>
</g>
<!-- Node1&#45;&gt;Node16 -->
<g id="edge15_Node000001_Node000016" class="edge">
<title>Node1&#45;&gt;Node16</title>
<g id="a_edge15_Node000001_Node000016"><a xlink:title=" ">
<path fill="none" stroke="#63b8ff" d="M894.02,-167.57C932.27,-156.97 977.1,-144.53 1009.68,-135.5"/>
<polygon fill="#63b8ff" stroke="#63b8ff" points="1010.51,-138.9 1019.21,-132.86 1008.64,-132.16 1010.51,-138.9"/>
</a>
</g>
</g>
<!-- Node17 -->
<g id="Node000017" class="node">
<title>Node17</title>
<g id="a_Node000017"><a xlink:title=" ">
<polygon fill="#e0e0e0" stroke="#999999" points="1181.12,-132 1116.38,-132 1116.38,-112 1181.12,-112 1181.12,-132"/>
<text text-anchor="middle" x="1148.75" y="-118.5" font-family="Helvetica,sans-Serif" font-size="10.00">QStringList</text>
</a>
</g>
</g>
<!-- Node1&#45;&gt;Node17 -->
<g id="edge16_Node000001_Node000017" class="edge">
<title>Node1&#45;&gt;Node17</title>
<g id="a_edge16_Node000001_Node000017"><a xlink:title=" ">
<path fill="none" stroke="#63b8ff" d="M895.89,-174C951.72,-163.3 1028.57,-148.35 1104.84,-132.57"/>
<polygon fill="#63b8ff" stroke="#63b8ff" points="1105.53,-136 1114.61,-130.55 1104.11,-129.15 1105.53,-136"/>
</a>
</g>
</g>
<!-- Node18 -->
<g id="Node000018" class="node">
<title>Node18</title>
<g id="a_Node000018"><a xlink:title=" ">
<polygon fill="#e0e0e0" stroke="#999999" points="975.25,-76 896.25,-76 896.25,-56 975.25,-56 975.25,-76"/>
<text text-anchor="middle" x="935.75" y="-62.5" font-family="Helvetica,sans-Serif" font-size="10.00">QVideoWidget</text>
</a>
</g>
</g>
<!-- Node1&#45;&gt;Node18 -->
<g id="edge17_Node000001_Node000018" class="edge">
<title>Node1&#45;&gt;Node18</title>
<g id="a_edge17_Node000001_Node000018"><a xlink:title=" ">
<path fill="none" stroke="#63b8ff" d="M896.1,-189.12C998.28,-187.38 1167.43,-177.49 1206.75,-132 1254.02,-77.32 1366.84,-141.2 986.68,-76.3"/>
<polygon fill="#63b8ff" stroke="#63b8ff" points="987.52,-72.89 977.08,-74.64 986.34,-79.79 987.52,-72.89"/>
</a>
</g>
</g>
<!-- Node19 -->
<g id="Node000019" class="node">
<title>Node19</title>
<g id="a_Node000019"><a xlink:href="_app_constants_8h.html" target="_top" xlink:title="Defines constants used throughout the application.">
<polygon fill="white" stroke="#666666" points="1725.62,-76 1639.88,-76 1639.88,-56 1725.62,-56 1725.62,-76"/>
<text text-anchor="middle" x="1682.75" y="-62.5" font-family="Helvetica,sans-Serif" font-size="10.00">AppConstants.h</text>
</a>
</g>
</g>
<!-- Node1&#45;&gt;Node19 -->
<g id="edge18_Node000001_Node000019" class="edge">
<title>Node1&#45;&gt;Node19</title>
<g id="a_edge18_Node000001_Node000019"><a xlink:title=" ">
<path fill="none" stroke="#63b8ff" d="M896.03,-185.94C1056.2,-179.22 1413.15,-161.4 1531.75,-132 1577.39,-120.68 1626.83,-97.01 1656.28,-81.57"/>
<polygon fill="#63b8ff" stroke="#63b8ff" points="1657.66,-84.8 1664.84,-77.01 1654.37,-78.62 1657.66,-84.8"/>
</a>
</g>
</g>
<!-- Node21 -->
<g id="Node000021" class="node">
<title>Node21</title>
<g id="a_Node000021"><a xlink:href="_image_editor_g_u_i_8h.html" target="_top" xlink:title=" ">
<polygon fill="white" stroke="#666666" points="1367,-132 1274.5,-132 1274.5,-112 1367,-112 1367,-132"/>
<text text-anchor="middle" x="1320.75" y="-118.5" font-family="Helvetica,sans-Serif" font-size="10.00">ImageEditorGUI.h</text>
</a>
</g>
</g>
<!-- Node1&#45;&gt;Node21 -->
<g id="edge20_Node000001_Node000021" class="edge">
<title>Node1&#45;&gt;Node21</title>
<g id="a_edge20_Node000001_Node000021"><a xlink:title=" ">
<path fill="none" stroke="#63b8ff" d="M895.82,-179.36C984.67,-168.41 1133.17,-149.76 1260.75,-132 1261.57,-131.89 1262.4,-131.77 1263.23,-131.65"/>
<polygon fill="#63b8ff" stroke="#63b8ff" points="1263.35,-135.17 1272.75,-130.29 1262.36,-128.24 1263.35,-135.17"/>
</a>
</g>
</g>
<!-- Node27 -->
<g id="Node000027" class="node">
<title>Node27</title>
<g id="a_Node000027"><a xlink:href="_meta_data_handler_8h.html" target="_top" xlink:title=" ">
<polygon fill="white" stroke="#666666" points="756.38,-76 657.12,-76 657.12,-56 756.38,-56 756.38,-76"/>
<text text-anchor="middle" x="706.75" y="-62.5" font-family="Helvetica,sans-Serif" font-size="10.00">MetaDataHandler.h</text>
</a>
</g>
</g>
<!-- Node1&#45;&gt;Node27 -->
<g id="edge36_Node000001_Node000027" class="edge">
<title>Node1&#45;&gt;Node27</title>
<g id="a_edge36_Node000001_Node000027"><a xlink:title=" ">
<path fill="none" stroke="#63b8ff" d="M737.69,-171.45C717.37,-162.98 697.85,-150.46 685.75,-132 676.43,-117.77 684.14,-99.08 692.73,-85.4"/>
<polygon fill="#63b8ff" stroke="#63b8ff" points="695.52,-87.52 698.34,-77.31 689.77,-83.53 695.52,-87.52"/>
</a>
</g>
</g>
<!-- Node28 -->
<g id="Node000028" class="node">
<title>Node28</title>
<g id="a_Node000028"><a xlink:href="_tag_text_edit_8h.html" target="_top" xlink:title="Defines the TagTextEdit class, a custom QTextEdit that emits signals when Tab or Shift+Tab are presse...">
<polygon fill="white" stroke="#666666" points="1621.75,-76 1545.75,-76 1545.75,-56 1621.75,-56 1621.75,-76"/>
<text text-anchor="middle" x="1583.75" y="-62.5" font-family="Helvetica,sans-Serif" font-size="10.00">TagTextEdit.h</text>
</a>
</g>
</g>
<!-- Node1&#45;&gt;Node28 -->
<g id="edge40_Node000001_Node000028" class="edge">
<title>Node1&#45;&gt;Node28</title>
<g id="a_edge40_Node000001_Node000028"><a xlink:title=" ">
<path fill="none" stroke="#63b8ff" d="M895.89,-188C1051.5,-185.13 1391.56,-174.08 1499.75,-132 1526.72,-121.51 1552.19,-99.45 1567.87,-83.95"/>
<polygon fill="#63b8ff" stroke="#63b8ff" points="1569.97,-86.81 1574.45,-77.22 1564.96,-81.92 1569.97,-86.81"/>
</a>
</g>
</g>
<!-- Node31 -->
<g id="Node000031" class="node">
<title>Node31</title>
<g id="a_Node000031"><a xlink:href="_styles_8h.html" target="_top" xlink:title="Defines a function for loading and applying a stylesheet to a QApplication.">
<polygon fill="white" stroke="#666666" points="1779.75,-132 1727.75,-132 1727.75,-112 1779.75,-112 1779.75,-132"/>
<text text-anchor="middle" x="1753.75" y="-118.5" font-family="Helvetica,sans-Serif" font-size="10.00">Styles.h</text>
</a>
</g>
</g>
<!-- Node1&#45;&gt;Node31 -->
<g id="edge37_Node000001_Node000031" class="edge">
<title>Node1&#45;&gt;Node31</title>
<g id="a_edge37_Node000001_Node000031"><a xlink:title=" ">
<path fill="none" stroke="#63b8ff" d="M895.92,-184.65C1046.28,-176.17 1383.44,-156.15 1666.75,-132 1683.03,-130.61 1700.99,-128.8 1716.34,-127.17"/>
<polygon fill="#63b8ff" stroke="#63b8ff" points="1716.43,-130.68 1726,-126.13 1715.68,-123.72 1716.43,-130.68"/>
</a>
</g>
</g>
<!-- Node33 -->
<g id="Node000033" class="node">
<title>Node33</title>
<g id="a_Node000033"><a xlink:href="_tag_widget_8h.html" target="_top" xlink:title="Defines the TagWidget class, a widget for displaying and editing tags.">
<polygon fill="white" stroke="#666666" points="1491.12,-132 1420.38,-132 1420.38,-112 1491.12,-112 1491.12,-132"/>
<text text-anchor="middle" x="1455.75" y="-118.5" font-family="Helvetica,sans-Serif" font-size="10.00">TagWidget.h</text>
</a>
</g>
</g>
<!-- Node1&#45;&gt;Node33 -->
<g id="edge41_Node000001_Node000033" class="edge">
<title>Node1&#45;&gt;Node33</title>
<g id="a_edge41_Node000001_Node000033"><a xlink:title=" ">
<path fill="none" stroke="#63b8ff" d="M895.93,-181.19C1004.27,-170.44 1204.79,-150.33 1375.75,-132 1386.36,-130.86 1397.76,-129.6 1408.54,-128.39"/>
<polygon fill="#63b8ff" stroke="#63b8ff" points="1408.87,-131.88 1418.41,-127.28 1408.08,-124.92 1408.87,-131.88"/>
</a>
</g>
</g>
<!-- Node20 -->
<g id="Node000020" class="node">
<title>Node20</title>
<g id="a_Node000020"><a xlink:title=" ">
<polygon fill="#e0e0e0" stroke="#999999" points="1693.25,-20 1644.25,-20 1644.25,0 1693.25,0 1693.25,-20"/>
<text text-anchor="middle" x="1668.75" y="-6.5" font-family="Helvetica,sans-Serif" font-size="10.00">QString</text>
</a>
</g>
</g>
<!-- Node19&#45;&gt;Node20 -->
<g id="edge19_Node000019_Node000020" class="edge">
<title>Node19&#45;&gt;Node20</title>
<g id="a_edge19_Node000019_Node000020"><a xlink:title=" ">
<path fill="none" stroke="#63b8ff" d="M1680.31,-55.59C1678.58,-48.93 1676.2,-39.75 1674.05,-31.44"/>
<polygon fill="#63b8ff" stroke="#63b8ff" points="1677.44,-30.56 1671.54,-21.76 1670.66,-32.32 1677.44,-30.56"/>
</a>
</g>
</g>
<!-- Node21&#45;&gt;Node11 -->
<g id="edge22_Node000021_Node000011" class="edge">
<title>Node21&#45;&gt;Node11</title>
<g id="a_edge22_Node000021_Node000011"><a xlink:title=" ">
<path fill="none" stroke="#63b8ff" d="M1274.35,-116.7C1182.46,-108.1 979.14,-88.66 890.21,-76.38"/>
<polygon fill="#63b8ff" stroke="#63b8ff" points="890.84,-72.93 880.44,-74.98 889.85,-79.86 890.84,-72.93"/>
</a>
</g>
</g>
<!-- Node21&#45;&gt;Node18 -->
<g id="edge27_Node000021_Node000018" class="edge">
<title>Node21&#45;&gt;Node18</title>
<g id="a_edge27_Node000021_Node000018"><a xlink:title=" ">
<path fill="none" stroke="#63b8ff" d="M1274.25,-113.93C1269.69,-113.27 1265.13,-112.61 1260.75,-112 1141.83,-95.33 1108.87,-95.17 986.86,-76.26"/>
<polygon fill="#63b8ff" stroke="#63b8ff" points="987.48,-72.81 977.06,-74.73 986.4,-79.73 987.48,-72.81"/>
</a>
</g>
</g>
<!-- Node21&#45;&gt;Node20 -->
<g id="edge25_Node000021_Node000020" class="edge">
<title>Node21&#45;&gt;Node20</title>
<g id="a_edge25_Node000021_Node000020"><a xlink:title=" ">
<path fill="none" stroke="#63b8ff" d="M1304.05,-111.67C1283.02,-98.79 1251.6,-74.98 1268.75,-56 1321.76,2.67 1544.53,-31.6 1622.75,-20 1625.99,-19.52 1629.36,-18.97 1632.72,-18.38"/>
<polygon fill="#63b8ff" stroke="#63b8ff" points="1633.32,-21.83 1642.51,-16.55 1632.03,-14.94 1633.32,-21.83"/>
</a>
</g>
</g>
<!-- Node22 -->
<g id="Node000022" class="node">
<title>Node22</title>
<g id="a_Node000022"><a xlink:title=" ">
<polygon fill="#e0e0e0" stroke="#999999" points="1040.12,-76 993.38,-76 993.38,-56 1040.12,-56 1040.12,-76"/>
<text text-anchor="middle" x="1016.75" y="-62.5" font-family="Helvetica,sans-Serif" font-size="10.00">QLabel</text>
</a>
</g>
</g>
<!-- Node21&#45;&gt;Node22 -->
<g id="edge21_Node000021_Node000022" class="edge">
<title>Node21&#45;&gt;Node22</title>
<g id="a_edge21_Node000021_Node000022"><a xlink:title=" ">
<path fill="none" stroke="#63b8ff" d="M1274.09,-113.84C1212.67,-104.32 1106.9,-87.58 1051.49,-76.14"/>
<polygon fill="#63b8ff" stroke="#63b8ff" points="1052.46,-72.76 1041.95,-74.1 1051,-79.61 1052.46,-72.76"/>
</a>
</g>
</g>
<!-- Node23 -->
<g id="Node000023" class="node">
<title>Node23</title>
<g id="a_Node000023"><a xlink:title=" ">
<polygon fill="#e0e0e0" stroke="#999999" points="1528,-76 1453.5,-76 1453.5,-56 1528,-56 1528,-76"/>
<text text-anchor="middle" x="1490.75" y="-62.5" font-family="Helvetica,sans-Serif" font-size="10.00">QPushButton</text>
</a>
</g>
</g>
<!-- Node21&#45;&gt;Node23 -->
<g id="edge23_Node000021_Node000023" class="edge">
<title>Node21&#45;&gt;Node23</title>
<g id="a_edge23_Node000021_Node000023"><a xlink:title=" ">
<path fill="none" stroke="#63b8ff" d="M1350.36,-111.59C1377.98,-102.82 1419.42,-89.66 1450.13,-79.9"/>
<polygon fill="#63b8ff" stroke="#63b8ff" points="1450.99,-83.3 1459.46,-76.94 1448.87,-76.63 1450.99,-83.3"/>
</a>
</g>
</g>
<!-- Node24 -->
<g id="Node000024" class="node">
<title>Node24</title>
<g id="a_Node000024"><a xlink:title=" ">
<polygon fill="#e0e0e0" stroke="#999999" points="1127,-76 1058.5,-76 1058.5,-56 1127,-56 1127,-76"/>
<text text-anchor="middle" x="1092.75" y="-62.5" font-family="Helvetica,sans-Serif" font-size="10.00">QScrollArea</text>
</a>
</g>
</g>
<!-- Node21&#45;&gt;Node24 -->
<g id="edge24_Node000021_Node000024" class="edge">
<title>Node21&#45;&gt;Node24</title>
<g id="a_edge24_Node000021_Node000024"><a xlink:title=" ">
<path fill="none" stroke="#63b8ff" d="M1280.77,-111.53C1241,-102.11 1180.04,-87.67 1138.39,-77.81"/>
<polygon fill="#63b8ff" stroke="#63b8ff" points="1139.46,-74.47 1128.92,-75.57 1137.85,-81.28 1139.46,-74.47"/>
</a>
</g>
</g>
<!-- Node25 -->
<g id="Node000025" class="node">
<title>Node25</title>
<g id="a_Node000025"><a xlink:title=" ">
<polygon fill="#e0e0e0" stroke="#999999" points="1222.12,-76 1145.38,-76 1145.38,-56 1222.12,-56 1222.12,-76"/>
<text text-anchor="middle" x="1183.75" y="-62.5" font-family="Helvetica,sans-Serif" font-size="10.00">QVBoxLayout</text>
</a>
</g>
</g>
<!-- Node21&#45;&gt;Node25 -->
<g id="edge26_Node000021_Node000025" class="edge">
<title>Node21&#45;&gt;Node25</title>
<g id="a_edge26_Node000021_Node000025"><a xlink:title=" ">
<path fill="none" stroke="#63b8ff" d="M1296.89,-111.59C1275.21,-103.05 1242.98,-90.35 1218.46,-80.68"/>
<polygon fill="#63b8ff" stroke="#63b8ff" points="1219.79,-77.45 1209.21,-77.03 1217.23,-83.96 1219.79,-77.45"/>
</a>
</g>
</g>
<!-- Node26 -->
<g id="Node000026" class="node">
<title>Node26</title>
<g id="a_Node000026"><a xlink:title=" ">
<polygon fill="#e0e0e0" stroke="#999999" points="1435.88,-76 1381.62,-76 1381.62,-56 1435.88,-56 1435.88,-76"/>
<text text-anchor="middle" x="1408.75" y="-62.5" font-family="Helvetica,sans-Serif" font-size="10.00">QWidget</text>
</a>
</g>
</g>
<!-- Node21&#45;&gt;Node26 -->
<g id="edge28_Node000021_Node000026" class="edge">
<title>Node21&#45;&gt;Node26</title>
<g id="a_edge28_Node000021_Node000026"><a xlink:title=" ">
<path fill="none" stroke="#63b8ff" d="M1336.08,-111.59C1349.25,-103.51 1368.48,-91.71 1383.86,-82.27"/>
<polygon fill="#63b8ff" stroke="#63b8ff" points="1385.32,-85.48 1392.01,-77.27 1381.66,-79.52 1385.32,-85.48"/>
</a>
</g>
</g>
<!-- Node21&#45;&gt;Node27 -->
<g id="edge29_Node000021_Node000027" class="edge">
<title>Node21&#45;&gt;Node27</title>
<g id="a_edge29_Node000021_Node000027"><a xlink:title=" ">
<path fill="none" stroke="#63b8ff" d="M1274.02,-117.35C1181.76,-110.07 969.75,-92.99 791.75,-76 784.02,-75.26 775.9,-74.45 767.87,-73.62"/>
<polygon fill="#63b8ff" stroke="#63b8ff" points="768.44,-70.16 758.13,-72.61 767.71,-77.13 768.44,-70.16"/>
</a>
</g>
</g>
<!-- Node21&#45;&gt;Node28 -->
<g id="edge33_Node000021_Node000028" class="edge">
<title>Node21&#45;&gt;Node28</title>
<g id="a_edge33_Node000021_Node000028"><a xlink:title=" ">
<path fill="none" stroke="#63b8ff" d="M1366.86,-111.53C1413.78,-101.9 1486.24,-87.02 1534.32,-77.15"/>
<polygon fill="#63b8ff" stroke="#63b8ff" points="1534.81,-80.62 1543.91,-75.18 1533.41,-73.76 1534.81,-80.62"/>
</a>
</g>
</g>
<!-- Node30 -->
<g id="Node000030" class="node">
<title>Node30</title>
<g id="a_Node000030"><a xlink:title=" ">
<polygon fill="#e0e0e0" stroke="#999999" points="1363.25,-76 1278.25,-76 1278.25,-56 1363.25,-56 1363.25,-76"/>
<text text-anchor="middle" x="1320.75" y="-62.5" font-family="Helvetica,sans-Serif" font-size="10.00">QTemporaryFile</text>
</a>
</g>
</g>
<!-- Node21&#45;&gt;Node30 -->
<g id="edge35_Node000021_Node000030" class="edge">
<title>Node21&#45;&gt;Node30</title>
<g id="a_edge35_Node000021_Node000030"><a xlink:title=" ">
<path fill="none" stroke="#63b8ff" d="M1320.75,-111.59C1320.75,-105.01 1320.75,-95.96 1320.75,-87.73"/>
<polygon fill="#63b8ff" stroke="#63b8ff" points="1324.25,-87.81 1320.75,-77.81 1317.25,-87.81 1324.25,-87.81"/>
</a>
</g>
</g>
<!-- Node27&#45;&gt;Node8 -->
<g id="edge32_Node000027_Node000008" class="edge">
<title>Node27&#45;&gt;Node8</title>
<g id="a_edge32_Node000027_Node000008"><a xlink:title=" ">
<path fill="none" stroke="#63b8ff" d="M677.84,-55.59C649.83,-46.48 607.27,-32.64 577.01,-22.8"/>
<polygon fill="#63b8ff" stroke="#63b8ff" points="578.11,-19.47 567.51,-19.71 575.94,-26.13 578.11,-19.47"/>
</a>
</g>
</g>
<!-- Node27&#45;&gt;Node10 -->
<g id="edge30_Node000027_Node000010" class="edge">
<title>Node27&#45;&gt;Node10</title>
<g id="a_edge30_Node000027_Node000010"><a xlink:title=" ">
<path fill="none" stroke="#63b8ff" d="M699.96,-55.59C694.76,-48.39 687.42,-38.23 681.06,-29.43"/>
<polygon fill="#63b8ff" stroke="#63b8ff" points="684.04,-27.58 675.35,-21.53 678.37,-31.68 684.04,-27.58"/>
</a>
</g>
</g>
<!-- Node27&#45;&gt;Node20 -->
<g id="edge31_Node000027_Node000020" class="edge">
<title>Node27&#45;&gt;Node20</title>
<g id="a_edge31_Node000027_Node000020"><a xlink:title=" ">
<path fill="none" stroke="#63b8ff" d="M756.59,-59.2C768.13,-58 780.36,-56.85 791.75,-56 1160.41,-28.52 1255.65,-63.61 1622.75,-20 1626.01,-19.61 1629.38,-19.12 1632.75,-18.58"/>
<polygon fill="#63b8ff" stroke="#63b8ff" points="1633.32,-22.03 1642.54,-16.81 1632.08,-15.14 1633.32,-22.03"/>
</a>
</g>
</g>
<!-- Node29 -->
<g id="Node000029" class="node">
<title>Node29</title>
<g id="a_Node000029"><a xlink:title=" ">
<polygon fill="#e0e0e0" stroke="#999999" points="1613.5,-20 1554,-20 1554,0 1613.5,0 1613.5,-20"/>
<text text-anchor="middle" x="1583.75" y="-6.5" font-family="Helvetica,sans-Serif" font-size="10.00">QTextEdit</text>
</a>
</g>
</g>
<!-- Node28&#45;&gt;Node29 -->
<g id="edge34_Node000028_Node000029" class="edge">
<title>Node28&#45;&gt;Node29</title>
<g id="a_edge34_Node000028_Node000029"><a xlink:title=" ">
<path fill="none" stroke="#63b8ff" d="M1583.75,-55.59C1583.75,-49.01 1583.75,-39.96 1583.75,-31.73"/>
<polygon fill="#63b8ff" stroke="#63b8ff" points="1587.25,-31.81 1583.75,-21.81 1580.25,-31.81 1587.25,-31.81"/>
</a>
</g>
</g>
<!-- Node31&#45;&gt;Node20 -->
<g id="edge39_Node000031_Node000020" class="edge">
<title>Node31&#45;&gt;Node20</title>
<g id="a_edge39_Node000031_Node000020"><a xlink:title=" ">
<path fill="none" stroke="#63b8ff" d="M1753.01,-111.74C1751.53,-98.3 1747.19,-73.12 1734.75,-56 1725.62,-43.43 1711.83,-33.24 1699.22,-25.76"/>
<polygon fill="#63b8ff" stroke="#63b8ff" points="1701.24,-22.87 1690.79,-21.08 1697.84,-28.99 1701.24,-22.87"/>
</a>
</g>
</g>
<!-- Node32 -->
<g id="Node000032" class="node">
<title>Node32</title>
<g id="a_Node000032"><a xlink:title=" ">
<polygon fill="#e0e0e0" stroke="#999999" points="1853.5,-76 1782,-76 1782,-56 1853.5,-56 1853.5,-76"/>
<text text-anchor="middle" x="1817.75" y="-62.5" font-family="Helvetica,sans-Serif" font-size="10.00">QApplication</text>
</a>
</g>
</g>
<!-- Node31&#45;&gt;Node32 -->
<g id="edge38_Node000031_Node000032" class="edge">
<title>Node31&#45;&gt;Node32</title>
<g id="a_edge38_Node000031_Node000032"><a xlink:title=" ">
<path fill="none" stroke="#63b8ff" d="M1764.9,-111.59C1774.08,-103.85 1787.3,-92.69 1798.23,-83.47"/>
<polygon fill="#63b8ff" stroke="#63b8ff" points="1800.19,-86.4 1805.57,-77.27 1795.67,-81.05 1800.19,-86.4"/>
</a>
</g>
</g>
<!-- Node33&#45;&gt;Node23 -->
<g id="edge43_Node000033_Node000023" class="edge">
<title>Node33&#45;&gt;Node23</title>
<g id="a_edge43_Node000033_Node000023"><a xlink:title=" ">
<path fill="none" stroke="#63b8ff" d="M1461.85,-111.59C1466.46,-104.47 1472.96,-94.45 1478.62,-85.72"/>
<polygon fill="#63b8ff" stroke="#63b8ff" points="1481.4,-87.86 1483.9,-77.57 1475.52,-84.06 1481.4,-87.86"/>
</a>
</g>
</g>
<!-- Node33&#45;&gt;Node26 -->
<g id="edge42_Node000033_Node000026" class="edge">
<title>Node33&#45;&gt;Node26</title>
<g id="a_edge42_Node000033_Node000026"><a xlink:title=" ">
<path fill="none" stroke="#63b8ff" d="M1447.56,-111.59C1441.16,-104.24 1432.07,-93.8 1424.3,-84.87"/>
<polygon fill="#63b8ff" stroke="#63b8ff" points="1427.04,-82.69 1417.84,-77.44 1421.76,-87.28 1427.04,-82.69"/>
</a>
</g>
</g>
<!-- Node33&#45;&gt;Node28 -->
<g id="edge44_Node000033_Node000028" class="edge">
<title>Node33&#45;&gt;Node28</title>
<g id="a_edge44_Node000033_Node000028"><a xlink:title=" ">
<path fill="none" stroke="#63b8ff" d="M1478.05,-111.59C1498.11,-103.13 1527.87,-90.58 1550.7,-80.94"/>
<polygon fill="#63b8ff" stroke="#63b8ff" points="1552.03,-84.18 1559.89,-77.07 1549.31,-77.73 1552.03,-84.18"/>
</a>
</g>
</g>
</g>
</svg>

<g id="navigator" transform="translate(0 0)" fill="#404254">
  <rect fill="#f2f5e9" fill-opacity="0.5" stroke="#606060" stroke-width=".5" x="0" y="0" width="60" height="60"/>
  <use id="zoomplus" xlink:href="#zoomPlus" x="17" y="9" onmousedown="handleZoom(evt,'in')"/>
  <use id="zoomminus" xlink:href="#zoomMin" x="42" y="9" onmousedown="handleZoom(evt,'out')"/>
  <use id="reset" xlink:href="#resetDef" x="30" y="36" onmousedown="handleReset()"/>
   <use id="arrowup" xlink:href="#arrowUp" x="0" y="0" onmousedown="handlePan(0,-1)"/>
  <use id="arrowright" xlink:href="#arrowRight" x="0" y="0" onmousedown="handlePan(1,0)"/>
  <use id="arrowdown" xlink:href="#arrowDown" x="0" y="0" onmousedown="handlePan(0,1)"/>
  <use id="arrowleft" xlink:href="#arrowLeft" x="0" y="0" onmousedown="handlePan(-1,0)"/>
</g>
<svg viewBox="0 0 15 15" width="100%" height="30px" preserveAspectRatio="xMaxYMin meet">
 <g id="arrow_out" transform="scale(0.3 0.3)">
  <a xlink:href="_image_editor_g_u_i_8cpp__incl_org.svg" target="_base">
   <rect id="button" ry="5" rx="5" y="6" x="6" height="38" width="38"
        fill="#f2f5e9" fill-opacity="0.5" stroke="#606060" stroke-width="1.0"/>
   <path id="arrow"
     d="M 11.500037,31.436501 C 11.940474,20.09759 22.043105,11.32322 32.158766,21.979434 L 37.068811,17.246167 C 37.068811,17.246167 37.088388,32 37.088388,32 L 22.160133,31.978069 C 22.160133,31.978069 26.997745,27.140456 26.997745,27.140456 C 18.528582,18.264221 13.291696,25.230495 11.500037,31.436501 z"
     style="fill:#404040;"/>
  </a>
 </g>
</svg>

<style type='text/css'>
<![CDATA[
[data-mouse-over-selected='false'] { opacity: 0.7; }
[data-mouse-over-selected='true']  { opacity: 1.0; }
]]>
</style>
<script type="application/ecmascript"><![CDATA[
document.addEventListener('DOMContentLoaded', (event) => {
  highlightEdges();
  highlightAdjacentNodes();
});
]]></script>
</svg>
