<?xml version="1.0" encoding="UTF-8" standalone="no"?>
<!DOCTYPE svg PUBLIC "-//W3C//DTD SVG 1.1//EN"
 "http://www.w3.org/Graphics/SVG/1.1/DTD/svg11.dtd">
<!-- Generated by graphviz version 10.0.1 (20240210.2158)
 -->
<!-- Title: C:/Users/Muddyblack/Downloads/MetaDataEditorCpp/src/logging/Logger.h Pages: 1 -->
<svg width="686pt" height="132pt"
 viewBox="0.00 0.00 685.50 132.00" xmlns="http://www.w3.org/2000/svg" xmlns:xlink="http://www.w3.org/1999/xlink">
<g id="graph0" class="graph" transform="scale(1 1) rotate(0) translate(4 128)">
<title>C:/Users/Muddyblack/Downloads/MetaDataEditorCpp/src/logging/Logger.h</title>
<!-- Node1 -->
<g id="Node000001" class="node">
<title>Node1</title>
<g id="a_Node000001"><a xlink:title="Defines the Logger class and convenience functions for logging.">
<polygon fill="#999999" stroke="#666666" points="415,-124 261,-124 261,-80 415,-80 415,-124"/>
<text text-anchor="start" x="269" y="-110.5" font-family="Helvetica,sans-Serif" font-size="10.00">C:/Users/Muddyblack</text>
<text text-anchor="start" x="269" y="-98.5" font-family="Helvetica,sans-Serif" font-size="10.00">/Downloads/MetaDataEditorCpp</text>
<text text-anchor="middle" x="338" y="-86.5" font-family="Helvetica,sans-Serif" font-size="10.00">/src/logging/Logger.h</text>
</a>
</g>
</g>
<!-- Node2 -->
<g id="Node000002" class="node">
<title>Node2</title>
<g id="a_Node000002"><a xlink:href="main_8cpp.html" target="_top" xlink:title="Entry point for the MetaData Editor application.">
<polygon fill="white" stroke="#666666" points="154,-44 0,-44 0,0 154,0 154,-44"/>
<text text-anchor="start" x="8" y="-30.5" font-family="Helvetica,sans-Serif" font-size="10.00">C:/Users/Muddyblack</text>
<text text-anchor="start" x="8" y="-18.5" font-family="Helvetica,sans-Serif" font-size="10.00">/Downloads/MetaDataEditorCpp</text>
<text text-anchor="middle" x="77" y="-6.5" font-family="Helvetica,sans-Serif" font-size="10.00">/src/app/main.cpp</text>
</a>
</g>
</g>
<!-- Node1&#45;&gt;Node2 -->
<g id="edge1_Node000001_Node000002" class="edge">
<title>Node1&#45;&gt;Node2</title>
<g id="a_edge1_Node000001_Node000002"><a xlink:title=" ">
<path fill="none" stroke="#63b8ff" d="M255.38,-76.31C221.05,-66.05 181.57,-54.25 148.5,-44.37"/>
<polygon fill="#63b8ff" stroke="#63b8ff" points="254.3,-79.64 264.89,-79.15 256.31,-72.93 254.3,-79.64"/>
</a>
</g>
</g>
<!-- Node3 -->
<g id="Node000003" class="node">
<title>Node3</title>
<g id="a_Node000003"><a xlink:href="_image_editor_g_u_i_8cpp.html" target="_top" xlink:title="Implements the ImageEditorGUI class for editing files.">
<polygon fill="white" stroke="#666666" points="329.88,-44 172.12,-44 172.12,0 329.88,0 329.88,-44"/>
<text text-anchor="start" x="180.12" y="-30.5" font-family="Helvetica,sans-Serif" font-size="10.00">C:/Users/Muddyblack</text>
<text text-anchor="start" x="180.12" y="-18.5" font-family="Helvetica,sans-Serif" font-size="10.00">/Downloads/MetaDataEditorCpp</text>
<text text-anchor="middle" x="251" y="-6.5" font-family="Helvetica,sans-Serif" font-size="10.00">/src/app/src/ImageEditorGUI.cpp</text>
</a>
</g>
</g>
<!-- Node1&#45;&gt;Node3 -->
<g id="edge2_Node000001_Node000003" class="edge">
<title>Node1&#45;&gt;Node3</title>
<g id="a_edge2_Node000001_Node000003"><a xlink:title=" ">
<path fill="none" stroke="#63b8ff" d="M305.84,-72.17C295.54,-62.94 284.33,-52.88 274.74,-44.29"/>
<polygon fill="#63b8ff" stroke="#63b8ff" points="303.32,-74.61 313.1,-78.68 307.99,-69.39 303.32,-74.61"/>
</a>
</g>
</g>
<!-- Node4 -->
<g id="Node000004" class="node">
<title>Node4</title>
<g id="a_Node000004"><a xlink:href="_logger_8cpp.html" target="_top" xlink:title="Implements the Logger class for logging messages with file and line information.">
<polygon fill="white" stroke="#666666" points="502,-44 348,-44 348,0 502,0 502,-44"/>
<text text-anchor="start" x="356" y="-30.5" font-family="Helvetica,sans-Serif" font-size="10.00">C:/Users/Muddyblack</text>
<text text-anchor="start" x="356" y="-18.5" font-family="Helvetica,sans-Serif" font-size="10.00">/Downloads/MetaDataEditorCpp</text>
<text text-anchor="middle" x="425" y="-6.5" font-family="Helvetica,sans-Serif" font-size="10.00">/src/logging/Logger.cpp</text>
</a>
</g>
</g>
<!-- Node1&#45;&gt;Node4 -->
<g id="edge3_Node000001_Node000004" class="edge">
<title>Node1&#45;&gt;Node4</title>
<g id="a_edge3_Node000001_Node000004"><a xlink:title=" ">
<path fill="none" stroke="#63b8ff" d="M370.16,-72.17C380.46,-62.94 391.67,-52.88 401.26,-44.29"/>
<polygon fill="#63b8ff" stroke="#63b8ff" points="368.01,-69.39 362.9,-78.68 372.68,-74.61 368.01,-69.39"/>
</a>
</g>
</g>
<!-- Node5 -->
<g id="Node000005" class="node">
<title>Node5</title>
<g id="a_Node000005"><a xlink:href="_p_n_g_meta_8cpp.html" target="_top" xlink:title="Implements the PNGMeta class.">
<polygon fill="white" stroke="#666666" points="677.5,-44 520.5,-44 520.5,0 677.5,0 677.5,-44"/>
<text text-anchor="start" x="528.5" y="-30.5" font-family="Helvetica,sans-Serif" font-size="10.00">C:/Users/Muddyblack</text>
<text text-anchor="start" x="528.5" y="-18.5" font-family="Helvetica,sans-Serif" font-size="10.00">/Downloads/MetaDataEditorCpp</text>
<text text-anchor="middle" x="599" y="-6.5" font-family="Helvetica,sans-Serif" font-size="10.00">/src/metadata/src/PNGMeta.cpp</text>
</a>
</g>
</g>
<!-- Node1&#45;&gt;Node5 -->
<g id="edge4_Node000001_Node000005" class="edge">
<title>Node1&#45;&gt;Node5</title>
<g id="a_edge4_Node000001_Node000005"><a xlink:title=" ">
<path fill="none" stroke="#63b8ff" d="M420.62,-76.31C454.95,-66.05 494.43,-54.25 527.5,-44.37"/>
<polygon fill="#63b8ff" stroke="#63b8ff" points="419.69,-72.93 411.11,-79.15 421.7,-79.64 419.69,-72.93"/>
</a>
</g>
</g>
</g>
</svg>
