<?xml version="1.0" encoding="UTF-8" standalone="no"?>
<!DOCTYPE svg PUBLIC "-//W3C//DTD SVG 1.1//EN"
 "http://www.w3.org/Graphics/SVG/1.1/DTD/svg11.dtd">
<!-- Generated by graphviz version 10.0.1 (20240210.2158)
 -->
<!-- Title: C:/Users/Muddyblack/Downloads/MetaDataEditorCpp/src/helper/logging/Logger.h Pages: 1 -->
<svg width="198pt" height="108pt"
 viewBox="0.00 0.00 197.75 108.00" xmlns="http://www.w3.org/2000/svg" xmlns:xlink="http://www.w3.org/1999/xlink">
<g id="graph0" class="graph" transform="scale(1 1) rotate(0) translate(4 104)">
<title>C:/Users/Muddyblack/Downloads/MetaDataEditorCpp/src/helper/logging/Logger.h</title>
<!-- Node1 -->
<g id="Node000001" class="node">
<title>Node1</title>
<g id="a_Node000001"><a xlink:title="Defines the Logger class and convenience functions for logging.">
<polygon fill="#999999" stroke="#666666" points="165,-100 11,-100 11,-56 165,-56 165,-100"/>
<text text-anchor="start" x="19" y="-86.5" font-family="Helvetica,sans-Serif" font-size="10.00">C:/Users/Muddyblack</text>
<text text-anchor="start" x="19" y="-74.5" font-family="Helvetica,sans-Serif" font-size="10.00">/Downloads/MetaDataEditorCpp</text>
<text text-anchor="middle" x="88" y="-62.5" font-family="Helvetica,sans-Serif" font-size="10.00">/src/helper/logging/Logger.h</text>
</a>
</g>
</g>
<!-- Node2 -->
<g id="Node000002" class="node">
<title>Node2</title>
<g id="a_Node000002"><a xlink:title=" ">
<polygon fill="#e0e0e0" stroke="#999999" points="40,-20 0,-20 0,0 40,0 40,-20"/>
<text text-anchor="middle" x="20" y="-6.5" font-family="Helvetica,sans-Serif" font-size="10.00">string</text>
</a>
</g>
</g>
<!-- Node1&#45;&gt;Node2 -->
<g id="edge1_Node000001_Node000002" class="edge">
<title>Node1&#45;&gt;Node2</title>
<g id="a_edge1_Node000001_Node000002"><a xlink:title=" ">
<path fill="none" stroke="#63b8ff" d="M66.11,-55.75C57,-46.92 46.57,-36.78 37.93,-28.4"/>
<polygon fill="#63b8ff" stroke="#63b8ff" points="40.4,-25.93 30.79,-21.47 35.53,-30.95 40.4,-25.93"/>
</a>
</g>
</g>
<!-- Node3 -->
<g id="Node000003" class="node">
<title>Node3</title>
<g id="a_Node000003"><a xlink:title=" ">
<polygon fill="#e0e0e0" stroke="#999999" points="118.12,-20 57.88,-20 57.88,0 118.12,0 118.12,-20"/>
<text text-anchor="middle" x="88" y="-6.5" font-family="Helvetica,sans-Serif" font-size="10.00">filesystem</text>
</a>
</g>
</g>
<!-- Node1&#45;&gt;Node3 -->
<g id="edge2_Node000001_Node000003" class="edge">
<title>Node1&#45;&gt;Node3</title>
<g id="a_edge2_Node000001_Node000003"><a xlink:title=" ">
<path fill="none" stroke="#63b8ff" d="M88,-55.75C88,-48.13 88,-39.53 88,-31.93"/>
<polygon fill="#63b8ff" stroke="#63b8ff" points="91.5,-31.93 88,-21.93 84.5,-31.93 91.5,-31.93"/>
</a>
</g>
</g>
<!-- Node4 -->
<g id="Node000004" class="node">
<title>Node4</title>
<g id="a_Node000004"><a xlink:title=" ">
<polygon fill="#e0e0e0" stroke="#999999" points="189.75,-20 136.25,-20 136.25,0 189.75,0 189.75,-20"/>
<text text-anchor="middle" x="163" y="-6.5" font-family="Helvetica,sans-Serif" font-size="10.00">iostream</text>
</a>
</g>
</g>
<!-- Node1&#45;&gt;Node4 -->
<g id="edge3_Node000001_Node000004" class="edge">
<title>Node1&#45;&gt;Node4</title>
<g id="a_edge3_Node000001_Node000004"><a xlink:title=" ">
<path fill="none" stroke="#63b8ff" d="M112.14,-55.75C122.4,-46.73 134.19,-36.36 143.83,-27.87"/>
<polygon fill="#63b8ff" stroke="#63b8ff" points="145.97,-30.65 151.16,-21.42 141.34,-25.4 145.97,-30.65"/>
</a>
</g>
</g>
</g>
</svg>
