<?xml version="1.0" encoding="UTF-8" standalone="no"?>
<!DOCTYPE svg PUBLIC "-//W3C//DTD SVG 1.1//EN"
 "http://www.w3.org/Graphics/SVG/1.1/DTD/svg11.dtd">
<!-- Generated by graphviz version 10.0.1 (20240210.2158)
 -->
<!-- Title: C:/Users/Muddyblack/Downloads/MetaDataEditorCpp/src/helper/logging/Logger.cpp Pages: 1 -->
<svg width="216pt" height="164pt"
 viewBox="0.00 0.00 216.12 164.00" xmlns="http://www.w3.org/2000/svg" xmlns:xlink="http://www.w3.org/1999/xlink">
<g id="graph0" class="graph" transform="scale(1 1) rotate(0) translate(4 160)">
<title>C:/Users/Muddyblack/Downloads/MetaDataEditorCpp/src/helper/logging/Logger.cpp</title>
<!-- Node1 -->
<g id="Node000001" class="node">
<title>Node1</title>
<g id="a_Node000001"><a xlink:title=" ">
<polygon fill="#999999" stroke="#666666" points="154,-156 0,-156 0,-112 154,-112 154,-156"/>
<text text-anchor="start" x="8" y="-142.5" font-family="Helvetica,sans-Serif" font-size="10.00">C:/Users/Muddyblack</text>
<text text-anchor="start" x="8" y="-130.5" font-family="Helvetica,sans-Serif" font-size="10.00">/Downloads/MetaDataEditorCpp</text>
<text text-anchor="middle" x="77" y="-118.5" font-family="Helvetica,sans-Serif" font-size="10.00">/src/helper/logging/Logger.cpp</text>
</a>
</g>
</g>
<!-- Node2 -->
<g id="Node000002" class="node">
<title>Node2</title>
<g id="a_Node000002"><a xlink:title=" ">
<polygon fill="#e0e0e0" stroke="#999999" points="71.75,-20 18.25,-20 18.25,0 71.75,0 71.75,-20"/>
<text text-anchor="middle" x="45" y="-6.5" font-family="Helvetica,sans-Serif" font-size="10.00">iostream</text>
</a>
</g>
</g>
<!-- Node1&#45;&gt;Node2 -->
<g id="edge1_Node000001_Node000002" class="edge">
<title>Node1&#45;&gt;Node2</title>
<g id="a_edge1_Node000001_Node000002"><a xlink:title=" ">
<path fill="none" stroke="#63b8ff" d="M71.43,-111.75C65.5,-89.16 56.2,-53.69 50.36,-31.42"/>
<polygon fill="#63b8ff" stroke="#63b8ff" points="53.75,-30.55 47.82,-21.77 46.98,-32.33 53.75,-30.55"/>
</a>
</g>
</g>
<!-- Node3 -->
<g id="Node000003" class="node">
<title>Node3</title>
<g id="a_Node000003"><a xlink:href="_logger_8h.html" target="_top" xlink:title="Defines the Logger class and convenience functions for logging.">
<polygon fill="white" stroke="#666666" points="133.75,-76 80.25,-76 80.25,-56 133.75,-56 133.75,-76"/>
<text text-anchor="middle" x="107" y="-62.5" font-family="Helvetica,sans-Serif" font-size="10.00">Logger.h</text>
</a>
</g>
</g>
<!-- Node1&#45;&gt;Node3 -->
<g id="edge2_Node000001_Node000003" class="edge">
<title>Node1&#45;&gt;Node3</title>
<g id="a_edge2_Node000001_Node000003"><a xlink:title=" ">
<path fill="none" stroke="#63b8ff" d="M86.66,-111.75C90.29,-103.75 94.41,-94.69 97.99,-86.83"/>
<polygon fill="#63b8ff" stroke="#63b8ff" points="101.14,-88.35 102.09,-77.8 94.77,-85.45 101.14,-88.35"/>
</a>
</g>
</g>
<!-- Node3&#45;&gt;Node2 -->
<g id="edge5_Node000003_Node000002" class="edge">
<title>Node3&#45;&gt;Node2</title>
<g id="a_edge5_Node000003_Node000002"><a xlink:title=" ">
<path fill="none" stroke="#63b8ff" d="M96.2,-55.59C87.4,-47.93 74.75,-36.91 64.23,-27.75"/>
<polygon fill="#63b8ff" stroke="#63b8ff" points="66.66,-25.22 56.82,-21.29 62.06,-30.5 66.66,-25.22"/>
</a>
</g>
</g>
<!-- Node4 -->
<g id="Node000004" class="node">
<title>Node4</title>
<g id="a_Node000004"><a xlink:title=" ">
<polygon fill="#e0e0e0" stroke="#999999" points="130,-20 90,-20 90,0 130,0 130,-20"/>
<text text-anchor="middle" x="110" y="-6.5" font-family="Helvetica,sans-Serif" font-size="10.00">string</text>
</a>
</g>
</g>
<!-- Node3&#45;&gt;Node4 -->
<g id="edge3_Node000003_Node000004" class="edge">
<title>Node3&#45;&gt;Node4</title>
<g id="a_edge3_Node000003_Node000004"><a xlink:title=" ">
<path fill="none" stroke="#63b8ff" d="M107.52,-55.59C107.89,-49.01 108.39,-39.96 108.85,-31.73"/>
<polygon fill="#63b8ff" stroke="#63b8ff" points="112.34,-31.99 109.4,-21.81 105.35,-31.6 112.34,-31.99"/>
</a>
</g>
</g>
<!-- Node5 -->
<g id="Node000005" class="node">
<title>Node5</title>
<g id="a_Node000005"><a xlink:title=" ">
<polygon fill="#e0e0e0" stroke="#999999" points="208.12,-20 147.88,-20 147.88,0 208.12,0 208.12,-20"/>
<text text-anchor="middle" x="178" y="-6.5" font-family="Helvetica,sans-Serif" font-size="10.00">filesystem</text>
</a>
</g>
</g>
<!-- Node3&#45;&gt;Node5 -->
<g id="edge4_Node000003_Node000005" class="edge">
<title>Node3&#45;&gt;Node5</title>
<g id="a_edge4_Node000003_Node000005"><a xlink:title=" ">
<path fill="none" stroke="#63b8ff" d="M119.37,-55.59C129.65,-47.77 144.52,-36.46 156.71,-27.19"/>
<polygon fill="#63b8ff" stroke="#63b8ff" points="158.73,-30.05 164.57,-21.21 154.49,-24.48 158.73,-30.05"/>
</a>
</g>
</g>
</g>
</svg>
