<?xml version="1.0" encoding="UTF-8" standalone="no"?>
<!DOCTYPE svg PUBLIC "-//W3C//DTD SVG 1.1//EN"
 "http://www.w3.org/Graphics/SVG/1.1/DTD/svg11.dtd">
<!-- Generated by graphviz version 10.0.1 (20240210.2158)
 -->
<!-- Title: C:/Users/Muddyblack/Downloads/MetaDataEditorCpp/src/app/src/MetaDataHandler.cpp Pages: 1 -->
<svg width="792pt" height="164pt"
 viewBox="0.00 0.00 791.75 164.00" xmlns="http://www.w3.org/2000/svg" xmlns:xlink="http://www.w3.org/1999/xlink">
<g id="graph0" class="graph" transform="scale(1 1) rotate(0) translate(4 160)">
<title>C:/Users/Muddyblack/Downloads/MetaDataEditorCpp/src/app/src/MetaDataHandler.cpp</title>
<!-- Node1 -->
<g id="Node000001" class="node">
<title>Node1</title>
<g id="a_Node000001"><a xlink:title="Implements the MetaDataHandler class.">
<polygon fill="#999999" stroke="#666666" points="459.5,-156 295,-156 295,-112 459.5,-112 459.5,-156"/>
<text text-anchor="start" x="303" y="-142.5" font-family="Helvetica,sans-Serif" font-size="10.00">C:/Users/Muddyblack</text>
<text text-anchor="start" x="303" y="-130.5" font-family="Helvetica,sans-Serif" font-size="10.00">/Downloads/MetaDataEditorCpp</text>
<text text-anchor="middle" x="377.25" y="-118.5" font-family="Helvetica,sans-Serif" font-size="10.00">/src/app/src/MetaDataHandler.cpp</text>
</a>
</g>
</g>
<!-- Node2 -->
<g id="Node000002" class="node">
<title>Node2</title>
<g id="a_Node000002"><a xlink:title=" ">
<polygon fill="#e0e0e0" stroke="#999999" points="80.5,-76 0,-76 0,-56 80.5,-56 80.5,-76"/>
<text text-anchor="middle" x="40.25" y="-62.5" font-family="Helvetica,sans-Serif" font-size="10.00">QImageReader</text>
</a>
</g>
</g>
<!-- Node1&#45;&gt;Node2 -->
<g id="edge1_Node000001_Node000002" class="edge">
<title>Node1&#45;&gt;Node2</title>
<g id="a_edge1_Node000001_Node000002"><a xlink:title=" ">
<path fill="none" stroke="#63b8ff" d="M294.81,-116.85C231.5,-104.46 146.04,-87.72 92.03,-77.14"/>
<polygon fill="#63b8ff" stroke="#63b8ff" points="92.97,-73.76 82.48,-75.27 91.63,-80.63 92.97,-73.76"/>
</a>
</g>
</g>
<!-- Node3 -->
<g id="Node000003" class="node">
<title>Node3</title>
<g id="a_Node000003"><a xlink:title=" ">
<polygon fill="#e0e0e0" stroke="#999999" points="174.25,-76 98.25,-76 98.25,-56 174.25,-56 174.25,-76"/>
<text text-anchor="middle" x="136.25" y="-62.5" font-family="Helvetica,sans-Serif" font-size="10.00">QImageWriter</text>
</a>
</g>
</g>
<!-- Node1&#45;&gt;Node3 -->
<g id="edge2_Node000001_Node000003" class="edge">
<title>Node1&#45;&gt;Node3</title>
<g id="a_edge2_Node000001_Node000003"><a xlink:title=" ">
<path fill="none" stroke="#63b8ff" d="M299,-111.57C260.11,-100.92 214.48,-88.43 181.45,-79.38"/>
<polygon fill="#63b8ff" stroke="#63b8ff" points="182.79,-76.12 172.22,-76.85 180.94,-82.87 182.79,-76.12"/>
</a>
</g>
</g>
<!-- Node4 -->
<g id="Node000004" class="node">
<title>Node4</title>
<g id="a_Node000004"><a xlink:title=" ">
<polygon fill="#e0e0e0" stroke="#999999" points="231.88,-76 192.62,-76 192.62,-56 231.88,-56 231.88,-76"/>
<text text-anchor="middle" x="212.25" y="-62.5" font-family="Helvetica,sans-Serif" font-size="10.00">QFile</text>
</a>
</g>
</g>
<!-- Node1&#45;&gt;Node4 -->
<g id="edge3_Node000001_Node000004" class="edge">
<title>Node1&#45;&gt;Node4</title>
<g id="a_edge3_Node000001_Node000004"><a xlink:title=" ">
<path fill="none" stroke="#63b8ff" d="M323.68,-111.57C296.95,-100.88 265.59,-88.34 242.96,-79.28"/>
<polygon fill="#63b8ff" stroke="#63b8ff" points="244.29,-76.05 233.7,-75.58 241.69,-82.55 244.29,-76.05"/>
</a>
</g>
</g>
<!-- Node5 -->
<g id="Node000005" class="node">
<title>Node5</title>
<g id="a_Node000005"><a xlink:title=" ">
<polygon fill="#e0e0e0" stroke="#999999" points="448.12,-20 398.38,-20 398.38,0 448.12,0 448.12,-20"/>
<text text-anchor="middle" x="423.25" y="-6.5" font-family="Helvetica,sans-Serif" font-size="10.00">QImage</text>
</a>
</g>
</g>
<!-- Node1&#45;&gt;Node5 -->
<g id="edge4_Node000001_Node000005" class="edge">
<title>Node1&#45;&gt;Node5</title>
<g id="a_edge4_Node000001_Node000005"><a xlink:title=" ">
<path fill="none" stroke="#63b8ff" d="M316.62,-111.56C287.73,-97.86 262.72,-78.49 279.25,-56 303.75,-22.68 352.8,-13.34 386.8,-11.08"/>
<polygon fill="#63b8ff" stroke="#63b8ff" points="386.8,-14.59 396.62,-10.62 386.47,-7.59 386.8,-14.59"/>
</a>
</g>
</g>
<!-- Node6 -->
<g id="Node000006" class="node">
<title>Node6</title>
<g id="a_Node000006"><a xlink:title=" ">
<polygon fill="#e0e0e0" stroke="#999999" points="342,-76 288.5,-76 288.5,-56 342,-56 342,-76"/>
<text text-anchor="middle" x="315.25" y="-62.5" font-family="Helvetica,sans-Serif" font-size="10.00">iostream</text>
</a>
</g>
</g>
<!-- Node1&#45;&gt;Node6 -->
<g id="edge5_Node000001_Node000006" class="edge">
<title>Node1&#45;&gt;Node6</title>
<g id="a_edge5_Node000001_Node000006"><a xlink:title=" ">
<path fill="none" stroke="#63b8ff" d="M357.29,-111.75C349.08,-103.01 339.67,-93 331.84,-84.66"/>
<polygon fill="#63b8ff" stroke="#63b8ff" points="334.53,-82.41 325.13,-77.52 329.43,-87.21 334.53,-82.41"/>
</a>
</g>
</g>
<!-- Node7 -->
<g id="Node000007" class="node">
<title>Node7</title>
<g id="a_Node000007"><a xlink:title=" ">
<polygon fill="#e0e0e0" stroke="#999999" points="394.62,-76 359.88,-76 359.88,-56 394.62,-56 394.62,-76"/>
<text text-anchor="middle" x="377.25" y="-62.5" font-family="Helvetica,sans-Serif" font-size="10.00">map</text>
</a>
</g>
</g>
<!-- Node1&#45;&gt;Node7 -->
<g id="edge6_Node000001_Node000007" class="edge">
<title>Node1&#45;&gt;Node7</title>
<g id="a_edge6_Node000001_Node000007"><a xlink:title=" ">
<path fill="none" stroke="#63b8ff" d="M377.25,-111.75C377.25,-104.13 377.25,-95.53 377.25,-87.93"/>
<polygon fill="#63b8ff" stroke="#63b8ff" points="380.75,-87.93 377.25,-77.93 373.75,-87.93 380.75,-87.93"/>
</a>
</g>
</g>
<!-- Node8 -->
<g id="Node000008" class="node">
<title>Node8</title>
<g id="a_Node000008"><a xlink:title=" ">
<polygon fill="#e0e0e0" stroke="#999999" points="452.25,-76 412.25,-76 412.25,-56 452.25,-56 452.25,-76"/>
<text text-anchor="middle" x="432.25" y="-62.5" font-family="Helvetica,sans-Serif" font-size="10.00">string</text>
</a>
</g>
</g>
<!-- Node1&#45;&gt;Node8 -->
<g id="edge7_Node000001_Node000008" class="edge">
<title>Node1&#45;&gt;Node8</title>
<g id="a_edge7_Node000001_Node000008"><a xlink:title=" ">
<path fill="none" stroke="#63b8ff" d="M394.96,-111.75C402.09,-103.2 410.23,-93.42 417.09,-85.2"/>
<polygon fill="#63b8ff" stroke="#63b8ff" points="419.72,-87.5 423.43,-77.58 414.34,-83.02 419.72,-87.5"/>
</a>
</g>
</g>
<!-- Node9 -->
<g id="Node000009" class="node">
<title>Node9</title>
<g id="a_Node000009"><a xlink:title=" ">
<polygon fill="#e0e0e0" stroke="#999999" points="518.38,-76 470.12,-76 470.12,-56 518.38,-56 518.38,-76"/>
<text text-anchor="middle" x="494.25" y="-62.5" font-family="Helvetica,sans-Serif" font-size="10.00">fstream</text>
</a>
</g>
</g>
<!-- Node1&#45;&gt;Node9 -->
<g id="edge8_Node000001_Node000009" class="edge">
<title>Node1&#45;&gt;Node9</title>
<g id="a_edge8_Node000001_Node000009"><a xlink:title=" ">
<path fill="none" stroke="#63b8ff" d="M415.24,-111.57C432.37,-101.91 452.19,-90.73 467.69,-81.98"/>
<polygon fill="#63b8ff" stroke="#63b8ff" points="469.34,-85.07 476.33,-77.11 465.9,-78.97 469.34,-85.07"/>
</a>
</g>
</g>
<!-- Node10 -->
<g id="Node000010" class="node">
<title>Node10</title>
<g id="a_Node000010"><a xlink:title=" ">
<polygon fill="#e0e0e0" stroke="#999999" points="581.88,-76 536.62,-76 536.62,-56 581.88,-56 581.88,-76"/>
<text text-anchor="middle" x="559.25" y="-62.5" font-family="Helvetica,sans-Serif" font-size="10.00">cstdint</text>
</a>
</g>
</g>
<!-- Node1&#45;&gt;Node10 -->
<g id="edge9_Node000001_Node000010" class="edge">
<title>Node1&#45;&gt;Node10</title>
<g id="a_edge9_Node000001_Node000010"><a xlink:title=" ">
<path fill="none" stroke="#63b8ff" d="M436.34,-111.57C465.86,-100.87 500.52,-88.3 525.49,-79.24"/>
<polygon fill="#63b8ff" stroke="#63b8ff" points="526.6,-82.56 534.81,-75.86 524.21,-75.98 526.6,-82.56"/>
</a>
</g>
</g>
<!-- Node11 -->
<g id="Node000011" class="node">
<title>Node11</title>
<g id="a_Node000011"><a xlink:href="_meta_data_handler_8h.html" target="_top" xlink:title="Handles reading and writing metadata for application.">
<polygon fill="white" stroke="#666666" points="698.88,-76 599.62,-76 599.62,-56 698.88,-56 698.88,-76"/>
<text text-anchor="middle" x="649.25" y="-62.5" font-family="Helvetica,sans-Serif" font-size="10.00">MetaDataHandler.h</text>
</a>
</g>
</g>
<!-- Node1&#45;&gt;Node11 -->
<g id="edge10_Node000001_Node000011" class="edge">
<title>Node1&#45;&gt;Node11</title>
<g id="a_edge10_Node000001_Node000011"><a xlink:title=" ">
<path fill="none" stroke="#63b8ff" d="M459.97,-112.93C505.49,-101.88 560.47,-88.54 599.42,-79.09"/>
<polygon fill="#63b8ff" stroke="#63b8ff" points="600.1,-82.53 608.99,-76.77 598.45,-75.73 600.1,-82.53"/>
</a>
</g>
</g>
<!-- Node14 -->
<g id="Node000014" class="node">
<title>Node14</title>
<g id="a_Node000014"><a xlink:href="_p_n_g_meta_8h.html" target="_top" xlink:title="Handles reading and writing metadata for PNG.">
<polygon fill="white" stroke="#666666" points="783.75,-76 716.75,-76 716.75,-56 783.75,-56 783.75,-76"/>
<text text-anchor="middle" x="750.25" y="-62.5" font-family="Helvetica,sans-Serif" font-size="10.00">PNGMeta.h</text>
</a>
</g>
</g>
<!-- Node1&#45;&gt;Node14 -->
<g id="edge14_Node000001_Node000014" class="edge">
<title>Node1&#45;&gt;Node14</title>
<g id="a_edge14_Node000001_Node000014"><a xlink:title=" ">
<path fill="none" stroke="#63b8ff" d="M459.72,-119.75C524.1,-109.19 616.08,-93.62 705.21,-76.53"/>
<polygon fill="#63b8ff" stroke="#63b8ff" points="705.7,-80 714.86,-74.67 704.38,-73.13 705.7,-80"/>
</a>
</g>
</g>
<!-- Node11&#45;&gt;Node5 -->
<g id="edge13_Node000011_Node000005" class="edge">
<title>Node11&#45;&gt;Node5</title>
<g id="a_edge13_Node000011_Node000005"><a xlink:title=" ">
<path fill="none" stroke="#63b8ff" d="M609.63,-55.53C567.25,-45.41 500.62,-29.49 459.56,-19.68"/>
<polygon fill="#63b8ff" stroke="#63b8ff" points="460.46,-16.29 449.92,-17.37 458.83,-23.1 460.46,-16.29"/>
</a>
</g>
</g>
<!-- Node12 -->
<g id="Node000012" class="node">
<title>Node12</title>
<g id="a_Node000012"><a xlink:title=" ">
<polygon fill="#e0e0e0" stroke="#999999" points="638.38,-20 596.12,-20 596.12,0 638.38,0 638.38,-20"/>
<text text-anchor="middle" x="617.25" y="-6.5" font-family="Helvetica,sans-Serif" font-size="10.00">QMap</text>
</a>
</g>
</g>
<!-- Node11&#45;&gt;Node12 -->
<g id="edge11_Node000011_Node000012" class="edge">
<title>Node11&#45;&gt;Node12</title>
<g id="a_edge11_Node000011_Node000012"><a xlink:title=" ">
<path fill="none" stroke="#63b8ff" d="M643.68,-55.59C639.5,-48.55 633.65,-38.67 628.51,-30"/>
<polygon fill="#63b8ff" stroke="#63b8ff" points="631.64,-28.42 623.53,-21.6 625.62,-31.99 631.64,-28.42"/>
</a>
</g>
</g>
<!-- Node13 -->
<g id="Node000013" class="node">
<title>Node13</title>
<g id="a_Node000013"><a xlink:title=" ">
<polygon fill="#e0e0e0" stroke="#999999" points="705.75,-20 656.75,-20 656.75,0 705.75,0 705.75,-20"/>
<text text-anchor="middle" x="681.25" y="-6.5" font-family="Helvetica,sans-Serif" font-size="10.00">QString</text>
</a>
</g>
</g>
<!-- Node11&#45;&gt;Node13 -->
<g id="edge12_Node000011_Node000013" class="edge">
<title>Node11&#45;&gt;Node13</title>
<g id="a_edge12_Node000011_Node000013"><a xlink:title=" ">
<path fill="none" stroke="#63b8ff" d="M654.82,-55.59C659,-48.55 664.85,-38.67 669.99,-30"/>
<polygon fill="#63b8ff" stroke="#63b8ff" points="672.88,-31.99 674.97,-21.6 666.86,-28.42 672.88,-31.99"/>
</a>
</g>
</g>
</g>
</svg>
