<?xml version="1.0" encoding="UTF-8" standalone="no"?>
<!DOCTYPE svg PUBLIC "-//W3C//DTD SVG 1.1//EN"
 "http://www.w3.org/Graphics/SVG/1.1/DTD/svg11.dtd">
<!-- Generated by graphviz version 10.0.1 (20240210.2158)
 -->
<!-- Title: C:/Users/Muddyblack/Downloads/MetaDataEditorCpp/src/app/src/MetaDataHandler.cpp Pages: 1 -->
<svg width="715pt" height="164pt"
 viewBox="0.00 0.00 714.75 164.00" xmlns="http://www.w3.org/2000/svg" xmlns:xlink="http://www.w3.org/1999/xlink">
<g id="graph0" class="graph" transform="scale(1 1) rotate(0) translate(4 160)">
<title>C:/Users/Muddyblack/Downloads/MetaDataEditorCpp/src/app/src/MetaDataHandler.cpp</title>
<!-- Node1 -->
<g id="Node000001" class="node">
<title>Node1</title>
<g id="a_Node000001"><a xlink:title=" ">
<polygon fill="#999999" stroke="#666666" points="431.5,-156 267,-156 267,-112 431.5,-112 431.5,-156"/>
<text text-anchor="start" x="275" y="-142.5" font-family="Helvetica,sans-Serif" font-size="10.00">C:/Users/Muddyblack</text>
<text text-anchor="start" x="275" y="-130.5" font-family="Helvetica,sans-Serif" font-size="10.00">/Downloads/MetaDataEditorCpp</text>
<text text-anchor="middle" x="349.25" y="-118.5" font-family="Helvetica,sans-Serif" font-size="10.00">/src/app/src/MetaDataHandler.cpp</text>
</a>
</g>
</g>
<!-- Node2 -->
<g id="Node000002" class="node">
<title>Node2</title>
<g id="a_Node000002"><a xlink:title=" ">
<polygon fill="#e0e0e0" stroke="#999999" points="80.5,-76 0,-76 0,-56 80.5,-56 80.5,-76"/>
<text text-anchor="middle" x="40.25" y="-62.5" font-family="Helvetica,sans-Serif" font-size="10.00">QImageReader</text>
</a>
</g>
</g>
<!-- Node1&#45;&gt;Node2 -->
<g id="edge1_Node000001_Node000002" class="edge">
<title>Node1&#45;&gt;Node2</title>
<g id="a_edge1_Node000001_Node000002"><a xlink:title=" ">
<path fill="none" stroke="#63b8ff" d="M266.85,-115.4C211.24,-103.52 139.56,-88.21 91.86,-78.02"/>
<polygon fill="#63b8ff" stroke="#63b8ff" points="92.87,-74.66 82.35,-75.99 91.4,-81.5 92.87,-74.66"/>
</a>
</g>
</g>
<!-- Node3 -->
<g id="Node000003" class="node">
<title>Node3</title>
<g id="a_Node000003"><a xlink:title=" ">
<polygon fill="#e0e0e0" stroke="#999999" points="174.25,-76 98.25,-76 98.25,-56 174.25,-56 174.25,-76"/>
<text text-anchor="middle" x="136.25" y="-62.5" font-family="Helvetica,sans-Serif" font-size="10.00">QImageWriter</text>
</a>
</g>
</g>
<!-- Node1&#45;&gt;Node3 -->
<g id="edge2_Node000001_Node000003" class="edge">
<title>Node1&#45;&gt;Node3</title>
<g id="a_edge2_Node000001_Node000003"><a xlink:title=" ">
<path fill="none" stroke="#63b8ff" d="M280.1,-111.57C246.31,-101.1 206.8,-88.86 177.74,-79.85"/>
<polygon fill="#63b8ff" stroke="#63b8ff" points="178.79,-76.52 168.2,-76.9 176.72,-83.2 178.79,-76.52"/>
</a>
</g>
</g>
<!-- Node4 -->
<g id="Node000004" class="node">
<title>Node4</title>
<g id="a_Node000004"><a xlink:title=" ">
<polygon fill="#e0e0e0" stroke="#999999" points="231.88,-76 192.62,-76 192.62,-56 231.88,-56 231.88,-76"/>
<text text-anchor="middle" x="212.25" y="-62.5" font-family="Helvetica,sans-Serif" font-size="10.00">QFile</text>
</a>
</g>
</g>
<!-- Node1&#45;&gt;Node4 -->
<g id="edge3_Node000001_Node000004" class="edge">
<title>Node1&#45;&gt;Node4</title>
<g id="a_edge3_Node000001_Node000004"><a xlink:title=" ">
<path fill="none" stroke="#63b8ff" d="M304.77,-111.57C284.23,-101.68 260.39,-90.19 242.05,-81.36"/>
<polygon fill="#63b8ff" stroke="#63b8ff" points="243.58,-78.21 233.05,-77.02 240.54,-84.52 243.58,-78.21"/>
</a>
</g>
</g>
<!-- Node5 -->
<g id="Node000005" class="node">
<title>Node5</title>
<g id="a_Node000005"><a xlink:title=" ">
<polygon fill="#e0e0e0" stroke="#999999" points="448.12,-20 398.38,-20 398.38,0 448.12,0 448.12,-20"/>
<text text-anchor="middle" x="423.25" y="-6.5" font-family="Helvetica,sans-Serif" font-size="10.00">QImage</text>
</a>
</g>
</g>
<!-- Node1&#45;&gt;Node5 -->
<g id="edge4_Node000001_Node000005" class="edge">
<title>Node1&#45;&gt;Node5</title>
<g id="a_edge4_Node000001_Node000005"><a xlink:title=" ">
<path fill="none" stroke="#63b8ff" d="M308.93,-111.81C285.98,-96.89 264.48,-76.09 279.25,-56 303.75,-22.68 352.8,-13.34 386.8,-11.08"/>
<polygon fill="#63b8ff" stroke="#63b8ff" points="386.8,-14.59 396.62,-10.62 386.47,-7.59 386.8,-14.59"/>
</a>
</g>
</g>
<!-- Node6 -->
<g id="Node000006" class="node">
<title>Node6</title>
<g id="a_Node000006"><a xlink:title=" ">
<polygon fill="#e0e0e0" stroke="#999999" points="342,-76 288.5,-76 288.5,-56 342,-56 342,-76"/>
<text text-anchor="middle" x="315.25" y="-62.5" font-family="Helvetica,sans-Serif" font-size="10.00">iostream</text>
</a>
</g>
</g>
<!-- Node1&#45;&gt;Node6 -->
<g id="edge5_Node000001_Node000006" class="edge">
<title>Node1&#45;&gt;Node6</title>
<g id="a_edge5_Node000001_Node000006"><a xlink:title=" ">
<path fill="none" stroke="#63b8ff" d="M338.31,-111.75C334.14,-103.66 329.41,-94.48 325.32,-86.55"/>
<polygon fill="#63b8ff" stroke="#63b8ff" points="328.49,-85.05 320.8,-77.76 322.26,-88.26 328.49,-85.05"/>
</a>
</g>
</g>
<!-- Node7 -->
<g id="Node000007" class="node">
<title>Node7</title>
<g id="a_Node000007"><a xlink:title=" ">
<polygon fill="#e0e0e0" stroke="#999999" points="408.38,-76 360.12,-76 360.12,-56 408.38,-56 408.38,-76"/>
<text text-anchor="middle" x="384.25" y="-62.5" font-family="Helvetica,sans-Serif" font-size="10.00">fstream</text>
</a>
</g>
</g>
<!-- Node1&#45;&gt;Node7 -->
<g id="edge6_Node000001_Node000007" class="edge">
<title>Node1&#45;&gt;Node7</title>
<g id="a_edge6_Node000001_Node000007"><a xlink:title=" ">
<path fill="none" stroke="#63b8ff" d="M360.52,-111.75C364.81,-103.66 369.68,-94.48 373.88,-86.55"/>
<polygon fill="#63b8ff" stroke="#63b8ff" points="376.95,-88.23 378.55,-77.76 370.77,-84.95 376.95,-88.23"/>
</a>
</g>
</g>
<!-- Node8 -->
<g id="Node000008" class="node">
<title>Node8</title>
<g id="a_Node000008"><a xlink:title=" ">
<polygon fill="#e0e0e0" stroke="#999999" points="471.88,-76 426.62,-76 426.62,-56 471.88,-56 471.88,-76"/>
<text text-anchor="middle" x="449.25" y="-62.5" font-family="Helvetica,sans-Serif" font-size="10.00">cstdint</text>
</a>
</g>
</g>
<!-- Node1&#45;&gt;Node8 -->
<g id="edge7_Node000001_Node000008" class="edge">
<title>Node1&#45;&gt;Node8</title>
<g id="a_edge7_Node000001_Node000008"><a xlink:title=" ">
<path fill="none" stroke="#63b8ff" d="M381.72,-111.57C396.08,-102.09 412.65,-91.16 425.78,-82.49"/>
<polygon fill="#63b8ff" stroke="#63b8ff" points="427.38,-85.63 433.8,-77.2 423.52,-79.79 427.38,-85.63"/>
</a>
</g>
</g>
<!-- Node9 -->
<g id="Node000009" class="node">
<title>Node9</title>
<g id="a_Node000009"><a xlink:title=" ">
<polygon fill="#e0e0e0" stroke="#999999" points="524.62,-76 489.88,-76 489.88,-56 524.62,-56 524.62,-76"/>
<text text-anchor="middle" x="507.25" y="-62.5" font-family="Helvetica,sans-Serif" font-size="10.00">map</text>
</a>
</g>
</g>
<!-- Node1&#45;&gt;Node9 -->
<g id="edge8_Node000001_Node000009" class="edge">
<title>Node1&#45;&gt;Node9</title>
<g id="a_edge8_Node000001_Node000009"><a xlink:title=" ">
<path fill="none" stroke="#63b8ff" d="M400.55,-111.57C426.64,-100.67 457.34,-87.85 479.1,-78.76"/>
<polygon fill="#63b8ff" stroke="#63b8ff" points="480.31,-82.05 488.19,-74.96 477.61,-75.59 480.31,-82.05"/>
</a>
</g>
</g>
<!-- Node10 -->
<g id="Node000010" class="node">
<title>Node10</title>
<g id="a_Node000010"><a xlink:title=" ">
<polygon fill="#e0e0e0" stroke="#999999" points="582.25,-76 542.25,-76 542.25,-56 582.25,-56 582.25,-76"/>
<text text-anchor="middle" x="562.25" y="-62.5" font-family="Helvetica,sans-Serif" font-size="10.00">string</text>
</a>
</g>
</g>
<!-- Node1&#45;&gt;Node10 -->
<g id="edge9_Node000001_Node000010" class="edge">
<title>Node1&#45;&gt;Node10</title>
<g id="a_edge9_Node000001_Node000010"><a xlink:title=" ">
<path fill="none" stroke="#63b8ff" d="M418.28,-111.63C450.11,-101.77 488.66,-89.82 531.1,-76.67"/>
<polygon fill="#63b8ff" stroke="#63b8ff" points="532.01,-80.05 540.52,-73.74 529.94,-73.36 532.01,-80.05"/>
</a>
</g>
</g>
<!-- Node11 -->
<g id="Node000011" class="node">
<title>Node11</title>
<g id="a_Node000011"><a xlink:href="_meta_data_handler_8h.html" target="_top" xlink:title=" ">
<polygon fill="white" stroke="#666666" points="699.88,-76 600.62,-76 600.62,-56 699.88,-56 699.88,-76"/>
<text text-anchor="middle" x="650.25" y="-62.5" font-family="Helvetica,sans-Serif" font-size="10.00">MetaDataHandler.h</text>
</a>
</g>
</g>
<!-- Node1&#45;&gt;Node11 -->
<g id="edge10_Node000001_Node000011" class="edge">
<title>Node1&#45;&gt;Node11</title>
<g id="a_edge10_Node000001_Node000011"><a xlink:title=" ">
<path fill="none" stroke="#63b8ff" d="M431.9,-114.88C484.2,-103.41 550.33,-88.91 596.04,-78.89"/>
<polygon fill="#63b8ff" stroke="#63b8ff" points="596.7,-82.32 605.72,-76.76 595.2,-75.49 596.7,-82.32"/>
</a>
</g>
</g>
<!-- Node11&#45;&gt;Node5 -->
<g id="edge13_Node000011_Node000005" class="edge">
<title>Node11&#45;&gt;Node5</title>
<g id="a_edge13_Node000011_Node000005"><a xlink:title=" ">
<path fill="none" stroke="#63b8ff" d="M610.45,-55.53C567.89,-45.41 500.96,-29.49 459.72,-19.68"/>
<polygon fill="#63b8ff" stroke="#63b8ff" points="460.57,-16.28 450.03,-17.37 458.95,-23.09 460.57,-16.28"/>
</a>
</g>
</g>
<!-- Node12 -->
<g id="Node000012" class="node">
<title>Node12</title>
<g id="a_Node000012"><a xlink:title=" ">
<polygon fill="#e0e0e0" stroke="#999999" points="639.38,-20 597.12,-20 597.12,0 639.38,0 639.38,-20"/>
<text text-anchor="middle" x="618.25" y="-6.5" font-family="Helvetica,sans-Serif" font-size="10.00">QMap</text>
</a>
</g>
</g>
<!-- Node11&#45;&gt;Node12 -->
<g id="edge11_Node000011_Node000012" class="edge">
<title>Node11&#45;&gt;Node12</title>
<g id="a_edge11_Node000011_Node000012"><a xlink:title=" ">
<path fill="none" stroke="#63b8ff" d="M644.68,-55.59C640.5,-48.55 634.65,-38.67 629.51,-30"/>
<polygon fill="#63b8ff" stroke="#63b8ff" points="632.64,-28.42 624.53,-21.6 626.62,-31.99 632.64,-28.42"/>
</a>
</g>
</g>
<!-- Node13 -->
<g id="Node000013" class="node">
<title>Node13</title>
<g id="a_Node000013"><a xlink:title=" ">
<polygon fill="#e0e0e0" stroke="#999999" points="706.75,-20 657.75,-20 657.75,0 706.75,0 706.75,-20"/>
<text text-anchor="middle" x="682.25" y="-6.5" font-family="Helvetica,sans-Serif" font-size="10.00">QString</text>
</a>
</g>
</g>
<!-- Node11&#45;&gt;Node13 -->
<g id="edge12_Node000011_Node000013" class="edge">
<title>Node11&#45;&gt;Node13</title>
<g id="a_edge12_Node000011_Node000013"><a xlink:title=" ">
<path fill="none" stroke="#63b8ff" d="M655.82,-55.59C660,-48.55 665.85,-38.67 670.99,-30"/>
<polygon fill="#63b8ff" stroke="#63b8ff" points="673.88,-31.99 675.97,-21.6 667.86,-28.42 673.88,-31.99"/>
</a>
</g>
</g>
</g>
</svg>
