<?xml version="1.0" encoding="UTF-8" standalone="no"?>
<!DOCTYPE svg PUBLIC "-//W3C//DTD SVG 1.1//EN"
 "http://www.w3.org/Graphics/SVG/1.1/DTD/svg11.dtd">
<!-- Generated by graphviz version 10.0.1 (20240210.2158)
 -->
<!-- Title: C:/Users/Muddyblack/Downloads/MetaDataEditorCpp/src/app/src/MetaDataHandler.cpp Pages: 1 -->
<svg width="591pt" height="164pt"
 viewBox="0.00 0.00 590.75 164.00" xmlns="http://www.w3.org/2000/svg" xmlns:xlink="http://www.w3.org/1999/xlink">
<g id="graph0" class="graph" transform="scale(1 1) rotate(0) translate(4 160)">
<title>C:/Users/Muddyblack/Downloads/MetaDataEditorCpp/src/app/src/MetaDataHandler.cpp</title>
<!-- Node1 -->
<g id="Node000001" class="node">
<title>Node1</title>
<g id="a_Node000001"><a xlink:title="Implements the MetaDataHandler class.">
<polygon fill="#999999" stroke="#666666" points="364.5,-156 200,-156 200,-112 364.5,-112 364.5,-156"/>
<text text-anchor="start" x="208" y="-142.5" font-family="Helvetica,sans-Serif" font-size="10.00">C:/Users/Muddyblack</text>
<text text-anchor="start" x="208" y="-130.5" font-family="Helvetica,sans-Serif" font-size="10.00">/Downloads/MetaDataEditorCpp</text>
<text text-anchor="middle" x="282.25" y="-118.5" font-family="Helvetica,sans-Serif" font-size="10.00">/src/app/src/MetaDataHandler.cpp</text>
</a>
</g>
</g>
<!-- Node2 -->
<g id="Node000002" class="node">
<title>Node2</title>
<g id="a_Node000002"><a xlink:title=" ">
<polygon fill="#e0e0e0" stroke="#999999" points="80.5,-76 0,-76 0,-56 80.5,-56 80.5,-76"/>
<text text-anchor="middle" x="40.25" y="-62.5" font-family="Helvetica,sans-Serif" font-size="10.00">QImageReader</text>
</a>
</g>
</g>
<!-- Node1&#45;&gt;Node2 -->
<g id="edge1_Node000001_Node000002" class="edge">
<title>Node1&#45;&gt;Node2</title>
<g id="a_edge1_Node000001_Node000002"><a xlink:title=" ">
<path fill="none" stroke="#63b8ff" d="M203.68,-111.57C164.62,-100.92 118.81,-88.43 85.64,-79.38"/>
<polygon fill="#63b8ff" stroke="#63b8ff" points="86.94,-76.1 76.37,-76.85 85.09,-82.86 86.94,-76.1"/>
</a>
</g>
</g>
<!-- Node3 -->
<g id="Node000003" class="node">
<title>Node3</title>
<g id="a_Node000003"><a xlink:title=" ">
<polygon fill="#e0e0e0" stroke="#999999" points="174.25,-76 98.25,-76 98.25,-56 174.25,-56 174.25,-76"/>
<text text-anchor="middle" x="136.25" y="-62.5" font-family="Helvetica,sans-Serif" font-size="10.00">QImageWriter</text>
</a>
</g>
</g>
<!-- Node1&#45;&gt;Node3 -->
<g id="edge2_Node000001_Node000003" class="edge">
<title>Node1&#45;&gt;Node3</title>
<g id="a_edge2_Node000001_Node000003"><a xlink:title=" ">
<path fill="none" stroke="#63b8ff" d="M234.85,-111.57C212.75,-101.58 187.07,-89.97 167.46,-81.11"/>
<polygon fill="#63b8ff" stroke="#63b8ff" points="168.9,-77.92 158.35,-76.99 166.02,-84.3 168.9,-77.92"/>
</a>
</g>
</g>
<!-- Node4 -->
<g id="Node000004" class="node">
<title>Node4</title>
<g id="a_Node000004"><a xlink:title=" ">
<polygon fill="#e0e0e0" stroke="#999999" points="231.88,-76 192.62,-76 192.62,-56 231.88,-56 231.88,-76"/>
<text text-anchor="middle" x="212.25" y="-62.5" font-family="Helvetica,sans-Serif" font-size="10.00">QFile</text>
</a>
</g>
</g>
<!-- Node1&#45;&gt;Node4 -->
<g id="edge3_Node000001_Node000004" class="edge">
<title>Node1&#45;&gt;Node4</title>
<g id="a_edge3_Node000001_Node000004"><a xlink:title=" ">
<path fill="none" stroke="#63b8ff" d="M259.72,-111.75C250.24,-102.82 239.37,-92.57 230.42,-84.13"/>
<polygon fill="#63b8ff" stroke="#63b8ff" points="233.02,-81.77 223.34,-77.46 228.22,-86.86 233.02,-81.77"/>
</a>
</g>
</g>
<!-- Node5 -->
<g id="Node000005" class="node">
<title>Node5</title>
<g id="a_Node000005"><a xlink:title=" ">
<polygon fill="#e0e0e0" stroke="#999999" points="347.12,-20 297.38,-20 297.38,0 347.12,0 347.12,-20"/>
<text text-anchor="middle" x="322.25" y="-6.5" font-family="Helvetica,sans-Serif" font-size="10.00">QImage</text>
</a>
</g>
</g>
<!-- Node1&#45;&gt;Node5 -->
<g id="edge4_Node000001_Node000005" class="edge">
<title>Node1&#45;&gt;Node5</title>
<g id="a_edge4_Node000001_Node000005"><a xlink:title=" ">
<path fill="none" stroke="#63b8ff" d="M276.85,-111.62C273.9,-95.7 272.13,-73.76 279.25,-56 283.62,-45.1 292.03,-35.34 300.26,-27.72"/>
<polygon fill="#63b8ff" stroke="#63b8ff" points="302.43,-30.47 307.77,-21.33 297.89,-25.15 302.43,-30.47"/>
</a>
</g>
</g>
<!-- Node6 -->
<g id="Node000006" class="node">
<title>Node6</title>
<g id="a_Node000006"><a xlink:title=" ">
<polygon fill="#e0e0e0" stroke="#999999" points="322.62,-76 287.88,-76 287.88,-56 322.62,-56 322.62,-76"/>
<text text-anchor="middle" x="305.25" y="-62.5" font-family="Helvetica,sans-Serif" font-size="10.00">map</text>
</a>
</g>
</g>
<!-- Node1&#45;&gt;Node6 -->
<g id="edge5_Node000001_Node000006" class="edge">
<title>Node1&#45;&gt;Node6</title>
<g id="a_edge5_Node000001_Node000006"><a xlink:title=" ">
<path fill="none" stroke="#63b8ff" d="M289.65,-111.75C292.41,-103.85 295.53,-94.9 298.25,-87.1"/>
<polygon fill="#63b8ff" stroke="#63b8ff" points="301.48,-88.44 301.47,-77.85 294.87,-86.14 301.48,-88.44"/>
</a>
</g>
</g>
<!-- Node7 -->
<g id="Node000007" class="node">
<title>Node7</title>
<g id="a_Node000007"><a xlink:title=" ">
<polygon fill="#e0e0e0" stroke="#999999" points="380.25,-76 340.25,-76 340.25,-56 380.25,-56 380.25,-76"/>
<text text-anchor="middle" x="360.25" y="-62.5" font-family="Helvetica,sans-Serif" font-size="10.00">string</text>
</a>
</g>
</g>
<!-- Node1&#45;&gt;Node7 -->
<g id="edge6_Node000001_Node000007" class="edge">
<title>Node1&#45;&gt;Node7</title>
<g id="a_edge6_Node000001_Node000007"><a xlink:title=" ">
<path fill="none" stroke="#63b8ff" d="M307.36,-111.75C318.13,-102.64 330.54,-92.14 340.62,-83.61"/>
<polygon fill="#63b8ff" stroke="#63b8ff" points="342.59,-86.53 347.96,-77.4 338.07,-81.18 342.59,-86.53"/>
</a>
</g>
</g>
<!-- Node8 -->
<g id="Node000008" class="node">
<title>Node8</title>
<g id="a_Node000008"><a xlink:href="_meta_data_handler_8h.html" target="_top" xlink:title="Handles reading and writing metadata for application.">
<polygon fill="white" stroke="#666666" points="497.88,-76 398.62,-76 398.62,-56 497.88,-56 497.88,-76"/>
<text text-anchor="middle" x="448.25" y="-62.5" font-family="Helvetica,sans-Serif" font-size="10.00">MetaDataHandler.h</text>
</a>
</g>
</g>
<!-- Node1&#45;&gt;Node8 -->
<g id="edge7_Node000001_Node000008" class="edge">
<title>Node1&#45;&gt;Node8</title>
<g id="a_edge7_Node000001_Node000008"><a xlink:title=" ">
<path fill="none" stroke="#63b8ff" d="M336.15,-111.57C361.74,-101.4 391.56,-89.54 414,-80.62"/>
<polygon fill="#63b8ff" stroke="#63b8ff" points="415.29,-83.87 423.29,-76.92 412.7,-77.37 415.29,-83.87"/>
</a>
</g>
</g>
<!-- Node11 -->
<g id="Node000011" class="node">
<title>Node11</title>
<g id="a_Node000011"><a xlink:href="_p_n_g_meta_8h.html" target="_top" xlink:title="Handles reading and writing metadata for PNG.">
<polygon fill="white" stroke="#666666" points="582.75,-76 515.75,-76 515.75,-56 582.75,-56 582.75,-76"/>
<text text-anchor="middle" x="549.25" y="-62.5" font-family="Helvetica,sans-Serif" font-size="10.00">PNGMeta.h</text>
</a>
</g>
</g>
<!-- Node1&#45;&gt;Node11 -->
<g id="edge11_Node000001_Node000011" class="edge">
<title>Node1&#45;&gt;Node11</title>
<g id="a_edge11_Node000001_Node000011"><a xlink:title=" ">
<path fill="none" stroke="#63b8ff" d="M364.9,-112.57C411.04,-101.16 466.71,-87.4 504.72,-78.01"/>
<polygon fill="#63b8ff" stroke="#63b8ff" points="505.09,-81.52 513.96,-75.72 503.41,-74.73 505.09,-81.52"/>
</a>
</g>
</g>
<!-- Node8&#45;&gt;Node5 -->
<g id="edge10_Node000008_Node000005" class="edge">
<title>Node8&#45;&gt;Node5</title>
<g id="a_edge10_Node000008_Node000005"><a xlink:title=" ">
<path fill="none" stroke="#63b8ff" d="M426.3,-55.59C406.55,-47.13 377.26,-34.58 354.78,-24.94"/>
<polygon fill="#63b8ff" stroke="#63b8ff" points="356.33,-21.8 345.76,-21.08 353.57,-28.23 356.33,-21.8"/>
</a>
</g>
</g>
<!-- Node9 -->
<g id="Node000009" class="node">
<title>Node9</title>
<g id="a_Node000009"><a xlink:title=" ">
<polygon fill="#e0e0e0" stroke="#999999" points="437.38,-20 395.12,-20 395.12,0 437.38,0 437.38,-20"/>
<text text-anchor="middle" x="416.25" y="-6.5" font-family="Helvetica,sans-Serif" font-size="10.00">QMap</text>
</a>
</g>
</g>
<!-- Node8&#45;&gt;Node9 -->
<g id="edge8_Node000008_Node000009" class="edge">
<title>Node8&#45;&gt;Node9</title>
<g id="a_edge8_Node000008_Node000009"><a xlink:title=" ">
<path fill="none" stroke="#63b8ff" d="M442.68,-55.59C438.5,-48.55 432.65,-38.67 427.51,-30"/>
<polygon fill="#63b8ff" stroke="#63b8ff" points="430.64,-28.42 422.53,-21.6 424.62,-31.99 430.64,-28.42"/>
</a>
</g>
</g>
<!-- Node10 -->
<g id="Node000010" class="node">
<title>Node10</title>
<g id="a_Node000010"><a xlink:title=" ">
<polygon fill="#e0e0e0" stroke="#999999" points="504.75,-20 455.75,-20 455.75,0 504.75,0 504.75,-20"/>
<text text-anchor="middle" x="480.25" y="-6.5" font-family="Helvetica,sans-Serif" font-size="10.00">QString</text>
</a>
</g>
</g>
<!-- Node8&#45;&gt;Node10 -->
<g id="edge9_Node000008_Node000010" class="edge">
<title>Node8&#45;&gt;Node10</title>
<g id="a_edge9_Node000008_Node000010"><a xlink:title=" ">
<path fill="none" stroke="#63b8ff" d="M453.82,-55.59C458,-48.55 463.85,-38.67 468.99,-30"/>
<polygon fill="#63b8ff" stroke="#63b8ff" points="471.88,-31.99 473.97,-21.6 465.86,-28.42 471.88,-31.99"/>
</a>
</g>
</g>
</g>
</svg>
