<?xml version="1.0" encoding="UTF-8" standalone="no"?>
<!DOCTYPE svg PUBLIC "-//W3C//DTD SVG 1.1//EN"
 "http://www.w3.org/Graphics/SVG/1.1/DTD/svg11.dtd">
<!-- Generated by graphviz version 10.0.1 (20240210.2158)
 -->
<!-- Title: C:/Users/Muddyblack/Downloads/MetaDataEditorCpp/src/metadata/include/MetaDataHandler.h Pages: 1 -->
<svg width="477pt" height="212pt"
 viewBox="0.00 0.00 476.62 212.00" xmlns="http://www.w3.org/2000/svg" xmlns:xlink="http://www.w3.org/1999/xlink">
<g id="graph0" class="graph" transform="scale(1 1) rotate(0) translate(4 208)">
<title>C:/Users/Muddyblack/Downloads/MetaDataEditorCpp/src/metadata/include/MetaDataHandler.h</title>
<!-- Node1 -->
<g id="Node000001" class="node">
<title>Node1</title>
<g id="a_Node000001"><a xlink:title="Handles reading and writing metadata.">
<polygon fill="#999999" stroke="#666666" points="349,-204 153,-204 153,-160 349,-160 349,-204"/>
<text text-anchor="start" x="161" y="-190.5" font-family="Helvetica,sans-Serif" font-size="10.00">C:/Users/Muddyblack</text>
<text text-anchor="start" x="161" y="-178.5" font-family="Helvetica,sans-Serif" font-size="10.00">/Downloads/MetaDataEditorCpp</text>
<text text-anchor="middle" x="251" y="-166.5" font-family="Helvetica,sans-Serif" font-size="10.00">/src/metadata/include/MetaDataHandler.h</text>
</a>
</g>
</g>
<!-- Node2 -->
<g id="Node000002" class="node">
<title>Node2</title>
<g id="a_Node000002"><a xlink:href="_image_editor_g_u_i_8h.html" target="_top" xlink:title="Defines the ImageEditorGUI class for editing files.">
<polygon fill="white" stroke="#666666" points="223.25,-124 58.75,-124 58.75,-80 223.25,-80 223.25,-124"/>
<text text-anchor="start" x="66.75" y="-110.5" font-family="Helvetica,sans-Serif" font-size="10.00">C:/Users/Muddyblack</text>
<text text-anchor="start" x="66.75" y="-98.5" font-family="Helvetica,sans-Serif" font-size="10.00">/Downloads/MetaDataEditorCpp</text>
<text text-anchor="middle" x="141" y="-86.5" font-family="Helvetica,sans-Serif" font-size="10.00">/src/app/include/ImageEditorGUI.h</text>
</a>
</g>
</g>
<!-- Node1&#45;&gt;Node2 -->
<g id="edge1_Node000001_Node000002" class="edge">
<title>Node1&#45;&gt;Node2</title>
<g id="a_edge1_Node000001_Node000002"><a xlink:title=" ">
<path fill="none" stroke="#63b8ff" d="M211.9,-153.28C198.46,-143.74 183.63,-133.23 171.02,-124.29"/>
<polygon fill="#63b8ff" stroke="#63b8ff" points="209.53,-155.88 219.71,-158.81 213.57,-150.17 209.53,-155.88"/>
</a>
</g>
</g>
<!-- Node4 -->
<g id="Node000004" class="node">
<title>Node4</title>
<g id="a_Node000004"><a xlink:href="_image_editor_g_u_i_8cpp.html" target="_top" xlink:title="Implements the ImageEditorGUI class for editing files.">
<polygon fill="white" stroke="#666666" points="329.88,-44 172.12,-44 172.12,0 329.88,0 329.88,-44"/>
<text text-anchor="start" x="180.12" y="-30.5" font-family="Helvetica,sans-Serif" font-size="10.00">C:/Users/Muddyblack</text>
<text text-anchor="start" x="180.12" y="-18.5" font-family="Helvetica,sans-Serif" font-size="10.00">/Downloads/MetaDataEditorCpp</text>
<text text-anchor="middle" x="251" y="-6.5" font-family="Helvetica,sans-Serif" font-size="10.00">/src/app/src/ImageEditorGUI.cpp</text>
</a>
</g>
</g>
<!-- Node1&#45;&gt;Node4 -->
<g id="edge4_Node000001_Node000004" class="edge">
<title>Node1&#45;&gt;Node4</title>
<g id="a_edge4_Node000001_Node000004"><a xlink:title=" ">
<path fill="none" stroke="#63b8ff" d="M251,-148.57C251,-117.43 251,-71.3 251,-44.48"/>
<polygon fill="#63b8ff" stroke="#63b8ff" points="247.5,-148.18 251,-158.18 254.5,-148.18 247.5,-148.18"/>
</a>
</g>
</g>
<!-- Node5 -->
<g id="Node000005" class="node">
<title>Node5</title>
<g id="a_Node000005"><a xlink:href="_meta_data_handler_8cpp.html" target="_top" xlink:title="Implements the MetaDataHandler class.">
<polygon fill="white" stroke="#666666" points="468.62,-124 279.38,-124 279.38,-80 468.62,-80 468.62,-124"/>
<text text-anchor="start" x="287.38" y="-110.5" font-family="Helvetica,sans-Serif" font-size="10.00">C:/Users/Muddyblack</text>
<text text-anchor="start" x="287.38" y="-98.5" font-family="Helvetica,sans-Serif" font-size="10.00">/Downloads/MetaDataEditorCpp</text>
<text text-anchor="middle" x="374" y="-86.5" font-family="Helvetica,sans-Serif" font-size="10.00">/src/metadata/src/MetaDataHandler.cpp</text>
</a>
</g>
</g>
<!-- Node1&#45;&gt;Node5 -->
<g id="edge5_Node000001_Node000005" class="edge">
<title>Node1&#45;&gt;Node5</title>
<g id="a_edge5_Node000001_Node000005"><a xlink:title=" ">
<path fill="none" stroke="#63b8ff" d="M294.29,-153.55C309.43,-143.95 326.2,-133.31 340.43,-124.29"/>
<polygon fill="#63b8ff" stroke="#63b8ff" points="292.46,-150.56 285.89,-158.88 296.21,-156.48 292.46,-150.56"/>
</a>
</g>
</g>
<!-- Node3 -->
<g id="Node000003" class="node">
<title>Node3</title>
<g id="a_Node000003"><a xlink:href="main_8cpp.html" target="_top" xlink:title="Entry point for the MetaData Editor application.">
<polygon fill="white" stroke="#666666" points="154,-44 0,-44 0,0 154,0 154,-44"/>
<text text-anchor="start" x="8" y="-30.5" font-family="Helvetica,sans-Serif" font-size="10.00">C:/Users/Muddyblack</text>
<text text-anchor="start" x="8" y="-18.5" font-family="Helvetica,sans-Serif" font-size="10.00">/Downloads/MetaDataEditorCpp</text>
<text text-anchor="middle" x="77" y="-6.5" font-family="Helvetica,sans-Serif" font-size="10.00">/src/app/main.cpp</text>
</a>
</g>
</g>
<!-- Node2&#45;&gt;Node3 -->
<g id="edge2_Node000002_Node000003" class="edge">
<title>Node2&#45;&gt;Node3</title>
<g id="a_edge2_Node000002_Node000003"><a xlink:title=" ">
<path fill="none" stroke="#63b8ff" d="M116.43,-71.06C109.11,-62.13 101.24,-52.54 94.47,-44.29"/>
<polygon fill="#63b8ff" stroke="#63b8ff" points="113.5,-73.01 122.55,-78.52 118.91,-68.57 113.5,-73.01"/>
</a>
</g>
</g>
<!-- Node2&#45;&gt;Node4 -->
<g id="edge3_Node000002_Node000004" class="edge">
<title>Node2&#45;&gt;Node4</title>
<g id="a_edge3_Node000002_Node000004"><a xlink:title=" ">
<path fill="none" stroke="#63b8ff" d="M180.1,-73.28C193.54,-63.74 208.37,-53.23 220.98,-44.29"/>
<polygon fill="#63b8ff" stroke="#63b8ff" points="178.43,-70.17 172.29,-78.81 182.47,-75.88 178.43,-70.17"/>
</a>
</g>
</g>
</g>
</svg>
