<?xml version="1.0" encoding="UTF-8" standalone="no"?>
<!DOCTYPE svg PUBLIC "-//W3C//DTD SVG 1.1//EN"
 "http://www.w3.org/Graphics/SVG/1.1/DTD/svg11.dtd">
<!-- Generated by graphviz version 10.0.1 (20240210.2158)
 -->
<!-- Title: C:/Users/Muddyblack/Downloads/MetaDataEditorCpp/src/metadata/src/PNGMeta.cpp Pages: 1 -->
<svg width="379pt" height="164pt"
 viewBox="0.00 0.00 379.25 164.00" xmlns="http://www.w3.org/2000/svg" xmlns:xlink="http://www.w3.org/1999/xlink">
<g id="graph0" class="graph" transform="scale(1 1) rotate(0) translate(4 160)">
<title>C:/Users/Muddyblack/Downloads/MetaDataEditorCpp/src/metadata/src/PNGMeta.cpp</title>
<!-- Node1 -->
<g id="Node000001" class="node">
<title>Node1</title>
<g id="a_Node000001"><a xlink:title="Implements the PNGMeta class.">
<polygon fill="#999999" stroke="#666666" points="261.25,-156 104.25,-156 104.25,-112 261.25,-112 261.25,-156"/>
<text text-anchor="start" x="112.25" y="-142.5" font-family="Helvetica,sans-Serif" font-size="10.00">C:/Users/Muddyblack</text>
<text text-anchor="start" x="112.25" y="-130.5" font-family="Helvetica,sans-Serif" font-size="10.00">/Downloads/MetaDataEditorCpp</text>
<text text-anchor="middle" x="182.75" y="-118.5" font-family="Helvetica,sans-Serif" font-size="10.00">/src/metadata/src/PNGMeta.cpp</text>
</a>
</g>
</g>
<!-- Node2 -->
<g id="Node000002" class="node">
<title>Node2</title>
<g id="a_Node000002"><a xlink:title=" ">
<polygon fill="#e0e0e0" stroke="#999999" points="53.5,-20 0,-20 0,0 53.5,0 53.5,-20"/>
<text text-anchor="middle" x="26.75" y="-6.5" font-family="Helvetica,sans-Serif" font-size="10.00">iostream</text>
</a>
</g>
</g>
<!-- Node1&#45;&gt;Node2 -->
<g id="edge1_Node000001_Node000002" class="edge">
<title>Node1&#45;&gt;Node2</title>
<g id="a_edge1_Node000001_Node000002"><a xlink:title=" ">
<path fill="none" stroke="#63b8ff" d="M122.41,-111.62C102.83,-102.7 81.99,-90.88 65.75,-76 51.96,-63.36 41.45,-44.71 34.84,-30.62"/>
<polygon fill="#63b8ff" stroke="#63b8ff" points="38.05,-29.23 30.83,-21.48 31.64,-32.05 38.05,-29.23"/>
</a>
</g>
</g>
<!-- Node3 -->
<g id="Node000003" class="node">
<title>Node3</title>
<g id="a_Node000003"><a xlink:title=" ">
<polygon fill="#e0e0e0" stroke="#999999" points="232.88,-76 184.62,-76 184.62,-56 232.88,-56 232.88,-76"/>
<text text-anchor="middle" x="208.75" y="-62.5" font-family="Helvetica,sans-Serif" font-size="10.00">fstream</text>
</a>
</g>
</g>
<!-- Node1&#45;&gt;Node3 -->
<g id="edge2_Node000001_Node000003" class="edge">
<title>Node1&#45;&gt;Node3</title>
<g id="a_edge2_Node000001_Node000003"><a xlink:title=" ">
<path fill="none" stroke="#63b8ff" d="M191.12,-111.75C194.23,-103.85 197.76,-94.9 200.83,-87.1"/>
<polygon fill="#63b8ff" stroke="#63b8ff" points="204.08,-88.41 204.48,-77.83 197.56,-85.85 204.08,-88.41"/>
</a>
</g>
</g>
<!-- Node4 -->
<g id="Node000004" class="node">
<title>Node4</title>
<g id="a_Node000004"><a xlink:title=" ">
<polygon fill="#e0e0e0" stroke="#999999" points="286.12,-76 251.38,-76 251.38,-56 286.12,-56 286.12,-76"/>
<text text-anchor="middle" x="268.75" y="-62.5" font-family="Helvetica,sans-Serif" font-size="10.00">map</text>
</a>
</g>
</g>
<!-- Node1&#45;&gt;Node4 -->
<g id="edge3_Node000001_Node000004" class="edge">
<title>Node1&#45;&gt;Node4</title>
<g id="a_edge3_Node000001_Node000004"><a xlink:title=" ">
<path fill="none" stroke="#63b8ff" d="M210.43,-111.75C222.44,-102.54 236.27,-91.93 247.45,-83.35"/>
<polygon fill="#63b8ff" stroke="#63b8ff" points="249.47,-86.21 255.28,-77.34 245.21,-80.65 249.47,-86.21"/>
</a>
</g>
</g>
<!-- Node5 -->
<g id="Node000005" class="node">
<title>Node5</title>
<g id="a_Node000005"><a xlink:title=" ">
<polygon fill="#e0e0e0" stroke="#999999" points="189.75,-20 149.75,-20 149.75,0 189.75,0 189.75,-20"/>
<text text-anchor="middle" x="169.75" y="-6.5" font-family="Helvetica,sans-Serif" font-size="10.00">string</text>
</a>
</g>
</g>
<!-- Node1&#45;&gt;Node5 -->
<g id="edge4_Node000001_Node000005" class="edge">
<title>Node1&#45;&gt;Node5</title>
<g id="a_edge4_Node000001_Node000005"><a xlink:title=" ">
<path fill="none" stroke="#63b8ff" d="M179.97,-111.63C178.62,-100.94 177.02,-87.8 175.75,-76 174.15,-61.13 172.61,-44.31 171.48,-31.51"/>
<polygon fill="#63b8ff" stroke="#63b8ff" points="174.99,-31.44 170.65,-21.77 168.02,-32.04 174.99,-31.44"/>
</a>
</g>
</g>
<!-- Node6 -->
<g id="Node000006" class="node">
<title>Node6</title>
<g id="a_Node000006"><a xlink:href="_p_n_g_meta_8h.html" target="_top" xlink:title="Handles reading and writing metadata for PNG.">
<polygon fill="white" stroke="#666666" points="371.25,-76 304.25,-76 304.25,-56 371.25,-56 371.25,-76"/>
<text text-anchor="middle" x="337.75" y="-62.5" font-family="Helvetica,sans-Serif" font-size="10.00">PNGMeta.h</text>
</a>
</g>
</g>
<!-- Node1&#45;&gt;Node6 -->
<g id="edge5_Node000001_Node000006" class="edge">
<title>Node1&#45;&gt;Node6</title>
<g id="a_edge5_Node000001_Node000006"><a xlink:title=" ">
<path fill="none" stroke="#63b8ff" d="M233.07,-111.57C256.75,-101.49 284.3,-89.76 305.2,-80.86"/>
<polygon fill="#63b8ff" stroke="#63b8ff" points="306.53,-84.1 314.36,-76.96 303.79,-77.66 306.53,-84.1"/>
</a>
</g>
</g>
<!-- Node7 -->
<g id="Node000007" class="node">
<title>Node7</title>
<g id="a_Node000007"><a xlink:href="_logger_8h.html" target="_top" xlink:title="Defines the Logger class and convenience functions for logging.">
<polygon fill="white" stroke="#666666" points="128.5,-76 75,-76 75,-56 128.5,-56 128.5,-76"/>
<text text-anchor="middle" x="101.75" y="-62.5" font-family="Helvetica,sans-Serif" font-size="10.00">Logger.h</text>
</a>
</g>
</g>
<!-- Node1&#45;&gt;Node7 -->
<g id="edge6_Node000001_Node000007" class="edge">
<title>Node1&#45;&gt;Node7</title>
<g id="a_edge6_Node000001_Node000007"><a xlink:title=" ">
<path fill="none" stroke="#63b8ff" d="M156.68,-111.75C145.49,-102.64 132.61,-92.14 122.13,-83.61"/>
<polygon fill="#63b8ff" stroke="#63b8ff" points="124.45,-80.98 114.48,-77.37 120.02,-86.41 124.45,-80.98"/>
</a>
</g>
</g>
<!-- Node7&#45;&gt;Node2 -->
<g id="edge9_Node000007_Node000002" class="edge">
<title>Node7&#45;&gt;Node2</title>
<g id="a_edge9_Node000007_Node000002"><a xlink:title=" ">
<path fill="none" stroke="#63b8ff" d="M88.69,-55.59C77.78,-47.74 62,-36.38 49.09,-27.09"/>
<polygon fill="#63b8ff" stroke="#63b8ff" points="51.3,-24.37 41.14,-21.36 47.21,-30.05 51.3,-24.37"/>
</a>
</g>
</g>
<!-- Node7&#45;&gt;Node5 -->
<g id="edge7_Node000007_Node000005" class="edge">
<title>Node7&#45;&gt;Node5</title>
<g id="a_edge7_Node000007_Node000005"><a xlink:title=" ">
<path fill="none" stroke="#63b8ff" d="M113.59,-55.59C123.44,-47.77 137.68,-36.46 149.36,-27.19"/>
<polygon fill="#63b8ff" stroke="#63b8ff" points="151.2,-30.2 156.86,-21.24 146.85,-24.72 151.2,-30.2"/>
</a>
</g>
</g>
<!-- Node8 -->
<g id="Node000008" class="node">
<title>Node8</title>
<g id="a_Node000008"><a xlink:title=" ">
<polygon fill="#e0e0e0" stroke="#999999" points="131.88,-20 71.62,-20 71.62,0 131.88,0 131.88,-20"/>
<text text-anchor="middle" x="101.75" y="-6.5" font-family="Helvetica,sans-Serif" font-size="10.00">filesystem</text>
</a>
</g>
</g>
<!-- Node7&#45;&gt;Node8 -->
<g id="edge8_Node000007_Node000008" class="edge">
<title>Node7&#45;&gt;Node8</title>
<g id="a_edge8_Node000007_Node000008"><a xlink:title=" ">
<path fill="none" stroke="#63b8ff" d="M101.75,-55.59C101.75,-49.01 101.75,-39.96 101.75,-31.73"/>
<polygon fill="#63b8ff" stroke="#63b8ff" points="105.25,-31.81 101.75,-21.81 98.25,-31.81 105.25,-31.81"/>
</a>
</g>
</g>
</g>
</svg>
