<?xml version="1.0" encoding="UTF-8" standalone="no"?>
<!DOCTYPE svg PUBLIC "-//W3C//DTD SVG 1.1//EN"
 "http://www.w3.org/Graphics/SVG/1.1/DTD/svg11.dtd">
<!-- Generated by graphviz version 10.0.1 (20240210.2158)
 -->
<!-- Title: C:/Users/Muddyblack/Downloads/MetaDataEditorCpp/src/metadata/src/PNGMeta.cpp Pages: 1 -->
<svg width="357pt" height="164pt"
 viewBox="0.00 0.00 356.62 164.00" xmlns="http://www.w3.org/2000/svg" xmlns:xlink="http://www.w3.org/1999/xlink">
<g id="graph0" class="graph" transform="scale(1 1) rotate(0) translate(4 160)">
<title>C:/Users/Muddyblack/Downloads/MetaDataEditorCpp/src/metadata/src/PNGMeta.cpp</title>
<!-- Node1 -->
<g id="Node000001" class="node">
<title>Node1</title>
<g id="a_Node000001"><a xlink:title="Implements the PNGMeta class.">
<polygon fill="#999999" stroke="#666666" points="238.87,-156 81.87,-156 81.87,-112 238.87,-112 238.87,-156"/>
<text text-anchor="start" x="89.87" y="-142.5" font-family="Helvetica,sans-Serif" font-size="10.00">C:/Users/Muddyblack</text>
<text text-anchor="start" x="89.87" y="-130.5" font-family="Helvetica,sans-Serif" font-size="10.00">/Downloads/MetaDataEditorCpp</text>
<text text-anchor="middle" x="160.37" y="-118.5" font-family="Helvetica,sans-Serif" font-size="10.00">/src/metadata/src/PNGMeta.cpp</text>
</a>
</g>
</g>
<!-- Node2 -->
<g id="Node000002" class="node">
<title>Node2</title>
<g id="a_Node000002"><a xlink:title=" ">
<polygon fill="#e0e0e0" stroke="#999999" points="93.12,-20 39.62,-20 39.62,0 93.12,0 93.12,-20"/>
<text text-anchor="middle" x="66.37" y="-6.5" font-family="Helvetica,sans-Serif" font-size="10.00">iostream</text>
</a>
</g>
</g>
<!-- Node1&#45;&gt;Node2 -->
<g id="edge1_Node000001_Node000002" class="edge">
<title>Node1&#45;&gt;Node2</title>
<g id="a_edge1_Node000001_Node000002"><a xlink:title=" ">
<path fill="none" stroke="#63b8ff" d="M81.72,-123.35C52.49,-115.52 22.13,-101.4 4.37,-76 -8.9,-57.02 14.08,-38.19 35.73,-25.72"/>
<polygon fill="#63b8ff" stroke="#63b8ff" points="37.29,-28.85 44.43,-21.02 33.97,-22.7 37.29,-28.85"/>
</a>
</g>
</g>
<!-- Node3 -->
<g id="Node000003" class="node">
<title>Node3</title>
<g id="a_Node000003"><a xlink:title=" ">
<polygon fill="#e0e0e0" stroke="#999999" points="61.49,-76 13.24,-76 13.24,-56 61.49,-56 61.49,-76"/>
<text text-anchor="middle" x="37.37" y="-62.5" font-family="Helvetica,sans-Serif" font-size="10.00">fstream</text>
</a>
</g>
</g>
<!-- Node1&#45;&gt;Node3 -->
<g id="edge2_Node000001_Node000003" class="edge">
<title>Node1&#45;&gt;Node3</title>
<g id="a_edge2_Node000001_Node000003"><a xlink:title=" ">
<path fill="none" stroke="#63b8ff" d="M120.43,-111.57C102.25,-101.81 81.19,-90.51 64.82,-81.73"/>
<polygon fill="#63b8ff" stroke="#63b8ff" points="66.62,-78.73 56.16,-77.08 63.31,-84.89 66.62,-78.73"/>
</a>
</g>
</g>
<!-- Node4 -->
<g id="Node000004" class="node">
<title>Node4</title>
<g id="a_Node000004"><a xlink:title=" ">
<polygon fill="#e0e0e0" stroke="#999999" points="124.99,-76 79.74,-76 79.74,-56 124.99,-56 124.99,-76"/>
<text text-anchor="middle" x="102.37" y="-62.5" font-family="Helvetica,sans-Serif" font-size="10.00">cstdint</text>
</a>
</g>
</g>
<!-- Node1&#45;&gt;Node4 -->
<g id="edge3_Node000001_Node000004" class="edge">
<title>Node1&#45;&gt;Node4</title>
<g id="a_edge3_Node000001_Node000004"><a xlink:title=" ">
<path fill="none" stroke="#63b8ff" d="M141.7,-111.75C134.1,-103.1 125.4,-93.21 118.13,-84.93"/>
<polygon fill="#63b8ff" stroke="#63b8ff" points="120.88,-82.76 111.65,-77.56 115.62,-87.38 120.88,-82.76"/>
</a>
</g>
</g>
<!-- Node5 -->
<g id="Node000005" class="node">
<title>Node5</title>
<g id="a_Node000005"><a xlink:title=" ">
<polygon fill="#e0e0e0" stroke="#999999" points="177.74,-76 142.99,-76 142.99,-56 177.74,-56 177.74,-76"/>
<text text-anchor="middle" x="160.37" y="-62.5" font-family="Helvetica,sans-Serif" font-size="10.00">map</text>
</a>
</g>
</g>
<!-- Node1&#45;&gt;Node5 -->
<g id="edge4_Node000001_Node000005" class="edge">
<title>Node1&#45;&gt;Node5</title>
<g id="a_edge4_Node000001_Node000005"><a xlink:title=" ">
<path fill="none" stroke="#63b8ff" d="M160.37,-111.75C160.37,-104.13 160.37,-95.53 160.37,-87.93"/>
<polygon fill="#63b8ff" stroke="#63b8ff" points="163.87,-87.93 160.37,-77.93 156.87,-87.93 163.87,-87.93"/>
</a>
</g>
</g>
<!-- Node6 -->
<g id="Node000006" class="node">
<title>Node6</title>
<g id="a_Node000006"><a xlink:title=" ">
<polygon fill="#e0e0e0" stroke="#999999" points="346.37,-20 306.37,-20 306.37,0 346.37,0 346.37,-20"/>
<text text-anchor="middle" x="326.37" y="-6.5" font-family="Helvetica,sans-Serif" font-size="10.00">string</text>
</a>
</g>
</g>
<!-- Node1&#45;&gt;Node6 -->
<g id="edge5_Node000001_Node000006" class="edge">
<title>Node1&#45;&gt;Node6</title>
<g id="a_edge5_Node000001_Node000006"><a xlink:title=" ">
<path fill="none" stroke="#63b8ff" d="M238.99,-129.3C276.97,-123.06 319.41,-108.56 343.37,-76 353.29,-62.52 346.75,-43.74 339.09,-29.83"/>
<polygon fill="#63b8ff" stroke="#63b8ff" points="342.26,-28.31 334.05,-21.6 336.29,-31.96 342.26,-28.31"/>
</a>
</g>
</g>
<!-- Node7 -->
<g id="Node000007" class="node">
<title>Node7</title>
<g id="a_Node000007"><a xlink:href="_p_n_g_meta_8h.html" target="_top" xlink:title="Handles reading and writing metadata for PNG.">
<polygon fill="white" stroke="#666666" points="333.87,-76 266.87,-76 266.87,-56 333.87,-56 333.87,-76"/>
<text text-anchor="middle" x="300.37" y="-62.5" font-family="Helvetica,sans-Serif" font-size="10.00">PNGMeta.h</text>
</a>
</g>
</g>
<!-- Node1&#45;&gt;Node7 -->
<g id="edge6_Node000001_Node000007" class="edge">
<title>Node1&#45;&gt;Node7</title>
<g id="a_edge6_Node000001_Node000007"><a xlink:title=" ">
<path fill="none" stroke="#63b8ff" d="M205.82,-111.57C226.91,-101.63 251.41,-90.08 270.18,-81.23"/>
<polygon fill="#63b8ff" stroke="#63b8ff" points="271.58,-84.44 279.13,-77.01 268.6,-78.11 271.58,-84.44"/>
</a>
</g>
</g>
<!-- Node8 -->
<g id="Node000008" class="node">
<title>Node8</title>
<g id="a_Node000008"><a xlink:href="_logger_8h.html" target="_top" xlink:title="Defines the Logger class and convenience functions for logging.">
<polygon fill="white" stroke="#666666" points="249.12,-76 195.62,-76 195.62,-56 249.12,-56 249.12,-76"/>
<text text-anchor="middle" x="222.37" y="-62.5" font-family="Helvetica,sans-Serif" font-size="10.00">Logger.h</text>
</a>
</g>
</g>
<!-- Node1&#45;&gt;Node8 -->
<g id="edge7_Node000001_Node000008" class="edge">
<title>Node1&#45;&gt;Node8</title>
<g id="a_edge7_Node000001_Node000008"><a xlink:title=" ">
<path fill="none" stroke="#63b8ff" d="M180.33,-111.75C188.54,-103.01 197.95,-93 205.78,-84.66"/>
<polygon fill="#63b8ff" stroke="#63b8ff" points="208.19,-87.21 212.48,-77.52 203.09,-82.41 208.19,-87.21"/>
</a>
</g>
</g>
<!-- Node8&#45;&gt;Node2 -->
<g id="edge10_Node000008_Node000002" class="edge">
<title>Node8&#45;&gt;Node2</title>
<g id="a_edge10_Node000008_Node000002"><a xlink:title=" ">
<path fill="none" stroke="#63b8ff" d="M195.2,-55.59C170,-46.87 132.26,-33.81 104.13,-24.07"/>
<polygon fill="#63b8ff" stroke="#63b8ff" points="105.52,-20.85 94.92,-20.88 103.23,-27.46 105.52,-20.85"/>
</a>
</g>
</g>
<!-- Node8&#45;&gt;Node6 -->
<g id="edge8_Node000008_Node000006" class="edge">
<title>Node8&#45;&gt;Node6</title>
<g id="a_edge8_Node000008_Node000006"><a xlink:title=" ">
<path fill="none" stroke="#63b8ff" d="M240.48,-55.59C256.34,-47.36 279.65,-35.26 297.99,-25.74"/>
<polygon fill="#63b8ff" stroke="#63b8ff" points="299.51,-28.89 306.77,-21.18 296.28,-22.68 299.51,-28.89"/>
</a>
</g>
</g>
<!-- Node9 -->
<g id="Node000009" class="node">
<title>Node9</title>
<g id="a_Node000009"><a xlink:title=" ">
<polygon fill="#e0e0e0" stroke="#999999" points="252.49,-20 192.24,-20 192.24,0 252.49,0 252.49,-20"/>
<text text-anchor="middle" x="222.37" y="-6.5" font-family="Helvetica,sans-Serif" font-size="10.00">filesystem</text>
</a>
</g>
</g>
<!-- Node8&#45;&gt;Node9 -->
<g id="edge9_Node000008_Node000009" class="edge">
<title>Node8&#45;&gt;Node9</title>
<g id="a_edge9_Node000008_Node000009"><a xlink:title=" ">
<path fill="none" stroke="#63b8ff" d="M222.37,-55.59C222.37,-49.01 222.37,-39.96 222.37,-31.73"/>
<polygon fill="#63b8ff" stroke="#63b8ff" points="225.87,-31.81 222.37,-21.81 218.87,-31.81 225.87,-31.81"/>
</a>
</g>
</g>
</g>
</svg>
