<?xml version="1.0" encoding="UTF-8" standalone="no"?>
<!DOCTYPE svg PUBLIC "-//W3C//DTD SVG 1.1//EN"
 "http://www.w3.org/Graphics/SVG/1.1/DTD/svg11.dtd">
<!-- Generated by graphviz version 10.0.1 (20240210.2158)
 -->
<!-- Title: C:/Users/Muddyblack/Downloads/MetaDataEditorCpp/src/app/src/Styles.cpp Pages: 1 -->
<svg width="328pt" height="164pt"
 viewBox="0.00 0.00 328.38 164.00" xmlns="http://www.w3.org/2000/svg" xmlns:xlink="http://www.w3.org/1999/xlink">
<g id="graph0" class="graph" transform="scale(1 1) rotate(0) translate(4 160)">
<title>C:/Users/Muddyblack/Downloads/MetaDataEditorCpp/src/app/src/Styles.cpp</title>
<!-- Node1 -->
<g id="Node000001" class="node">
<title>Node1</title>
<g id="a_Node000001"><a xlink:title="Implements the function for loading and applying a stylesheet to a QApplication.">
<polygon fill="#999999" stroke="#666666" points="252.75,-156 98.75,-156 98.75,-112 252.75,-112 252.75,-156"/>
<text text-anchor="start" x="106.75" y="-142.5" font-family="Helvetica,sans-Serif" font-size="10.00">C:/Users/Muddyblack</text>
<text text-anchor="start" x="106.75" y="-130.5" font-family="Helvetica,sans-Serif" font-size="10.00">/Downloads/MetaDataEditorCpp</text>
<text text-anchor="middle" x="175.75" y="-118.5" font-family="Helvetica,sans-Serif" font-size="10.00">/src/app/src/Styles.cpp</text>
</a>
</g>
</g>
<!-- Node2 -->
<g id="Node000002" class="node">
<title>Node2</title>
<g id="a_Node000002"><a xlink:href="_styles_8h.html" target="_top" xlink:title="Defines the function for loading and applying a stylesheet to a QApplication.">
<polygon fill="white" stroke="#666666" points="100.75,-76 48.75,-76 48.75,-56 100.75,-56 100.75,-76"/>
<text text-anchor="middle" x="74.75" y="-62.5" font-family="Helvetica,sans-Serif" font-size="10.00">Styles.h</text>
</a>
</g>
</g>
<!-- Node1&#45;&gt;Node2 -->
<g id="edge1_Node000001_Node000002" class="edge">
<title>Node1&#45;&gt;Node2</title>
<g id="a_edge1_Node000001_Node000002"><a xlink:title=" ">
<path fill="none" stroke="#63b8ff" d="M142.96,-111.57C128.45,-102.09 111.72,-91.16 98.45,-82.49"/>
<polygon fill="#63b8ff" stroke="#63b8ff" points="100.63,-79.73 90.35,-77.19 96.81,-85.59 100.63,-79.73"/>
</a>
</g>
</g>
<!-- Node5 -->
<g id="Node000005" class="node">
<title>Node5</title>
<g id="a_Node000005"><a xlink:title=" ">
<polygon fill="#e0e0e0" stroke="#999999" points="158.38,-76 119.12,-76 119.12,-56 158.38,-56 158.38,-76"/>
<text text-anchor="middle" x="138.75" y="-62.5" font-family="Helvetica,sans-Serif" font-size="10.00">QFile</text>
</a>
</g>
</g>
<!-- Node1&#45;&gt;Node5 -->
<g id="edge4_Node000001_Node000005" class="edge">
<title>Node1&#45;&gt;Node5</title>
<g id="a_edge4_Node000001_Node000005"><a xlink:title=" ">
<path fill="none" stroke="#63b8ff" d="M163.84,-111.75C159.25,-103.57 154.04,-94.27 149.56,-86.28"/>
<polygon fill="#63b8ff" stroke="#63b8ff" points="152.71,-84.75 144.77,-77.74 146.61,-88.17 152.71,-84.75"/>
</a>
</g>
</g>
<!-- Node6 -->
<g id="Node000006" class="node">
<title>Node6</title>
<g id="a_Node000006"><a xlink:title=" ">
<polygon fill="#e0e0e0" stroke="#999999" points="250.62,-76 176.88,-76 176.88,-56 250.62,-56 250.62,-76"/>
<text text-anchor="middle" x="213.75" y="-62.5" font-family="Helvetica,sans-Serif" font-size="10.00">QTextStream</text>
</a>
</g>
</g>
<!-- Node1&#45;&gt;Node6 -->
<g id="edge5_Node000001_Node000006" class="edge">
<title>Node1&#45;&gt;Node6</title>
<g id="a_edge5_Node000001_Node000006"><a xlink:title=" ">
<path fill="none" stroke="#63b8ff" d="M187.98,-111.75C192.7,-103.57 198.05,-94.27 202.65,-86.28"/>
<polygon fill="#63b8ff" stroke="#63b8ff" points="205.62,-88.14 207.57,-77.73 199.55,-84.65 205.62,-88.14"/>
</a>
</g>
</g>
<!-- Node7 -->
<g id="Node000007" class="node">
<title>Node7</title>
<g id="a_Node000007"><a xlink:title=" ">
<polygon fill="#e0e0e0" stroke="#999999" points="320.38,-76 269.12,-76 269.12,-56 320.38,-56 320.38,-76"/>
<text text-anchor="middle" x="294.75" y="-62.5" font-family="Helvetica,sans-Serif" font-size="10.00">QDebug</text>
</a>
</g>
</g>
<!-- Node1&#45;&gt;Node7 -->
<g id="edge6_Node000001_Node000007" class="edge">
<title>Node1&#45;&gt;Node7</title>
<g id="a_edge6_Node000001_Node000007"><a xlink:title=" ">
<path fill="none" stroke="#63b8ff" d="M214.39,-111.57C231.98,-101.81 252.36,-90.51 268.19,-81.73"/>
<polygon fill="#63b8ff" stroke="#63b8ff" points="269.49,-85.01 276.54,-77.1 266.1,-78.89 269.49,-85.01"/>
</a>
</g>
</g>
<!-- Node3 -->
<g id="Node000003" class="node">
<title>Node3</title>
<g id="a_Node000003"><a xlink:title=" ">
<polygon fill="#e0e0e0" stroke="#999999" points="71.5,-20 0,-20 0,0 71.5,0 71.5,-20"/>
<text text-anchor="middle" x="35.75" y="-6.5" font-family="Helvetica,sans-Serif" font-size="10.00">QApplication</text>
</a>
</g>
</g>
<!-- Node2&#45;&gt;Node3 -->
<g id="edge2_Node000002_Node000003" class="edge">
<title>Node2&#45;&gt;Node3</title>
<g id="a_edge2_Node000002_Node000003"><a xlink:title=" ">
<path fill="none" stroke="#63b8ff" d="M67.96,-55.59C62.76,-48.39 55.42,-38.23 49.06,-29.43"/>
<polygon fill="#63b8ff" stroke="#63b8ff" points="52.04,-27.58 43.35,-21.53 46.37,-31.68 52.04,-27.58"/>
</a>
</g>
</g>
<!-- Node4 -->
<g id="Node000004" class="node">
<title>Node4</title>
<g id="a_Node000004"><a xlink:title=" ">
<polygon fill="#e0e0e0" stroke="#999999" points="138.25,-20 89.25,-20 89.25,0 138.25,0 138.25,-20"/>
<text text-anchor="middle" x="113.75" y="-6.5" font-family="Helvetica,sans-Serif" font-size="10.00">QString</text>
</a>
</g>
</g>
<!-- Node2&#45;&gt;Node4 -->
<g id="edge3_Node000002_Node000004" class="edge">
<title>Node2&#45;&gt;Node4</title>
<g id="a_edge3_Node000002_Node000004"><a xlink:title=" ">
<path fill="none" stroke="#63b8ff" d="M81.54,-55.59C86.74,-48.39 94.08,-38.23 100.44,-29.43"/>
<polygon fill="#63b8ff" stroke="#63b8ff" points="103.13,-31.68 106.15,-21.53 97.46,-27.58 103.13,-31.68"/>
</a>
</g>
</g>
</g>
</svg>
