<?xml version="1.0" encoding="UTF-8" standalone="no"?>
<!DOCTYPE svg PUBLIC "-//W3C//DTD SVG 1.1//EN"
 "http://www.w3.org/Graphics/SVG/1.1/DTD/svg11.dtd">
<!-- Generated by graphviz version 10.0.1 (20240210.2158)
 -->
<!-- Title: C:/Users/Muddyblack/Downloads/MetaDataEditorCpp/src/app/include/Styles.h Pages: 1 -->
<svg width="510pt" height="132pt"
 viewBox="0.00 0.00 510.00 132.00" xmlns="http://www.w3.org/2000/svg" xmlns:xlink="http://www.w3.org/1999/xlink">
<g id="graph0" class="graph" transform="scale(1 1) rotate(0) translate(4 128)">
<title>C:/Users/Muddyblack/Downloads/MetaDataEditorCpp/src/app/include/Styles.h</title>
<!-- Node1 -->
<g id="Node000001" class="node">
<title>Node1</title>
<g id="a_Node000001"><a xlink:title="Defines the function for loading and applying a stylesheet to a QApplication.">
<polygon fill="#999999" stroke="#666666" points="328,-124 174,-124 174,-80 328,-80 328,-124"/>
<text text-anchor="start" x="182" y="-110.5" font-family="Helvetica,sans-Serif" font-size="10.00">C:/Users/Muddyblack</text>
<text text-anchor="start" x="182" y="-98.5" font-family="Helvetica,sans-Serif" font-size="10.00">/Downloads/MetaDataEditorCpp</text>
<text text-anchor="middle" x="251" y="-86.5" font-family="Helvetica,sans-Serif" font-size="10.00">/src/app/include/Styles.h</text>
</a>
</g>
</g>
<!-- Node2 -->
<g id="Node000002" class="node">
<title>Node2</title>
<g id="a_Node000002"><a xlink:href="main_8cpp.html" target="_top" xlink:title="Entry point for the MetaData Editor application.">
<polygon fill="white" stroke="#666666" points="154,-44 0,-44 0,0 154,0 154,-44"/>
<text text-anchor="start" x="8" y="-30.5" font-family="Helvetica,sans-Serif" font-size="10.00">C:/Users/Muddyblack</text>
<text text-anchor="start" x="8" y="-18.5" font-family="Helvetica,sans-Serif" font-size="10.00">/Downloads/MetaDataEditorCpp</text>
<text text-anchor="middle" x="77" y="-6.5" font-family="Helvetica,sans-Serif" font-size="10.00">/src/app/main.cpp</text>
</a>
</g>
</g>
<!-- Node1&#45;&gt;Node2 -->
<g id="edge1_Node000001_Node000002" class="edge">
<title>Node1&#45;&gt;Node2</title>
<g id="a_edge1_Node000001_Node000002"><a xlink:title=" ">
<path fill="none" stroke="#63b8ff" d="M193.16,-75.07C170.97,-65.13 145.93,-53.9 124.79,-44.42"/>
<polygon fill="#63b8ff" stroke="#63b8ff" points="191.52,-78.17 202.07,-79.07 194.38,-71.78 191.52,-78.17"/>
</a>
</g>
</g>
<!-- Node3 -->
<g id="Node000003" class="node">
<title>Node3</title>
<g id="a_Node000003"><a xlink:href="_image_editor_g_u_i_8cpp.html" target="_top" xlink:title="Implements the ImageEditorGUI class for editing files.">
<polygon fill="white" stroke="#666666" points="329.88,-44 172.12,-44 172.12,0 329.88,0 329.88,-44"/>
<text text-anchor="start" x="180.12" y="-30.5" font-family="Helvetica,sans-Serif" font-size="10.00">C:/Users/Muddyblack</text>
<text text-anchor="start" x="180.12" y="-18.5" font-family="Helvetica,sans-Serif" font-size="10.00">/Downloads/MetaDataEditorCpp</text>
<text text-anchor="middle" x="251" y="-6.5" font-family="Helvetica,sans-Serif" font-size="10.00">/src/app/src/ImageEditorGUI.cpp</text>
</a>
</g>
</g>
<!-- Node1&#45;&gt;Node3 -->
<g id="edge2_Node000001_Node000003" class="edge">
<title>Node1&#45;&gt;Node3</title>
<g id="a_edge2_Node000001_Node000003"><a xlink:title=" ">
<path fill="none" stroke="#63b8ff" d="M251,-68.25C251,-60.15 251,-51.68 251,-44.29"/>
<polygon fill="#63b8ff" stroke="#63b8ff" points="247.5,-68.17 251,-78.17 254.5,-68.17 247.5,-68.17"/>
</a>
</g>
</g>
<!-- Node4 -->
<g id="Node000004" class="node">
<title>Node4</title>
<g id="a_Node000004"><a xlink:href="_styles_8cpp.html" target="_top" xlink:title="Implements the function for loading and applying a stylesheet to a QApplication.">
<polygon fill="white" stroke="#666666" points="502,-44 348,-44 348,0 502,0 502,-44"/>
<text text-anchor="start" x="356" y="-30.5" font-family="Helvetica,sans-Serif" font-size="10.00">C:/Users/Muddyblack</text>
<text text-anchor="start" x="356" y="-18.5" font-family="Helvetica,sans-Serif" font-size="10.00">/Downloads/MetaDataEditorCpp</text>
<text text-anchor="middle" x="425" y="-6.5" font-family="Helvetica,sans-Serif" font-size="10.00">/src/app/src/Styles.cpp</text>
</a>
</g>
</g>
<!-- Node1&#45;&gt;Node4 -->
<g id="edge3_Node000001_Node000004" class="edge">
<title>Node1&#45;&gt;Node4</title>
<g id="a_edge3_Node000001_Node000004"><a xlink:title=" ">
<path fill="none" stroke="#63b8ff" d="M308.84,-75.07C331.03,-65.13 356.07,-53.9 377.21,-44.42"/>
<polygon fill="#63b8ff" stroke="#63b8ff" points="307.62,-71.78 299.93,-79.07 310.48,-78.17 307.62,-71.78"/>
</a>
</g>
</g>
</g>
</svg>
