<?xml version="1.0" encoding="UTF-8" standalone="no"?>
<!DOCTYPE svg PUBLIC "-//W3C//DTD SVG 1.1//EN"
 "http://www.w3.org/Graphics/SVG/1.1/DTD/svg11.dtd">
<!-- Generated by graphviz version 10.0.1 (20240210.2158)
 -->
<!-- Title: C:/Users/Muddyblack/Downloads/MetaDataEditorCpp/src/app/include/TagTextEdit.h Pages: 1 -->
<svg width="613pt" height="212pt"
 viewBox="0.00 0.00 613.00 212.00" xmlns="http://www.w3.org/2000/svg" xmlns:xlink="http://www.w3.org/1999/xlink">
<g id="graph0" class="graph" transform="scale(1 1) rotate(0) translate(4 208)">
<title>C:/Users/Muddyblack/Downloads/MetaDataEditorCpp/src/app/include/TagTextEdit.h</title>
<!-- Node1 -->
<g id="Node000001" class="node">
<title>Node1</title>
<g id="a_Node000001"><a xlink:title="Defines the TagTextEdit class, a custom QTextEdit that emits signals when Tab or Shift+Tab are presse...">
<polygon fill="#999999" stroke="#666666" points="380,-204 226,-204 226,-160 380,-160 380,-204"/>
<text text-anchor="start" x="234" y="-190.5" font-family="Helvetica,sans-Serif" font-size="10.00">C:/Users/Muddyblack</text>
<text text-anchor="start" x="234" y="-178.5" font-family="Helvetica,sans-Serif" font-size="10.00">/Downloads/MetaDataEditorCpp</text>
<text text-anchor="middle" x="303" y="-166.5" font-family="Helvetica,sans-Serif" font-size="10.00">/src/app/include/TagTextEdit.h</text>
</a>
</g>
</g>
<!-- Node2 -->
<g id="Node000002" class="node">
<title>Node2</title>
<g id="a_Node000002"><a xlink:href="_image_editor_g_u_i_8h.html" target="_top" xlink:title=" ">
<polygon fill="white" stroke="#666666" points="223.25,-124 58.75,-124 58.75,-80 223.25,-80 223.25,-124"/>
<text text-anchor="start" x="66.75" y="-110.5" font-family="Helvetica,sans-Serif" font-size="10.00">C:/Users/Muddyblack</text>
<text text-anchor="start" x="66.75" y="-98.5" font-family="Helvetica,sans-Serif" font-size="10.00">/Downloads/MetaDataEditorCpp</text>
<text text-anchor="middle" x="141" y="-86.5" font-family="Helvetica,sans-Serif" font-size="10.00">/src/app/include/ImageEditorGUI.h</text>
</a>
</g>
</g>
<!-- Node1&#45;&gt;Node2 -->
<g id="edge1_Node000001_Node000002" class="edge">
<title>Node1&#45;&gt;Node2</title>
<g id="a_edge1_Node000001_Node000002"><a xlink:title=" ">
<path fill="none" stroke="#63b8ff" d="M248.58,-154.8C228.07,-144.92 205,-133.81 185.49,-124.42"/>
<polygon fill="#63b8ff" stroke="#63b8ff" points="246.84,-157.84 257.37,-159.03 249.88,-151.54 246.84,-157.84"/>
</a>
</g>
</g>
<!-- Node4 -->
<g id="Node000004" class="node">
<title>Node4</title>
<g id="a_Node000004"><a xlink:href="_image_editor_g_u_i_8cpp.html" target="_top" xlink:title=" ">
<polygon fill="white" stroke="#666666" points="329.88,-44 172.12,-44 172.12,0 329.88,0 329.88,-44"/>
<text text-anchor="start" x="180.12" y="-30.5" font-family="Helvetica,sans-Serif" font-size="10.00">C:/Users/Muddyblack</text>
<text text-anchor="start" x="180.12" y="-18.5" font-family="Helvetica,sans-Serif" font-size="10.00">/Downloads/MetaDataEditorCpp</text>
<text text-anchor="middle" x="251" y="-6.5" font-family="Helvetica,sans-Serif" font-size="10.00">/src/app/src/ImageEditorGUI.cpp</text>
</a>
</g>
</g>
<!-- Node1&#45;&gt;Node4 -->
<g id="edge7_Node000001_Node000004" class="edge">
<title>Node1&#45;&gt;Node4</title>
<g id="a_edge7_Node000001_Node000004"><a xlink:title=" ">
<path fill="none" stroke="#63b8ff" d="M282.43,-149.85C277.77,-141.7 273.24,-132.74 270,-124 260.19,-97.57 255.25,-65.29 252.91,-44.45"/>
<polygon fill="#63b8ff" stroke="#63b8ff" points="279.4,-151.59 287.55,-158.36 285.4,-147.99 279.4,-151.59"/>
</a>
</g>
</g>
<!-- Node5 -->
<g id="Node000005" class="node">
<title>Node5</title>
<g id="a_Node000005"><a xlink:href="_tag_widget_8h.html" target="_top" xlink:title="Defines the TagWidget class, a widget for displaying and editing tags.">
<polygon fill="white" stroke="#666666" points="433,-124 279,-124 279,-80 433,-80 433,-124"/>
<text text-anchor="start" x="287" y="-110.5" font-family="Helvetica,sans-Serif" font-size="10.00">C:/Users/Muddyblack</text>
<text text-anchor="start" x="287" y="-98.5" font-family="Helvetica,sans-Serif" font-size="10.00">/Downloads/MetaDataEditorCpp</text>
<text text-anchor="middle" x="356" y="-86.5" font-family="Helvetica,sans-Serif" font-size="10.00">/src/app/include/TagWidget.h</text>
</a>
</g>
</g>
<!-- Node1&#45;&gt;Node5 -->
<g id="edge4_Node000001_Node000005" class="edge">
<title>Node1&#45;&gt;Node5</title>
<g id="a_edge4_Node000001_Node000005"><a xlink:title=" ">
<path fill="none" stroke="#63b8ff" d="M323.91,-150.22C329.82,-141.54 336.1,-132.28 341.54,-124.29"/>
<polygon fill="#63b8ff" stroke="#63b8ff" points="321.06,-148.2 318.33,-158.43 326.85,-152.13 321.06,-148.2"/>
</a>
</g>
</g>
<!-- Node7 -->
<g id="Node000007" class="node">
<title>Node7</title>
<g id="a_Node000007"><a xlink:href="_tag_tex_edit_8cpp.html" target="_top" xlink:title=" ">
<polygon fill="white" stroke="#666666" points="605,-124 451,-124 451,-80 605,-80 605,-124"/>
<text text-anchor="start" x="459" y="-110.5" font-family="Helvetica,sans-Serif" font-size="10.00">C:/Users/Muddyblack</text>
<text text-anchor="start" x="459" y="-98.5" font-family="Helvetica,sans-Serif" font-size="10.00">/Downloads/MetaDataEditorCpp</text>
<text text-anchor="middle" x="528" y="-86.5" font-family="Helvetica,sans-Serif" font-size="10.00">/src/app/src/TagTexEdit.cpp</text>
</a>
</g>
</g>
<!-- Node1&#45;&gt;Node7 -->
<g id="edge8_Node000001_Node000007" class="edge">
<title>Node1&#45;&gt;Node7</title>
<g id="a_edge8_Node000001_Node000007"><a xlink:title=" ">
<path fill="none" stroke="#63b8ff" d="M375.38,-155.91C404.71,-145.74 438.22,-134.12 466.36,-124.37"/>
<polygon fill="#63b8ff" stroke="#63b8ff" points="374.51,-152.5 366.21,-159.09 376.8,-159.12 374.51,-152.5"/>
</a>
</g>
</g>
<!-- Node3 -->
<g id="Node000003" class="node">
<title>Node3</title>
<g id="a_Node000003"><a xlink:href="main_8cpp.html" target="_top" xlink:title="Entry point for the MetaData Editor application.">
<polygon fill="white" stroke="#666666" points="154,-44 0,-44 0,0 154,0 154,-44"/>
<text text-anchor="start" x="8" y="-30.5" font-family="Helvetica,sans-Serif" font-size="10.00">C:/Users/Muddyblack</text>
<text text-anchor="start" x="8" y="-18.5" font-family="Helvetica,sans-Serif" font-size="10.00">/Downloads/MetaDataEditorCpp</text>
<text text-anchor="middle" x="77" y="-6.5" font-family="Helvetica,sans-Serif" font-size="10.00">/src/app/main.cpp</text>
</a>
</g>
</g>
<!-- Node2&#45;&gt;Node3 -->
<g id="edge2_Node000002_Node000003" class="edge">
<title>Node2&#45;&gt;Node3</title>
<g id="a_edge2_Node000002_Node000003"><a xlink:title=" ">
<path fill="none" stroke="#63b8ff" d="M116.43,-71.06C109.11,-62.13 101.24,-52.54 94.47,-44.29"/>
<polygon fill="#63b8ff" stroke="#63b8ff" points="113.5,-73.01 122.55,-78.52 118.91,-68.57 113.5,-73.01"/>
</a>
</g>
</g>
<!-- Node2&#45;&gt;Node4 -->
<g id="edge3_Node000002_Node000004" class="edge">
<title>Node2&#45;&gt;Node4</title>
<g id="a_edge3_Node000002_Node000004"><a xlink:title=" ">
<path fill="none" stroke="#63b8ff" d="M180.1,-73.28C193.54,-63.74 208.37,-53.23 220.98,-44.29"/>
<polygon fill="#63b8ff" stroke="#63b8ff" points="178.43,-70.17 172.29,-78.81 182.47,-75.88 178.43,-70.17"/>
</a>
</g>
</g>
<!-- Node5&#45;&gt;Node4 -->
<g id="edge5_Node000005_Node000004" class="edge">
<title>Node5&#45;&gt;Node4</title>
<g id="a_edge5_Node000005_Node000004"><a xlink:title=" ">
<path fill="none" stroke="#63b8ff" d="M318.31,-73C305.57,-63.54 291.57,-53.14 279.66,-44.29"/>
<polygon fill="#63b8ff" stroke="#63b8ff" points="315.98,-75.63 326.09,-78.78 320.15,-70.01 315.98,-75.63"/>
</a>
</g>
</g>
<!-- Node6 -->
<g id="Node000006" class="node">
<title>Node6</title>
<g id="a_Node000006"><a xlink:href="_tag_widget_8cpp.html" target="_top" xlink:title=" ">
<polygon fill="white" stroke="#666666" points="502,-44 348,-44 348,0 502,0 502,-44"/>
<text text-anchor="start" x="356" y="-30.5" font-family="Helvetica,sans-Serif" font-size="10.00">C:/Users/Muddyblack</text>
<text text-anchor="start" x="356" y="-18.5" font-family="Helvetica,sans-Serif" font-size="10.00">/Downloads/MetaDataEditorCpp</text>
<text text-anchor="middle" x="425" y="-6.5" font-family="Helvetica,sans-Serif" font-size="10.00">/src/app/src/TagWidget.cpp</text>
</a>
</g>
</g>
<!-- Node5&#45;&gt;Node6 -->
<g id="edge6_Node000005_Node000006" class="edge">
<title>Node5&#45;&gt;Node6</title>
<g id="a_edge6_Node000005_Node000006"><a xlink:title=" ">
<path fill="none" stroke="#63b8ff" d="M382.24,-71.34C390.2,-62.33 398.79,-52.63 406.17,-44.29"/>
<polygon fill="#63b8ff" stroke="#63b8ff" points="379.86,-68.74 375.86,-78.55 385.1,-73.38 379.86,-68.74"/>
</a>
</g>
</g>
</g>
</svg>
