<?xml version="1.0" encoding="UTF-8" standalone="no"?>
<!DOCTYPE svg PUBLIC "-//W3C//DTD SVG 1.1//EN"
 "http://www.w3.org/Graphics/SVG/1.1/DTD/svg11.dtd">
<!-- Generated by graphviz version 10.0.1 (20240210.2158)
 -->
<!-- Title: C:/Users/Muddyblack/Downloads/MetaDataEditorCpp/src/app/src/TagWidget.cpp Pages: 1 -->
<svg width="397pt" height="220pt"
 viewBox="0.00 0.00 396.88 220.00" xmlns="http://www.w3.org/2000/svg" xmlns:xlink="http://www.w3.org/1999/xlink">
<g id="graph0" class="graph" transform="scale(1 1) rotate(0) translate(4 216)">
<title>C:/Users/Muddyblack/Downloads/MetaDataEditorCpp/src/app/src/TagWidget.cpp</title>
<!-- Node1 -->
<g id="Node000001" class="node">
<title>Node1</title>
<g id="a_Node000001"><a xlink:title=" ">
<polygon fill="#999999" stroke="#666666" points="305.12,-212 151.12,-212 151.12,-168 305.12,-168 305.12,-212"/>
<text text-anchor="start" x="159.12" y="-198.5" font-family="Helvetica,sans-Serif" font-size="10.00">C:/Users/Muddyblack</text>
<text text-anchor="start" x="159.12" y="-186.5" font-family="Helvetica,sans-Serif" font-size="10.00">/Downloads/MetaDataEditorCpp</text>
<text text-anchor="middle" x="228.12" y="-174.5" font-family="Helvetica,sans-Serif" font-size="10.00">/src/app/src/TagWidget.cpp</text>
</a>
</g>
</g>
<!-- Node2 -->
<g id="Node000002" class="node">
<title>Node2</title>
<g id="a_Node000002"><a xlink:href="_tag_widget_8h.html" target="_top" xlink:title="Defines the TagWidget class, a widget for displaying and editing tags.">
<polygon fill="white" stroke="#666666" points="152.5,-132 81.75,-132 81.75,-112 152.5,-112 152.5,-132"/>
<text text-anchor="middle" x="117.12" y="-118.5" font-family="Helvetica,sans-Serif" font-size="10.00">TagWidget.h</text>
</a>
</g>
</g>
<!-- Node1&#45;&gt;Node2 -->
<g id="edge1_Node000001_Node000002" class="edge">
<title>Node1&#45;&gt;Node2</title>
<g id="a_edge1_Node000001_Node000002"><a xlink:title=" ">
<path fill="none" stroke="#63b8ff" d="M192.09,-167.57C175.99,-158 157.39,-146.94 142.75,-138.24"/>
<polygon fill="#63b8ff" stroke="#63b8ff" points="144.56,-135.24 134.18,-133.14 140.98,-141.26 144.56,-135.24"/>
</a>
</g>
</g>
<!-- Node4 -->
<g id="Node000004" class="node">
<title>Node4</title>
<g id="a_Node000004"><a xlink:title=" ">
<polygon fill="#e0e0e0" stroke="#999999" points="240.38,-76 165.88,-76 165.88,-56 240.38,-56 240.38,-76"/>
<text text-anchor="middle" x="203.12" y="-62.5" font-family="Helvetica,sans-Serif" font-size="10.00">QPushButton</text>
</a>
</g>
</g>
<!-- Node1&#45;&gt;Node4 -->
<g id="edge6_Node000001_Node000004" class="edge">
<title>Node1&#45;&gt;Node4</title>
<g id="a_edge6_Node000001_Node000004"><a xlink:title=" ">
<path fill="none" stroke="#63b8ff" d="M222.5,-167.7C219.78,-157.03 216.58,-143.87 214.12,-132 211.06,-117.21 208.23,-100.39 206.21,-87.56"/>
<polygon fill="#63b8ff" stroke="#63b8ff" points="209.69,-87.15 204.71,-77.79 202.77,-88.21 209.69,-87.15"/>
</a>
</g>
</g>
<!-- Node7 -->
<g id="Node000007" class="node">
<title>Node7</title>
<g id="a_Node000007"><a xlink:title=" ">
<polygon fill="#e0e0e0" stroke="#999999" points="299.5,-132 222.75,-132 222.75,-112 299.5,-112 299.5,-132"/>
<text text-anchor="middle" x="261.12" y="-118.5" font-family="Helvetica,sans-Serif" font-size="10.00">QHBoxLayout</text>
</a>
</g>
</g>
<!-- Node1&#45;&gt;Node7 -->
<g id="edge7_Node000001_Node000007" class="edge">
<title>Node1&#45;&gt;Node7</title>
<g id="a_edge7_Node000001_Node000007"><a xlink:title=" ">
<path fill="none" stroke="#63b8ff" d="M238.75,-167.75C242.79,-159.66 247.38,-150.48 251.35,-142.55"/>
<polygon fill="#63b8ff" stroke="#63b8ff" points="254.4,-144.28 255.74,-133.77 248.14,-141.15 254.4,-144.28"/>
</a>
</g>
</g>
<!-- Node8 -->
<g id="Node000008" class="node">
<title>Node8</title>
<g id="a_Node000008"><a xlink:title=" ">
<polygon fill="#e0e0e0" stroke="#999999" points="388.88,-132 317.38,-132 317.38,-112 388.88,-112 388.88,-132"/>
<text text-anchor="middle" x="353.12" y="-118.5" font-family="Helvetica,sans-Serif" font-size="10.00">QApplication</text>
</a>
</g>
</g>
<!-- Node1&#45;&gt;Node8 -->
<g id="edge8_Node000001_Node000008" class="edge">
<title>Node1&#45;&gt;Node8</title>
<g id="a_edge8_Node000001_Node000008"><a xlink:title=" ">
<path fill="none" stroke="#63b8ff" d="M268.71,-167.57C287.19,-157.81 308.59,-146.51 325.23,-137.73"/>
<polygon fill="#63b8ff" stroke="#63b8ff" points="326.84,-140.84 334.05,-133.07 323.57,-134.65 326.84,-140.84"/>
</a>
</g>
</g>
<!-- Node3 -->
<g id="Node000003" class="node">
<title>Node3</title>
<g id="a_Node000003"><a xlink:title=" ">
<polygon fill="#e0e0e0" stroke="#999999" points="54.25,-76 0,-76 0,-56 54.25,-56 54.25,-76"/>
<text text-anchor="middle" x="27.12" y="-62.5" font-family="Helvetica,sans-Serif" font-size="10.00">QWidget</text>
</a>
</g>
</g>
<!-- Node2&#45;&gt;Node3 -->
<g id="edge2_Node000002_Node000003" class="edge">
<title>Node2&#45;&gt;Node3</title>
<g id="a_edge2_Node000002_Node000003"><a xlink:title=" ">
<path fill="none" stroke="#63b8ff" d="M101.45,-111.59C87.98,-103.51 68.31,-91.71 52.58,-82.27"/>
<polygon fill="#63b8ff" stroke="#63b8ff" points="54.6,-79.4 44.22,-77.26 51,-85.4 54.6,-79.4"/>
</a>
</g>
</g>
<!-- Node2&#45;&gt;Node4 -->
<g id="edge3_Node000002_Node000004" class="edge">
<title>Node2&#45;&gt;Node4</title>
<g id="a_edge3_Node000002_Node000004"><a xlink:title=" ">
<path fill="none" stroke="#63b8ff" d="M132.11,-111.59C144.85,-103.59 163.42,-91.93 178.37,-82.54"/>
<polygon fill="#63b8ff" stroke="#63b8ff" points="180.14,-85.57 186.75,-77.28 176.42,-79.64 180.14,-85.57"/>
</a>
</g>
</g>
<!-- Node5 -->
<g id="Node000005" class="node">
<title>Node5</title>
<g id="a_Node000005"><a xlink:href="_tag_text_edit_8h.html" target="_top" xlink:title="Defines the TagTextEdit class, a custom QTextEdit that emits signals when Tab or Shift+Tab are presse...">
<polygon fill="white" stroke="#666666" points="148.12,-76 72.12,-76 72.12,-56 148.12,-56 148.12,-76"/>
<text text-anchor="middle" x="110.12" y="-62.5" font-family="Helvetica,sans-Serif" font-size="10.00">TagTextEdit.h</text>
</a>
</g>
</g>
<!-- Node2&#45;&gt;Node5 -->
<g id="edge4_Node000002_Node000005" class="edge">
<title>Node2&#45;&gt;Node5</title>
<g id="a_edge4_Node000002_Node000005"><a xlink:title=" ">
<path fill="none" stroke="#63b8ff" d="M115.91,-111.59C115.04,-104.93 113.85,-95.75 112.77,-87.44"/>
<polygon fill="#63b8ff" stroke="#63b8ff" points="116.28,-87.27 111.52,-77.8 109.34,-88.17 116.28,-87.27"/>
</a>
</g>
</g>
<!-- Node6 -->
<g id="Node000006" class="node">
<title>Node6</title>
<g id="a_Node000006"><a xlink:title=" ">
<polygon fill="#e0e0e0" stroke="#999999" points="139.88,-20 80.38,-20 80.38,0 139.88,0 139.88,-20"/>
<text text-anchor="middle" x="110.12" y="-6.5" font-family="Helvetica,sans-Serif" font-size="10.00">QTextEdit</text>
</a>
</g>
</g>
<!-- Node5&#45;&gt;Node6 -->
<g id="edge5_Node000005_Node000006" class="edge">
<title>Node5&#45;&gt;Node6</title>
<g id="a_edge5_Node000005_Node000006"><a xlink:title=" ">
<path fill="none" stroke="#63b8ff" d="M110.12,-55.59C110.12,-49.01 110.12,-39.96 110.12,-31.73"/>
<polygon fill="#63b8ff" stroke="#63b8ff" points="113.63,-31.81 110.13,-21.81 106.63,-31.81 113.63,-31.81"/>
</a>
</g>
</g>
</g>
</svg>
