<?xml version="1.0" encoding="UTF-8" standalone="no"?>
<!DOCTYPE svg PUBLIC "-//W3C//DTD SVG 1.1//EN"
 "http://www.w3.org/Graphics/SVG/1.1/DTD/svg11.dtd">
<!-- Generated by graphviz version 10.0.1 (20240210.2158)
 -->
<!-- Title: ImageEditorGUI::LoadFile Pages: 1 -->
<svg width="531pt" height="280pt"
 viewBox="0.00 0.00 530.75 280.00" xmlns="http://www.w3.org/2000/svg" xmlns:xlink="http://www.w3.org/1999/xlink">
<g id="graph0" class="graph" transform="scale(1 1) rotate(0) translate(4 276)">
<title>ImageEditorGUI::LoadFile</title>
<!-- Node1 -->
<g id="Node000001" class="node">
<title>Node1</title>
<g id="a_Node000001"><a xlink:title="Loads a file into the GUI.">
<polygon fill="#999999" stroke="#666666" points="127,-158 0,-158 0,-138 127,-138 127,-158"/>
<text text-anchor="middle" x="63.5" y="-144.5" font-family="Helvetica,sans-Serif" font-size="10.00">ImageEditorGUI::LoadFile</text>
</a>
</g>
</g>
<!-- Node2 -->
<g id="Node000002" class="node">
<title>Node2</title>
<g id="a_Node000002"><a xlink:href="class_image_editor_g_u_i.html#ac8c68a1cf592e428b21e7fec5fccd8cc" target="_top" xlink:title="Displays a file in the GUI.">
<polygon fill="white" stroke="#666666" points="310.25,-272 172,-272 172,-252 310.25,-252 310.25,-272"/>
<text text-anchor="middle" x="241.12" y="-258.5" font-family="Helvetica,sans-Serif" font-size="10.00">ImageEditorGUI::DisplayFile</text>
</a>
</g>
</g>
<!-- Node1&#45;&gt;Node2 -->
<g id="edge1_Node000001_Node000002" class="edge">
<title>Node1&#45;&gt;Node2</title>
<g id="a_edge1_Node000001_Node000002"><a xlink:title=" ">
<path fill="none" stroke="#63b8ff" d="M72.17,-158.4C87.26,-178.1 122.86,-220.84 163,-243 165.98,-244.65 169.11,-246.15 172.32,-247.53"/>
<polygon fill="#63b8ff" stroke="#63b8ff" points="170.8,-250.7 181.39,-250.96 173.28,-244.15 170.8,-250.7"/>
</a>
</g>
</g>
<!-- Node3 -->
<g id="Node000003" class="node">
<title>Node3</title>
<g id="a_Node000003"><a xlink:href="class_image_editor_g_u_i.html#a372deea66bedcd77d2b7c69dd6e7ae34" target="_top" xlink:title="Gets the last directory used.">
<polygon fill="white" stroke="#666666" points="309.5,-234 172.75,-234 172.75,-214 309.5,-214 309.5,-234"/>
<text text-anchor="middle" x="241.12" y="-220.5" font-family="Helvetica,sans-Serif" font-size="10.00">ImageEditorGUI::GetLastDir</text>
</a>
</g>
</g>
<!-- Node1&#45;&gt;Node3 -->
<g id="edge2_Node000001_Node000003" class="edge">
<title>Node1&#45;&gt;Node3</title>
<g id="a_edge2_Node000001_Node000003"><a xlink:title=" ">
<path fill="none" stroke="#63b8ff" d="M79.17,-158.28C97.85,-170.93 131.48,-192.3 163,-205 167.86,-206.96 172.98,-208.75 178.17,-210.39"/>
<polygon fill="#63b8ff" stroke="#63b8ff" points="176.83,-213.65 187.41,-213.11 178.8,-206.93 176.83,-213.65"/>
</a>
</g>
</g>
<!-- Node4 -->
<g id="Node000004" class="node">
<title>Node4</title>
<g id="a_Node000004"><a xlink:href="class_meta_data_handler.html#a0f0c872ecd4e6b41bfcd746032152d2a" target="_top" xlink:title="Reads metadata from a file.">
<polygon fill="white" stroke="#666666" points="319.25,-196 163,-196 163,-176 319.25,-176 319.25,-196"/>
<text text-anchor="middle" x="241.12" y="-182.5" font-family="Helvetica,sans-Serif" font-size="10.00">MetaDataHandler::readMetadata</text>
</a>
</g>
</g>
<!-- Node1&#45;&gt;Node4 -->
<g id="edge3_Node000001_Node000004" class="edge">
<title>Node1&#45;&gt;Node4</title>
<g id="a_edge3_Node000001_Node000004"><a xlink:title=" ">
<path fill="none" stroke="#63b8ff" d="M112.96,-158.48C133.88,-163.01 158.56,-168.35 180.59,-173.12"/>
<polygon fill="#63b8ff" stroke="#63b8ff" points="179.83,-176.54 190.35,-175.23 181.31,-169.69 179.83,-176.54"/>
</a>
</g>
</g>
<!-- Node6 -->
<g id="Node000006" class="node">
<title>Node6</title>
<g id="a_Node000006"><a xlink:href="class_tag_widget.html#a0dc7bd2438fdbd01d50253b11268cf47" target="_top" xlink:title="Signal that is emitted when the widget is requested to be removed.">
<polygon fill="white" stroke="#666666" points="314,-158 168.25,-158 168.25,-138 314,-138 314,-158"/>
<text text-anchor="middle" x="241.12" y="-144.5" font-family="Helvetica,sans-Serif" font-size="10.00">TagWidget::removeRequested</text>
</a>
</g>
</g>
<!-- Node1&#45;&gt;Node6 -->
<g id="edge5_Node000001_Node000006" class="edge">
<title>Node1&#45;&gt;Node6</title>
<g id="a_edge5_Node000001_Node000006"><a xlink:title=" ">
<path fill="none" stroke="#63b8ff" d="M127.41,-148C136.82,-148 146.64,-148 156.4,-148"/>
<polygon fill="#63b8ff" stroke="#63b8ff" points="156.28,-151.5 166.28,-148 156.28,-144.5 156.28,-151.5"/>
</a>
</g>
</g>
<!-- Node7 -->
<g id="Node000007" class="node">
<title>Node7</title>
<g id="a_Node000007"><a xlink:href="class_image_editor_g_u_i.html#a39aa96af2498fa25a031afa86aa8eb76" target="_top" xlink:title="Removes a tag widget from the GUI.">
<polygon fill="white" stroke="#666666" points="309.5,-120 172.75,-120 172.75,-88 309.5,-88 309.5,-120"/>
<text text-anchor="start" x="180.75" y="-106.5" font-family="Helvetica,sans-Serif" font-size="10.00">ImageEditorGUI::removeTag</text>
<text text-anchor="middle" x="241.12" y="-94.5" font-family="Helvetica,sans-Serif" font-size="10.00">Widget</text>
</a>
</g>
</g>
<!-- Node1&#45;&gt;Node7 -->
<g id="edge6_Node000001_Node000007" class="edge">
<title>Node1&#45;&gt;Node7</title>
<g id="a_edge6_Node000001_Node000007"><a xlink:title=" ">
<path fill="none" stroke="#63b8ff" d="M106.12,-137.57C123.24,-133.28 143.64,-128.17 163.3,-123.25"/>
<polygon fill="#63b8ff" stroke="#63b8ff" points="164.11,-126.65 172.96,-120.83 162.41,-119.86 164.11,-126.65"/>
</a>
</g>
</g>
<!-- Node8 -->
<g id="Node000008" class="node">
<title>Node8</title>
<g id="a_Node000008"><a xlink:href="class_image_editor_g_u_i.html#ac88e196169998c20ddf171733dfc5fda" target="_top" xlink:title="Sets the last opened directory.">
<polygon fill="white" stroke="#666666" points="309.12,-70 173.12,-70 173.12,-50 309.12,-50 309.12,-70"/>
<text text-anchor="middle" x="241.12" y="-56.5" font-family="Helvetica,sans-Serif" font-size="10.00">ImageEditorGUI::SetLastDir</text>
</a>
</g>
</g>
<!-- Node1&#45;&gt;Node8 -->
<g id="edge7_Node000001_Node000008" class="edge">
<title>Node1&#45;&gt;Node8</title>
<g id="a_edge7_Node000001_Node000008"><a xlink:title=" ">
<path fill="none" stroke="#63b8ff" d="M76.05,-137.73C93.6,-122.65 128.59,-94.63 163,-79 167.05,-77.16 171.31,-75.48 175.65,-73.95"/>
<polygon fill="#63b8ff" stroke="#63b8ff" points="176.66,-77.3 185.12,-70.92 174.53,-70.64 176.66,-77.3"/>
</a>
</g>
</g>
<!-- Node9 -->
<g id="Node000009" class="node">
<title>Node9</title>
<g id="a_Node000009"><a xlink:href="class_image_editor_g_u_i.html#a024490b48241a822bdb98f029a35d13e" target="_top" xlink:title="Updates the window title.">
<polygon fill="white" stroke="#666666" points="318.88,-32 163.38,-32 163.38,0 318.88,0 318.88,-32"/>
<text text-anchor="start" x="171.38" y="-18.5" font-family="Helvetica,sans-Serif" font-size="10.00">ImageEditorGUI::UpdateWindow</text>
<text text-anchor="middle" x="241.12" y="-6.5" font-family="Helvetica,sans-Serif" font-size="10.00">Title</text>
</a>
</g>
</g>
<!-- Node1&#45;&gt;Node9 -->
<g id="edge8_Node000001_Node000009" class="edge">
<title>Node1&#45;&gt;Node9</title>
<g id="a_edge8_Node000001_Node000009"><a xlink:title=" ">
<path fill="none" stroke="#63b8ff" d="M71.33,-137.52C85.73,-116.24 121.34,-67.71 163,-41 164.99,-39.72 167.05,-38.51 169.17,-37.35"/>
<polygon fill="#63b8ff" stroke="#63b8ff" points="170.59,-40.55 178.02,-33 167.5,-34.27 170.59,-40.55"/>
</a>
</g>
</g>
<!-- Node5 -->
<g id="Node000005" class="node">
<title>Node5</title>
<g id="a_Node000005"><a xlink:href="class_meta_data_handler.html#a1a20795298bd6966d20cf6f7880cbdd8" target="_top" xlink:title="Reads the PNG header from a PNG file.">
<polygon fill="white" stroke="#666666" points="522.75,-196 355.25,-196 355.25,-176 522.75,-176 522.75,-196"/>
<text text-anchor="middle" x="439" y="-182.5" font-family="Helvetica,sans-Serif" font-size="10.00">MetaDataHandler::readPNGHeader</text>
</a>
</g>
</g>
<!-- Node4&#45;&gt;Node5 -->
<g id="edge4_Node000004_Node000005" class="edge">
<title>Node4&#45;&gt;Node5</title>
<g id="a_edge4_Node000004_Node000005"><a xlink:title=" ">
<path fill="none" stroke="#63b8ff" d="M319.54,-186C327.46,-186 335.57,-186 343.65,-186"/>
<polygon fill="#63b8ff" stroke="#63b8ff" points="343.51,-189.5 353.51,-186 343.51,-182.5 343.51,-189.5"/>
</a>
</g>
</g>
</g>
</svg>
