<?xml version="1.0" encoding="UTF-8" standalone="no"?>
<!DOCTYPE svg PUBLIC "-//W3C//DTD SVG 1.1//EN"
 "http://www.w3.org/Graphics/SVG/1.1/DTD/svg11.dtd">
<!-- Generated by graphviz version 10.0.1 (20240210.2158)
 -->
<!-- Title: TagTextEdit::keyPressEvent Pages: 1 -->
<svg width="324pt" height="66pt"
 viewBox="0.00 0.00 323.50 66.00" xmlns="http://www.w3.org/2000/svg" xmlns:xlink="http://www.w3.org/1999/xlink">
<g id="graph0" class="graph" transform="scale(1 1) rotate(0) translate(4 62)">
<title>TagTextEdit::keyPressEvent</title>
<!-- Node1 -->
<g id="Node000001" class="node">
<title>Node1</title>
<g id="a_Node000001"><a xlink:title="Override the default key press event to emit signals when Tab or Shift+Tab are pressed.">
<polygon fill="#999999" stroke="#666666" points="139,-39 0,-39 0,-19 139,-19 139,-39"/>
<text text-anchor="middle" x="69.5" y="-25.5" font-family="Helvetica,sans-Serif" font-size="10.00">TagTextEdit::keyPressEvent</text>
</a>
</g>
</g>
<!-- Node2 -->
<g id="Node000002" class="node">
<title>Node2</title>
<g id="a_Node000002"><a xlink:href="class_tag_text_edit.html#a0b8e3e970764ff74b14daf4c5b30215e" target="_top" xlink:title="Signal that is emitted when Shift+Tab is pressed.">
<polygon fill="white" stroke="#666666" points="315.5,-58 175,-58 175,-38 315.5,-38 315.5,-58"/>
<text text-anchor="middle" x="245.25" y="-44.5" font-family="Helvetica,sans-Serif" font-size="10.00">TagTextEdit::CtrlTabPressed</text>
</a>
</g>
</g>
<!-- Node1&#45;&gt;Node2 -->
<g id="edge1_Node000001_Node000002" class="edge">
<title>Node1&#45;&gt;Node2</title>
<g id="a_edge1_Node000001_Node000002"><a xlink:title=" ">
<path fill="none" stroke="#63b8ff" d="M139.17,-36.51C147.1,-37.38 155.24,-38.27 163.32,-39.15"/>
<polygon fill="#63b8ff" stroke="#63b8ff" points="162.83,-42.62 173.15,-40.23 163.59,-35.66 162.83,-42.62"/>
</a>
</g>
</g>
<!-- Node3 -->
<g id="Node000003" class="node">
<title>Node3</title>
<g id="a_Node000003"><a xlink:href="class_tag_text_edit.html#a0dd4d525d5e6567d93680be57b8b8107" target="_top" xlink:title="Signal that is emitted when the Tab key is pressed.">
<polygon fill="white" stroke="#666666" points="308,-20 182.5,-20 182.5,0 308,0 308,-20"/>
<text text-anchor="middle" x="245.25" y="-6.5" font-family="Helvetica,sans-Serif" font-size="10.00">TagTextEdit::TabPressed</text>
</a>
</g>
</g>
<!-- Node1&#45;&gt;Node3 -->
<g id="edge2_Node000001_Node000003" class="edge">
<title>Node1&#45;&gt;Node3</title>
<g id="a_edge2_Node000001_Node000003"><a xlink:title=" ">
<path fill="none" stroke="#63b8ff" d="M139.17,-21.49C149.55,-20.36 160.29,-19.18 170.77,-18.04"/>
<polygon fill="#63b8ff" stroke="#63b8ff" points="170.94,-21.54 180.5,-16.97 170.18,-14.58 170.94,-21.54"/>
</a>
</g>
</g>
</g>
</svg>
