<?xml version="1.0" encoding="UTF-8" standalone="no"?>
<!DOCTYPE svg PUBLIC "-//W3C//DTD SVG 1.1//EN"
 "http://www.w3.org/Graphics/SVG/1.1/DTD/svg11.dtd">
<!-- Generated by graphviz version 10.0.1 (20240210.2158)
 -->
<!-- Title: TagWidget::removeRequested Pages: 1 -->
<svg width="460pt" height="28pt"
 viewBox="0.00 0.00 460.25 28.00" xmlns="http://www.w3.org/2000/svg" xmlns:xlink="http://www.w3.org/1999/xlink">
<g id="graph0" class="graph" transform="scale(1 1) rotate(0) translate(4 24)">
<title>TagWidget::removeRequested</title>
<!-- Node1 -->
<g id="Node000001" class="node">
<title>Node1</title>
<g id="a_Node000001"><a xlink:title="Signal that is emitted when the widget is requested to be removed.">
<polygon fill="#999999" stroke="#666666" points="452.25,-20 306.5,-20 306.5,0 452.25,0 452.25,-20"/>
<text text-anchor="middle" x="379.38" y="-6.5" font-family="Helvetica,sans-Serif" font-size="10.00">TagWidget::removeRequested</text>
</a>
</g>
</g>
<!-- Node2 -->
<g id="Node000002" class="node">
<title>Node2</title>
<g id="a_Node000002"><a xlink:href="class_tag_widget.html#a9da08f5e5c402c0eb8808176a2f1203c" target="_top" xlink:title="Remove this widget.">
<polygon fill="white" stroke="#666666" points="270.5,-20 151,-20 151,0 270.5,0 270.5,-20"/>
<text text-anchor="middle" x="210.75" y="-6.5" font-family="Helvetica,sans-Serif" font-size="10.00">TagWidget::RemoveSelf</text>
</a>
</g>
</g>
<!-- Node1&#45;&gt;Node2 -->
<g id="edge1_Node000001_Node000002" class="edge">
<title>Node1&#45;&gt;Node2</title>
<g id="a_edge1_Node000001_Node000002"><a xlink:title=" ">
<path fill="none" stroke="#63b8ff" d="M294.87,-10C286.8,-10 278.72,-10 270.96,-10"/>
<polygon fill="#63b8ff" stroke="#63b8ff" points="294.75,-13.5 304.75,-10 294.75,-6.5 294.75,-13.5"/>
</a>
</g>
</g>
<!-- Node3 -->
<g id="Node000003" class="node">
<title>Node3</title>
<g id="a_Node000003"><a xlink:href="class_tag_widget.html#a16fcbf974dd6265776d55a9f60deb4c6" target="_top" xlink:title="Construct a new Tag Widget object.">
<polygon fill="white" stroke="#666666" points="115,-20 0,-20 0,0 115,0 115,-20"/>
<text text-anchor="middle" x="57.5" y="-6.5" font-family="Helvetica,sans-Serif" font-size="10.00">TagWidget::TagWidget</text>
</a>
</g>
</g>
<!-- Node2&#45;&gt;Node3 -->
<g id="edge2_Node000002_Node000003" class="edge">
<title>Node2&#45;&gt;Node3</title>
<g id="a_edge2_Node000002_Node000003"><a xlink:title=" ">
<path fill="none" stroke="#63b8ff" d="M139.39,-10C131.22,-10 122.97,-10 115.02,-10"/>
<polygon fill="#63b8ff" stroke="#63b8ff" points="139.33,-13.5 149.33,-10 139.33,-6.5 139.33,-13.5"/>
</a>
</g>
</g>
</g>
</svg>
