<?xml version="1.0" encoding="UTF-8" standalone="no"?>
<!DOCTYPE svg PUBLIC "-//W3C//DTD SVG 1.1//EN"
 "http://www.w3.org/Graphics/SVG/1.1/DTD/svg11.dtd">
<!-- Generated by graphviz version 10.0.1 (20240210.2158)
 -->
<!-- Title: ImageEditorGUI::saveFile Pages: 1 -->
<svg width="532pt" height="66pt"
 viewBox="0.00 0.00 532.25 66.00" xmlns="http://www.w3.org/2000/svg" xmlns:xlink="http://www.w3.org/1999/xlink">
<g id="graph0" class="graph" transform="scale(1 1) rotate(0) translate(4 62)">
<title>ImageEditorGUI::saveFile</title>
<!-- Node1 -->
<g id="Node000001" class="node">
<title>Node1</title>
<g id="a_Node000001"><a xlink:title="Saves the current file.">
<polygon fill="#999999" stroke="#666666" points="125.5,-39 0,-39 0,-19 125.5,-19 125.5,-39"/>
<text text-anchor="middle" x="62.75" y="-25.5" font-family="Helvetica,sans-Serif" font-size="10.00">ImageEditorGUI::saveFile</text>
</a>
</g>
</g>
<!-- Node2 -->
<g id="Node000002" class="node">
<title>Node2</title>
<g id="a_Node000002"><a xlink:href="class_tag_widget.html#afe6c02bb8e709b6568cf05ea344b3ba8" target="_top" xlink:title="Get the current tag name and value.">
<polygon fill="white" stroke="#666666" points="296.38,-58 184.38,-58 184.38,-38 296.38,-38 296.38,-58"/>
<text text-anchor="middle" x="240.38" y="-44.5" font-family="Helvetica,sans-Serif" font-size="10.00">TagWidget::getValues</text>
</a>
</g>
</g>
<!-- Node1&#45;&gt;Node2 -->
<g id="edge1_Node000001_Node000002" class="edge">
<title>Node1&#45;&gt;Node2</title>
<g id="a_edge1_Node000001_Node000002"><a xlink:title=" ">
<path fill="none" stroke="#63b8ff" d="M125.67,-35.7C141.01,-37.36 157.5,-39.14 173.04,-40.82"/>
<polygon fill="#63b8ff" stroke="#63b8ff" points="172.33,-44.27 182.65,-41.86 173.09,-37.31 172.33,-44.27"/>
</a>
</g>
</g>
<!-- Node3 -->
<g id="Node000003" class="node">
<title>Node3</title>
<g id="a_Node000003"><a xlink:href="class_meta_data_handler.html#ab83e9b0d8069c1019e5a21b8dafaa2bf" target="_top" xlink:title="Writes metadata to a file.">
<polygon fill="white" stroke="#666666" points="319.25,-20 161.5,-20 161.5,0 319.25,0 319.25,-20"/>
<text text-anchor="middle" x="240.38" y="-6.5" font-family="Helvetica,sans-Serif" font-size="10.00">MetaDataHandler::writeMetadata</text>
</a>
</g>
</g>
<!-- Node1&#45;&gt;Node3 -->
<g id="edge2_Node000001_Node000003" class="edge">
<title>Node1&#45;&gt;Node3</title>
<g id="a_edge2_Node000001_Node000003"><a xlink:title=" ">
<path fill="none" stroke="#63b8ff" d="M125.67,-22.3C133.46,-21.46 141.54,-20.58 149.65,-19.71"/>
<polygon fill="#63b8ff" stroke="#63b8ff" points="150.02,-23.19 159.59,-18.63 149.27,-16.23 150.02,-23.19"/>
</a>
</g>
</g>
<!-- Node4 -->
<g id="Node000004" class="node">
<title>Node4</title>
<g id="a_Node000004"><a xlink:href="class_meta_data_handler.html#a3e50a5677b75156c986b84f55e1bcdbc" target="_top" xlink:title="Writes a PNG header to a file.">
<polygon fill="white" stroke="#666666" points="524.25,-20 355.25,-20 355.25,0 524.25,0 524.25,-20"/>
<text text-anchor="middle" x="439.75" y="-6.5" font-family="Helvetica,sans-Serif" font-size="10.00">MetaDataHandler::writePNGHeader</text>
</a>
</g>
</g>
<!-- Node3&#45;&gt;Node4 -->
<g id="edge3_Node000003_Node000004" class="edge">
<title>Node3&#45;&gt;Node4</title>
<g id="a_edge3_Node000003_Node000004"><a xlink:title=" ">
<path fill="none" stroke="#63b8ff" d="M319.67,-10C327.57,-10 335.65,-10 343.7,-10"/>
<polygon fill="#63b8ff" stroke="#63b8ff" points="343.53,-13.5 353.52,-10 343.52,-6.5 343.53,-13.5"/>
</a>
</g>
</g>
</g>
</svg>
