<?xml version="1.0" encoding="UTF-8" standalone="no"?>
<!DOCTYPE svg PUBLIC "-//W3C//DTD SVG 1.1//EN"
 "http://www.w3.org/Graphics/SVG/1.1/DTD/svg11.dtd">
<!-- Generated by graphviz version 10.0.1 (20240210.2158)
 -->
<!-- Title: MetaDataHandler Pages: 1 -->
<svg width="107pt" height="124pt"
 viewBox="0.00 0.00 107.00 124.00" xmlns="http://www.w3.org/2000/svg" xmlns:xlink="http://www.w3.org/1999/xlink">
<g id="graph0" class="graph" transform="scale(1 1) rotate(0) translate(4 120)">
<title>MetaDataHandler</title>
<!-- Node1 -->
<g id="Node000001" class="node">
<title>Node1</title>
<g id="a_Node000001"><a xlink:title=" ">
<polygon fill="#999999" stroke="none" points="99,-116 0,-116 0,0 99,0 99,-116"/>
<text text-anchor="start" x="12" y="-102.5" font-family="Helvetica,sans-Serif" font-size="10.00">MetaDataHandler</text>
<text text-anchor="start" x="48" y="-86.5" font-family="Helvetica,sans-Serif" font-size="10.00"> </text>
<text text-anchor="start" x="4" y="-70.5" font-family="Helvetica,sans-Serif" font-size="10.00">+</text>
<text text-anchor="start" x="14" y="-70.5" font-family="Helvetica,sans-Serif" font-size="10.00">MetaDataHandler()</text>
<text text-anchor="start" x="4" y="-54.5" font-family="Helvetica,sans-Serif" font-size="10.00">+</text>
<text text-anchor="start" x="14" y="-54.5" font-family="Helvetica,sans-Serif" font-size="10.00">readPNGHeader()</text>
<text text-anchor="start" x="4" y="-38.5" font-family="Helvetica,sans-Serif" font-size="10.00">+</text>
<text text-anchor="start" x="14" y="-38.5" font-family="Helvetica,sans-Serif" font-size="10.00">readMetadata()</text>
<text text-anchor="start" x="4" y="-22.5" font-family="Helvetica,sans-Serif" font-size="10.00">+</text>
<text text-anchor="start" x="14" y="-22.5" font-family="Helvetica,sans-Serif" font-size="10.00">writePNGHeader()</text>
<text text-anchor="start" x="4" y="-6.5" font-family="Helvetica,sans-Serif" font-size="10.00">+</text>
<text text-anchor="start" x="14" y="-6.5" font-family="Helvetica,sans-Serif" font-size="10.00">writeMetadata()</text>
<polygon fill="#666666" stroke="#666666" points="0,-98 0,-98 99,-98 99,-98 0,-98"/>
<polygon fill="#666666" stroke="#666666" points="0,-82 0,-82 99,-82 99,-82 0,-82"/>
<polygon fill="none" stroke="#666666" points="0,0 0,-116 99,-116 99,0 0,0"/>
</a>
</g>
</g>
</g>
</svg>
