<?xml version="1.0" encoding="UTF-8" standalone="no"?>
<!DOCTYPE svg PUBLIC "-//W3C//DTD SVG 1.1//EN"
 "http://www.w3.org/Graphics/SVG/1.1/DTD/svg11.dtd">
<!-- Generated by graphviz version 10.0.1 (20240210.2158)
 -->
<!-- Title: ImageEditorGUI::InitUi Pages: 1 -->
<!--zoomable 394 -->

<svg id="main" version="1.1" xmlns="http://www.w3.org/2000/svg" xmlns:xlink="http://www.w3.org/1999/xlink" xml:space="preserve" onload="init(evt)">
<style type="text/css"><![CDATA[
.node, .edge {opacity: 0.7;}
.node.selected, .edge.selected {opacity: 1;}
.edge:hover path { stroke: red; }
.edge:hover polygon { stroke: red; fill: red; }
]]></style>

<defs>
  <circle id="rim" cx="0" cy="0" r="7"/>
  <circle id="rim2" cx="0" cy="0" r="3.5"/>
  <g id="zoomPlus">
    <use xlink:href="#rim" fill="#404040"><set attributeName="fill" to="#808080" begin="zoomplus.mouseover" end="zoomplus.mouseout"/></use>
    <path d="M-4,0h8M0,-4v8" fill="none" stroke="white" stroke-width="1.5" pointer-events="none"/>
  </g>
  <g id="zoomMin">
    <use xlink:href="#rim" fill="#404040"><set attributeName="fill" to="#808080" begin="zoomminus.mouseover" end="zoomminus.mouseout"/></use>
    <path d="M-4,0h8" fill="none" stroke="white" stroke-width="1.5" pointer-events="none"/>
  </g>
  <g id="arrowUp" transform="translate(30 24)">
    <use xlink:href="#rim"/>
    <path pointer-events="none" fill="none" stroke="white" stroke-width="1.5" d="M0,-3.0v7 M-2.5,-0.5L0,-3.0L2.5,-0.5"/>
  </g>
  <g id="arrowRight" transform="rotate(90) translate(36 -43)">
    <use xlink:href="#rim"/>
    <path pointer-events="none" fill="none" stroke="white" stroke-width="1.5" d="M0,-3.0v7 M-2.5,-0.5L0,-3.0L2.5,-0.5"/>
  </g>
  <g id="arrowDown" transform="rotate(180) translate(-30 -48)">
    <use xlink:href="#rim"/>
    <path pointer-events="none" fill="none" stroke="white" stroke-width="1.5" d="M0,-3.0v7 M-2.5,-0.5L0,-3.0L2.5,-0.5"/>
  </g>
  <g id="arrowLeft" transform="rotate(270) translate(-36 17)">
    <use xlink:href="#rim"/>
    <path pointer-events="none" fill="none" stroke="white" stroke-width="1.5" d="M0,-3.0v7 M-2.5,-0.5L0,-3.0L2.5,-0.5"/>
  </g>
  <g id="resetDef">
    <use xlink:href="#rim2" fill="#404040"><set attributeName="fill" to="#808080" begin="reset.mouseover" end="reset.mouseout"/></use>
  </g>
</defs>
<script type="application/ecmascript">
var viewWidth = 716;
var viewHeight = 394;
var sectionId = 'dynsection-9';
</script>
<script type="application/ecmascript" xlink:href="svg.min.js"/>
<svg id="graph" class="graph">
<g id="viewport">
<title>ImageEditorGUI::InitUi</title>
<!-- Node1 -->
<g id="Node000001" class="node">
<title>Node1</title>
<g id="a_Node000001"><a xlink:title="Initializes the UI.">
<polygon fill="#999999" stroke="#666666" points="112,-260 0,-260 0,-240 112,-240 112,-260"/>
<text text-anchor="middle" x="56" y="-246.5" font-family="Helvetica,sans-Serif" font-size="10.00">ImageEditorGUI::InitUi</text>
</a>
</g>
</g>
<!-- Node2 -->
<g id="Node000002" class="node">
<title>Node2</title>
<g id="a_Node000002"><a xlink:href="class_image_editor_g_u_i.html#ac672718c127179c9c6a541c5deff2b29" target="_top" xlink:title="Adds standard tags to the GUI.">
<polygon fill="white" stroke="#666666" points="308.75,-323 148,-323 148,-303 308.75,-303 308.75,-323"/>
<text text-anchor="middle" x="228.38" y="-309.5" font-family="Helvetica,sans-Serif" font-size="10.00">ImageEditorGUI::addStandardTag</text>
</a>
</g>
</g>
<!-- Node1&#45;&gt;Node2 -->
<g id="edge1_Node000001_Node000002" class="edge">
<title>Node1&#45;&gt;Node2</title>
<g id="a_edge1_Node000001_Node000002"><a xlink:title=" ">
<path fill="none" stroke="#63b8ff" d="M85.13,-260.4C113.37,-270.84 157.09,-287.01 188.61,-298.66"/>
<polygon fill="#63b8ff" stroke="#63b8ff" points="187.19,-301.87 197.78,-302.06 189.61,-295.31 187.19,-301.87"/>
</a>
</g>
</g>
<!-- Node5 -->
<g id="Node000005" class="node">
<title>Node5</title>
<g id="a_Node000005"><a xlink:href="class_image_editor_g_u_i.html#a5a7f03147f232cdeea9d276019ccd034" target="_top" xlink:title="Adds a tag widget to the GUI.">
<polygon fill="white" stroke="#666666" points="289.25,-361 167.5,-361 167.5,-341 289.25,-341 289.25,-361"/>
<text text-anchor="middle" x="228.38" y="-347.5" font-family="Helvetica,sans-Serif" font-size="10.00">ImageEditorGUI::addTag</text>
</a>
</g>
</g>
<!-- Node1&#45;&gt;Node5 -->
<g id="edge4_Node000001_Node000005" class="edge">
<title>Node1&#45;&gt;Node5</title>
<g id="a_edge4_Node000001_Node000005"><a xlink:title=" ">
<path fill="none" stroke="#63b8ff" d="M65.36,-260.34C80.12,-277.89 112.61,-313.39 148,-332 151.26,-333.71 154.68,-335.28 158.19,-336.7"/>
<polygon fill="#63b8ff" stroke="#63b8ff" points="156.9,-339.96 167.49,-340.05 159.27,-333.37 156.9,-339.96"/>
</a>
</g>
</g>
<!-- Node6 -->
<g id="Node000006" class="node">
<title>Node6</title>
<g id="a_Node000006"><a xlink:href="class_image_editor_g_u_i.html#a14bc08294cff01538d748a8792b0b5e3" target="_top" xlink:title="Loads a file into the GUI.">
<polygon fill="white" stroke="#666666" points="291.88,-260 164.88,-260 164.88,-240 291.88,-240 291.88,-260"/>
<text text-anchor="middle" x="228.38" y="-246.5" font-family="Helvetica,sans-Serif" font-size="10.00">ImageEditorGUI::LoadFile</text>
</a>
</g>
</g>
<!-- Node1&#45;&gt;Node6 -->
<g id="edge7_Node000001_Node000006" class="edge">
<title>Node1&#45;&gt;Node6</title>
<g id="a_edge7_Node000001_Node000006"><a xlink:title=" ">
<path fill="none" stroke="#63b8ff" d="M112.32,-250C125.37,-250 139.5,-250 153.24,-250"/>
<polygon fill="#63b8ff" stroke="#63b8ff" points="153.14,-253.5 163.14,-250 153.14,-246.5 153.14,-253.5"/>
</a>
</g>
</g>
<!-- Node13 -->
<g id="Node000013" class="node">
<title>Node13</title>
<g id="a_Node000013"><a xlink:href="class_image_editor_g_u_i.html#a135b12da2af6c427200b40dfc45aae0c" target="_top" xlink:title="Saves the current file.">
<polygon fill="white" stroke="#666666" points="291.12,-96 165.62,-96 165.62,-76 291.12,-76 291.12,-96"/>
<text text-anchor="middle" x="228.38" y="-82.5" font-family="Helvetica,sans-Serif" font-size="10.00">ImageEditorGUI::saveFile</text>
</a>
</g>
</g>
<!-- Node1&#45;&gt;Node13 -->
<g id="edge16_Node000001_Node000013" class="edge">
<title>Node1&#45;&gt;Node13</title>
<g id="a_edge16_Node000001_Node000013"><a xlink:title=" ">
<path fill="none" stroke="#63b8ff" d="M67.66,-239.74C95.86,-212.59 172.75,-138.58 208.56,-104.11"/>
<polygon fill="#63b8ff" stroke="#63b8ff" points="210.85,-106.76 215.63,-97.3 206,-101.72 210.85,-106.76"/>
</a>
</g>
</g>
<!-- Node17 -->
<g id="Node000017" class="node">
<title>Node17</title>
<g id="a_Node000017"><a xlink:href="class_image_editor_g_u_i.html#acd905527c38151be31a672f2ac6ec03e" target="_top" xlink:title="Switches the mode of the GUI.">
<polygon fill="white" stroke="#666666" points="300.12,-39 156.62,-39 156.62,-19 300.12,-19 300.12,-39"/>
<text text-anchor="middle" x="228.38" y="-25.5" font-family="Helvetica,sans-Serif" font-size="10.00">ImageEditorGUI::SwitchMode</text>
</a>
</g>
</g>
<!-- Node1&#45;&gt;Node17 -->
<g id="edge20_Node000001_Node000017" class="edge">
<title>Node1&#45;&gt;Node17</title>
<g id="a_edge20_Node000001_Node000017"><a xlink:title=" ">
<path fill="none" stroke="#63b8ff" d="M59.5,-239.89C67.43,-209.79 94.67,-119.54 148,-67 157.95,-57.2 170.91,-49.55 183.47,-43.77"/>
<polygon fill="#63b8ff" stroke="#63b8ff" points="184.63,-47.08 192.45,-39.94 181.88,-40.64 184.63,-47.08"/>
</a>
</g>
</g>
<!-- Node3 -->
<g id="Node000003" class="node">
<title>Node3</title>
<g id="a_Node000003"><a xlink:href="class_tag_widget.html#a0dc7bd2438fdbd01d50253b11268cf47" target="_top" xlink:title="Signal that is emitted when the widget is requested to be removed.">
<polygon fill="white" stroke="#666666" points="496.5,-386 350.75,-386 350.75,-366 496.5,-366 496.5,-386"/>
<text text-anchor="middle" x="423.62" y="-372.5" font-family="Helvetica,sans-Serif" font-size="10.00">TagWidget::removeRequested</text>
</a>
</g>
</g>
<!-- Node2&#45;&gt;Node3 -->
<g id="edge2_Node000002_Node000003" class="edge">
<title>Node2&#45;&gt;Node3</title>
<g id="a_edge2_Node000002_Node000003"><a xlink:title=" ">
<path fill="none" stroke="#63b8ff" d="M284.91,-323.49C293.07,-325.83 301.25,-328.64 308.75,-332 326.53,-339.96 326.99,-349 344.75,-357 348.96,-358.9 353.39,-360.62 357.91,-362.19"/>
<polygon fill="#63b8ff" stroke="#63b8ff" points="356.52,-365.42 367.11,-365.1 358.63,-358.74 356.52,-365.42"/>
</a>
</g>
</g>
<!-- Node4 -->
<g id="Node000004" class="node">
<title>Node4</title>
<g id="a_Node000004"><a xlink:href="class_image_editor_g_u_i.html#a39aa96af2498fa25a031afa86aa8eb76" target="_top" xlink:title="Removes a tag widget from the GUI.">
<polygon fill="white" stroke="#666666" points="492,-348 355.25,-348 355.25,-316 492,-316 492,-348"/>
<text text-anchor="start" x="363.25" y="-334.5" font-family="Helvetica,sans-Serif" font-size="10.00">ImageEditorGUI::removeTag</text>
<text text-anchor="middle" x="423.62" y="-322.5" font-family="Helvetica,sans-Serif" font-size="10.00">Widget</text>
</a>
</g>
</g>
<!-- Node2&#45;&gt;Node4 -->
<g id="edge3_Node000002_Node000004" class="edge">
<title>Node2&#45;&gt;Node4</title>
<g id="a_edge3_Node000002_Node000004"><a xlink:title=" ">
<path fill="none" stroke="#63b8ff" d="M309.09,-320.84C320.48,-321.96 332.19,-323.11 343.56,-324.23"/>
<polygon fill="#63b8ff" stroke="#63b8ff" points="342.99,-327.69 353.29,-325.18 343.68,-320.72 342.99,-327.69"/>
</a>
</g>
</g>
<!-- Node5&#45;&gt;Node3 -->
<g id="edge5_Node000005_Node000003" class="edge">
<title>Node5&#45;&gt;Node3</title>
<g id="a_edge5_Node000005_Node000003"><a xlink:title=" ">
<path fill="none" stroke="#63b8ff" d="M289.73,-358.81C305.38,-360.83 322.53,-363.05 339.14,-365.2"/>
<polygon fill="#63b8ff" stroke="#63b8ff" points="338.67,-368.67 349.03,-366.48 339.56,-361.73 338.67,-368.67"/>
</a>
</g>
</g>
<!-- Node5&#45;&gt;Node4 -->
<g id="edge6_Node000005_Node000004" class="edge">
<title>Node5&#45;&gt;Node4</title>
<g id="a_edge6_Node000005_Node000004"><a xlink:title=" ">
<path fill="none" stroke="#63b8ff" d="M289.73,-345.07C306.79,-343.39 325.63,-341.54 343.62,-339.77"/>
<polygon fill="#63b8ff" stroke="#63b8ff" points="343.88,-343.26 353.49,-338.8 343.19,-336.29 343.88,-343.26"/>
</a>
</g>
</g>
<!-- Node6&#45;&gt;Node3 -->
<g id="edge12_Node000006_Node000003" class="edge">
<title>Node6&#45;&gt;Node3</title>
<g id="a_edge12_Node000006_Node000003"><a xlink:title=" ">
<path fill="none" stroke="#63b8ff" d="M256.04,-260.35C272.68,-267.81 293.72,-279.17 308.75,-294 331.7,-316.65 318.99,-337.6 344.75,-357 346.32,-358.18 347.95,-359.29 349.63,-360.33"/>
<polygon fill="#63b8ff" stroke="#63b8ff" points="347.91,-363.38 358.4,-364.87 351.13,-357.17 347.91,-363.38"/>
</a>
</g>
</g>
<!-- Node6&#45;&gt;Node4 -->
<g id="edge13_Node000006_Node000004" class="edge">
<title>Node6&#45;&gt;Node4</title>
<g id="a_edge13_Node000006_Node000004"><a xlink:title=" ">
<path fill="none" stroke="#63b8ff" d="M248.17,-260.36C270.68,-272.53 309.75,-292.83 344.75,-307 348.78,-308.63 352.96,-310.23 357.2,-311.78"/>
<polygon fill="#63b8ff" stroke="#63b8ff" points="355.77,-314.99 366.37,-315.03 358.11,-308.39 355.77,-314.99"/>
</a>
</g>
</g>
<!-- Node7 -->
<g id="Node000007" class="node">
<title>Node7</title>
<g id="a_Node000007"><a xlink:href="class_image_editor_g_u_i.html#ac8c68a1cf592e428b21e7fec5fccd8cc" target="_top" xlink:title="Displays a file in the GUI.">
<polygon fill="white" stroke="#666666" points="492.75,-298 354.5,-298 354.5,-278 492.75,-278 492.75,-298"/>
<text text-anchor="middle" x="423.62" y="-284.5" font-family="Helvetica,sans-Serif" font-size="10.00">ImageEditorGUI::DisplayFile</text>
</a>
</g>
</g>
<!-- Node6&#45;&gt;Node7 -->
<g id="edge8_Node000006_Node000007" class="edge">
<title>Node6&#45;&gt;Node7</title>
<g id="a_edge8_Node000006_Node000007"><a xlink:title=" ">
<path fill="none" stroke="#63b8ff" d="M282.69,-260.48C306.14,-265.09 333.87,-270.55 358.44,-275.38"/>
<polygon fill="#63b8ff" stroke="#63b8ff" points="357.51,-278.76 368,-277.26 358.86,-271.89 357.51,-278.76"/>
</a>
</g>
</g>
<!-- Node8 -->
<g id="Node000008" class="node">
<title>Node8</title>
<g id="a_Node000008"><a xlink:href="class_image_editor_g_u_i.html#a372deea66bedcd77d2b7c69dd6e7ae34" target="_top" xlink:title="Gets the last directory used.">
<polygon fill="white" stroke="#666666" points="492,-260 355.25,-260 355.25,-240 492,-240 492,-260"/>
<text text-anchor="middle" x="423.62" y="-246.5" font-family="Helvetica,sans-Serif" font-size="10.00">ImageEditorGUI::GetLastDir</text>
</a>
</g>
</g>
<!-- Node6&#45;&gt;Node8 -->
<g id="edge9_Node000006_Node000008" class="edge">
<title>Node6&#45;&gt;Node8</title>
<g id="a_edge9_Node000006_Node000008"><a xlink:title=" ">
<path fill="none" stroke="#63b8ff" d="M292.12,-250C308.57,-250 326.53,-250 343.71,-250"/>
<polygon fill="#63b8ff" stroke="#63b8ff" points="343.35,-253.5 353.35,-250 343.35,-246.5 343.35,-253.5"/>
</a>
</g>
</g>
<!-- Node9 -->
<g id="Node000009" class="node">
<title>Node9</title>
<g id="a_Node000009"><a xlink:href="class_meta_data_handler.html#a0f0c872ecd4e6b41bfcd746032152d2a" target="_top" xlink:title=" ">
<polygon fill="white" stroke="#666666" points="501.75,-222 345.5,-222 345.5,-202 501.75,-202 501.75,-222"/>
<text text-anchor="middle" x="423.62" y="-208.5" font-family="Helvetica,sans-Serif" font-size="10.00">MetaDataHandler::readMetadata</text>
</a>
</g>
</g>
<!-- Node6&#45;&gt;Node9 -->
<g id="edge10_Node000006_Node000009" class="edge">
<title>Node6&#45;&gt;Node9</title>
<g id="a_edge10_Node000006_Node000009"><a xlink:title=" ">
<path fill="none" stroke="#63b8ff" d="M282.69,-239.52C306.14,-234.91 333.87,-229.45 358.44,-224.62"/>
<polygon fill="#63b8ff" stroke="#63b8ff" points="358.86,-228.11 368,-222.74 357.51,-221.24 358.86,-228.11"/>
</a>
</g>
</g>
<!-- Node11 -->
<g id="Node000011" class="node">
<title>Node11</title>
<g id="a_Node000011"><a xlink:href="class_image_editor_g_u_i.html#ac88e196169998c20ddf171733dfc5fda" target="_top" xlink:title="Sets the last opened directory.">
<polygon fill="white" stroke="#666666" points="491.62,-184 355.62,-184 355.62,-164 491.62,-164 491.62,-184"/>
<text text-anchor="middle" x="423.62" y="-170.5" font-family="Helvetica,sans-Serif" font-size="10.00">ImageEditorGUI::SetLastDir</text>
</a>
</g>
</g>
<!-- Node6&#45;&gt;Node11 -->
<g id="edge14_Node000006_Node000011" class="edge">
<title>Node6&#45;&gt;Node11</title>
<g id="a_edge14_Node000006_Node000011"><a xlink:title=" ">
<path fill="none" stroke="#63b8ff" d="M247.21,-239.64C269.43,-227.11 308.85,-206.07 344.75,-193 350.17,-191.03 355.87,-189.2 361.63,-187.51"/>
<polygon fill="#63b8ff" stroke="#63b8ff" points="362.54,-190.89 371.24,-184.86 360.67,-184.14 362.54,-190.89"/>
</a>
</g>
</g>
<!-- Node12 -->
<g id="Node000012" class="node">
<title>Node12</title>
<g id="a_Node000012"><a xlink:href="class_image_editor_g_u_i.html#a024490b48241a822bdb98f029a35d13e" target="_top" xlink:title="Updates the window title.">
<polygon fill="white" stroke="#666666" points="501.38,-146 345.88,-146 345.88,-114 501.38,-114 501.38,-146"/>
<text text-anchor="start" x="353.88" y="-132.5" font-family="Helvetica,sans-Serif" font-size="10.00">ImageEditorGUI::UpdateWindow</text>
<text text-anchor="middle" x="423.62" y="-120.5" font-family="Helvetica,sans-Serif" font-size="10.00">Title</text>
</a>
</g>
</g>
<!-- Node6&#45;&gt;Node12 -->
<g id="edge15_Node000006_Node000012" class="edge">
<title>Node6&#45;&gt;Node12</title>
<g id="a_edge15_Node000006_Node000012"><a xlink:title=" ">
<path fill="none" stroke="#63b8ff" d="M239.2,-239.63C257.99,-220.37 301.02,-178.87 344.75,-155 347.4,-153.55 350.16,-152.17 352.97,-150.86"/>
<polygon fill="#63b8ff" stroke="#63b8ff" points="354.18,-154.15 361.98,-146.98 351.41,-147.72 354.18,-154.15"/>
</a>
</g>
</g>
<!-- Node10 -->
<g id="Node000010" class="node">
<title>Node10</title>
<g id="a_Node000010"><a xlink:href="class_meta_data_handler.html#a1a20795298bd6966d20cf6f7880cbdd8" target="_top" xlink:title=" ">
<polygon fill="white" stroke="#666666" points="706.75,-222 539.25,-222 539.25,-202 706.75,-202 706.75,-222"/>
<text text-anchor="middle" x="623" y="-208.5" font-family="Helvetica,sans-Serif" font-size="10.00">MetaDataHandler::readPNGHeader</text>
</a>
</g>
</g>
<!-- Node9&#45;&gt;Node10 -->
<g id="edge11_Node000009_Node000010" class="edge">
<title>Node9&#45;&gt;Node10</title>
<g id="a_edge11_Node000009_Node000010"><a xlink:title=" ">
<path fill="none" stroke="#63b8ff" d="M502.07,-212C510.48,-212 519.1,-212 527.69,-212"/>
<polygon fill="#63b8ff" stroke="#63b8ff" points="527.41,-215.5 537.41,-212 527.41,-208.5 527.41,-215.5"/>
</a>
</g>
</g>
<!-- Node14 -->
<g id="Node000014" class="node">
<title>Node14</title>
<g id="a_Node000014"><a xlink:href="class_tag_widget.html#afe6c02bb8e709b6568cf05ea344b3ba8" target="_top" xlink:title="Get the current tag name and value.">
<polygon fill="white" stroke="#666666" points="479.62,-96 367.62,-96 367.62,-76 479.62,-76 479.62,-96"/>
<text text-anchor="middle" x="423.62" y="-82.5" font-family="Helvetica,sans-Serif" font-size="10.00">TagWidget::getValues</text>
</a>
</g>
</g>
<!-- Node13&#45;&gt;Node14 -->
<g id="edge17_Node000013_Node000014" class="edge">
<title>Node13&#45;&gt;Node14</title>
<g id="a_edge17_Node000013_Node000014"><a xlink:title=" ">
<path fill="none" stroke="#63b8ff" d="M291.58,-86C312.16,-86 335.13,-86 356.02,-86"/>
<polygon fill="#63b8ff" stroke="#63b8ff" points="355.87,-89.5 365.87,-86 355.87,-82.5 355.87,-89.5"/>
</a>
</g>
</g>
<!-- Node15 -->
<g id="Node000015" class="node">
<title>Node15</title>
<g id="a_Node000015"><a xlink:href="class_meta_data_handler.html#a2b7d9efa2971c1e5722b53736326f693" target="_top" xlink:title=" ">
<polygon fill="white" stroke="#666666" points="502.5,-58 344.75,-58 344.75,-38 502.5,-38 502.5,-58"/>
<text text-anchor="middle" x="423.62" y="-44.5" font-family="Helvetica,sans-Serif" font-size="10.00">MetaDataHandler::writeMetadata</text>
</a>
</g>
</g>
<!-- Node13&#45;&gt;Node15 -->
<g id="edge18_Node000013_Node000015" class="edge">
<title>Node13&#45;&gt;Node15</title>
<g id="a_edge18_Node000013_Node000015"><a xlink:title=" ">
<path fill="none" stroke="#63b8ff" d="M282.69,-75.52C306.14,-70.91 333.87,-65.45 358.44,-60.62"/>
<polygon fill="#63b8ff" stroke="#63b8ff" points="358.86,-64.11 368,-58.74 357.51,-57.24 358.86,-64.11"/>
</a>
</g>
</g>
<!-- Node16 -->
<g id="Node000016" class="node">
<title>Node16</title>
<g id="a_Node000016"><a xlink:href="class_meta_data_handler.html#a3e50a5677b75156c986b84f55e1bcdbc" target="_top" xlink:title=" ">
<polygon fill="white" stroke="#666666" points="707.5,-58 538.5,-58 538.5,-38 707.5,-38 707.5,-58"/>
<text text-anchor="middle" x="623" y="-44.5" font-family="Helvetica,sans-Serif" font-size="10.00">MetaDataHandler::writePNGHeader</text>
</a>
</g>
</g>
<!-- Node15&#45;&gt;Node16 -->
<g id="edge19_Node000015_Node000016" class="edge">
<title>Node15&#45;&gt;Node16</title>
<g id="a_edge19_Node000015_Node000016"><a xlink:title=" ">
<path fill="none" stroke="#63b8ff" d="M502.92,-48C510.82,-48 518.9,-48 526.95,-48"/>
<polygon fill="#63b8ff" stroke="#63b8ff" points="526.78,-51.5 536.77,-48 526.77,-44.5 526.78,-51.5"/>
</a>
</g>
</g>
<!-- Node18 -->
<g id="Node000018" class="node">
<title>Node18</title>
<g id="a_Node000018"><a xlink:href="_styles_8cpp.html#af792801f7db80364be5a016d633a1c22" target="_top" xlink:title="Loads a stylesheet from a file and applies it to the application.">
<polygon fill="white" stroke="#666666" points="454.5,-20 392.75,-20 392.75,0 454.5,0 454.5,-20"/>
<text text-anchor="middle" x="423.62" y="-6.5" font-family="Helvetica,sans-Serif" font-size="10.00">loadStyles</text>
</a>
</g>
</g>
<!-- Node17&#45;&gt;Node18 -->
<g id="edge21_Node000017_Node000018" class="edge">
<title>Node17&#45;&gt;Node18</title>
<g id="a_edge21_Node000017_Node000018"><a xlink:title=" ">
<path fill="none" stroke="#63b8ff" d="M300.51,-22.01C327.58,-19.34 357.52,-16.4 380.98,-14.09"/>
<polygon fill="#63b8ff" stroke="#63b8ff" points="381.16,-17.59 390.76,-13.13 380.47,-10.63 381.16,-17.59"/>
</a>
</g>
</g>
</g>
</svg>

<g id="navigator" transform="translate(0 0)" fill="#404254">
  <rect fill="#f2f5e9" fill-opacity="0.5" stroke="#606060" stroke-width=".5" x="0" y="0" width="60" height="60"/>
  <use id="zoomplus" xlink:href="#zoomPlus" x="17" y="9" onmousedown="handleZoom(evt,'in')"/>
  <use id="zoomminus" xlink:href="#zoomMin" x="42" y="9" onmousedown="handleZoom(evt,'out')"/>
  <use id="reset" xlink:href="#resetDef" x="30" y="36" onmousedown="handleReset()"/>
   <use id="arrowup" xlink:href="#arrowUp" x="0" y="0" onmousedown="handlePan(0,-1)"/>
  <use id="arrowright" xlink:href="#arrowRight" x="0" y="0" onmousedown="handlePan(1,0)"/>
  <use id="arrowdown" xlink:href="#arrowDown" x="0" y="0" onmousedown="handlePan(0,1)"/>
  <use id="arrowleft" xlink:href="#arrowLeft" x="0" y="0" onmousedown="handlePan(-1,0)"/>
</g>
<svg viewBox="0 0 15 15" width="100%" height="30px" preserveAspectRatio="xMaxYMin meet">
 <g id="arrow_out" transform="scale(0.3 0.3)">
  <a xlink:href="class_image_editor_g_u_i_a0ddb9a6d90ec93bc562dfff6d423de7d_cgraph_org.svg" target="_base">
   <rect id="button" ry="5" rx="5" y="6" x="6" height="38" width="38"
        fill="#f2f5e9" fill-opacity="0.5" stroke="#606060" stroke-width="1.0"/>
   <path id="arrow"
     d="M 11.500037,31.436501 C 11.940474,20.09759 22.043105,11.32322 32.158766,21.979434 L 37.068811,17.246167 C 37.068811,17.246167 37.088388,32 37.088388,32 L 22.160133,31.978069 C 22.160133,31.978069 26.997745,27.140456 26.997745,27.140456 C 18.528582,18.264221 13.291696,25.230495 11.500037,31.436501 z"
     style="fill:#404040;"/>
  </a>
 </g>
</svg>

<style type='text/css'>
<![CDATA[
[data-mouse-over-selected='false'] { opacity: 0.7; }
[data-mouse-over-selected='true']  { opacity: 1.0; }
]]>
</style>
<script type="application/ecmascript"><![CDATA[
document.addEventListener('DOMContentLoaded', (event) => {
  highlightEdges();
  highlightAdjacentNodes();
});
]]></script>
</svg>
