<?xml version="1.0" encoding="UTF-8" standalone="no"?>
<!DOCTYPE svg PUBLIC "-//W3C//DTD SVG 1.1//EN"
 "http://www.w3.org/Graphics/SVG/1.1/DTD/svg11.dtd">
<!-- Generated by graphviz version 10.0.1 (20240210.2158)
 -->
<!-- Title: TagWidget Pages: 1 -->
<svg width="377pt" height="373pt"
 viewBox="0.00 0.00 376.50 373.00" xmlns="http://www.w3.org/2000/svg" xmlns:xlink="http://www.w3.org/1999/xlink">
<g id="graph0" class="graph" transform="scale(1 1) rotate(0) translate(4 369)">
<title>TagWidget</title>
<!-- Node1 -->
<g id="Node000001" class="node">
<title>Node1</title>
<g id="a_Node000001"><a xlink:title="A widget for displaying and editing tags.">
<polygon fill="#999999" stroke="none" points="217.5,-116 130.5,-116 130.5,0 217.5,0 217.5,-116"/>
<text text-anchor="start" x="150.75" y="-102.5" font-family="Helvetica,sans-Serif" font-size="10.00">TagWidget</text>
<text text-anchor="start" x="172.5" y="-86.5" font-family="Helvetica,sans-Serif" font-size="10.00"> </text>
<text text-anchor="start" x="134.5" y="-70.5" font-family="Helvetica,sans-Serif" font-size="10.00">+</text>
<text text-anchor="start" x="144.5" y="-70.5" font-family="Helvetica,sans-Serif" font-size="10.00">TagWidget()</text>
<text text-anchor="start" x="134.5" y="-54.5" font-family="Helvetica,sans-Serif" font-size="10.00">+</text>
<text text-anchor="start" x="144.5" y="-54.5" font-family="Helvetica,sans-Serif" font-size="10.00">getValues()</text>
<text text-anchor="start" x="134.5" y="-38.5" font-family="Helvetica,sans-Serif" font-size="10.00">+</text>
<text text-anchor="start" x="144.5" y="-38.5" font-family="Helvetica,sans-Serif" font-size="10.00">RemoveSelf()</text>
<text text-anchor="start" x="134.5" y="-22.5" font-family="Helvetica,sans-Serif" font-size="10.00">+</text>
<text text-anchor="start" x="144.5" y="-22.5" font-family="Helvetica,sans-Serif" font-size="10.00">FocusNext()</text>
<text text-anchor="start" x="134.5" y="-6.5" font-family="Helvetica,sans-Serif" font-size="10.00">+</text>
<text text-anchor="start" x="144.5" y="-6.5" font-family="Helvetica,sans-Serif" font-size="10.00">FocusPrevious()</text>
<polygon fill="#666666" stroke="#666666" points="130.5,-98 130.5,-98 217.5,-98 217.5,-98 130.5,-98"/>
<polygon fill="#666666" stroke="#666666" points="130.5,-82 130.5,-82 217.5,-82 217.5,-82 130.5,-82"/>
<polygon fill="none" stroke="#666666" points="130.5,0 130.5,-116 217.5,-116 217.5,0 130.5,0"/>
</a>
</g>
</g>
<!-- Node2 -->
<g id="Node000002" class="node">
<title>Node2</title>
<g id="a_Node000002"><a xlink:href="class_q_widget.html" target="_top" xlink:title=" ">
<polygon fill="white" stroke="none" points="48,-252 0,-252 0,-200 48,-200 48,-252"/>
<text text-anchor="start" x="4.88" y="-238.5" font-family="Helvetica,sans-Serif" font-size="10.00">QWidget</text>
<text text-anchor="start" x="22.5" y="-222.5" font-family="Helvetica,sans-Serif" font-size="10.00"> </text>
<text text-anchor="start" x="22.5" y="-206.5" font-family="Helvetica,sans-Serif" font-size="10.00"> </text>
<polygon fill="#666666" stroke="#666666" points="0,-234 0,-234 48,-234 48,-234 0,-234"/>
<polygon fill="#666666" stroke="#666666" points="0,-218 0,-218 48,-218 48,-218 0,-218"/>
<polygon fill="none" stroke="#666666" points="0,-200 0,-252 48,-252 48,-200 0,-200"/>
</a>
</g>
</g>
<!-- Node2&#45;&gt;Node1 -->
<g id="edge1_Node000001_Node000002" class="edge">
<title>Node2&#45;&gt;Node1</title>
<g id="a_edge1_Node000001_Node000002"><a xlink:title=" ">
<path fill="none" stroke="#63b8ff" d="M45.65,-191C49.28,-185.86 53.13,-180.7 57,-176 79.56,-148.62 107.58,-120.42 130.54,-98.58"/>
<polygon fill="none" stroke="#63b8ff" points="43,-188.68 40.24,-198.91 48.77,-192.63 43,-188.68"/>
</a>
</g>
</g>
<!-- Node3 -->
<g id="Node000003" class="node">
<title>Node3</title>
<g id="a_Node000003"><a xlink:href="class_tag_text_edit.html" target="_top" xlink:title="A custom QTextEdit that emits signals when Tab or Shift+Tab are pressed.">
<polygon fill="white" stroke="none" points="174,-276 66,-276 66,-176 174,-176 174,-276"/>
<text text-anchor="start" x="94.12" y="-262.5" font-family="Helvetica,sans-Serif" font-size="10.00">TagTextEdit</text>
<text text-anchor="start" x="118.5" y="-246.5" font-family="Helvetica,sans-Serif" font-size="10.00"> </text>
<text text-anchor="start" x="70" y="-230.5" font-family="Helvetica,sans-Serif" font-size="10.00">+</text>
<text text-anchor="start" x="80" y="-230.5" font-family="Helvetica,sans-Serif" font-size="10.00">TagTextEdit()</text>
<text text-anchor="start" x="70.38" y="-214.5" font-family="Helvetica,sans-Serif" font-size="10.00">#</text>
<text text-anchor="start" x="80" y="-214.5" font-family="Helvetica,sans-Serif" font-size="10.00">focusNextPrevChild()</text>
<text text-anchor="start" x="70.38" y="-198.5" font-family="Helvetica,sans-Serif" font-size="10.00">#</text>
<text text-anchor="start" x="80" y="-198.5" font-family="Helvetica,sans-Serif" font-size="10.00">keyPressEvent()</text>
<text text-anchor="start" x="70.38" y="-182.5" font-family="Helvetica,sans-Serif" font-size="10.00">#</text>
<text text-anchor="start" x="80" y="-182.5" font-family="Helvetica,sans-Serif" font-size="10.00">focusInEvent()</text>
<polygon fill="#666666" stroke="#666666" points="66,-258 66,-258 174,-258 174,-258 66,-258"/>
<polygon fill="#666666" stroke="#666666" points="66,-242 66,-242 174,-242 174,-242 66,-242"/>
<polygon fill="none" stroke="#666666" points="66,-176 66,-276 174,-276 174,-176 66,-176"/>
</a>
</g>
</g>
<!-- Node3&#45;&gt;Node1 -->
<g id="edge2_Node000001_Node000003" class="edge">
<title>Node3&#45;&gt;Node1</title>
<g id="a_edge2_Node000001_Node000003"><a xlink:title=" ">
<path fill="none" stroke="#63b8ff" d="M126.94,-176.22C129.56,-162.38 133.03,-147.43 137.5,-134 138.19,-131.92 138.93,-129.83 139.71,-127.73"/>
<polygon fill="none" stroke="#63b8ff" points="139.73,-127.66 138.24,-120.61 144.17,-116.51 145.67,-123.57 139.73,-127.66"/>
</a>
</g>
<text text-anchor="middle" x="169.25" y="-148.5" font-family="Helvetica,sans-Serif" font-size="10.00" fill="grey"> &#45;TagNameEdit</text>
<text text-anchor="middle" x="169.25" y="-136.5" font-family="Helvetica,sans-Serif" font-size="10.00" fill="grey">&#45;TagValueEdit</text>
</g>
<!-- Node4 -->
<g id="Node000004" class="node">
<title>Node4</title>
<g id="a_Node000004"><a xlink:href="class_q_text_edit.html" target="_top" xlink:title=" ">
<polygon fill="white" stroke="none" points="146.5,-365 93.5,-365 93.5,-313 146.5,-313 146.5,-365"/>
<text text-anchor="start" x="98.25" y="-351.5" font-family="Helvetica,sans-Serif" font-size="10.00">QTextEdit</text>
<text text-anchor="start" x="118.5" y="-335.5" font-family="Helvetica,sans-Serif" font-size="10.00"> </text>
<text text-anchor="start" x="118.5" y="-319.5" font-family="Helvetica,sans-Serif" font-size="10.00"> </text>
<polygon fill="#666666" stroke="#666666" points="93.5,-347 93.5,-347 146.5,-347 146.5,-347 93.5,-347"/>
<polygon fill="#666666" stroke="#666666" points="93.5,-331 93.5,-331 146.5,-331 146.5,-331 93.5,-331"/>
<polygon fill="none" stroke="#666666" points="93.5,-313 93.5,-365 146.5,-365 146.5,-313 93.5,-313"/>
</a>
</g>
</g>
<!-- Node4&#45;&gt;Node3 -->
<g id="edge3_Node000003_Node000004" class="edge">
<title>Node4&#45;&gt;Node3</title>
<g id="a_edge3_Node000003_Node000004"><a xlink:title=" ">
<path fill="none" stroke="#63b8ff" d="M120,-301.61C120,-293.4 120,-284.56 120,-275.93"/>
<polygon fill="none" stroke="#63b8ff" points="116.5,-301.58 120,-311.58 123.5,-301.58 116.5,-301.58"/>
</a>
</g>
</g>
<!-- Node5 -->
<g id="Node000005" class="node">
<title>Node5</title>
<g id="a_Node000005"><a xlink:title=" ">
<polygon fill="white" stroke="none" points="267.5,-252 192.5,-252 192.5,-200 267.5,-200 267.5,-252"/>
<text text-anchor="start" x="197.38" y="-238.5" font-family="Helvetica,sans-Serif" font-size="10.00">QPushButton *</text>
<text text-anchor="start" x="228.5" y="-222.5" font-family="Helvetica,sans-Serif" font-size="10.00"> </text>
<text text-anchor="start" x="228.5" y="-206.5" font-family="Helvetica,sans-Serif" font-size="10.00"> </text>
<polygon fill="#666666" stroke="#666666" points="192.5,-234 192.5,-234 267.5,-234 267.5,-234 192.5,-234"/>
<polygon fill="#666666" stroke="#666666" points="192.5,-218 192.5,-218 267.5,-218 267.5,-218 192.5,-218"/>
<polygon fill="none" stroke="#666666" points="192.5,-200 192.5,-252 267.5,-252 267.5,-200 192.5,-200"/>
</a>
</g>
</g>
<!-- Node5&#45;&gt;Node1 -->
<g id="edge4_Node000001_Node000005" class="edge">
<title>Node5&#45;&gt;Node1</title>
<g id="a_edge4_Node000001_Node000005"><a xlink:title=" ">
<path fill="none" stroke="#63b8ff" d="M222.78,-200.15C217.35,-181.79 209.56,-156.22 202,-134 201.31,-131.96 200.6,-129.9 199.87,-127.82"/>
<polygon fill="none" stroke="#63b8ff" points="199.92,-127.95 194.14,-123.64 195.91,-116.64 201.68,-120.96 199.92,-127.95"/>
</a>
</g>
<text text-anchor="middle" x="243.5" y="-142.5" font-family="Helvetica,sans-Serif" font-size="10.00" fill="grey"> &#45;RemoveButton</text>
</g>
<!-- Node6 -->
<g id="Node000006" class="node">
<title>Node6</title>
<g id="a_Node000006"><a xlink:title=" ">
<polygon fill="white" stroke="none" points="326,-252 306,-252 306,-200 326,-200 326,-252"/>
<text text-anchor="start" x="310.75" y="-238.5" font-family="Helvetica,sans-Serif" font-size="10.00">int</text>
<text text-anchor="start" x="314.5" y="-222.5" font-family="Helvetica,sans-Serif" font-size="10.00"> </text>
<text text-anchor="start" x="314.5" y="-206.5" font-family="Helvetica,sans-Serif" font-size="10.00"> </text>
<polygon fill="#666666" stroke="#666666" points="306,-234 306,-234 326,-234 326,-234 306,-234"/>
<polygon fill="#666666" stroke="#666666" points="306,-218 306,-218 326,-218 326,-218 306,-218"/>
<polygon fill="none" stroke="#666666" points="306,-200 306,-252 326,-252 326,-200 306,-200"/>
</a>
</g>
</g>
<!-- Node6&#45;&gt;Node1 -->
<g id="edge5_Node000001_Node000006" class="edge">
<title>Node6&#45;&gt;Node1</title>
<g id="a_edge5_Node000001_Node000006"><a xlink:title=" ">
<path fill="none" stroke="#63b8ff" d="M311.03,-200.2C306.17,-180.67 297.21,-153.58 282,-134 267.66,-115.54 247.51,-99.85 228.49,-87.67"/>
<polygon fill="none" stroke="#63b8ff" points="228.47,-87.65 221.27,-87.92 218.25,-81.37 225.45,-81.11 228.47,-87.65"/>
</a>
</g>
<text text-anchor="middle" x="331.75" y="-142.5" font-family="Helvetica,sans-Serif" font-size="10.00" fill="grey"> &#45;TextFieldHeight</text>
</g>
</g>
</svg>
