<?xml version="1.0" encoding="UTF-8" standalone="no"?>
<!DOCTYPE svg PUBLIC "-//W3C//DTD SVG 1.1//EN"
 "http://www.w3.org/Graphics/SVG/1.1/DTD/svg11.dtd">
<!-- Generated by graphviz version 10.0.1 (20240210.2158)
 -->
<!-- Title: TagWidget::TagWidget Pages: 1 -->
<svg width="481pt" height="180pt"
 viewBox="0.00 0.00 481.25 180.00" xmlns="http://www.w3.org/2000/svg" xmlns:xlink="http://www.w3.org/1999/xlink">
<g id="graph0" class="graph" transform="scale(1 1) rotate(0) translate(4 176)">
<title>TagWidget::TagWidget</title>
<!-- Node1 -->
<g id="Node000001" class="node">
<title>Node1</title>
<g id="a_Node000001"><a xlink:title="Construct a new Tag Widget object.">
<polygon fill="#999999" stroke="#666666" points="115,-96 0,-96 0,-76 115,-76 115,-96"/>
<text text-anchor="middle" x="57.5" y="-82.5" font-family="Helvetica,sans-Serif" font-size="10.00">TagWidget::TagWidget</text>
</a>
</g>
</g>
<!-- Node2 -->
<g id="Node000002" class="node">
<title>Node2</title>
<g id="a_Node000002"><a xlink:href="class_tag_text_edit.html#a0b8e3e970764ff74b14daf4c5b30215e" target="_top" xlink:title="Signal that is emitted when Shift+Tab is pressed.">
<polygon fill="white" stroke="#666666" points="291.5,-172 151,-172 151,-152 291.5,-152 291.5,-172"/>
<text text-anchor="middle" x="221.25" y="-158.5" font-family="Helvetica,sans-Serif" font-size="10.00">TagTextEdit::CtrlTabPressed</text>
</a>
</g>
</g>
<!-- Node1&#45;&gt;Node2 -->
<g id="edge1_Node000001_Node000002" class="edge">
<title>Node1&#45;&gt;Node2</title>
<g id="a_edge1_Node000001_Node000002"><a xlink:title=" ">
<path fill="none" stroke="#63b8ff" d="M72.54,-96.43C90.08,-109.03 121.42,-130.14 151,-143 155.24,-144.84 159.71,-146.55 164.26,-148.13"/>
<polygon fill="#63b8ff" stroke="#63b8ff" points="162.87,-151.36 173.46,-151.09 165.02,-144.7 162.87,-151.36"/>
</a>
</g>
</g>
<!-- Node3 -->
<g id="Node000003" class="node">
<title>Node3</title>
<g id="a_Node000003"><a xlink:href="class_tag_widget.html#a27331a77b6027795926ba7607936fa9e" target="_top" xlink:title="Focus the next widget using tab.">
<polygon fill="white" stroke="#666666" points="279.12,-134 163.38,-134 163.38,-114 279.12,-114 279.12,-134"/>
<text text-anchor="middle" x="221.25" y="-120.5" font-family="Helvetica,sans-Serif" font-size="10.00">TagWidget::FocusNext</text>
</a>
</g>
</g>
<!-- Node1&#45;&gt;Node3 -->
<g id="edge2_Node000001_Node000003" class="edge">
<title>Node1&#45;&gt;Node3</title>
<g id="a_edge2_Node000001_Node000003"><a xlink:title=" ">
<path fill="none" stroke="#63b8ff" d="M103.13,-96.48C122.13,-100.95 144.5,-106.21 164.58,-110.92"/>
<polygon fill="#63b8ff" stroke="#63b8ff" points="163.76,-114.32 174.3,-113.2 165.36,-107.51 163.76,-114.32"/>
</a>
</g>
</g>
<!-- Node4 -->
<g id="Node000004" class="node">
<title>Node4</title>
<g id="a_Node000004"><a xlink:href="class_tag_widget.html#ab487fa6dd4a18067d509be64b5434685" target="_top" xlink:title="Focus the previous widget using shift+tab.">
<polygon fill="white" stroke="#666666" points="287.38,-96 155.12,-96 155.12,-76 287.38,-76 287.38,-96"/>
<text text-anchor="middle" x="221.25" y="-82.5" font-family="Helvetica,sans-Serif" font-size="10.00">TagWidget::FocusPrevious</text>
</a>
</g>
</g>
<!-- Node1&#45;&gt;Node4 -->
<g id="edge3_Node000001_Node000004" class="edge">
<title>Node1&#45;&gt;Node4</title>
<g id="a_edge3_Node000001_Node000004"><a xlink:title=" ">
<path fill="none" stroke="#63b8ff" d="M115.07,-86C124.3,-86 134,-86 143.62,-86"/>
<polygon fill="#63b8ff" stroke="#63b8ff" points="143.33,-89.5 153.33,-86 143.33,-82.5 143.33,-89.5"/>
</a>
</g>
</g>
<!-- Node5 -->
<g id="Node000005" class="node">
<title>Node5</title>
<g id="a_Node000005"><a xlink:href="class_tag_widget.html#a9da08f5e5c402c0eb8808176a2f1203c" target="_top" xlink:title="Remove this widget.">
<polygon fill="white" stroke="#666666" points="281,-58 161.5,-58 161.5,-38 281,-38 281,-58"/>
<text text-anchor="middle" x="221.25" y="-44.5" font-family="Helvetica,sans-Serif" font-size="10.00">TagWidget::RemoveSelf</text>
</a>
</g>
</g>
<!-- Node1&#45;&gt;Node5 -->
<g id="edge4_Node000001_Node000005" class="edge">
<title>Node1&#45;&gt;Node5</title>
<g id="a_edge4_Node000001_Node000005"><a xlink:title=" ">
<path fill="none" stroke="#63b8ff" d="M103.13,-75.52C122.13,-71.05 144.5,-65.79 164.58,-61.08"/>
<polygon fill="#63b8ff" stroke="#63b8ff" points="165.36,-64.49 174.3,-58.8 163.76,-57.68 165.36,-64.49"/>
</a>
</g>
</g>
<!-- Node7 -->
<g id="Node000007" class="node">
<title>Node7</title>
<g id="a_Node000007"><a xlink:href="class_tag_text_edit.html#a0dd4d525d5e6567d93680be57b8b8107" target="_top" xlink:title="Signal that is emitted when the Tab key is pressed.">
<polygon fill="white" stroke="#666666" points="284,-20 158.5,-20 158.5,0 284,0 284,-20"/>
<text text-anchor="middle" x="221.25" y="-6.5" font-family="Helvetica,sans-Serif" font-size="10.00">TagTextEdit::TabPressed</text>
</a>
</g>
</g>
<!-- Node1&#45;&gt;Node7 -->
<g id="edge6_Node000001_Node000007" class="edge">
<title>Node1&#45;&gt;Node7</title>
<g id="a_edge6_Node000001_Node000007"><a xlink:title=" ">
<path fill="none" stroke="#63b8ff" d="M72.54,-75.57C90.08,-62.97 121.42,-41.86 151,-29 155.24,-27.16 159.71,-25.45 164.26,-23.87"/>
<polygon fill="#63b8ff" stroke="#63b8ff" points="165.02,-27.3 173.46,-20.91 162.87,-20.64 165.02,-27.3"/>
</a>
</g>
</g>
<!-- Node6 -->
<g id="Node000006" class="node">
<title>Node6</title>
<g id="a_Node000006"><a xlink:href="class_tag_widget.html#a0dc7bd2438fdbd01d50253b11268cf47" target="_top" xlink:title="Signal that is emitted when the widget is requested to be removed.">
<polygon fill="white" stroke="#666666" points="473.25,-58 327.5,-58 327.5,-38 473.25,-38 473.25,-58"/>
<text text-anchor="middle" x="400.38" y="-44.5" font-family="Helvetica,sans-Serif" font-size="10.00">TagWidget::removeRequested</text>
</a>
</g>
</g>
<!-- Node5&#45;&gt;Node6 -->
<g id="edge5_Node000005_Node000006" class="edge">
<title>Node5&#45;&gt;Node6</title>
<g id="a_edge5_Node000005_Node000006"><a xlink:title=" ">
<path fill="none" stroke="#63b8ff" d="M281.23,-48C292.36,-48 304.2,-48 315.92,-48"/>
<polygon fill="#63b8ff" stroke="#63b8ff" points="315.58,-51.5 325.58,-48 315.58,-44.5 315.58,-51.5"/>
</a>
</g>
</g>
</g>
</svg>
