<?xml version="1.0" encoding="UTF-8" standalone="no"?>
<!DOCTYPE svg PUBLIC "-//W3C//DTD SVG 1.1//EN"
 "http://www.w3.org/Graphics/SVG/1.1/DTD/svg11.dtd">
<!-- Generated by graphviz version 10.0.1 (20240210.2158)
 -->
<!-- Title: PNGMeta::writePNGHeader Pages: 1 -->
<svg width="843pt" height="28pt"
 viewBox="0.00 0.00 842.50 28.00" xmlns="http://www.w3.org/2000/svg" xmlns:xlink="http://www.w3.org/1999/xlink">
<g id="graph0" class="graph" transform="scale(1 1) rotate(0) translate(4 24)">
<title>PNGMeta::writePNGHeader</title>
<!-- Node1 -->
<g id="Node000001" class="node">
<title>Node1</title>
<g id="a_Node000001"><a xlink:title="Writes a PNG header to a file.">
<polygon fill="#999999" stroke="#666666" points="834.5,-20 697.75,-20 697.75,0 834.5,0 834.5,-20"/>
<text text-anchor="middle" x="766.12" y="-6.5" font-family="Helvetica,sans-Serif" font-size="10.00">PNGMeta::writePNGHeader</text>
</a>
</g>
</g>
<!-- Node2 -->
<g id="Node000002" class="node">
<title>Node2</title>
<g id="a_Node000002"><a xlink:href="class_meta_data_handler.html#ab83e9b0d8069c1019e5a21b8dafaa2bf" target="_top" xlink:title="Writes metadata to a file.">
<polygon fill="white" stroke="#666666" points="661.75,-20 504,-20 504,0 661.75,0 661.75,-20"/>
<text text-anchor="middle" x="582.88" y="-6.5" font-family="Helvetica,sans-Serif" font-size="10.00">MetaDataHandler::writeMetadata</text>
</a>
</g>
</g>
<!-- Node1&#45;&gt;Node2 -->
<g id="edge1_Node000001_Node000002" class="edge">
<title>Node1&#45;&gt;Node2</title>
<g id="a_edge1_Node000001_Node000002"><a xlink:title=" ">
<path fill="none" stroke="#63b8ff" d="M685.95,-10C678.08,-10 670.09,-10 662.22,-10"/>
<polygon fill="#63b8ff" stroke="#63b8ff" points="685.86,-13.5 695.86,-10 685.86,-6.5 685.86,-13.5"/>
</a>
</g>
</g>
<!-- Node3 -->
<g id="Node000003" class="node">
<title>Node3</title>
<g id="a_Node000003"><a xlink:href="class_image_editor_g_u_i.html#a135b12da2af6c427200b40dfc45aae0c" target="_top" xlink:title="Saves the current file.">
<polygon fill="white" stroke="#666666" points="468,-20 342.5,-20 342.5,0 468,0 468,-20"/>
<text text-anchor="middle" x="405.25" y="-6.5" font-family="Helvetica,sans-Serif" font-size="10.00">ImageEditorGUI::saveFile</text>
</a>
</g>
</g>
<!-- Node2&#45;&gt;Node3 -->
<g id="edge2_Node000002_Node000003" class="edge">
<title>Node2&#45;&gt;Node3</title>
<g id="a_edge2_Node000002_Node000003"><a xlink:title=" ">
<path fill="none" stroke="#63b8ff" d="M492.18,-10C484.12,-10 476.08,-10 468.34,-10"/>
<polygon fill="#63b8ff" stroke="#63b8ff" points="492.05,-13.5 502.05,-10 492.05,-6.5 492.05,-13.5"/>
</a>
</g>
</g>
<!-- Node4 -->
<g id="Node000004" class="node">
<title>Node4</title>
<g id="a_Node000004"><a xlink:href="class_image_editor_g_u_i.html#a0ddb9a6d90ec93bc562dfff6d423de7d" target="_top" xlink:title="Initializes the UI.">
<polygon fill="white" stroke="#666666" points="306.5,-20 194.5,-20 194.5,0 306.5,0 306.5,-20"/>
<text text-anchor="middle" x="250.5" y="-6.5" font-family="Helvetica,sans-Serif" font-size="10.00">ImageEditorGUI::InitUi</text>
</a>
</g>
</g>
<!-- Node3&#45;&gt;Node4 -->
<g id="edge3_Node000003_Node000004" class="edge">
<title>Node3&#45;&gt;Node4</title>
<g id="a_edge3_Node000003_Node000004"><a xlink:title=" ">
<path fill="none" stroke="#63b8ff" d="M330.75,-10C322.65,-10 314.52,-10 306.7,-10"/>
<polygon fill="#63b8ff" stroke="#63b8ff" points="330.61,-13.5 340.61,-10 330.61,-6.5 330.61,-13.5"/>
</a>
</g>
</g>
<!-- Node5 -->
<g id="Node000005" class="node">
<title>Node5</title>
<g id="a_Node000005"><a xlink:href="class_image_editor_g_u_i.html#ad4c8f6832f0cd5aa6a0b3ddcfa44889b" target="_top" xlink:title="Constructor for ImageEditorGUI.">
<polygon fill="white" stroke="#666666" points="158.5,-20 0,-20 0,0 158.5,0 158.5,-20"/>
<text text-anchor="middle" x="79.25" y="-6.5" font-family="Helvetica,sans-Serif" font-size="10.00">ImageEditorGUI::ImageEditorGUI</text>
</a>
</g>
</g>
<!-- Node4&#45;&gt;Node5 -->
<g id="edge4_Node000004_Node000005" class="edge">
<title>Node4&#45;&gt;Node5</title>
<g id="a_edge4_Node000004_Node000005"><a xlink:title=" ">
<path fill="none" stroke="#63b8ff" d="M182.76,-10C174.9,-10 166.83,-10 158.82,-10"/>
<polygon fill="#63b8ff" stroke="#63b8ff" points="182.57,-13.5 192.57,-10 182.57,-6.5 182.57,-13.5"/>
</a>
</g>
</g>
</g>
</svg>
