<?xml version="1.0" encoding="UTF-8" standalone="no"?>
<!DOCTYPE svg PUBLIC "-//W3C//DTD SVG 1.1//EN"
 "http://www.w3.org/Graphics/SVG/1.1/DTD/svg11.dtd">
<!-- Generated by graphviz version 10.0.1 (20240210.2158)
 -->
<!-- Title: QTextEdit Pages: 1 -->
<svg width="116pt" height="196pt"
 viewBox="0.00 0.00 116.00 196.00" xmlns="http://www.w3.org/2000/svg" xmlns:xlink="http://www.w3.org/1999/xlink">
<g id="graph0" class="graph" transform="scale(1 1) rotate(0) translate(4 192)">
<title>QTextEdit</title>
<!-- Node1 -->
<g id="Node000001" class="node">
<title>Node1</title>
<g id="a_Node000001"><a xlink:title=" ">
<polygon fill="#999999" stroke="none" points="80.5,-188 27.5,-188 27.5,-136 80.5,-136 80.5,-188"/>
<text text-anchor="start" x="32.25" y="-174.5" font-family="Helvetica,sans-Serif" font-size="10.00">QTextEdit</text>
<text text-anchor="start" x="52.5" y="-158.5" font-family="Helvetica,sans-Serif" font-size="10.00"> </text>
<text text-anchor="start" x="52.5" y="-142.5" font-family="Helvetica,sans-Serif" font-size="10.00"> </text>
<polygon fill="#666666" stroke="#666666" points="27.5,-170 27.5,-170 80.5,-170 80.5,-170 27.5,-170"/>
<polygon fill="#666666" stroke="#666666" points="27.5,-154 27.5,-154 80.5,-154 80.5,-154 27.5,-154"/>
<polygon fill="none" stroke="#666666" points="27.5,-136 27.5,-188 80.5,-188 80.5,-136 27.5,-136"/>
</a>
</g>
</g>
<!-- Node2 -->
<g id="Node000002" class="node">
<title>Node2</title>
<g id="a_Node000002"><a xlink:href="class_tag_text_edit.html" target="_top" xlink:title="A custom QTextEdit that emits signals when Tab or Shift+Tab are pressed.">
<polygon fill="white" stroke="none" points="108,-100 0,-100 0,0 108,0 108,-100"/>
<text text-anchor="start" x="28.12" y="-86.5" font-family="Helvetica,sans-Serif" font-size="10.00">TagTextEdit</text>
<text text-anchor="start" x="52.5" y="-70.5" font-family="Helvetica,sans-Serif" font-size="10.00"> </text>
<text text-anchor="start" x="4" y="-54.5" font-family="Helvetica,sans-Serif" font-size="10.00">+</text>
<text text-anchor="start" x="14" y="-54.5" font-family="Helvetica,sans-Serif" font-size="10.00">TagTextEdit()</text>
<text text-anchor="start" x="4.38" y="-38.5" font-family="Helvetica,sans-Serif" font-size="10.00">#</text>
<text text-anchor="start" x="14" y="-38.5" font-family="Helvetica,sans-Serif" font-size="10.00">focusNextPrevChild()</text>
<text text-anchor="start" x="4.38" y="-22.5" font-family="Helvetica,sans-Serif" font-size="10.00">#</text>
<text text-anchor="start" x="14" y="-22.5" font-family="Helvetica,sans-Serif" font-size="10.00">keyPressEvent()</text>
<text text-anchor="start" x="4.38" y="-6.5" font-family="Helvetica,sans-Serif" font-size="10.00">#</text>
<text text-anchor="start" x="14" y="-6.5" font-family="Helvetica,sans-Serif" font-size="10.00">focusInEvent()</text>
<polygon fill="#666666" stroke="#666666" points="0,-82 0,-82 108,-82 108,-82 0,-82"/>
<polygon fill="#666666" stroke="#666666" points="0,-66 0,-66 108,-66 108,-66 0,-66"/>
<polygon fill="none" stroke="#666666" points="0,0 0,-100 108,-100 108,0 0,0"/>
</a>
</g>
</g>
<!-- Node1&#45;&gt;Node2 -->
<g id="edge1_Node000001_Node000002" class="edge">
<title>Node1&#45;&gt;Node2</title>
<g id="a_edge1_Node000001_Node000002"><a xlink:title=" ">
<path fill="none" stroke="#63b8ff" d="M54,-124.53C54,-116.58 54,-108.05 54,-99.72"/>
<polygon fill="none" stroke="#63b8ff" points="50.5,-124.53 54,-134.53 57.5,-124.53 50.5,-124.53"/>
</a>
</g>
</g>
</g>
</svg>
