<?xml version="1.0" encoding="UTF-8" standalone="no"?>
<!DOCTYPE svg PUBLIC "-//W3C//DTD SVG 1.1//EN"
 "http://www.w3.org/Graphics/SVG/1.1/DTD/svg11.dtd">
<!-- Generated by graphviz version 10.0.1 (20240210.2158)
 -->
<!-- Title: TagWidget::removeRequested Pages: 1 -->
<svg width="696pt" height="142pt"
 viewBox="0.00 0.00 696.00 142.00" xmlns="http://www.w3.org/2000/svg" xmlns:xlink="http://www.w3.org/1999/xlink">
<g id="graph0" class="graph" transform="scale(1 1) rotate(0) translate(4 138)">
<title>TagWidget::removeRequested</title>
<!-- Node1 -->
<g id="Node000001" class="node">
<title>Node1</title>
<g id="a_Node000001"><a xlink:title="Signal that is emitted when the widget is requested to be removed.">
<polygon fill="#999999" stroke="#666666" points="688,-77 542.25,-77 542.25,-57 688,-57 688,-77"/>
<text text-anchor="middle" x="615.12" y="-63.5" font-family="Helvetica,sans-Serif" font-size="10.00">TagWidget::removeRequested</text>
</a>
</g>
</g>
<!-- Node2 -->
<g id="Node000002" class="node">
<title>Node2</title>
<g id="a_Node000002"><a xlink:href="class_image_editor_g_u_i.html#ac672718c127179c9c6a541c5deff2b29" target="_top" xlink:title="Adds standard tags to the GUI.">
<polygon fill="white" stroke="#666666" points="506.25,-134 345.5,-134 345.5,-114 506.25,-114 506.25,-134"/>
<text text-anchor="middle" x="425.88" y="-120.5" font-family="Helvetica,sans-Serif" font-size="10.00">ImageEditorGUI::addStandardTag</text>
</a>
</g>
</g>
<!-- Node1&#45;&gt;Node2 -->
<g id="edge1_Node000001_Node000002" class="edge">
<title>Node1&#45;&gt;Node2</title>
<g id="a_edge1_Node000001_Node000002"><a xlink:title=" ">
<path fill="none" stroke="#63b8ff" d="M576.38,-81.38C555.81,-88.94 529.82,-98.05 506.25,-105 495.92,-108.05 484.73,-110.96 474.1,-113.55"/>
<polygon fill="#63b8ff" stroke="#63b8ff" points="577.32,-84.76 585.47,-78 574.88,-78.2 577.32,-84.76"/>
</a>
</g>
</g>
<!-- Node5 -->
<g id="Node000005" class="node">
<title>Node5</title>
<g id="a_Node000005"><a xlink:href="class_image_editor_g_u_i.html#a5a7f03147f232cdeea9d276019ccd034" target="_top" xlink:title="Adds a tag widget to the GUI.">
<polygon fill="white" stroke="#666666" points="486.75,-96 365,-96 365,-76 486.75,-76 486.75,-96"/>
<text text-anchor="middle" x="425.88" y="-82.5" font-family="Helvetica,sans-Serif" font-size="10.00">ImageEditorGUI::addTag</text>
</a>
</g>
</g>
<!-- Node1&#45;&gt;Node5 -->
<g id="edge4_Node000001_Node000005" class="edge">
<title>Node1&#45;&gt;Node5</title>
<g id="a_edge4_Node000001_Node000005"><a xlink:title=" ">
<path fill="none" stroke="#63b8ff" d="M530.83,-75.45C516.11,-76.95 501.04,-78.47 487.11,-79.89"/>
<polygon fill="#63b8ff" stroke="#63b8ff" points="530.9,-78.96 540.49,-74.47 530.19,-72 530.9,-78.96"/>
</a>
</g>
</g>
<!-- Node6 -->
<g id="Node000006" class="node">
<title>Node6</title>
<g id="a_Node000006"><a xlink:href="class_image_editor_g_u_i.html#a14bc08294cff01538d748a8792b0b5e3" target="_top" xlink:title="Loads a file into the GUI.">
<polygon fill="white" stroke="#666666" points="489.38,-58 362.38,-58 362.38,-38 489.38,-38 489.38,-58"/>
<text text-anchor="middle" x="425.88" y="-44.5" font-family="Helvetica,sans-Serif" font-size="10.00">ImageEditorGUI::LoadFile</text>
</a>
</g>
</g>
<!-- Node1&#45;&gt;Node6 -->
<g id="edge6_Node000001_Node000006" class="edge">
<title>Node1&#45;&gt;Node6</title>
<g id="a_edge6_Node000001_Node000006"><a xlink:title=" ">
<path fill="none" stroke="#63b8ff" d="M530.59,-58.52C516.89,-57.13 502.9,-55.71 489.81,-54.39"/>
<polygon fill="#63b8ff" stroke="#63b8ff" points="530.19,-62 540.49,-59.53 530.9,-55.04 530.19,-62"/>
</a>
</g>
</g>
<!-- Node7 -->
<g id="Node000007" class="node">
<title>Node7</title>
<g id="a_Node000007"><a xlink:href="class_tag_widget.html#a9da08f5e5c402c0eb8808176a2f1203c" target="_top" xlink:title="Remove this widget.">
<polygon fill="white" stroke="#666666" points="485.62,-20 366.12,-20 366.12,0 485.62,0 485.62,-20"/>
<text text-anchor="middle" x="425.88" y="-6.5" font-family="Helvetica,sans-Serif" font-size="10.00">TagWidget::RemoveSelf</text>
</a>
</g>
</g>
<!-- Node1&#45;&gt;Node7 -->
<g id="edge8_Node000001_Node000007" class="edge">
<title>Node1&#45;&gt;Node7</title>
<g id="a_edge8_Node000001_Node000007"><a xlink:title=" ">
<path fill="none" stroke="#63b8ff" d="M576.38,-52.62C555.81,-45.06 529.82,-35.95 506.25,-29 495.92,-25.95 484.73,-23.04 474.1,-20.45"/>
<polygon fill="#63b8ff" stroke="#63b8ff" points="574.88,-55.8 585.47,-56 577.32,-49.24 574.88,-55.8"/>
</a>
</g>
</g>
<!-- Node3 -->
<g id="Node000003" class="node">
<title>Node3</title>
<g id="a_Node000003"><a xlink:href="class_image_editor_g_u_i.html#a0ddb9a6d90ec93bc562dfff6d423de7d" target="_top" xlink:title="Initializes the UI.">
<polygon fill="white" stroke="#666666" points="308,-96 196,-96 196,-76 308,-76 308,-96"/>
<text text-anchor="middle" x="252" y="-82.5" font-family="Helvetica,sans-Serif" font-size="10.00">ImageEditorGUI::InitUi</text>
</a>
</g>
</g>
<!-- Node2&#45;&gt;Node3 -->
<g id="edge2_Node000002_Node000003" class="edge">
<title>Node2&#45;&gt;Node3</title>
<g id="a_edge2_Node000002_Node000003"><a xlink:title=" ">
<path fill="none" stroke="#63b8ff" d="M366.44,-111.08C344.88,-106.31 320.72,-100.97 300.27,-96.45"/>
<polygon fill="#63b8ff" stroke="#63b8ff" points="365.46,-114.45 375.98,-113.19 366.97,-107.61 365.46,-114.45"/>
</a>
</g>
</g>
<!-- Node4 -->
<g id="Node000004" class="node">
<title>Node4</title>
<g id="a_Node000004"><a xlink:href="class_image_editor_g_u_i.html#ad4c8f6832f0cd5aa6a0b3ddcfa44889b" target="_top" xlink:title="Constructor for ImageEditorGUI.">
<polygon fill="white" stroke="#666666" points="158.5,-96 0,-96 0,-76 158.5,-76 158.5,-96"/>
<text text-anchor="middle" x="79.25" y="-82.5" font-family="Helvetica,sans-Serif" font-size="10.00">ImageEditorGUI::ImageEditorGUI</text>
</a>
</g>
</g>
<!-- Node3&#45;&gt;Node4 -->
<g id="edge3_Node000003_Node000004" class="edge">
<title>Node3&#45;&gt;Node4</title>
<g id="a_edge3_Node000003_Node000004"><a xlink:title=" ">
<path fill="none" stroke="#63b8ff" d="M184.1,-86C175.86,-86 167.38,-86 158.98,-86"/>
<polygon fill="#63b8ff" stroke="#63b8ff" points="184.05,-89.5 194.05,-86 184.05,-82.5 184.05,-89.5"/>
</a>
</g>
</g>
<!-- Node5&#45;&gt;Node3 -->
<g id="edge5_Node000005_Node000003" class="edge">
<title>Node5&#45;&gt;Node3</title>
<g id="a_edge5_Node000005_Node000003"><a xlink:title=" ">
<path fill="none" stroke="#63b8ff" d="M353.43,-86C338.42,-86 322.8,-86 308.47,-86"/>
<polygon fill="#63b8ff" stroke="#63b8ff" points="353.25,-89.5 363.25,-86 353.25,-82.5 353.25,-89.5"/>
</a>
</g>
</g>
<!-- Node6&#45;&gt;Node3 -->
<g id="edge7_Node000006_Node000003" class="edge">
<title>Node6&#45;&gt;Node3</title>
<g id="a_edge7_Node000006_Node000003"><a xlink:title=" ">
<path fill="none" stroke="#63b8ff" d="M366.44,-60.92C344.88,-65.69 320.72,-71.03 300.27,-75.55"/>
<polygon fill="#63b8ff" stroke="#63b8ff" points="366.97,-64.39 375.98,-58.81 365.46,-57.55 366.97,-64.39"/>
</a>
</g>
</g>
<!-- Node8 -->
<g id="Node000008" class="node">
<title>Node8</title>
<g id="a_Node000008"><a xlink:href="class_tag_widget.html#a16fcbf974dd6265776d55a9f60deb4c6" target="_top" xlink:title="Construct a new Tag Widget object.">
<polygon fill="white" stroke="#666666" points="309.5,-20 194.5,-20 194.5,0 309.5,0 309.5,-20"/>
<text text-anchor="middle" x="252" y="-6.5" font-family="Helvetica,sans-Serif" font-size="10.00">TagWidget::TagWidget</text>
</a>
</g>
</g>
<!-- Node7&#45;&gt;Node8 -->
<g id="edge9_Node000007_Node000008" class="edge">
<title>Node7&#45;&gt;Node8</title>
<g id="a_edge9_Node000007_Node000008"><a xlink:title=" ">
<path fill="none" stroke="#63b8ff" d="M354.53,-10C339.69,-10 324.21,-10 309.94,-10"/>
<polygon fill="#63b8ff" stroke="#63b8ff" points="354.21,-13.5 364.21,-10 354.21,-6.5 354.21,-13.5"/>
</a>
</g>
</g>
</g>
</svg>
