<?xml version="1.0" encoding="UTF-8" standalone="no"?>
<!DOCTYPE svg PUBLIC "-//W3C//DTD SVG 1.1//EN"
 "http://www.w3.org/Graphics/SVG/1.1/DTD/svg11.dtd">
<!-- Generated by graphviz version 10.0.1 (20240210.2158)
 -->
<!-- Title: resources_gen.QrcGenerator.generate_qrc Pages: 1 -->
<svg width="569pt" height="40pt"
 viewBox="0.00 0.00 569.00 40.00" xmlns="http://www.w3.org/2000/svg" xmlns:xlink="http://www.w3.org/1999/xlink">
<g id="graph0" class="graph" transform="scale(1 1) rotate(0) translate(4 36)">
<title>resources_gen.QrcGenerator.generate_qrc</title>
<!-- Node1 -->
<g id="Node000001" class="node">
<title>Node1</title>
<g id="a_Node000001"><a xlink:title=" ">
<polygon fill="#999999" stroke="#666666" points="200.5,-26 0,-26 0,-6 200.5,-6 200.5,-26"/>
<text text-anchor="middle" x="100.25" y="-12.5" font-family="Helvetica,sans-Serif" font-size="10.00">resources_gen.QrcGenerator.generate_qrc</text>
</a>
</g>
</g>
<!-- Node2 -->
<g id="Node000002" class="node">
<title>Node2</title>
<g id="a_Node000002"><a xlink:href="classresources__gen_1_1_qrc_generator.html#ac1240e44e5429a7257694961c89e81fd" target="_top" xlink:title=" ">
<polygon fill="white" stroke="#666666" points="380.75,-32 236.5,-32 236.5,0 380.75,0 380.75,-32"/>
<text text-anchor="start" x="244.5" y="-18.5" font-family="Helvetica,sans-Serif" font-size="10.00">resources_gen.QrcGenerator.</text>
<text text-anchor="middle" x="308.62" y="-6.5" font-family="Helvetica,sans-Serif" font-size="10.00">_write_files</text>
</a>
</g>
</g>
<!-- Node1&#45;&gt;Node2 -->
<g id="edge1_Node000001_Node000002" class="edge">
<title>Node1&#45;&gt;Node2</title>
<g id="a_edge1_Node000001_Node000002"><a xlink:title=" ">
<path fill="none" stroke="#63b8ff" d="M200.81,-16C208.84,-16 216.91,-16 224.8,-16"/>
<polygon fill="#63b8ff" stroke="#63b8ff" points="224.72,-19.5 234.72,-16 224.72,-12.5 224.72,-19.5"/>
</a>
</g>
</g>
<!-- Node3 -->
<g id="Node000003" class="node">
<title>Node3</title>
<g id="a_Node000003"><a xlink:href="classresources__gen_1_1_qrc_generator.html#a31149f3807b886148cee541efa5a27fd" target="_top" xlink:title=" ">
<polygon fill="white" stroke="#666666" points="561,-32 416.75,-32 416.75,0 561,0 561,-32"/>
<text text-anchor="start" x="424.75" y="-18.5" font-family="Helvetica,sans-Serif" font-size="10.00">resources_gen.QrcGenerator.</text>
<text text-anchor="middle" x="488.88" y="-6.5" font-family="Helvetica,sans-Serif" font-size="10.00">_write_file</text>
</a>
</g>
</g>
<!-- Node2&#45;&gt;Node3 -->
<g id="edge2_Node000002_Node000003" class="edge">
<title>Node2&#45;&gt;Node3</title>
<g id="a_edge2_Node000002_Node000003"><a xlink:title=" ">
<path fill="none" stroke="#63b8ff" d="M381.1,-16C389,-16 397.09,-16 405.11,-16"/>
<polygon fill="#63b8ff" stroke="#63b8ff" points="404.87,-19.5 414.87,-16 404.87,-12.5 404.87,-19.5"/>
</a>
</g>
</g>
</g>
</svg>
