<?xml version="1.0" encoding="UTF-8" standalone="no"?>
<!DOCTYPE svg PUBLIC "-//W3C//DTD SVG 1.1//EN"
 "http://www.w3.org/Graphics/SVG/1.1/DTD/svg11.dtd">
<!-- Generated by graphviz version 10.0.1 (20240210.2158)
 -->
<!-- Title: QWidget Pages: 1 -->
<svg width="220pt" height="532pt"
 viewBox="0.00 0.00 220.00 532.00" xmlns="http://www.w3.org/2000/svg" xmlns:xlink="http://www.w3.org/1999/xlink">
<g id="graph0" class="graph" transform="scale(1 1) rotate(0) translate(4 528)">
<title>QWidget</title>
<!-- Node1 -->
<g id="Node000001" class="node">
<title>Node1</title>
<g id="a_Node000001"><a xlink:title=" ">
<polygon fill="#999999" stroke="none" points="134.5,-524 86.5,-524 86.5,-472 134.5,-472 134.5,-524"/>
<text text-anchor="start" x="91.38" y="-510.5" font-family="Helvetica,sans-Serif" font-size="10.00">QWidget</text>
<text text-anchor="start" x="109" y="-494.5" font-family="Helvetica,sans-Serif" font-size="10.00"> </text>
<text text-anchor="start" x="109" y="-478.5" font-family="Helvetica,sans-Serif" font-size="10.00"> </text>
<polygon fill="#666666" stroke="#666666" points="86.5,-506 86.5,-506 134.5,-506 134.5,-506 86.5,-506"/>
<polygon fill="#666666" stroke="#666666" points="86.5,-490 86.5,-490 134.5,-490 134.5,-490 86.5,-490"/>
<polygon fill="none" stroke="#666666" points="86.5,-472 86.5,-524 134.5,-524 134.5,-472 86.5,-472"/>
</a>
</g>
</g>
<!-- Node2 -->
<g id="Node000002" class="node">
<title>Node2</title>
<g id="a_Node000002"><a xlink:href="class_image_editor_g_u_i.html" target="_top" xlink:title="This class provides a GUI for editing files.">
<polygon fill="white" stroke="none" points="107,-436 0,-436 0,0 107,0 107,-436"/>
<text text-anchor="start" x="19.38" y="-422.5" font-family="Helvetica,sans-Serif" font-size="10.00">ImageEditorGUI</text>
<text text-anchor="start" x="5.5" y="-406.5" font-family="Helvetica,sans-Serif" font-size="10.00">&#45;</text>
<text text-anchor="start" x="14" y="-406.5" font-family="Helvetica,sans-Serif" font-size="10.00">FileLabel</text>
<text text-anchor="start" x="5.5" y="-390.5" font-family="Helvetica,sans-Serif" font-size="10.00">&#45;</text>
<text text-anchor="start" x="14" y="-390.5" font-family="Helvetica,sans-Serif" font-size="10.00">TagWidgets</text>
<text text-anchor="start" x="5.5" y="-374.5" font-family="Helvetica,sans-Serif" font-size="10.00">&#45;</text>
<text text-anchor="start" x="14" y="-374.5" font-family="Helvetica,sans-Serif" font-size="10.00">Movie</text>
<text text-anchor="start" x="5.5" y="-358.5" font-family="Helvetica,sans-Serif" font-size="10.00">&#45;</text>
<text text-anchor="start" x="14" y="-358.5" font-family="Helvetica,sans-Serif" font-size="10.00">ImageLabel</text>
<text text-anchor="start" x="5.5" y="-342.5" font-family="Helvetica,sans-Serif" font-size="10.00">&#45;</text>
<text text-anchor="start" x="14" y="-342.5" font-family="Helvetica,sans-Serif" font-size="10.00">ModeSwitch</text>
<text text-anchor="start" x="5.5" y="-326.5" font-family="Helvetica,sans-Serif" font-size="10.00">&#45;</text>
<text text-anchor="start" x="14" y="-326.5" font-family="Helvetica,sans-Serif" font-size="10.00">AddButton</text>
<text text-anchor="start" x="5.5" y="-310.5" font-family="Helvetica,sans-Serif" font-size="10.00">&#45;</text>
<text text-anchor="start" x="14" y="-310.5" font-family="Helvetica,sans-Serif" font-size="10.00">addStandardButton</text>
<text text-anchor="start" x="5.5" y="-294.5" font-family="Helvetica,sans-Serif" font-size="10.00">&#45;</text>
<text text-anchor="start" x="14" y="-294.5" font-family="Helvetica,sans-Serif" font-size="10.00">LoadButton</text>
<text text-anchor="start" x="5.5" y="-278.5" font-family="Helvetica,sans-Serif" font-size="10.00">&#45;</text>
<text text-anchor="start" x="14" y="-278.5" font-family="Helvetica,sans-Serif" font-size="10.00">SaveButton</text>
<text text-anchor="start" x="5.5" y="-262.5" font-family="Helvetica,sans-Serif" font-size="10.00">&#45;</text>
<text text-anchor="start" x="14" y="-262.5" font-family="Helvetica,sans-Serif" font-size="10.00">ScrollArea</text>
<text text-anchor="start" x="5.5" y="-246.5" font-family="Helvetica,sans-Serif" font-size="10.00">&#45;</text>
<text text-anchor="start" x="14" y="-246.5" font-family="Helvetica,sans-Serif" font-size="10.00">videoWidget</text>
<text text-anchor="start" x="5.5" y="-230.5" font-family="Helvetica,sans-Serif" font-size="10.00">&#45;</text>
<text text-anchor="start" x="14" y="-230.5" font-family="Helvetica,sans-Serif" font-size="10.00">ScrollWidget</text>
<text text-anchor="start" x="5.5" y="-214.5" font-family="Helvetica,sans-Serif" font-size="10.00">&#45;</text>
<text text-anchor="start" x="14" y="-214.5" font-family="Helvetica,sans-Serif" font-size="10.00">ScrollLayout</text>
<text text-anchor="start" x="4" y="-198.5" font-family="Helvetica,sans-Serif" font-size="10.00">+</text>
<text text-anchor="start" x="14" y="-198.5" font-family="Helvetica,sans-Serif" font-size="10.00">ImageEditorGUI()</text>
<text text-anchor="start" x="4.38" y="-182.5" font-family="Helvetica,sans-Serif" font-size="10.00">#</text>
<text text-anchor="start" x="14" y="-182.5" font-family="Helvetica,sans-Serif" font-size="10.00">resizeEvent()</text>
<text text-anchor="start" x="5.5" y="-166.5" font-family="Helvetica,sans-Serif" font-size="10.00">&#45;</text>
<text text-anchor="start" x="14" y="-166.5" font-family="Helvetica,sans-Serif" font-size="10.00">InitUi()</text>
<text text-anchor="start" x="5.5" y="-150.5" font-family="Helvetica,sans-Serif" font-size="10.00">&#45;</text>
<text text-anchor="start" x="14" y="-150.5" font-family="Helvetica,sans-Serif" font-size="10.00">UpdateWindowTitle()</text>
<text text-anchor="start" x="5.5" y="-134.5" font-family="Helvetica,sans-Serif" font-size="10.00">&#45;</text>
<text text-anchor="start" x="14" y="-134.5" font-family="Helvetica,sans-Serif" font-size="10.00">removeTagWidget()</text>
<text text-anchor="start" x="5.5" y="-118.5" font-family="Helvetica,sans-Serif" font-size="10.00">&#45;</text>
<text text-anchor="start" x="14" y="-118.5" font-family="Helvetica,sans-Serif" font-size="10.00">SwitchMode()</text>
<text text-anchor="start" x="5.5" y="-102.5" font-family="Helvetica,sans-Serif" font-size="10.00">&#45;</text>
<text text-anchor="start" x="14" y="-102.5" font-family="Helvetica,sans-Serif" font-size="10.00">addTag()</text>
<text text-anchor="start" x="5.5" y="-86.5" font-family="Helvetica,sans-Serif" font-size="10.00">&#45;</text>
<text text-anchor="start" x="14" y="-86.5" font-family="Helvetica,sans-Serif" font-size="10.00">addStandardTag()</text>
<text text-anchor="start" x="5.5" y="-70.5" font-family="Helvetica,sans-Serif" font-size="10.00">&#45;</text>
<text text-anchor="start" x="14" y="-70.5" font-family="Helvetica,sans-Serif" font-size="10.00">LoadFile()</text>
<text text-anchor="start" x="5.5" y="-54.5" font-family="Helvetica,sans-Serif" font-size="10.00">&#45;</text>
<text text-anchor="start" x="14" y="-54.5" font-family="Helvetica,sans-Serif" font-size="10.00">saveFile()</text>
<text text-anchor="start" x="5.5" y="-38.5" font-family="Helvetica,sans-Serif" font-size="10.00">&#45;</text>
<text text-anchor="start" x="14" y="-38.5" font-family="Helvetica,sans-Serif" font-size="10.00">GetLastDir()</text>
<text text-anchor="start" x="5.5" y="-22.5" font-family="Helvetica,sans-Serif" font-size="10.00">&#45;</text>
<text text-anchor="start" x="14" y="-22.5" font-family="Helvetica,sans-Serif" font-size="10.00">SetLastDir()</text>
<text text-anchor="start" x="5.5" y="-6.5" font-family="Helvetica,sans-Serif" font-size="10.00">&#45;</text>
<text text-anchor="start" x="14" y="-6.5" font-family="Helvetica,sans-Serif" font-size="10.00">DisplayFile()</text>
<polygon fill="#666666" stroke="#666666" points="0,-418 0,-418 107,-418 107,-418 0,-418"/>
<polygon fill="#666666" stroke="#666666" points="0,-210 0,-210 12,-210 12,-210 0,-210"/>
<polygon fill="#666666" stroke="#666666" points="12,-210 12,-210 107,-210 107,-210 12,-210"/>
<polygon fill="none" stroke="#666666" points="0,0 0,-436 107,-436 107,0 0,0"/>
</a>
</g>
</g>
<!-- Node1&#45;&gt;Node2 -->
<g id="edge1_Node000001_Node000002" class="edge">
<title>Node1&#45;&gt;Node2</title>
<g id="a_edge1_Node000001_Node000002"><a xlink:title=" ">
<path fill="none" stroke="#63b8ff" d="M103.16,-461.2C101.6,-453.6 99.85,-445.05 97.96,-435.83"/>
<polygon fill="none" stroke="#63b8ff" points="99.7,-461.75 105.14,-470.85 106.56,-460.35 99.7,-461.75"/>
</a>
</g>
</g>
<!-- Node3 -->
<g id="Node000003" class="node">
<title>Node3</title>
<g id="a_Node000003"><a xlink:href="class_tag_widget.html" target="_top" xlink:title="A widget for displaying and editing tags.">
<polygon fill="white" stroke="none" points="212,-300 125,-300 125,-136 212,-136 212,-300"/>
<text text-anchor="start" x="145.25" y="-286.5" font-family="Helvetica,sans-Serif" font-size="10.00">TagWidget</text>
<text text-anchor="start" x="130.5" y="-270.5" font-family="Helvetica,sans-Serif" font-size="10.00">&#45;</text>
<text text-anchor="start" x="139" y="-270.5" font-family="Helvetica,sans-Serif" font-size="10.00">TagNameEdit</text>
<text text-anchor="start" x="130.5" y="-254.5" font-family="Helvetica,sans-Serif" font-size="10.00">&#45;</text>
<text text-anchor="start" x="139" y="-254.5" font-family="Helvetica,sans-Serif" font-size="10.00">TagValueEdit</text>
<text text-anchor="start" x="130.5" y="-238.5" font-family="Helvetica,sans-Serif" font-size="10.00">&#45;</text>
<text text-anchor="start" x="139" y="-238.5" font-family="Helvetica,sans-Serif" font-size="10.00">RemoveButton</text>
<text text-anchor="start" x="130.5" y="-222.5" font-family="Helvetica,sans-Serif" font-size="10.00">&#45;</text>
<text text-anchor="start" x="139" y="-222.5" font-family="Helvetica,sans-Serif" font-size="10.00">TextFieldHeight</text>
<text text-anchor="start" x="129" y="-206.5" font-family="Helvetica,sans-Serif" font-size="10.00">+</text>
<text text-anchor="start" x="139" y="-206.5" font-family="Helvetica,sans-Serif" font-size="10.00">TagWidget()</text>
<text text-anchor="start" x="129" y="-190.5" font-family="Helvetica,sans-Serif" font-size="10.00">+</text>
<text text-anchor="start" x="139" y="-190.5" font-family="Helvetica,sans-Serif" font-size="10.00">getValues()</text>
<text text-anchor="start" x="129" y="-174.5" font-family="Helvetica,sans-Serif" font-size="10.00">+</text>
<text text-anchor="start" x="139" y="-174.5" font-family="Helvetica,sans-Serif" font-size="10.00">RemoveSelf()</text>
<text text-anchor="start" x="129" y="-158.5" font-family="Helvetica,sans-Serif" font-size="10.00">+</text>
<text text-anchor="start" x="139" y="-158.5" font-family="Helvetica,sans-Serif" font-size="10.00">FocusNext()</text>
<text text-anchor="start" x="129" y="-142.5" font-family="Helvetica,sans-Serif" font-size="10.00">+</text>
<text text-anchor="start" x="139" y="-142.5" font-family="Helvetica,sans-Serif" font-size="10.00">FocusPrevious()</text>
<polygon fill="#666666" stroke="#666666" points="125,-282 125,-282 212,-282 212,-282 125,-282"/>
<polygon fill="#666666" stroke="#666666" points="125,-218 125,-218 137,-218 137,-218 125,-218"/>
<polygon fill="#666666" stroke="#666666" points="137,-218 137,-218 212,-218 212,-218 137,-218"/>
<polygon fill="none" stroke="#666666" points="125,-136 125,-300 212,-300 212,-136 125,-136"/>
</a>
</g>
</g>
<!-- Node1&#45;&gt;Node3 -->
<g id="edge2_Node000001_Node000003" class="edge">
<title>Node1&#45;&gt;Node3</title>
<g id="a_edge2_Node000001_Node000003"><a xlink:title=" ">
<path fill="none" stroke="#63b8ff" d="M117.98,-461.13C126.45,-420.55 140.51,-353.15 151.65,-299.76"/>
<polygon fill="none" stroke="#63b8ff" points="114.57,-460.34 115.96,-470.85 121.42,-461.77 114.57,-460.34"/>
</a>
</g>
</g>
</g>
</svg>
