<?xml version="1.0" encoding="UTF-8" standalone="no"?>
<!DOCTYPE svg PUBLIC "-//W3C//DTD SVG 1.1//EN"
 "http://www.w3.org/Graphics/SVG/1.1/DTD/svg11.dtd">
<!-- Generated by graphviz version 10.0.1 (20240210.2158)
 -->
<!-- Title: ImageEditorGUI::removeTagWidget Pages: 1 -->
<svg width="684pt" height="104pt"
 viewBox="0.00 0.00 684.00 104.00" xmlns="http://www.w3.org/2000/svg" xmlns:xlink="http://www.w3.org/1999/xlink">
<g id="graph0" class="graph" transform="scale(1 1) rotate(0) translate(4 100)">
<title>ImageEditorGUI::removeTagWidget</title>
<!-- Node1 -->
<g id="Node000001" class="node">
<title>Node1</title>
<g id="a_Node000001"><a xlink:title="Removes a tag widget from the GUI.">
<polygon fill="#999999" stroke="#666666" points="676,-64 539.25,-64 539.25,-32 676,-32 676,-64"/>
<text text-anchor="start" x="547.25" y="-50.5" font-family="Helvetica,sans-Serif" font-size="10.00">ImageEditorGUI::removeTag</text>
<text text-anchor="middle" x="607.62" y="-38.5" font-family="Helvetica,sans-Serif" font-size="10.00">Widget</text>
</a>
</g>
</g>
<!-- Node2 -->
<g id="Node000002" class="node">
<title>Node2</title>
<g id="a_Node000002"><a xlink:href="class_image_editor_g_u_i.html#ac672718c127179c9c6a541c5deff2b29" target="_top" xlink:title="Adds standard tags to the GUI.">
<polygon fill="white" stroke="#666666" points="503.25,-96 342.5,-96 342.5,-76 503.25,-76 503.25,-96"/>
<text text-anchor="middle" x="422.88" y="-82.5" font-family="Helvetica,sans-Serif" font-size="10.00">ImageEditorGUI::addStandardTag</text>
</a>
</g>
</g>
<!-- Node1&#45;&gt;Node2 -->
<g id="edge1_Node000001_Node000002" class="edge">
<title>Node1&#45;&gt;Node2</title>
<g id="a_edge1_Node000001_Node000002"><a xlink:title=" ">
<path fill="none" stroke="#63b8ff" d="M527.65,-64.42C509.49,-68.2 490.68,-72.11 474.13,-75.55"/>
<polygon fill="#63b8ff" stroke="#63b8ff" points="528.28,-67.87 537.35,-62.4 526.85,-61.01 528.28,-67.87"/>
</a>
</g>
</g>
<!-- Node5 -->
<g id="Node000005" class="node">
<title>Node5</title>
<g id="a_Node000005"><a xlink:href="class_image_editor_g_u_i.html#a5a7f03147f232cdeea9d276019ccd034" target="_top" xlink:title="Adds a tag widget to the GUI.">
<polygon fill="white" stroke="#666666" points="483.75,-58 362,-58 362,-38 483.75,-38 483.75,-58"/>
<text text-anchor="middle" x="422.88" y="-44.5" font-family="Helvetica,sans-Serif" font-size="10.00">ImageEditorGUI::addTag</text>
</a>
</g>
</g>
<!-- Node1&#45;&gt;Node5 -->
<g id="edge4_Node000001_Node000005" class="edge">
<title>Node1&#45;&gt;Node5</title>
<g id="a_edge4_Node000001_Node000005"><a xlink:title=" ">
<path fill="none" stroke="#63b8ff" d="M527.74,-48C513.09,-48 498.01,-48 484.03,-48"/>
<polygon fill="#63b8ff" stroke="#63b8ff" points="527.32,-51.5 537.32,-48 527.32,-44.5 527.32,-51.5"/>
</a>
</g>
</g>
<!-- Node6 -->
<g id="Node000006" class="node">
<title>Node6</title>
<g id="a_Node000006"><a xlink:href="class_image_editor_g_u_i.html#a14bc08294cff01538d748a8792b0b5e3" target="_top" xlink:title="Loads a file into the GUI.">
<polygon fill="white" stroke="#666666" points="486.38,-20 359.38,-20 359.38,0 486.38,0 486.38,-20"/>
<text text-anchor="middle" x="422.88" y="-6.5" font-family="Helvetica,sans-Serif" font-size="10.00">ImageEditorGUI::LoadFile</text>
</a>
</g>
</g>
<!-- Node1&#45;&gt;Node6 -->
<g id="edge6_Node000001_Node000006" class="edge">
<title>Node1&#45;&gt;Node6</title>
<g id="a_edge6_Node000001_Node000006"><a xlink:title=" ">
<path fill="none" stroke="#63b8ff" d="M527.65,-31.58C509.49,-27.8 490.68,-23.89 474.13,-20.45"/>
<polygon fill="#63b8ff" stroke="#63b8ff" points="526.85,-34.99 537.35,-33.6 528.28,-28.13 526.85,-34.99"/>
</a>
</g>
</g>
<!-- Node3 -->
<g id="Node000003" class="node">
<title>Node3</title>
<g id="a_Node000003"><a xlink:href="class_image_editor_g_u_i.html#a0ddb9a6d90ec93bc562dfff6d423de7d" target="_top" xlink:title="Initializes the UI.">
<polygon fill="white" stroke="#666666" points="306.5,-58 194.5,-58 194.5,-38 306.5,-38 306.5,-58"/>
<text text-anchor="middle" x="250.5" y="-44.5" font-family="Helvetica,sans-Serif" font-size="10.00">ImageEditorGUI::InitUi</text>
</a>
</g>
</g>
<!-- Node2&#45;&gt;Node3 -->
<g id="edge2_Node000002_Node000003" class="edge">
<title>Node2&#45;&gt;Node3</title>
<g id="a_edge2_Node000002_Node000003"><a xlink:title=" ">
<path fill="none" stroke="#63b8ff" d="M363.66,-73.02C342.35,-68.26 318.54,-62.95 298.35,-58.45"/>
<polygon fill="#63b8ff" stroke="#63b8ff" points="362.87,-76.43 373.39,-75.19 364.39,-69.59 362.87,-76.43"/>
</a>
</g>
</g>
<!-- Node4 -->
<g id="Node000004" class="node">
<title>Node4</title>
<g id="a_Node000004"><a xlink:href="class_image_editor_g_u_i.html#ad4c8f6832f0cd5aa6a0b3ddcfa44889b" target="_top" xlink:title="Constructor for ImageEditorGUI.">
<polygon fill="white" stroke="#666666" points="158.5,-58 0,-58 0,-38 158.5,-38 158.5,-58"/>
<text text-anchor="middle" x="79.25" y="-44.5" font-family="Helvetica,sans-Serif" font-size="10.00">ImageEditorGUI::ImageEditorGUI</text>
</a>
</g>
</g>
<!-- Node3&#45;&gt;Node4 -->
<g id="edge3_Node000003_Node000004" class="edge">
<title>Node3&#45;&gt;Node4</title>
<g id="a_edge3_Node000003_Node000004"><a xlink:title=" ">
<path fill="none" stroke="#63b8ff" d="M182.76,-48C174.9,-48 166.83,-48 158.82,-48"/>
<polygon fill="#63b8ff" stroke="#63b8ff" points="182.57,-51.5 192.57,-48 182.57,-44.5 182.57,-51.5"/>
</a>
</g>
</g>
<!-- Node5&#45;&gt;Node3 -->
<g id="edge5_Node000005_Node000003" class="edge">
<title>Node5&#45;&gt;Node3</title>
<g id="a_edge5_Node000005_Node000003"><a xlink:title=" ">
<path fill="none" stroke="#63b8ff" d="M350.72,-48C336.03,-48 320.77,-48 306.76,-48"/>
<polygon fill="#63b8ff" stroke="#63b8ff" points="350.29,-51.5 360.29,-48 350.29,-44.5 350.29,-51.5"/>
</a>
</g>
</g>
<!-- Node6&#45;&gt;Node3 -->
<g id="edge7_Node000006_Node000003" class="edge">
<title>Node6&#45;&gt;Node3</title>
<g id="a_edge7_Node000006_Node000003"><a xlink:title=" ">
<path fill="none" stroke="#63b8ff" d="M363.66,-22.98C342.35,-27.74 318.54,-33.05 298.35,-37.55"/>
<polygon fill="#63b8ff" stroke="#63b8ff" points="364.39,-26.41 373.39,-20.81 362.87,-19.57 364.39,-26.41"/>
</a>
</g>
</g>
</g>
</svg>
