<?xml version="1.0" encoding="UTF-8" standalone="no"?>
<!DOCTYPE svg PUBLIC "-//W3C//DTD SVG 1.1//EN"
 "http://www.w3.org/Graphics/SVG/1.1/DTD/svg11.dtd">
<!-- Generated by graphviz version 10.0.1 (20240210.2158)
 -->
<!-- Title: MetaDataHandler Pages: 1 -->
<svg width="107pt" height="92pt"
 viewBox="0.00 0.00 107.00 92.00" xmlns="http://www.w3.org/2000/svg" xmlns:xlink="http://www.w3.org/1999/xlink">
<g id="graph0" class="graph" transform="scale(1 1) rotate(0) translate(4 88)">
<title>MetaDataHandler</title>
<!-- Node1 -->
<g id="Node000001" class="node">
<title>Node1</title>
<g id="a_Node000001"><a xlink:title="Handles reading and writing metadata from/to files.">
<polygon fill="#999999" stroke="none" points="99,-84 0,-84 0,0 99,0 99,-84"/>
<text text-anchor="start" x="12" y="-70.5" font-family="Helvetica,sans-Serif" font-size="10.00">MetaDataHandler</text>
<text text-anchor="start" x="48" y="-54.5" font-family="Helvetica,sans-Serif" font-size="10.00"> </text>
<text text-anchor="start" x="4" y="-38.5" font-family="Helvetica,sans-Serif" font-size="10.00">+</text>
<text text-anchor="start" x="14" y="-38.5" font-family="Helvetica,sans-Serif" font-size="10.00">MetaDataHandler()</text>
<text text-anchor="start" x="4" y="-22.5" font-family="Helvetica,sans-Serif" font-size="10.00">+</text>
<text text-anchor="start" x="14" y="-22.5" font-family="Helvetica,sans-Serif" font-size="10.00">readMetadata()</text>
<text text-anchor="start" x="4" y="-6.5" font-family="Helvetica,sans-Serif" font-size="10.00">+</text>
<text text-anchor="start" x="14" y="-6.5" font-family="Helvetica,sans-Serif" font-size="10.00">writeMetadata()</text>
<polygon fill="#666666" stroke="#666666" points="0,-66 0,-66 99,-66 99,-66 0,-66"/>
<polygon fill="#666666" stroke="#666666" points="0,-50 0,-50 99,-50 99,-50 0,-50"/>
<polygon fill="none" stroke="#666666" points="0,0 0,-84 99,-84 99,0 0,0"/>
</a>
</g>
</g>
</g>
</svg>
