<?xml version="1.0" encoding="UTF-8" standalone="no"?>
<!DOCTYPE svg PUBLIC "-//W3C//DTD SVG 1.1//EN"
 "http://www.w3.org/Graphics/SVG/1.1/DTD/svg11.dtd">
<!-- Generated by graphviz version 10.0.1 (20240210.2158)
 -->
<!-- Title: ImageEditorGUI Pages: 1 -->
<svg width="836pt" height="400pt"
 viewBox="0.00 0.00 836.00 400.00" xmlns="http://www.w3.org/2000/svg" xmlns:xlink="http://www.w3.org/1999/xlink">
<g id="graph0" class="graph" transform="scale(1 1) rotate(0) translate(4 396)">
<title>ImageEditorGUI</title>
<!-- Node1 -->
<g id="Node000001" class="node">
<title>Node1</title>
<g id="a_Node000001"><a xlink:title="This class provides a GUI for editing files.">
<polygon fill="#999999" stroke="none" points="430.5,-244 323.5,-244 323.5,0 430.5,0 430.5,-244"/>
<text text-anchor="start" x="342.88" y="-230.5" font-family="Helvetica,sans-Serif" font-size="10.00">ImageEditorGUI</text>
<text text-anchor="start" x="375.5" y="-214.5" font-family="Helvetica,sans-Serif" font-size="10.00"> </text>
<text text-anchor="start" x="327.5" y="-198.5" font-family="Helvetica,sans-Serif" font-size="10.00">+</text>
<text text-anchor="start" x="337.5" y="-198.5" font-family="Helvetica,sans-Serif" font-size="10.00">ImageEditorGUI()</text>
<text text-anchor="start" x="327.88" y="-182.5" font-family="Helvetica,sans-Serif" font-size="10.00">#</text>
<text text-anchor="start" x="337.5" y="-182.5" font-family="Helvetica,sans-Serif" font-size="10.00">resizeEvent()</text>
<text text-anchor="start" x="329" y="-166.5" font-family="Helvetica,sans-Serif" font-size="10.00">&#45;</text>
<text text-anchor="start" x="337.5" y="-166.5" font-family="Helvetica,sans-Serif" font-size="10.00">InitUi()</text>
<text text-anchor="start" x="329" y="-150.5" font-family="Helvetica,sans-Serif" font-size="10.00">&#45;</text>
<text text-anchor="start" x="337.5" y="-150.5" font-family="Helvetica,sans-Serif" font-size="10.00">UpdateWindowTitle()</text>
<text text-anchor="start" x="329" y="-134.5" font-family="Helvetica,sans-Serif" font-size="10.00">&#45;</text>
<text text-anchor="start" x="337.5" y="-134.5" font-family="Helvetica,sans-Serif" font-size="10.00">removeTagWidget()</text>
<text text-anchor="start" x="329" y="-118.5" font-family="Helvetica,sans-Serif" font-size="10.00">&#45;</text>
<text text-anchor="start" x="337.5" y="-118.5" font-family="Helvetica,sans-Serif" font-size="10.00">SwitchMode()</text>
<text text-anchor="start" x="329" y="-102.5" font-family="Helvetica,sans-Serif" font-size="10.00">&#45;</text>
<text text-anchor="start" x="337.5" y="-102.5" font-family="Helvetica,sans-Serif" font-size="10.00">addTag()</text>
<text text-anchor="start" x="329" y="-86.5" font-family="Helvetica,sans-Serif" font-size="10.00">&#45;</text>
<text text-anchor="start" x="337.5" y="-86.5" font-family="Helvetica,sans-Serif" font-size="10.00">addStandardTag()</text>
<text text-anchor="start" x="329" y="-70.5" font-family="Helvetica,sans-Serif" font-size="10.00">&#45;</text>
<text text-anchor="start" x="337.5" y="-70.5" font-family="Helvetica,sans-Serif" font-size="10.00">LoadFile()</text>
<text text-anchor="start" x="329" y="-54.5" font-family="Helvetica,sans-Serif" font-size="10.00">&#45;</text>
<text text-anchor="start" x="337.5" y="-54.5" font-family="Helvetica,sans-Serif" font-size="10.00">saveFile()</text>
<text text-anchor="start" x="329" y="-38.5" font-family="Helvetica,sans-Serif" font-size="10.00">&#45;</text>
<text text-anchor="start" x="337.5" y="-38.5" font-family="Helvetica,sans-Serif" font-size="10.00">GetLastDir()</text>
<text text-anchor="start" x="329" y="-22.5" font-family="Helvetica,sans-Serif" font-size="10.00">&#45;</text>
<text text-anchor="start" x="337.5" y="-22.5" font-family="Helvetica,sans-Serif" font-size="10.00">SetLastDir()</text>
<text text-anchor="start" x="329" y="-6.5" font-family="Helvetica,sans-Serif" font-size="10.00">&#45;</text>
<text text-anchor="start" x="337.5" y="-6.5" font-family="Helvetica,sans-Serif" font-size="10.00">DisplayFile()</text>
<polygon fill="#666666" stroke="#666666" points="323.5,-226 323.5,-226 430.5,-226 430.5,-226 323.5,-226"/>
<polygon fill="#666666" stroke="#666666" points="323.5,-210 323.5,-210 430.5,-210 430.5,-210 323.5,-210"/>
<polygon fill="none" stroke="#666666" points="323.5,0 323.5,-244 430.5,-244 430.5,0 323.5,0"/>
</a>
</g>
</g>
<!-- Node2 -->
<g id="Node000002" class="node">
<title>Node2</title>
<g id="a_Node000002"><a xlink:href="class_q_widget.html" target="_top" xlink:title=" ">
<polygon fill="white" stroke="none" points="48,-392 0,-392 0,-340 48,-340 48,-392"/>
<text text-anchor="start" x="4.88" y="-378.5" font-family="Helvetica,sans-Serif" font-size="10.00">QWidget</text>
<text text-anchor="start" x="22.5" y="-362.5" font-family="Helvetica,sans-Serif" font-size="10.00"> </text>
<text text-anchor="start" x="22.5" y="-346.5" font-family="Helvetica,sans-Serif" font-size="10.00"> </text>
<polygon fill="#666666" stroke="#666666" points="0,-374 0,-374 48,-374 48,-374 0,-374"/>
<polygon fill="#666666" stroke="#666666" points="0,-358 0,-358 48,-358 48,-358 0,-358"/>
<polygon fill="none" stroke="#666666" points="0,-340 0,-392 48,-392 48,-340 0,-340"/>
</a>
</g>
</g>
<!-- Node2&#45;&gt;Node1 -->
<g id="edge1_Node000001_Node000002" class="edge">
<title>Node2&#45;&gt;Node1</title>
<g id="a_edge1_Node000001_Node000002"><a xlink:title=" ">
<path fill="none" stroke="#63b8ff" d="M44.49,-330.88C58.82,-309.13 79.55,-281.48 103,-262 170.81,-205.69 265.25,-164.16 323.68,-141.79"/>
<polygon fill="none" stroke="#63b8ff" points="41.64,-328.83 39.18,-339.14 47.53,-332.62 41.64,-328.83"/>
</a>
</g>
</g>
<!-- Node3 -->
<g id="Node000003" class="node">
<title>Node3</title>
<g id="a_Node000003"><a xlink:title=" ">
<polygon fill="white" stroke="none" points="115.5,-392 66.5,-392 66.5,-340 115.5,-340 115.5,-392"/>
<text text-anchor="start" x="71.12" y="-378.5" font-family="Helvetica,sans-Serif" font-size="10.00">QString *</text>
<text text-anchor="start" x="89.5" y="-362.5" font-family="Helvetica,sans-Serif" font-size="10.00"> </text>
<text text-anchor="start" x="89.5" y="-346.5" font-family="Helvetica,sans-Serif" font-size="10.00"> </text>
<polygon fill="#666666" stroke="#666666" points="66.5,-374 66.5,-374 115.5,-374 115.5,-374 66.5,-374"/>
<polygon fill="#666666" stroke="#666666" points="66.5,-358 66.5,-358 115.5,-358 115.5,-358 66.5,-358"/>
<polygon fill="none" stroke="#666666" points="66.5,-340 66.5,-392 115.5,-392 115.5,-340 66.5,-340"/>
</a>
</g>
</g>
<!-- Node3&#45;&gt;Node1 -->
<g id="edge2_Node000001_Node000003" class="edge">
<title>Node3&#45;&gt;Node1</title>
<g id="a_edge2_Node000001_Node000003"><a xlink:title=" ">
<path fill="none" stroke="#63b8ff" d="M99.27,-340.16C107.73,-317.69 122.66,-284.72 144,-262 191.32,-211.62 260.94,-173.33 311.76,-149.82"/>
<polygon fill="none" stroke="#63b8ff" points="311.84,-149.78 315.66,-143.66 322.77,-144.82 318.96,-150.94 311.84,-149.78"/>
</a>
</g>
<text text-anchor="middle" x="166.5" y="-288.5" font-family="Helvetica,sans-Serif" font-size="10.00" fill="grey"> &#45;FileLabel</text>
</g>
<!-- Node4 -->
<g id="Node000004" class="node">
<title>Node4</title>
<g id="a_Node000004"><a xlink:title=" ">
<polygon fill="white" stroke="none" points="230,-392 134,-392 134,-340 230,-340 230,-392"/>
<text text-anchor="start" x="138.88" y="-378.5" font-family="Helvetica,sans-Serif" font-size="10.00">QList&lt; QWidget * &gt;</text>
<text text-anchor="start" x="180.5" y="-362.5" font-family="Helvetica,sans-Serif" font-size="10.00"> </text>
<text text-anchor="start" x="180.5" y="-346.5" font-family="Helvetica,sans-Serif" font-size="10.00"> </text>
<polygon fill="#666666" stroke="#666666" points="134,-374 134,-374 230,-374 230,-374 134,-374"/>
<polygon fill="#666666" stroke="#666666" points="134,-358 134,-358 230,-358 230,-358 134,-358"/>
<polygon fill="none" stroke="#666666" points="134,-340 134,-392 230,-392 230,-340 134,-340"/>
</a>
</g>
</g>
<!-- Node4&#45;&gt;Node1 -->
<g id="edge3_Node000001_Node000004" class="edge">
<title>Node4&#45;&gt;Node1</title>
<g id="a_edge3_Node000001_Node000004"><a xlink:title=" ">
<path fill="none" stroke="#63b8ff" d="M187.58,-340.09C193.32,-318.17 203.76,-286.08 220.25,-262 245.28,-225.44 281.99,-192.2 313.58,-167.4"/>
<polygon fill="none" stroke="#63b8ff" points="313.42,-167.53 315.73,-160.7 322.93,-160.2 320.62,-167.03 313.42,-167.53"/>
</a>
</g>
<text text-anchor="middle" x="248.88" y="-288.5" font-family="Helvetica,sans-Serif" font-size="10.00" fill="grey"> &#45;TagWidgets</text>
</g>
<!-- Node5 -->
<g id="Node000005" class="node">
<title>Node5</title>
<g id="a_Node000005"><a xlink:title=" ">
<polygon fill="white" stroke="none" points="297.5,-392 248.5,-392 248.5,-340 297.5,-340 297.5,-392"/>
<text text-anchor="start" x="253.5" y="-378.5" font-family="Helvetica,sans-Serif" font-size="10.00">QMovie *</text>
<text text-anchor="start" x="271.5" y="-362.5" font-family="Helvetica,sans-Serif" font-size="10.00"> </text>
<text text-anchor="start" x="271.5" y="-346.5" font-family="Helvetica,sans-Serif" font-size="10.00"> </text>
<polygon fill="#666666" stroke="#666666" points="248.5,-374 248.5,-374 297.5,-374 297.5,-374 248.5,-374"/>
<polygon fill="#666666" stroke="#666666" points="248.5,-358 248.5,-358 297.5,-358 297.5,-358 248.5,-358"/>
<polygon fill="none" stroke="#666666" points="248.5,-340 248.5,-392 297.5,-392 297.5,-340 248.5,-340"/>
</a>
</g>
</g>
<!-- Node5&#45;&gt;Node1 -->
<g id="edge4_Node000001_Node000005" class="edge">
<title>Node5&#45;&gt;Node1</title>
<g id="a_edge4_Node000001_Node000005"><a xlink:title=" ">
<path fill="none" stroke="#63b8ff" d="M278.07,-340.34C282.83,-319.14 290.78,-287.97 301.25,-262 306.12,-249.93 311.78,-237.56 317.77,-225.43"/>
<polygon fill="none" stroke="#63b8ff" points="317.78,-225.4 316.92,-218.24 323.2,-214.69 324.06,-221.85 317.78,-225.4"/>
</a>
</g>
<text text-anchor="middle" x="316.38" y="-288.5" font-family="Helvetica,sans-Serif" font-size="10.00" fill="grey"> &#45;Movie</text>
</g>
<!-- Node6 -->
<g id="Node000006" class="node">
<title>Node6</title>
<g id="a_Node000006"><a xlink:title=" ">
<polygon fill="white" stroke="none" points="362.5,-392 315.5,-392 315.5,-340 362.5,-340 362.5,-392"/>
<text text-anchor="start" x="320.25" y="-378.5" font-family="Helvetica,sans-Serif" font-size="10.00">QLabel *</text>
<text text-anchor="start" x="337.5" y="-362.5" font-family="Helvetica,sans-Serif" font-size="10.00"> </text>
<text text-anchor="start" x="337.5" y="-346.5" font-family="Helvetica,sans-Serif" font-size="10.00"> </text>
<polygon fill="#666666" stroke="#666666" points="315.5,-374 315.5,-374 362.5,-374 362.5,-374 315.5,-374"/>
<polygon fill="#666666" stroke="#666666" points="315.5,-358 315.5,-358 362.5,-358 362.5,-358 315.5,-358"/>
<polygon fill="none" stroke="#666666" points="315.5,-340 315.5,-392 362.5,-392 362.5,-340 315.5,-340"/>
</a>
</g>
</g>
<!-- Node6&#45;&gt;Node1 -->
<g id="edge5_Node000001_Node000006" class="edge">
<title>Node6&#45;&gt;Node1</title>
<g id="a_edge5_Node000001_Node000006"><a xlink:title=" ">
<path fill="none" stroke="#63b8ff" d="M337.34,-340.32C336.36,-319.38 335.91,-288.58 339.5,-262 339.74,-260.24 339.99,-258.46 340.26,-256.68"/>
<polygon fill="none" stroke="#63b8ff" points="340.27,-256.64 337.32,-250.06 342.25,-244.81 345.21,-251.39 340.27,-256.64"/>
</a>
</g>
<text text-anchor="middle" x="366.75" y="-288.5" font-family="Helvetica,sans-Serif" font-size="10.00" fill="grey"> &#45;ImageLabel</text>
</g>
<!-- Node7 -->
<g id="Node000007" class="node">
<title>Node7</title>
<g id="a_Node000007"><a xlink:title=" ">
<polygon fill="white" stroke="none" points="455.5,-392 380.5,-392 380.5,-340 455.5,-340 455.5,-392"/>
<text text-anchor="start" x="385.38" y="-378.5" font-family="Helvetica,sans-Serif" font-size="10.00">QPushButton *</text>
<text text-anchor="start" x="416.5" y="-362.5" font-family="Helvetica,sans-Serif" font-size="10.00"> </text>
<text text-anchor="start" x="416.5" y="-346.5" font-family="Helvetica,sans-Serif" font-size="10.00"> </text>
<polygon fill="#666666" stroke="#666666" points="380.5,-374 380.5,-374 455.5,-374 455.5,-374 380.5,-374"/>
<polygon fill="#666666" stroke="#666666" points="380.5,-358 380.5,-358 455.5,-358 455.5,-358 380.5,-358"/>
<polygon fill="none" stroke="#666666" points="380.5,-340 380.5,-392 455.5,-392 455.5,-340 380.5,-340"/>
</a>
</g>
</g>
<!-- Node7&#45;&gt;Node1 -->
<g id="edge6_Node000001_Node000007" class="edge">
<title>Node7&#45;&gt;Node1</title>
<g id="a_edge6_Node000001_Node000007"><a xlink:title=" ">
<path fill="none" stroke="#63b8ff" d="M413.77,-340.01C410.29,-319.49 405.07,-288.68 399.65,-256.68"/>
<polygon fill="none" stroke="#63b8ff" points="399.64,-256.61 394.69,-251.37 397.63,-244.78 402.58,-250.03 399.64,-256.61"/>
</a>
</g>
<text text-anchor="middle" x="453.12" y="-312.5" font-family="Helvetica,sans-Serif" font-size="10.00" fill="grey"> &#45;AddButton</text>
<text text-anchor="middle" x="453.12" y="-300.5" font-family="Helvetica,sans-Serif" font-size="10.00" fill="grey">&#45;LoadButton</text>
<text text-anchor="middle" x="453.12" y="-288.5" font-family="Helvetica,sans-Serif" font-size="10.00" fill="grey">&#45;ModeSwitch</text>
<text text-anchor="middle" x="453.12" y="-276.5" font-family="Helvetica,sans-Serif" font-size="10.00" fill="grey">&#45;SaveButton</text>
<text text-anchor="middle" x="453.12" y="-264.5" font-family="Helvetica,sans-Serif" font-size="10.00" fill="grey">&#45;addStandardButton</text>
</g>
<!-- Node8 -->
<g id="Node000008" class="node">
<title>Node8</title>
<g id="a_Node000008"><a xlink:title=" ">
<polygon fill="white" stroke="none" points="542.5,-392 473.5,-392 473.5,-340 542.5,-340 542.5,-392"/>
<text text-anchor="start" x="478.38" y="-378.5" font-family="Helvetica,sans-Serif" font-size="10.00">QScrollArea *</text>
<text text-anchor="start" x="506.5" y="-362.5" font-family="Helvetica,sans-Serif" font-size="10.00"> </text>
<text text-anchor="start" x="506.5" y="-346.5" font-family="Helvetica,sans-Serif" font-size="10.00"> </text>
<polygon fill="#666666" stroke="#666666" points="473.5,-374 473.5,-374 542.5,-374 542.5,-374 473.5,-374"/>
<polygon fill="#666666" stroke="#666666" points="473.5,-358 473.5,-358 542.5,-358 542.5,-358 473.5,-358"/>
<polygon fill="none" stroke="#666666" points="473.5,-340 473.5,-392 542.5,-392 542.5,-340 473.5,-340"/>
</a>
</g>
</g>
<!-- Node8&#45;&gt;Node1 -->
<g id="edge7_Node000001_Node000008" class="edge">
<title>Node8&#45;&gt;Node1</title>
<g id="a_edge7_Node000001_Node000008"><a xlink:title=" ">
<path fill="none" stroke="#63b8ff" d="M510.38,-340.24C511.47,-318.71 510.64,-287.1 500,-262 486.45,-230.05 462.54,-200.38 439.37,-176.72"/>
<polygon fill="none" stroke="#63b8ff" points="439.37,-176.72 432.29,-175.33 430.85,-168.27 437.93,-169.66 439.37,-176.72"/>
</a>
</g>
<text text-anchor="middle" x="535.5" y="-288.5" font-family="Helvetica,sans-Serif" font-size="10.00" fill="grey"> &#45;ScrollArea</text>
</g>
<!-- Node9 -->
<g id="Node000009" class="node">
<title>Node9</title>
<g id="a_Node000009"><a xlink:title=" ">
<polygon fill="white" stroke="none" points="639.5,-392 560.5,-392 560.5,-340 639.5,-340 639.5,-392"/>
<text text-anchor="start" x="565.12" y="-378.5" font-family="Helvetica,sans-Serif" font-size="10.00">QVideoWidget *</text>
<text text-anchor="start" x="598.5" y="-362.5" font-family="Helvetica,sans-Serif" font-size="10.00"> </text>
<text text-anchor="start" x="598.5" y="-346.5" font-family="Helvetica,sans-Serif" font-size="10.00"> </text>
<polygon fill="#666666" stroke="#666666" points="560.5,-374 560.5,-374 639.5,-374 639.5,-374 560.5,-374"/>
<polygon fill="#666666" stroke="#666666" points="560.5,-358 560.5,-358 639.5,-358 639.5,-358 560.5,-358"/>
<polygon fill="none" stroke="#666666" points="560.5,-340 560.5,-392 639.5,-392 639.5,-340 560.5,-340"/>
</a>
</g>
</g>
<!-- Node9&#45;&gt;Node1 -->
<g id="edge8_Node000001_Node000009" class="edge">
<title>Node9&#45;&gt;Node1</title>
<g id="a_edge8_Node000001_Node000009"><a xlink:title=" ">
<path fill="none" stroke="#63b8ff" d="M595.93,-340.16C591.34,-317.99 582.16,-285.49 565,-262 532.61,-217.66 481.95,-181.36 441.38,-156.99"/>
<polygon fill="none" stroke="#63b8ff" points="441.35,-156.98 434.15,-157.39 431.01,-150.9 438.21,-150.49 441.35,-156.98"/>
</a>
</g>
<text text-anchor="middle" x="620.25" y="-288.5" font-family="Helvetica,sans-Serif" font-size="10.00" fill="grey"> &#45;videoWidget</text>
</g>
<!-- Node10 -->
<g id="Node000010" class="node">
<title>Node10</title>
<g id="a_Node000010"><a xlink:title=" ">
<polygon fill="white" stroke="none" points="712.5,-392 657.5,-392 657.5,-340 712.5,-340 712.5,-392"/>
<text text-anchor="start" x="662.5" y="-378.5" font-family="Helvetica,sans-Serif" font-size="10.00">QWidget *</text>
<text text-anchor="start" x="683.5" y="-362.5" font-family="Helvetica,sans-Serif" font-size="10.00"> </text>
<text text-anchor="start" x="683.5" y="-346.5" font-family="Helvetica,sans-Serif" font-size="10.00"> </text>
<polygon fill="#666666" stroke="#666666" points="657.5,-374 657.5,-374 712.5,-374 712.5,-374 657.5,-374"/>
<polygon fill="#666666" stroke="#666666" points="657.5,-358 657.5,-358 712.5,-358 712.5,-358 657.5,-358"/>
<polygon fill="none" stroke="#666666" points="657.5,-340 657.5,-392 712.5,-392 712.5,-340 657.5,-340"/>
</a>
</g>
</g>
<!-- Node10&#45;&gt;Node1 -->
<g id="edge9_Node000001_Node000010" class="edge">
<title>Node10&#45;&gt;Node1</title>
<g id="a_edge9_Node000001_Node000010"><a xlink:title=" ">
<path fill="none" stroke="#63b8ff" d="M683.09,-340.34C680.16,-317.67 672.75,-284.3 654,-262 598.98,-196.55 505.54,-158.8 442.57,-139.57"/>
<polygon fill="none" stroke="#63b8ff" points="442.77,-139.63 435.89,-141.77 431.27,-136.23 438.16,-134.1 442.77,-139.63"/>
</a>
</g>
<text text-anchor="middle" x="709.75" y="-288.5" font-family="Helvetica,sans-Serif" font-size="10.00" fill="grey"> &#45;ScrollWidget</text>
</g>
<!-- Node11 -->
<g id="Node000011" class="node">
<title>Node11</title>
<g id="a_Node000011"><a xlink:title=" ">
<polygon fill="white" stroke="none" points="807.5,-392 730.5,-392 730.5,-340 807.5,-340 807.5,-392"/>
<text text-anchor="start" x="735.25" y="-378.5" font-family="Helvetica,sans-Serif" font-size="10.00">QVBoxLayout *</text>
<text text-anchor="start" x="767.5" y="-362.5" font-family="Helvetica,sans-Serif" font-size="10.00"> </text>
<text text-anchor="start" x="767.5" y="-346.5" font-family="Helvetica,sans-Serif" font-size="10.00"> </text>
<polygon fill="#666666" stroke="#666666" points="730.5,-374 730.5,-374 807.5,-374 807.5,-374 730.5,-374"/>
<polygon fill="#666666" stroke="#666666" points="730.5,-358 730.5,-358 807.5,-358 807.5,-358 730.5,-358"/>
<polygon fill="none" stroke="#666666" points="730.5,-340 730.5,-392 807.5,-392 807.5,-340 730.5,-340"/>
</a>
</g>
</g>
<!-- Node11&#45;&gt;Node1 -->
<g id="edge10_Node000001_Node000011" class="edge">
<title>Node11&#45;&gt;Node1</title>
<g id="a_edge10_Node000001_Node000011"><a xlink:title=" ">
<path fill="none" stroke="#63b8ff" d="M769.53,-340.43C768.72,-317.51 763.99,-283.69 745,-262 667.05,-173 526.09,-140.8 443.08,-129.28"/>
<polygon fill="none" stroke="#63b8ff" points="443.07,-129.28 436.6,-132.47 431.17,-127.72 437.64,-124.54 443.07,-129.28"/>
</a>
</g>
<text text-anchor="middle" x="798" y="-288.5" font-family="Helvetica,sans-Serif" font-size="10.00" fill="grey"> &#45;ScrollLayout</text>
</g>
</g>
</svg>
