<?xml version="1.0" encoding="UTF-8" standalone="no"?>
<!DOCTYPE svg PUBLIC "-//W3C//DTD SVG 1.1//EN"
 "http://www.w3.org/Graphics/SVG/1.1/DTD/svg11.dtd">
<!-- Generated by graphviz version 10.0.1 (20240210.2158)
 -->
<!-- Title: ImageEditorGUI::ImageEditorGUI Pages: 1 -->
<svg width="878pt" height="394pt"
 viewBox="0.00 0.00 877.75 394.00" xmlns="http://www.w3.org/2000/svg" xmlns:xlink="http://www.w3.org/1999/xlink">
<g id="graph0" class="graph" transform="scale(1 1) rotate(0) translate(4 390)">
<title>ImageEditorGUI::ImageEditorGUI</title>
<!-- Node1 -->
<g id="Node000001" class="node">
<title>Node1</title>
<g id="a_Node000001"><a xlink:title="Constructor for ImageEditorGUI.">
<polygon fill="#999999" stroke="#666666" points="158.5,-260 0,-260 0,-240 158.5,-240 158.5,-260"/>
<text text-anchor="middle" x="79.25" y="-246.5" font-family="Helvetica,sans-Serif" font-size="10.00">ImageEditorGUI::ImageEditorGUI</text>
</a>
</g>
</g>
<!-- Node2 -->
<g id="Node000002" class="node">
<title>Node2</title>
<g id="a_Node000002"><a xlink:href="class_image_editor_g_u_i.html#a0ddb9a6d90ec93bc562dfff6d423de7d" target="_top" xlink:title="Initializes the UI.">
<polygon fill="white" stroke="#666666" points="306.5,-260 194.5,-260 194.5,-240 306.5,-240 306.5,-260"/>
<text text-anchor="middle" x="250.5" y="-246.5" font-family="Helvetica,sans-Serif" font-size="10.00">ImageEditorGUI::InitUi</text>
</a>
</g>
</g>
<!-- Node1&#45;&gt;Node2 -->
<g id="edge1_Node000001_Node000002" class="edge">
<title>Node1&#45;&gt;Node2</title>
<g id="a_edge1_Node000001_Node000002"><a xlink:title=" ">
<path fill="none" stroke="#63b8ff" d="M158.93,-250C166.93,-250 175.01,-250 182.87,-250"/>
<polygon fill="#63b8ff" stroke="#63b8ff" points="182.68,-253.5 192.68,-250 182.68,-246.5 182.68,-253.5"/>
</a>
</g>
</g>
<!-- Node3 -->
<g id="Node000003" class="node">
<title>Node3</title>
<g id="a_Node000003"><a xlink:href="class_image_editor_g_u_i.html#ac672718c127179c9c6a541c5deff2b29" target="_top" xlink:title="Adds standard tags to the GUI.">
<polygon fill="white" stroke="#666666" points="503.25,-323 342.5,-323 342.5,-303 503.25,-303 503.25,-323"/>
<text text-anchor="middle" x="422.88" y="-309.5" font-family="Helvetica,sans-Serif" font-size="10.00">ImageEditorGUI::addStandardTag</text>
</a>
</g>
</g>
<!-- Node2&#45;&gt;Node3 -->
<g id="edge2_Node000002_Node000003" class="edge">
<title>Node2&#45;&gt;Node3</title>
<g id="a_edge2_Node000002_Node000003"><a xlink:title=" ">
<path fill="none" stroke="#63b8ff" d="M279.63,-260.4C307.87,-270.84 351.59,-287.01 383.11,-298.66"/>
<polygon fill="#63b8ff" stroke="#63b8ff" points="381.69,-301.87 392.28,-302.06 384.11,-295.31 381.69,-301.87"/>
</a>
</g>
</g>
<!-- Node6 -->
<g id="Node000006" class="node">
<title>Node6</title>
<g id="a_Node000006"><a xlink:href="class_image_editor_g_u_i.html#a5a7f03147f232cdeea9d276019ccd034" target="_top" xlink:title="Adds a tag widget to the GUI.">
<polygon fill="white" stroke="#666666" points="483.75,-361 362,-361 362,-341 483.75,-341 483.75,-361"/>
<text text-anchor="middle" x="422.88" y="-347.5" font-family="Helvetica,sans-Serif" font-size="10.00">ImageEditorGUI::addTag</text>
</a>
</g>
</g>
<!-- Node2&#45;&gt;Node6 -->
<g id="edge5_Node000002_Node000006" class="edge">
<title>Node2&#45;&gt;Node6</title>
<g id="a_edge5_Node000002_Node000006"><a xlink:title=" ">
<path fill="none" stroke="#63b8ff" d="M259.86,-260.34C274.62,-277.89 307.11,-313.39 342.5,-332 345.76,-333.71 349.18,-335.28 352.69,-336.7"/>
<polygon fill="#63b8ff" stroke="#63b8ff" points="351.4,-339.96 361.99,-340.05 353.77,-333.37 351.4,-339.96"/>
</a>
</g>
</g>
<!-- Node7 -->
<g id="Node000007" class="node">
<title>Node7</title>
<g id="a_Node000007"><a xlink:href="class_image_editor_g_u_i.html#a14bc08294cff01538d748a8792b0b5e3" target="_top" xlink:title="Loads a file into the GUI.">
<polygon fill="white" stroke="#666666" points="486.38,-260 359.38,-260 359.38,-240 486.38,-240 486.38,-260"/>
<text text-anchor="middle" x="422.88" y="-246.5" font-family="Helvetica,sans-Serif" font-size="10.00">ImageEditorGUI::LoadFile</text>
</a>
</g>
</g>
<!-- Node2&#45;&gt;Node7 -->
<g id="edge8_Node000002_Node000007" class="edge">
<title>Node2&#45;&gt;Node7</title>
<g id="a_edge8_Node000002_Node000007"><a xlink:title=" ">
<path fill="none" stroke="#63b8ff" d="M306.82,-250C319.87,-250 334,-250 347.74,-250"/>
<polygon fill="#63b8ff" stroke="#63b8ff" points="347.64,-253.5 357.64,-250 347.64,-246.5 347.64,-253.5"/>
</a>
</g>
</g>
<!-- Node14 -->
<g id="Node000014" class="node">
<title>Node14</title>
<g id="a_Node000014"><a xlink:href="class_image_editor_g_u_i.html#a135b12da2af6c427200b40dfc45aae0c" target="_top" xlink:title="Saves the current file.">
<polygon fill="white" stroke="#666666" points="485.62,-96 360.12,-96 360.12,-76 485.62,-76 485.62,-96"/>
<text text-anchor="middle" x="422.88" y="-82.5" font-family="Helvetica,sans-Serif" font-size="10.00">ImageEditorGUI::saveFile</text>
</a>
</g>
</g>
<!-- Node2&#45;&gt;Node14 -->
<g id="edge17_Node000002_Node000014" class="edge">
<title>Node2&#45;&gt;Node14</title>
<g id="a_edge17_Node000002_Node000014"><a xlink:title=" ">
<path fill="none" stroke="#63b8ff" d="M262.16,-239.74C290.36,-212.59 367.25,-138.58 403.06,-104.11"/>
<polygon fill="#63b8ff" stroke="#63b8ff" points="405.35,-106.76 410.13,-97.3 400.5,-101.72 405.35,-106.76"/>
</a>
</g>
</g>
<!-- Node18 -->
<g id="Node000018" class="node">
<title>Node18</title>
<g id="a_Node000018"><a xlink:href="class_image_editor_g_u_i.html#acd905527c38151be31a672f2ac6ec03e" target="_top" xlink:title="Switches the mode of the GUI.">
<polygon fill="white" stroke="#666666" points="494.62,-39 351.12,-39 351.12,-19 494.62,-19 494.62,-39"/>
<text text-anchor="middle" x="422.88" y="-25.5" font-family="Helvetica,sans-Serif" font-size="10.00">ImageEditorGUI::SwitchMode</text>
</a>
</g>
</g>
<!-- Node2&#45;&gt;Node18 -->
<g id="edge21_Node000002_Node000018" class="edge">
<title>Node2&#45;&gt;Node18</title>
<g id="a_edge21_Node000002_Node000018"><a xlink:title=" ">
<path fill="none" stroke="#63b8ff" d="M254,-239.89C261.93,-209.79 289.17,-119.54 342.5,-67 352.45,-57.2 365.41,-49.55 377.97,-43.77"/>
<polygon fill="#63b8ff" stroke="#63b8ff" points="379.13,-47.08 386.95,-39.94 376.38,-40.64 379.13,-47.08"/>
</a>
</g>
</g>
<!-- Node4 -->
<g id="Node000004" class="node">
<title>Node4</title>
<g id="a_Node000004"><a xlink:href="class_tag_widget.html#a0dc7bd2438fdbd01d50253b11268cf47" target="_top" xlink:title="Signal that is emitted when the widget is requested to be removed.">
<polygon fill="white" stroke="#666666" points="691,-386 545.25,-386 545.25,-366 691,-366 691,-386"/>
<text text-anchor="middle" x="618.12" y="-372.5" font-family="Helvetica,sans-Serif" font-size="10.00">TagWidget::removeRequested</text>
</a>
</g>
</g>
<!-- Node3&#45;&gt;Node4 -->
<g id="edge3_Node000003_Node000004" class="edge">
<title>Node3&#45;&gt;Node4</title>
<g id="a_edge3_Node000003_Node000004"><a xlink:title=" ">
<path fill="none" stroke="#63b8ff" d="M479.41,-323.49C487.57,-325.83 495.75,-328.64 503.25,-332 521.03,-339.96 521.49,-349 539.25,-357 543.46,-358.9 547.89,-360.62 552.41,-362.19"/>
<polygon fill="#63b8ff" stroke="#63b8ff" points="551.02,-365.42 561.61,-365.1 553.13,-358.74 551.02,-365.42"/>
</a>
</g>
</g>
<!-- Node5 -->
<g id="Node000005" class="node">
<title>Node5</title>
<g id="a_Node000005"><a xlink:href="class_image_editor_g_u_i.html#a39aa96af2498fa25a031afa86aa8eb76" target="_top" xlink:title="Removes a tag widget from the GUI.">
<polygon fill="white" stroke="#666666" points="686.5,-348 549.75,-348 549.75,-316 686.5,-316 686.5,-348"/>
<text text-anchor="start" x="557.75" y="-334.5" font-family="Helvetica,sans-Serif" font-size="10.00">ImageEditorGUI::removeTag</text>
<text text-anchor="middle" x="618.12" y="-322.5" font-family="Helvetica,sans-Serif" font-size="10.00">Widget</text>
</a>
</g>
</g>
<!-- Node3&#45;&gt;Node5 -->
<g id="edge4_Node000003_Node000005" class="edge">
<title>Node3&#45;&gt;Node5</title>
<g id="a_edge4_Node000003_Node000005"><a xlink:title=" ">
<path fill="none" stroke="#63b8ff" d="M503.59,-320.84C514.98,-321.96 526.69,-323.11 538.06,-324.23"/>
<polygon fill="#63b8ff" stroke="#63b8ff" points="537.49,-327.69 547.79,-325.18 538.18,-320.72 537.49,-327.69"/>
</a>
</g>
</g>
<!-- Node6&#45;&gt;Node4 -->
<g id="edge6_Node000006_Node000004" class="edge">
<title>Node6&#45;&gt;Node4</title>
<g id="a_edge6_Node000006_Node000004"><a xlink:title=" ">
<path fill="none" stroke="#63b8ff" d="M484.23,-358.81C499.88,-360.83 517.03,-363.05 533.64,-365.2"/>
<polygon fill="#63b8ff" stroke="#63b8ff" points="533.17,-368.67 543.53,-366.48 534.06,-361.73 533.17,-368.67"/>
</a>
</g>
</g>
<!-- Node6&#45;&gt;Node5 -->
<g id="edge7_Node000006_Node000005" class="edge">
<title>Node6&#45;&gt;Node5</title>
<g id="a_edge7_Node000006_Node000005"><a xlink:title=" ">
<path fill="none" stroke="#63b8ff" d="M484.23,-345.07C501.29,-343.39 520.13,-341.54 538.12,-339.77"/>
<polygon fill="#63b8ff" stroke="#63b8ff" points="538.38,-343.26 547.99,-338.8 537.69,-336.29 538.38,-343.26"/>
</a>
</g>
</g>
<!-- Node7&#45;&gt;Node4 -->
<g id="edge13_Node000007_Node000004" class="edge">
<title>Node7&#45;&gt;Node4</title>
<g id="a_edge13_Node000007_Node000004"><a xlink:title=" ">
<path fill="none" stroke="#63b8ff" d="M450.54,-260.35C467.18,-267.81 488.22,-279.17 503.25,-294 526.2,-316.65 513.49,-337.6 539.25,-357 540.82,-358.18 542.45,-359.29 544.13,-360.33"/>
<polygon fill="#63b8ff" stroke="#63b8ff" points="542.41,-363.38 552.9,-364.87 545.63,-357.17 542.41,-363.38"/>
</a>
</g>
</g>
<!-- Node7&#45;&gt;Node5 -->
<g id="edge14_Node000007_Node000005" class="edge">
<title>Node7&#45;&gt;Node5</title>
<g id="a_edge14_Node000007_Node000005"><a xlink:title=" ">
<path fill="none" stroke="#63b8ff" d="M442.67,-260.36C465.18,-272.53 504.25,-292.83 539.25,-307 543.28,-308.63 547.46,-310.23 551.7,-311.78"/>
<polygon fill="#63b8ff" stroke="#63b8ff" points="550.27,-314.99 560.87,-315.03 552.61,-308.39 550.27,-314.99"/>
</a>
</g>
</g>
<!-- Node8 -->
<g id="Node000008" class="node">
<title>Node8</title>
<g id="a_Node000008"><a xlink:href="class_image_editor_g_u_i.html#ac8c68a1cf592e428b21e7fec5fccd8cc" target="_top" xlink:title="Displays a file in the GUI.">
<polygon fill="white" stroke="#666666" points="687.25,-298 549,-298 549,-278 687.25,-278 687.25,-298"/>
<text text-anchor="middle" x="618.12" y="-284.5" font-family="Helvetica,sans-Serif" font-size="10.00">ImageEditorGUI::DisplayFile</text>
</a>
</g>
</g>
<!-- Node7&#45;&gt;Node8 -->
<g id="edge9_Node000007_Node000008" class="edge">
<title>Node7&#45;&gt;Node8</title>
<g id="a_edge9_Node000007_Node000008"><a xlink:title=" ">
<path fill="none" stroke="#63b8ff" d="M477.19,-260.48C500.64,-265.09 528.37,-270.55 552.94,-275.38"/>
<polygon fill="#63b8ff" stroke="#63b8ff" points="552.01,-278.76 562.5,-277.26 553.36,-271.89 552.01,-278.76"/>
</a>
</g>
</g>
<!-- Node9 -->
<g id="Node000009" class="node">
<title>Node9</title>
<g id="a_Node000009"><a xlink:href="class_image_editor_g_u_i.html#a372deea66bedcd77d2b7c69dd6e7ae34" target="_top" xlink:title="Gets the last directory used.">
<polygon fill="white" stroke="#666666" points="686.5,-260 549.75,-260 549.75,-240 686.5,-240 686.5,-260"/>
<text text-anchor="middle" x="618.12" y="-246.5" font-family="Helvetica,sans-Serif" font-size="10.00">ImageEditorGUI::GetLastDir</text>
</a>
</g>
</g>
<!-- Node7&#45;&gt;Node9 -->
<g id="edge10_Node000007_Node000009" class="edge">
<title>Node7&#45;&gt;Node9</title>
<g id="a_edge10_Node000007_Node000009"><a xlink:title=" ">
<path fill="none" stroke="#63b8ff" d="M486.62,-250C503.07,-250 521.03,-250 538.21,-250"/>
<polygon fill="#63b8ff" stroke="#63b8ff" points="537.85,-253.5 547.85,-250 537.85,-246.5 537.85,-253.5"/>
</a>
</g>
</g>
<!-- Node10 -->
<g id="Node000010" class="node">
<title>Node10</title>
<g id="a_Node000010"><a xlink:href="class_meta_data_handler.html#a0f0c872ecd4e6b41bfcd746032152d2a" target="_top" xlink:title="Reads metadata from a file.">
<polygon fill="white" stroke="#666666" points="696.25,-222 540,-222 540,-202 696.25,-202 696.25,-222"/>
<text text-anchor="middle" x="618.12" y="-208.5" font-family="Helvetica,sans-Serif" font-size="10.00">MetaDataHandler::readMetadata</text>
</a>
</g>
</g>
<!-- Node7&#45;&gt;Node10 -->
<g id="edge11_Node000007_Node000010" class="edge">
<title>Node7&#45;&gt;Node10</title>
<g id="a_edge11_Node000007_Node000010"><a xlink:title=" ">
<path fill="none" stroke="#63b8ff" d="M477.19,-239.52C500.64,-234.91 528.37,-229.45 552.94,-224.62"/>
<polygon fill="#63b8ff" stroke="#63b8ff" points="553.36,-228.11 562.5,-222.74 552.01,-221.24 553.36,-228.11"/>
</a>
</g>
</g>
<!-- Node12 -->
<g id="Node000012" class="node">
<title>Node12</title>
<g id="a_Node000012"><a xlink:href="class_image_editor_g_u_i.html#ac88e196169998c20ddf171733dfc5fda" target="_top" xlink:title="Sets the last opened directory.">
<polygon fill="white" stroke="#666666" points="686.12,-184 550.12,-184 550.12,-164 686.12,-164 686.12,-184"/>
<text text-anchor="middle" x="618.12" y="-170.5" font-family="Helvetica,sans-Serif" font-size="10.00">ImageEditorGUI::SetLastDir</text>
</a>
</g>
</g>
<!-- Node7&#45;&gt;Node12 -->
<g id="edge15_Node000007_Node000012" class="edge">
<title>Node7&#45;&gt;Node12</title>
<g id="a_edge15_Node000007_Node000012"><a xlink:title=" ">
<path fill="none" stroke="#63b8ff" d="M441.71,-239.64C463.93,-227.11 503.35,-206.07 539.25,-193 544.67,-191.03 550.37,-189.2 556.13,-187.51"/>
<polygon fill="#63b8ff" stroke="#63b8ff" points="557.04,-190.89 565.74,-184.86 555.17,-184.14 557.04,-190.89"/>
</a>
</g>
</g>
<!-- Node13 -->
<g id="Node000013" class="node">
<title>Node13</title>
<g id="a_Node000013"><a xlink:href="class_image_editor_g_u_i.html#a024490b48241a822bdb98f029a35d13e" target="_top" xlink:title="Updates the window title.">
<polygon fill="white" stroke="#666666" points="695.88,-146 540.38,-146 540.38,-114 695.88,-114 695.88,-146"/>
<text text-anchor="start" x="548.38" y="-132.5" font-family="Helvetica,sans-Serif" font-size="10.00">ImageEditorGUI::UpdateWindow</text>
<text text-anchor="middle" x="618.12" y="-120.5" font-family="Helvetica,sans-Serif" font-size="10.00">Title</text>
</a>
</g>
</g>
<!-- Node7&#45;&gt;Node13 -->
<g id="edge16_Node000007_Node000013" class="edge">
<title>Node7&#45;&gt;Node13</title>
<g id="a_edge16_Node000007_Node000013"><a xlink:title=" ">
<path fill="none" stroke="#63b8ff" d="M433.7,-239.63C452.49,-220.37 495.52,-178.87 539.25,-155 541.9,-153.55 544.66,-152.17 547.47,-150.86"/>
<polygon fill="#63b8ff" stroke="#63b8ff" points="548.68,-154.15 556.48,-146.98 545.91,-147.72 548.68,-154.15"/>
</a>
</g>
</g>
<!-- Node11 -->
<g id="Node000011" class="node">
<title>Node11</title>
<g id="a_Node000011"><a xlink:href="class_p_n_g_meta.html#af0d38c265feda017cc4811de8e2b54b2" target="_top" xlink:title="Reads the PNG header from a PNG file.">
<polygon fill="white" stroke="#666666" points="869,-222 733.75,-222 733.75,-202 869,-202 869,-222"/>
<text text-anchor="middle" x="801.38" y="-208.5" font-family="Helvetica,sans-Serif" font-size="10.00">PNGMeta::readPNGHeader</text>
</a>
</g>
</g>
<!-- Node10&#45;&gt;Node11 -->
<g id="edge12_Node000010_Node000011" class="edge">
<title>Node10&#45;&gt;Node11</title>
<g id="a_edge12_Node000010_Node000011"><a xlink:title=" ">
<path fill="none" stroke="#63b8ff" d="M696.52,-212C704.98,-212 713.61,-212 722.09,-212"/>
<polygon fill="#63b8ff" stroke="#63b8ff" points="722.01,-215.5 732.01,-212 722.01,-208.5 722.01,-215.5"/>
</a>
</g>
</g>
<!-- Node15 -->
<g id="Node000015" class="node">
<title>Node15</title>
<g id="a_Node000015"><a xlink:href="class_tag_widget.html#afe6c02bb8e709b6568cf05ea344b3ba8" target="_top" xlink:title="Get the current tag name and value.">
<polygon fill="white" stroke="#666666" points="674.12,-96 562.12,-96 562.12,-76 674.12,-76 674.12,-96"/>
<text text-anchor="middle" x="618.12" y="-82.5" font-family="Helvetica,sans-Serif" font-size="10.00">TagWidget::getValues</text>
</a>
</g>
</g>
<!-- Node14&#45;&gt;Node15 -->
<g id="edge18_Node000014_Node000015" class="edge">
<title>Node14&#45;&gt;Node15</title>
<g id="a_edge18_Node000014_Node000015"><a xlink:title=" ">
<path fill="none" stroke="#63b8ff" d="M486.08,-86C506.66,-86 529.63,-86 550.52,-86"/>
<polygon fill="#63b8ff" stroke="#63b8ff" points="550.37,-89.5 560.37,-86 550.37,-82.5 550.37,-89.5"/>
</a>
</g>
</g>
<!-- Node16 -->
<g id="Node000016" class="node">
<title>Node16</title>
<g id="a_Node000016"><a xlink:href="class_meta_data_handler.html#ab83e9b0d8069c1019e5a21b8dafaa2bf" target="_top" xlink:title="Writes metadata to a file.">
<polygon fill="white" stroke="#666666" points="697,-58 539.25,-58 539.25,-38 697,-38 697,-58"/>
<text text-anchor="middle" x="618.12" y="-44.5" font-family="Helvetica,sans-Serif" font-size="10.00">MetaDataHandler::writeMetadata</text>
</a>
</g>
</g>
<!-- Node14&#45;&gt;Node16 -->
<g id="edge19_Node000014_Node000016" class="edge">
<title>Node14&#45;&gt;Node16</title>
<g id="a_edge19_Node000014_Node000016"><a xlink:title=" ">
<path fill="none" stroke="#63b8ff" d="M477.19,-75.52C500.64,-70.91 528.37,-65.45 552.94,-60.62"/>
<polygon fill="#63b8ff" stroke="#63b8ff" points="553.36,-64.11 562.5,-58.74 552.01,-57.24 553.36,-64.11"/>
</a>
</g>
</g>
<!-- Node17 -->
<g id="Node000017" class="node">
<title>Node17</title>
<g id="a_Node000017"><a xlink:href="class_p_n_g_meta.html#a761b0f4eb987ac8a4f1486065ab4ce32" target="_top" xlink:title="Writes a PNG header to a file.">
<polygon fill="white" stroke="#666666" points="869.75,-58 733,-58 733,-38 869.75,-38 869.75,-58"/>
<text text-anchor="middle" x="801.38" y="-44.5" font-family="Helvetica,sans-Serif" font-size="10.00">PNGMeta::writePNGHeader</text>
</a>
</g>
</g>
<!-- Node16&#45;&gt;Node17 -->
<g id="edge20_Node000016_Node000017" class="edge">
<title>Node16&#45;&gt;Node17</title>
<g id="a_edge20_Node000016_Node000017"><a xlink:title=" ">
<path fill="none" stroke="#63b8ff" d="M697.31,-48C705.22,-48 713.27,-48 721.2,-48"/>
<polygon fill="#63b8ff" stroke="#63b8ff" points="721.19,-51.5 731.19,-48 721.19,-44.5 721.19,-51.5"/>
</a>
</g>
</g>
<!-- Node19 -->
<g id="Node000019" class="node">
<title>Node19</title>
<g id="a_Node000019"><a xlink:href="_styles_8cpp.html#af792801f7db80364be5a016d633a1c22" target="_top" xlink:title="Loads a stylesheet from a file and applies it to the application.">
<polygon fill="white" stroke="#666666" points="649,-20 587.25,-20 587.25,0 649,0 649,-20"/>
<text text-anchor="middle" x="618.12" y="-6.5" font-family="Helvetica,sans-Serif" font-size="10.00">loadStyles</text>
</a>
</g>
</g>
<!-- Node18&#45;&gt;Node19 -->
<g id="edge22_Node000018_Node000019" class="edge">
<title>Node18&#45;&gt;Node19</title>
<g id="a_edge22_Node000018_Node000019"><a xlink:title=" ">
<path fill="none" stroke="#63b8ff" d="M495.01,-22.01C522.08,-19.34 552.02,-16.4 575.48,-14.09"/>
<polygon fill="#63b8ff" stroke="#63b8ff" points="575.66,-17.59 585.26,-13.13 574.97,-10.63 575.66,-17.59"/>
</a>
</g>
</g>
</g>
</svg>
