<?xml version="1.0" encoding="UTF-8" standalone="no"?>
<!DOCTYPE svg PUBLIC "-//W3C//DTD SVG 1.1//EN"
 "http://www.w3.org/Graphics/SVG/1.1/DTD/svg11.dtd">
<!-- Generated by graphviz version 10.0.1 (20240210.2158)
 -->
<!-- Title: C:/Users/Muddyblack/Downloads/MetaDataEditorCpp/src/app Pages: 1 -->
<svg width="210pt" height="200pt"
 viewBox="0.00 0.00 210.00 200.00" xmlns="http://www.w3.org/2000/svg" xmlns:xlink="http://www.w3.org/1999/xlink">
<g id="graph0" class="graph" transform="scale(1 1) rotate(0) translate(4 196)">
<title>C:/Users/Muddyblack/Downloads/MetaDataEditorCpp/src/app</title>
<g id="clust1" class="cluster">
<title>clusterdir_68267d1309a1af8e8297ef4c3efbcdba</title>
<g id="a_clust1"><a xlink:href="dir_68267d1309a1af8e8297ef4c3efbcdba.html" target="_top" xlink:title="src">
<polygon fill="#daedff" stroke="#404040" stroke-dasharray="5,2" points="8,-8 8,-184 194,-184 194,-8 8,-8"/>
<text text-anchor="middle" x="101" y="-170.5" font-family="Helvetica,sans-Serif" font-size="10.00">src</text>
</a>
</g>
</g>
<g id="clust2" class="cluster">
<title>clusterdir_5194e5fea318fda12687127c23f8aba1</title>
<g id="a_clust2"><a xlink:href="dir_5194e5fea318fda12687127c23f8aba1.html" target="_top">
<polygon fill="#daedff" stroke="#404040" stroke-width="2" points="16,-64 16,-156 112,-156 112,-64 16,-64"/>
</a>
</g>
</g>
<!-- dir_b3320b59a4aa4a7431bc8488b87009bf -->
<g id="node1" class="node">
<title>dir_b3320b59a4aa4a7431bc8488b87009bf</title>
<g id="a_node1"><a xlink:href="dir_b3320b59a4aa4a7431bc8488b87009bf.html" target="_top" xlink:title="logging">
<polygon fill="#4ea9ff" stroke="#404040" points="166.38,-92 119.62,-92 119.62,-72 166.38,-72 166.38,-92"/>
<text text-anchor="middle" x="143" y="-78.5" font-family="Helvetica,sans-Serif" font-size="10.00">logging</text>
</a>
</g>
</g>
<!-- dir_f7c72baf969baf49c81941e914545c31 -->
<g id="node2" class="node">
<title>dir_f7c72baf969baf49c81941e914545c31</title>
<g id="a_node2"><a xlink:href="dir_f7c72baf969baf49c81941e914545c31.html" target="_top" xlink:title="metadata">
<polygon fill="#4ea9ff" stroke="red" points="146.25,-36 89.75,-36 89.75,-16 146.25,-16 146.25,-36"/>
<text text-anchor="middle" x="118" y="-22.5" font-family="Helvetica,sans-Serif" font-size="10.00">metadata</text>
</a>
</g>
</g>
<!-- dir_5194e5fea318fda12687127c23f8aba1 -->
<g id="node3" class="node">
<title>dir_5194e5fea318fda12687127c23f8aba1</title>
<text text-anchor="middle" x="40" y="-134.5" font-family="Helvetica,sans-Serif" font-size="10.00">app</text>
</g>
<!-- dir_5194e5fea318fda12687127c23f8aba1&#45;&gt;dir_b3320b59a4aa4a7431bc8488b87009bf -->
<g id="edge2" class="edge">
<title>dir_5194e5fea318fda12687127c23f8aba1&#45;&gt;dir_b3320b59a4aa4a7431bc8488b87009bf</title>
<path fill="none" stroke="#63b8ff" d="M55.64,-128.8C71.41,-120.53 96.07,-107.6 115.18,-97.59"/>
<polygon fill="#63b8ff" stroke="#63b8ff" points="116.56,-100.82 123.79,-93.07 113.31,-94.62 116.56,-100.82"/>
<g id="a_edge2&#45;headlabel"><a xlink:href="dir_000000_000003.html" target="_top" xlink:title="2">
<text text-anchor="middle" x="116.03" y="-100.8" font-family="Helvetica,sans-Serif" font-size="10.00" fill="#63b8ff">2</text>
</a>
</g>
</g>
<!-- dir_7c2f2d2d99654f8da238c9d6523cfb31 -->
<g id="node4" class="node">
<title>dir_7c2f2d2d99654f8da238c9d6523cfb31</title>
<g id="a_node4"><a xlink:href="dir_7c2f2d2d99654f8da238c9d6523cfb31.html" target="_top" xlink:title="include">
<polygon fill="#4ea9ff" stroke="#404040" points="101.38,-92 54.62,-92 54.62,-72 101.38,-72 101.38,-92"/>
<text text-anchor="middle" x="78" y="-78.5" font-family="Helvetica,sans-Serif" font-size="10.00">include</text>
</a>
</g>
</g>
<!-- dir_5194e5fea318fda12687127c23f8aba1&#45;&gt;dir_7c2f2d2d99654f8da238c9d6523cfb31 -->
<g id="edge1" class="edge">
<title>dir_5194e5fea318fda12687127c23f8aba1&#45;&gt;dir_7c2f2d2d99654f8da238c9d6523cfb31</title>
<path fill="none" stroke="#63b8ff" d="M46.27,-128.08C51.3,-120.94 58.52,-110.68 64.8,-101.75"/>
<polygon fill="#63b8ff" stroke="#63b8ff" points="67.57,-103.91 70.46,-93.71 61.84,-99.88 67.57,-103.91"/>
<g id="a_edge1&#45;headlabel"><a xlink:href="dir_000000_000001.html" target="_top" xlink:title="12">
<text text-anchor="middle" x="68.69" y="-103.74" font-family="Helvetica,sans-Serif" font-size="10.00" fill="#63b8ff">12</text>
</a>
</g>
</g>
<!-- dir_7c2f2d2d99654f8da238c9d6523cfb31&#45;&gt;dir_f7c72baf969baf49c81941e914545c31 -->
<g id="edge3" class="edge">
<title>dir_7c2f2d2d99654f8da238c9d6523cfb31&#45;&gt;dir_f7c72baf969baf49c81941e914545c31</title>
<path fill="none" stroke="#63b8ff" d="M84.97,-71.59C90.3,-64.39 97.83,-54.23 104.35,-45.43"/>
<polygon fill="#63b8ff" stroke="#63b8ff" points="107.07,-47.63 110.21,-37.51 101.45,-43.47 107.07,-47.63"/>
<g id="a_edge3&#45;headlabel"><a xlink:href="dir_000001_000004.html" target="_top" xlink:title="1">
<text text-anchor="middle" x="108.11" y="-47.5" font-family="Helvetica,sans-Serif" font-size="10.00" fill="#63b8ff">1</text>
</a>
</g>
</g>
<!-- dir_2fc95bd087e09d964df8e9d0b1c0661a -->
<g id="node5" class="node">
<title>dir_2fc95bd087e09d964df8e9d0b1c0661a</title>
<g id="a_node5"><a xlink:href="dir_2fc95bd087e09d964df8e9d0b1c0661a.html" target="_top" xlink:title="src">
<polygon fill="#4ea9ff" stroke="#404040" points="103.75,-148 74.25,-148 74.25,-128 103.75,-128 103.75,-148"/>
<text text-anchor="middle" x="89" y="-134.5" font-family="Helvetica,sans-Serif" font-size="10.00">src</text>
</a>
</g>
</g>
<!-- dir_2fc95bd087e09d964df8e9d0b1c0661a&#45;&gt;dir_b3320b59a4aa4a7431bc8488b87009bf -->
<g id="edge5" class="edge">
<title>dir_2fc95bd087e09d964df8e9d0b1c0661a&#45;&gt;dir_b3320b59a4aa4a7431bc8488b87009bf</title>
<path fill="none" stroke="#63b8ff" d="M98.41,-127.59C105.92,-120.08 116.65,-109.35 125.7,-100.3"/>
<polygon fill="#63b8ff" stroke="#63b8ff" points="128.04,-102.91 132.63,-93.37 123.09,-97.96 128.04,-102.91"/>
<g id="a_edge5&#45;headlabel"><a xlink:href="dir_000006_000003.html" target="_top" xlink:title="1">
<text text-anchor="middle" x="128.57" y="-102.89" font-family="Helvetica,sans-Serif" font-size="10.00" fill="#63b8ff">1</text>
</a>
</g>
</g>
<!-- dir_2fc95bd087e09d964df8e9d0b1c0661a&#45;&gt;dir_f7c72baf969baf49c81941e914545c31 -->
<g id="edge6" class="edge">
<title>dir_2fc95bd087e09d964df8e9d0b1c0661a&#45;&gt;dir_f7c72baf969baf49c81941e914545c31</title>
<path fill="none" stroke="#63b8ff" d="M104.1,-134.08C124.36,-129.26 159.55,-117.52 175,-92 181.44,-81.35 180.94,-74.94 175,-64 170.01,-54.81 161.64,-47.55 152.83,-41.98"/>
<polygon fill="#63b8ff" stroke="#63b8ff" points="154.61,-38.97 144.18,-37.14 151.2,-45.08 154.61,-38.97"/>
<g id="a_edge6&#45;headlabel"><a xlink:href="dir_000006_000004.html" target="_top" xlink:title="1">
<text text-anchor="middle" x="157.82" y="-34" font-family="Helvetica,sans-Serif" font-size="10.00" fill="#63b8ff">1</text>
</a>
</g>
</g>
<!-- dir_2fc95bd087e09d964df8e9d0b1c0661a&#45;&gt;dir_7c2f2d2d99654f8da238c9d6523cfb31 -->
<g id="edge4" class="edge">
<title>dir_2fc95bd087e09d964df8e9d0b1c0661a&#45;&gt;dir_7c2f2d2d99654f8da238c9d6523cfb31</title>
<path fill="none" stroke="#63b8ff" d="M87.08,-127.59C85.73,-120.93 83.86,-111.75 82.16,-103.44"/>
<polygon fill="#63b8ff" stroke="#63b8ff" points="85.62,-102.88 80.2,-93.78 78.76,-104.28 85.62,-102.88"/>
<g id="a_edge4&#45;headlabel"><a xlink:href="dir_000006_000001.html" target="_top" xlink:title="9">
<text text-anchor="middle" x="88.82" y="-100.85" font-family="Helvetica,sans-Serif" font-size="10.00" fill="#63b8ff">9</text>
</a>
</g>
</g>
</g>
</svg>
