<?xml version="1.0" encoding="UTF-8" standalone="no"?>
<!DOCTYPE svg PUBLIC "-//W3C//DTD SVG 1.1//EN"
 "http://www.w3.org/Graphics/SVG/1.1/DTD/svg11.dtd">
<!-- Generated by graphviz version 10.0.1 (20240210.2158)
 -->
<!-- Title: Graphical Class Hierarchy Pages: 1 -->
<svg width="183pt" height="66pt"
 viewBox="0.00 0.00 182.50 66.00" xmlns="http://www.w3.org/2000/svg" xmlns:xlink="http://www.w3.org/1999/xlink">
<g id="graph0" class="graph" transform="scale(1 1) rotate(0) translate(4 62)">
<title>Graphical Class Hierarchy</title>
<!-- Node0 -->
<g id="Node000000" class="node">
<title>Node0</title>
<g id="a_Node000000"><a xlink:title=" ">
<polygon fill="#e0e0e0" stroke="#999999" points="54.25,-39 0,-39 0,-19 54.25,-19 54.25,-39"/>
<text text-anchor="middle" x="27.12" y="-25.5" font-family="Helvetica,sans-Serif" font-size="10.00">QWidget</text>
</a>
</g>
</g>
<!-- Node1 -->
<g id="Node000001" class="node">
<title>Node1</title>
<g id="a_Node000001"><a xlink:href="class_image_editor_g_u_i.html" target="_top" xlink:title=" ">
<polygon fill="white" stroke="#666666" points="174.5,-58 90.25,-58 90.25,-38 174.5,-38 174.5,-58"/>
<text text-anchor="middle" x="132.38" y="-44.5" font-family="Helvetica,sans-Serif" font-size="10.00">ImageEditorGUI</text>
</a>
</g>
</g>
<!-- Node0&#45;&gt;Node1 -->
<g id="edge2_Node000000_Node000001" class="edge">
<title>Node0&#45;&gt;Node1</title>
<g id="a_edge2_Node000000_Node000001"><a xlink:title=" ">
<path fill="none" stroke="#63b8ff" d="M65.82,-35.94C73.7,-37.39 82.04,-38.92 90.04,-40.39"/>
<polygon fill="#63b8ff" stroke="#63b8ff" points="66.67,-32.53 56.2,-34.17 65.4,-39.42 66.67,-32.53"/>
</a>
</g>
</g>
<!-- Node2 -->
<g id="Node000002" class="node">
<title>Node2</title>
<g id="a_Node000002"><a xlink:href="class_tag_widget.html" target="_top" xlink:title="A widget for displaying and editing tags.">
<polygon fill="white" stroke="#666666" points="163.62,-20 101.12,-20 101.12,0 163.62,0 163.62,-20"/>
<text text-anchor="middle" x="132.38" y="-6.5" font-family="Helvetica,sans-Serif" font-size="10.00">TagWidget</text>
</a>
</g>
</g>
<!-- Node0&#45;&gt;Node2 -->
<g id="edge3_Node000000_Node000002" class="edge">
<title>Node0&#45;&gt;Node2</title>
<g id="a_edge3_Node000000_Node000002"><a xlink:title=" ">
<path fill="none" stroke="#63b8ff" d="M65.81,-22.06C77.34,-19.94 89.87,-17.64 100.85,-15.62"/>
<polygon fill="#63b8ff" stroke="#63b8ff" points="65.4,-18.58 56.2,-23.83 66.67,-25.47 65.4,-18.58"/>
</a>
</g>
</g>
</g>
</svg>
