<?xml version="1.0" encoding="UTF-8" standalone="no"?>
<!DOCTYPE svg PUBLIC "-//W3C//DTD SVG 1.1//EN"
 "http://www.w3.org/Graphics/SVG/1.1/DTD/svg11.dtd">
<!-- Generated by graphviz version 10.0.1 (20240210.2158)
 -->
<!-- Title: C:/Users/Muddyblack/Downloads/MetaDataEditorCpp/src/app/main.cpp Pages: 1 -->
<svg width="1404pt" height="220pt"
 viewBox="0.00 0.00 1404.25 220.00" xmlns="http://www.w3.org/2000/svg" xmlns:xlink="http://www.w3.org/1999/xlink">
<g id="graph0" class="graph" transform="scale(1 1) rotate(0) translate(4 216)">
<title>C:/Users/Muddyblack/Downloads/MetaDataEditorCpp/src/app/main.cpp</title>
<!-- Node1 -->
<g id="Node000001" class="node">
<title>Node1</title>
<g id="a_Node000001"><a xlink:title="Entry point for the MetaData Editor application.">
<polygon fill="#999999" stroke="#666666" points="1225.25,-212 1071.25,-212 1071.25,-168 1225.25,-168 1225.25,-212"/>
<text text-anchor="start" x="1079.25" y="-198.5" font-family="Helvetica,sans-Serif" font-size="10.00">C:/Users/Muddyblack</text>
<text text-anchor="start" x="1079.25" y="-186.5" font-family="Helvetica,sans-Serif" font-size="10.00">/Downloads/MetaDataEditorCpp</text>
<text text-anchor="middle" x="1148.25" y="-174.5" font-family="Helvetica,sans-Serif" font-size="10.00">/src/app/main.cpp</text>
</a>
</g>
</g>
<!-- Node2 -->
<g id="Node000002" class="node">
<title>Node2</title>
<g id="a_Node000002"><a xlink:href="_image_editor_g_u_i_8h.html" target="_top" xlink:title="Defines the ImageEditorGUI class for editing files.">
<polygon fill="white" stroke="#666666" points="566.5,-132 474,-132 474,-112 566.5,-112 566.5,-132"/>
<text text-anchor="middle" x="520.25" y="-118.5" font-family="Helvetica,sans-Serif" font-size="10.00">ImageEditorGUI.h</text>
</a>
</g>
</g>
<!-- Node1&#45;&gt;Node2 -->
<g id="edge1_Node000001_Node000002" class="edge">
<title>Node1&#45;&gt;Node2</title>
<g id="a_edge1_Node000001_Node000002"><a xlink:title=" ">
<path fill="none" stroke="#63b8ff" d="M1070.93,-180.87C943.35,-167.47 691.6,-141.01 578.12,-129.08"/>
<polygon fill="#63b8ff" stroke="#63b8ff" points="578.75,-125.63 568.44,-128.06 578.02,-132.59 578.75,-125.63"/>
</a>
</g>
</g>
<!-- Node17 -->
<g id="Node000017" class="node">
<title>Node17</title>
<g id="a_Node000017"><a xlink:href="_styles_8h.html" target="_top" xlink:title="Defines the function for loading and applying a stylesheet to a QApplication.">
<polygon fill="white" stroke="#666666" points="1041.25,-132 989.25,-132 989.25,-112 1041.25,-112 1041.25,-132"/>
<text text-anchor="middle" x="1015.25" y="-118.5" font-family="Helvetica,sans-Serif" font-size="10.00">Styles.h</text>
</a>
</g>
</g>
<!-- Node1&#45;&gt;Node17 -->
<g id="edge17_Node000001_Node000017" class="edge">
<title>Node1&#45;&gt;Node17</title>
<g id="a_edge17_Node000001_Node000017"><a xlink:title=" ">
<path fill="none" stroke="#63b8ff" d="M1105.07,-167.57C1085.22,-157.72 1062.2,-146.3 1044.43,-137.48"/>
<polygon fill="#63b8ff" stroke="#63b8ff" points="1045.99,-134.35 1035.48,-133.04 1042.88,-140.62 1045.99,-134.35"/>
</a>
</g>
</g>
<!-- Node18 -->
<g id="Node000018" class="node">
<title>Node18</title>
<g id="a_Node000018"><a xlink:title=" ">
<polygon fill="#e0e0e0" stroke="#999999" points="1105,-76 1033.5,-76 1033.5,-56 1105,-56 1105,-76"/>
<text text-anchor="middle" x="1069.25" y="-62.5" font-family="Helvetica,sans-Serif" font-size="10.00">QApplication</text>
</a>
</g>
</g>
<!-- Node1&#45;&gt;Node18 -->
<g id="edge20_Node000001_Node000018" class="edge">
<title>Node1&#45;&gt;Node18</title>
<g id="a_edge20_Node000001_Node000018"><a xlink:title=" ">
<path fill="none" stroke="#63b8ff" d="M1119.99,-167.69C1108.72,-157.91 1096.48,-145.49 1088.25,-132 1079.91,-118.32 1075.06,-100.79 1072.36,-87.38"/>
<polygon fill="#63b8ff" stroke="#63b8ff" points="1075.88,-87.18 1070.69,-77.94 1068.98,-88.4 1075.88,-87.18"/>
</a>
</g>
</g>
<!-- Node19 -->
<g id="Node000019" class="node">
<title>Node19</title>
<g id="a_Node000019"><a xlink:title=" ">
<polygon fill="#e0e0e0" stroke="#999999" points="1139,-132 1097.5,-132 1097.5,-112 1139,-112 1139,-132"/>
<text text-anchor="middle" x="1118.25" y="-118.5" font-family="Helvetica,sans-Serif" font-size="10.00">QIcon</text>
</a>
</g>
</g>
<!-- Node1&#45;&gt;Node19 -->
<g id="edge21_Node000001_Node000019" class="edge">
<title>Node1&#45;&gt;Node19</title>
<g id="a_edge21_Node000001_Node000019"><a xlink:title=" ">
<path fill="none" stroke="#63b8ff" d="M1138.59,-167.75C1134.96,-159.75 1130.84,-150.69 1127.26,-142.83"/>
<polygon fill="#63b8ff" stroke="#63b8ff" points="1130.48,-141.45 1123.16,-133.8 1124.11,-144.35 1130.48,-141.45"/>
</a>
</g>
</g>
<!-- Node20 -->
<g id="Node000020" class="node">
<title>Node20</title>
<g id="a_Node000020"><a xlink:title=" ">
<polygon fill="#e0e0e0" stroke="#999999" points="1201.12,-132 1157.38,-132 1157.38,-112 1201.12,-112 1201.12,-132"/>
<text text-anchor="middle" x="1179.25" y="-118.5" font-family="Helvetica,sans-Serif" font-size="10.00">QRect</text>
</a>
</g>
</g>
<!-- Node1&#45;&gt;Node20 -->
<g id="edge22_Node000001_Node000020" class="edge">
<title>Node1&#45;&gt;Node20</title>
<g id="a_edge22_Node000001_Node000020"><a xlink:title=" ">
<path fill="none" stroke="#63b8ff" d="M1158.23,-167.75C1161.99,-159.75 1166.24,-150.69 1169.94,-142.83"/>
<polygon fill="#63b8ff" stroke="#63b8ff" points="1173.1,-144.33 1174.18,-133.79 1166.76,-141.35 1173.1,-144.33"/>
</a>
</g>
</g>
<!-- Node21 -->
<g id="Node000021" class="node">
<title>Node21</title>
<g id="a_Node000021"><a xlink:title=" ">
<polygon fill="#e0e0e0" stroke="#999999" points="1260.38,-76 1200.12,-76 1200.12,-56 1260.38,-56 1260.38,-76"/>
<text text-anchor="middle" x="1230.25" y="-62.5" font-family="Helvetica,sans-Serif" font-size="10.00">filesystem</text>
</a>
</g>
</g>
<!-- Node1&#45;&gt;Node21 -->
<g id="edge23_Node000001_Node000021" class="edge">
<title>Node1&#45;&gt;Node21</title>
<g id="a_edge23_Node000001_Node000021"><a xlink:title=" ">
<path fill="none" stroke="#63b8ff" d="M1177.69,-167.53C1189.24,-157.81 1201.74,-145.48 1210.25,-132 1218.84,-118.39 1223.95,-100.85 1226.85,-87.42"/>
<polygon fill="#63b8ff" stroke="#63b8ff" points="1230.22,-88.44 1228.65,-77.96 1223.35,-87.13 1230.22,-88.44"/>
</a>
</g>
</g>
<!-- Node22 -->
<g id="Node000022" class="node">
<title>Node22</title>
<g id="a_Node000022"><a xlink:href="_app_constants_8h.html" target="_top" xlink:title="Defines constants used throughout the application.">
<polygon fill="white" stroke="#666666" points="971.12,-132 885.38,-132 885.38,-112 971.12,-112 971.12,-132"/>
<text text-anchor="middle" x="928.25" y="-118.5" font-family="Helvetica,sans-Serif" font-size="10.00">AppConstants.h</text>
</a>
</g>
</g>
<!-- Node1&#45;&gt;Node22 -->
<g id="edge24_Node000001_Node000022" class="edge">
<title>Node1&#45;&gt;Node22</title>
<g id="a_edge24_Node000001_Node000022"><a xlink:title=" ">
<path fill="none" stroke="#63b8ff" d="M1076.82,-167.57C1041.78,-157.06 1000.75,-144.75 970.7,-135.74"/>
<polygon fill="#63b8ff" stroke="#63b8ff" points="971.79,-132.41 961.21,-132.89 969.78,-139.11 971.79,-132.41"/>
</a>
</g>
</g>
<!-- Node23 -->
<g id="Node000023" class="node">
<title>Node23</title>
<g id="a_Node000023"><a xlink:title=" ">
<polygon fill="#e0e0e0" stroke="#999999" points="1336,-76 1282.5,-76 1282.5,-56 1336,-56 1336,-76"/>
<text text-anchor="middle" x="1309.25" y="-62.5" font-family="Helvetica,sans-Serif" font-size="10.00">iostream</text>
</a>
</g>
</g>
<!-- Node1&#45;&gt;Node23 -->
<g id="edge26_Node000001_Node000023" class="edge">
<title>Node1&#45;&gt;Node23</title>
<g id="a_edge26_Node000001_Node000023"><a xlink:title=" ">
<path fill="none" stroke="#63b8ff" d="M1179.77,-167.57C1194.91,-157.09 1213.21,-144.14 1229.25,-132 1250.36,-116.02 1273.8,-96.8 1289.81,-83.42"/>
<polygon fill="#63b8ff" stroke="#63b8ff" points="1291.74,-86.37 1297.15,-77.26 1287.24,-81.01 1291.74,-86.37"/>
</a>
</g>
</g>
<!-- Node24 -->
<g id="Node000024" class="node">
<title>Node24</title>
<g id="a_Node000024"><a xlink:title=" ">
<polygon fill="#e0e0e0" stroke="#999999" points="1396.25,-76 1356.25,-76 1356.25,-56 1396.25,-56 1396.25,-76"/>
<text text-anchor="middle" x="1376.25" y="-62.5" font-family="Helvetica,sans-Serif" font-size="10.00">string</text>
</a>
</g>
</g>
<!-- Node1&#45;&gt;Node24 -->
<g id="edge27_Node000001_Node000024" class="edge">
<title>Node1&#45;&gt;Node24</title>
<g id="a_edge27_Node000001_Node000024"><a xlink:title=" ">
<path fill="none" stroke="#63b8ff" d="M1225.74,-186.31C1270.03,-180.74 1323.5,-166.57 1358.25,-132 1369.93,-120.37 1374.21,-101.88 1375.69,-87.59"/>
<polygon fill="#63b8ff" stroke="#63b8ff" points="1379.17,-88.1 1376.3,-77.9 1372.18,-87.66 1379.17,-88.1"/>
</a>
</g>
</g>
<!-- Node25 -->
<g id="Node000025" class="node">
<title>Node25</title>
<g id="a_Node000025"><a xlink:href="_logger_8h.html" target="_top" xlink:title="Defines the Logger class and convenience functions for logging.">
<polygon fill="white" stroke="#666666" points="1349,-132 1295.5,-132 1295.5,-112 1349,-112 1349,-132"/>
<text text-anchor="middle" x="1322.25" y="-118.5" font-family="Helvetica,sans-Serif" font-size="10.00">Logger.h</text>
</a>
</g>
</g>
<!-- Node1&#45;&gt;Node25 -->
<g id="edge28_Node000001_Node000025" class="edge">
<title>Node1&#45;&gt;Node25</title>
<g id="a_edge28_Node000001_Node000025"><a xlink:title=" ">
<path fill="none" stroke="#63b8ff" d="M1204.74,-167.57C1231.81,-157.3 1263.4,-145.32 1287,-136.37"/>
<polygon fill="#63b8ff" stroke="#63b8ff" points="1288.04,-139.72 1296.14,-132.9 1285.55,-133.18 1288.04,-139.72"/>
</a>
</g>
</g>
<!-- Node3 -->
<g id="Node000003" class="node">
<title>Node3</title>
<g id="a_Node000003"><a xlink:title=" ">
<polygon fill="#e0e0e0" stroke="#999999" points="226.62,-76 179.88,-76 179.88,-56 226.62,-56 226.62,-76"/>
<text text-anchor="middle" x="203.25" y="-62.5" font-family="Helvetica,sans-Serif" font-size="10.00">QLabel</text>
</a>
</g>
</g>
<!-- Node2&#45;&gt;Node3 -->
<g id="edge2_Node000002_Node000003" class="edge">
<title>Node2&#45;&gt;Node3</title>
<g id="a_edge2_Node000002_Node000003"><a xlink:title=" ">
<path fill="none" stroke="#63b8ff" d="M473.53,-115.34C419.09,-108.36 326.25,-95.3 237.96,-76.39"/>
<polygon fill="#63b8ff" stroke="#63b8ff" points="238.93,-73.02 228.42,-74.32 237.44,-79.86 238.93,-73.02"/>
</a>
</g>
</g>
<!-- Node4 -->
<g id="Node000004" class="node">
<title>Node4</title>
<g id="a_Node000004"><a xlink:title=" ">
<polygon fill="#e0e0e0" stroke="#999999" points="322,-76 244.5,-76 244.5,-56 322,-56 322,-76"/>
<text text-anchor="middle" x="283.25" y="-62.5" font-family="Helvetica,sans-Serif" font-size="10.00">QMediaPlayer</text>
</a>
</g>
</g>
<!-- Node2&#45;&gt;Node4 -->
<g id="edge3_Node000002_Node000004" class="edge">
<title>Node2&#45;&gt;Node4</title>
<g id="a_edge3_Node000002_Node000004"><a xlink:title=" ">
<path fill="none" stroke="#63b8ff" d="M478.7,-111.53C438.24,-102.31 376.69,-88.29 333.5,-78.45"/>
<polygon fill="#63b8ff" stroke="#63b8ff" points="334.4,-75.06 323.87,-76.25 332.84,-81.89 334.4,-75.06"/>
</a>
</g>
</g>
<!-- Node5 -->
<g id="Node000005" class="node">
<title>Node5</title>
<g id="a_Node000005"><a xlink:title=" ">
<polygon fill="#e0e0e0" stroke="#999999" points="74.5,-76 0,-76 0,-56 74.5,-56 74.5,-76"/>
<text text-anchor="middle" x="37.25" y="-62.5" font-family="Helvetica,sans-Serif" font-size="10.00">QPushButton</text>
</a>
</g>
</g>
<!-- Node2&#45;&gt;Node5 -->
<g id="edge4_Node000002_Node000005" class="edge">
<title>Node2&#45;&gt;Node5</title>
<g id="a_edge4_Node000002_Node000005"><a xlink:title=" ">
<path fill="none" stroke="#63b8ff" d="M473.63,-117.52C395.63,-111.4 233.58,-97.46 85.96,-76.12"/>
<polygon fill="#63b8ff" stroke="#63b8ff" points="86.81,-72.71 76.41,-74.73 85.8,-79.64 86.81,-72.71"/>
</a>
</g>
</g>
<!-- Node6 -->
<g id="Node000006" class="node">
<title>Node6</title>
<g id="a_Node000006"><a xlink:title=" ">
<polygon fill="#e0e0e0" stroke="#999999" points="161.5,-76 93,-76 93,-56 161.5,-56 161.5,-76"/>
<text text-anchor="middle" x="127.25" y="-62.5" font-family="Helvetica,sans-Serif" font-size="10.00">QScrollArea</text>
</a>
</g>
</g>
<!-- Node2&#45;&gt;Node6 -->
<g id="edge5_Node000002_Node000006" class="edge">
<title>Node2&#45;&gt;Node6</title>
<g id="a_edge5_Node000002_Node000006"><a xlink:title=" ">
<path fill="none" stroke="#63b8ff" d="M473.52,-116.08C408.57,-109 287.12,-94.88 173.15,-76.2"/>
<polygon fill="#63b8ff" stroke="#63b8ff" points="173.72,-72.74 163.29,-74.56 172.58,-79.65 173.72,-72.74"/>
</a>
</g>
</g>
<!-- Node7 -->
<g id="Node000007" class="node">
<title>Node7</title>
<g id="a_Node000007"><a xlink:title=" ">
<polygon fill="#e0e0e0" stroke="#999999" points="972.75,-20 923.75,-20 923.75,0 972.75,0 972.75,-20"/>
<text text-anchor="middle" x="948.25" y="-6.5" font-family="Helvetica,sans-Serif" font-size="10.00">QString</text>
</a>
</g>
</g>
<!-- Node2&#45;&gt;Node7 -->
<g id="edge6_Node000002_Node000007" class="edge">
<title>Node2&#45;&gt;Node7</title>
<g id="a_edge6_Node000002_Node000007"><a xlink:title=" ">
<path fill="none" stroke="#63b8ff" d="M566.84,-120.67C657.5,-119.21 853.62,-111.88 909.25,-76 925.31,-65.64 935.7,-46.13 941.68,-31.17"/>
<polygon fill="#63b8ff" stroke="#63b8ff" points="944.94,-32.44 945.05,-21.84 938.36,-30.06 944.94,-32.44"/>
</a>
</g>
</g>
<!-- Node8 -->
<g id="Node000008" class="node">
<title>Node8</title>
<g id="a_Node000008"><a xlink:title=" ">
<polygon fill="#e0e0e0" stroke="#999999" points="510.62,-76 433.88,-76 433.88,-56 510.62,-56 510.62,-76"/>
<text text-anchor="middle" x="472.25" y="-62.5" font-family="Helvetica,sans-Serif" font-size="10.00">QVBoxLayout</text>
</a>
</g>
</g>
<!-- Node2&#45;&gt;Node8 -->
<g id="edge7_Node000002_Node000008" class="edge">
<title>Node2&#45;&gt;Node8</title>
<g id="a_edge7_Node000002_Node000008"><a xlink:title=" ">
<path fill="none" stroke="#63b8ff" d="M511.89,-111.59C505.35,-104.24 496.07,-93.8 488.13,-84.87"/>
<polygon fill="#63b8ff" stroke="#63b8ff" points="490.78,-82.58 481.52,-77.43 485.55,-87.23 490.78,-82.58"/>
</a>
</g>
</g>
<!-- Node9 -->
<g id="Node000009" class="node">
<title>Node9</title>
<g id="a_Node000009"><a xlink:title=" ">
<polygon fill="#e0e0e0" stroke="#999999" points="607.75,-76 528.75,-76 528.75,-56 607.75,-56 607.75,-76"/>
<text text-anchor="middle" x="568.25" y="-62.5" font-family="Helvetica,sans-Serif" font-size="10.00">QVideoWidget</text>
</a>
</g>
</g>
<!-- Node2&#45;&gt;Node9 -->
<g id="edge8_Node000002_Node000009" class="edge">
<title>Node2&#45;&gt;Node9</title>
<g id="a_edge8_Node000002_Node000009"><a xlink:title=" ">
<path fill="none" stroke="#63b8ff" d="M528.61,-111.59C535.15,-104.24 544.43,-93.8 552.37,-84.87"/>
<polygon fill="#63b8ff" stroke="#63b8ff" points="554.95,-87.23 558.98,-77.43 549.72,-82.58 554.95,-87.23"/>
</a>
</g>
</g>
<!-- Node10 -->
<g id="Node000010" class="node">
<title>Node10</title>
<g id="a_Node000010"><a xlink:title=" ">
<polygon fill="#e0e0e0" stroke="#999999" points="680.38,-76 626.12,-76 626.12,-56 680.38,-56 680.38,-76"/>
<text text-anchor="middle" x="653.25" y="-62.5" font-family="Helvetica,sans-Serif" font-size="10.00">QWidget</text>
</a>
</g>
</g>
<!-- Node2&#45;&gt;Node10 -->
<g id="edge9_Node000002_Node000010" class="edge">
<title>Node2&#45;&gt;Node10</title>
<g id="a_edge9_Node000002_Node000010"><a xlink:title=" ">
<path fill="none" stroke="#63b8ff" d="M543.42,-111.59C564.46,-103.05 595.75,-90.35 619.55,-80.68"/>
<polygon fill="#63b8ff" stroke="#63b8ff" points="620.55,-84.05 628.5,-77.05 617.92,-77.57 620.55,-84.05"/>
</a>
</g>
</g>
<!-- Node11 -->
<g id="Node000011" class="node">
<title>Node11</title>
<g id="a_Node000011"><a xlink:href="_meta_data_handler_8h.html" target="_top" xlink:title="Handles reading and writing metadata.">
<polygon fill="white" stroke="#666666" points="797.88,-76 698.62,-76 698.62,-56 797.88,-56 797.88,-76"/>
<text text-anchor="middle" x="748.25" y="-62.5" font-family="Helvetica,sans-Serif" font-size="10.00">MetaDataHandler.h</text>
</a>
</g>
</g>
<!-- Node2&#45;&gt;Node11 -->
<g id="edge10_Node000002_Node000011" class="edge">
<title>Node2&#45;&gt;Node11</title>
<g id="a_edge10_Node000002_Node000011"><a xlink:title=" ">
<path fill="none" stroke="#63b8ff" d="M560.23,-111.53C598.36,-102.5 655.97,-88.85 697.37,-79.05"/>
<polygon fill="#63b8ff" stroke="#63b8ff" points="697.92,-82.52 706.85,-76.81 696.31,-75.7 697.92,-82.52"/>
</a>
</g>
</g>
<!-- Node14 -->
<g id="Node000014" class="node">
<title>Node14</title>
<g id="a_Node000014"><a xlink:href="_tag_text_edit_8h.html" target="_top" xlink:title="Defines the TagTextEdit class for handling key press events.">
<polygon fill="white" stroke="#666666" points="416.25,-76 340.25,-76 340.25,-56 416.25,-56 416.25,-76"/>
<text text-anchor="middle" x="378.25" y="-62.5" font-family="Helvetica,sans-Serif" font-size="10.00">TagTextEdit.h</text>
</a>
</g>
</g>
<!-- Node2&#45;&gt;Node14 -->
<g id="edge14_Node000002_Node000014" class="edge">
<title>Node2&#45;&gt;Node14</title>
<g id="a_edge14_Node000002_Node000014"><a xlink:title=" ">
<path fill="none" stroke="#63b8ff" d="M495.52,-111.59C472.95,-103.01 439.34,-90.23 413.88,-80.55"/>
<polygon fill="#63b8ff" stroke="#63b8ff" points="415.18,-77.3 404.59,-77.02 412.7,-83.84 415.18,-77.3"/>
</a>
</g>
</g>
<!-- Node16 -->
<g id="Node000016" class="node">
<title>Node16</title>
<g id="a_Node000016"><a xlink:title=" ">
<polygon fill="#e0e0e0" stroke="#999999" points="900.75,-76 815.75,-76 815.75,-56 900.75,-56 900.75,-76"/>
<text text-anchor="middle" x="858.25" y="-62.5" font-family="Helvetica,sans-Serif" font-size="10.00">QTemporaryFile</text>
</a>
</g>
</g>
<!-- Node2&#45;&gt;Node16 -->
<g id="edge16_Node000002_Node000016" class="edge">
<title>Node2&#45;&gt;Node16</title>
<g id="a_edge16_Node000002_Node000016"><a xlink:title=" ">
<path fill="none" stroke="#63b8ff" d="M566.52,-114.02C621.01,-105.75 714.56,-91.34 804.21,-76.48"/>
<polygon fill="#63b8ff" stroke="#63b8ff" points="804.62,-79.96 813.91,-74.87 803.48,-73.06 804.62,-79.96"/>
</a>
</g>
</g>
<!-- Node11&#45;&gt;Node7 -->
<g id="edge12_Node000011_Node000007" class="edge">
<title>Node11&#45;&gt;Node7</title>
<g id="a_edge12_Node000011_Node000007"><a xlink:title=" ">
<path fill="none" stroke="#63b8ff" d="M783.09,-55.59C819.4,-45.79 876.01,-30.51 912.61,-20.62"/>
<polygon fill="#63b8ff" stroke="#63b8ff" points="913.08,-24.12 921.83,-18.13 911.26,-17.36 913.08,-24.12"/>
</a>
</g>
</g>
<!-- Node12 -->
<g id="Node000012" class="node">
<title>Node12</title>
<g id="a_Node000012"><a xlink:title=" ">
<polygon fill="#e0e0e0" stroke="#999999" points="801.38,-20 759.12,-20 759.12,0 801.38,0 801.38,-20"/>
<text text-anchor="middle" x="780.25" y="-6.5" font-family="Helvetica,sans-Serif" font-size="10.00">QMap</text>
</a>
</g>
</g>
<!-- Node11&#45;&gt;Node12 -->
<g id="edge11_Node000011_Node000012" class="edge">
<title>Node11&#45;&gt;Node12</title>
<g id="a_edge11_Node000011_Node000012"><a xlink:title=" ">
<path fill="none" stroke="#63b8ff" d="M753.82,-55.59C758,-48.55 763.85,-38.67 768.99,-30"/>
<polygon fill="#63b8ff" stroke="#63b8ff" points="771.88,-31.99 773.97,-21.6 765.86,-28.42 771.88,-31.99"/>
</a>
</g>
</g>
<!-- Node13 -->
<g id="Node000013" class="node">
<title>Node13</title>
<g id="a_Node000013"><a xlink:title=" ">
<polygon fill="#e0e0e0" stroke="#999999" points="741.12,-20 691.38,-20 691.38,0 741.12,0 741.12,-20"/>
<text text-anchor="middle" x="716.25" y="-6.5" font-family="Helvetica,sans-Serif" font-size="10.00">QImage</text>
</a>
</g>
</g>
<!-- Node11&#45;&gt;Node13 -->
<g id="edge13_Node000011_Node000013" class="edge">
<title>Node11&#45;&gt;Node13</title>
<g id="a_edge13_Node000011_Node000013"><a xlink:title=" ">
<path fill="none" stroke="#63b8ff" d="M742.68,-55.59C738.5,-48.55 732.65,-38.67 727.51,-30"/>
<polygon fill="#63b8ff" stroke="#63b8ff" points="730.64,-28.42 722.53,-21.6 724.62,-31.99 730.64,-28.42"/>
</a>
</g>
</g>
<!-- Node15 -->
<g id="Node000015" class="node">
<title>Node15</title>
<g id="a_Node000015"><a xlink:title=" ">
<polygon fill="#e0e0e0" stroke="#999999" points="408,-20 348.5,-20 348.5,0 408,0 408,-20"/>
<text text-anchor="middle" x="378.25" y="-6.5" font-family="Helvetica,sans-Serif" font-size="10.00">QTextEdit</text>
</a>
</g>
</g>
<!-- Node14&#45;&gt;Node15 -->
<g id="edge15_Node000014_Node000015" class="edge">
<title>Node14&#45;&gt;Node15</title>
<g id="a_edge15_Node000014_Node000015"><a xlink:title=" ">
<path fill="none" stroke="#63b8ff" d="M378.25,-55.59C378.25,-49.01 378.25,-39.96 378.25,-31.73"/>
<polygon fill="#63b8ff" stroke="#63b8ff" points="381.75,-31.81 378.25,-21.81 374.75,-31.81 381.75,-31.81"/>
</a>
</g>
</g>
<!-- Node17&#45;&gt;Node7 -->
<g id="edge19_Node000017_Node000007" class="edge">
<title>Node17&#45;&gt;Node7</title>
<g id="a_edge19_Node000017_Node000007"><a xlink:title=" ">
<path fill="none" stroke="#63b8ff" d="M1009.54,-111.62C998.56,-93.6 974.33,-53.81 959.84,-30.02"/>
<polygon fill="#63b8ff" stroke="#63b8ff" points="962.93,-28.37 954.74,-21.65 956.95,-32.01 962.93,-28.37"/>
</a>
</g>
</g>
<!-- Node17&#45;&gt;Node18 -->
<g id="edge18_Node000017_Node000018" class="edge">
<title>Node17&#45;&gt;Node18</title>
<g id="a_edge18_Node000017_Node000018"><a xlink:title=" ">
<path fill="none" stroke="#63b8ff" d="M1024.66,-111.59C1032.17,-104.08 1042.9,-93.35 1051.95,-84.3"/>
<polygon fill="#63b8ff" stroke="#63b8ff" points="1054.29,-86.91 1058.88,-77.37 1049.34,-81.96 1054.29,-86.91"/>
</a>
</g>
</g>
<!-- Node22&#45;&gt;Node7 -->
<g id="edge25_Node000022_Node000007" class="edge">
<title>Node22&#45;&gt;Node7</title>
<g id="a_edge25_Node000022_Node000007"><a xlink:title=" ">
<path fill="none" stroke="#63b8ff" d="M932.16,-111.53C935.69,-102.55 940.71,-88.59 943.25,-76 946.21,-61.36 947.44,-44.53 947.95,-31.67"/>
<polygon fill="#63b8ff" stroke="#63b8ff" points="951.44,-31.96 948.21,-21.87 944.44,-31.77 951.44,-31.96"/>
</a>
</g>
</g>
<!-- Node25&#45;&gt;Node21 -->
<g id="edge30_Node000025_Node000021" class="edge">
<title>Node25&#45;&gt;Node21</title>
<g id="a_edge30_Node000025_Node000021"><a xlink:title=" ">
<path fill="none" stroke="#63b8ff" d="M1306.22,-111.59C1292.46,-103.51 1272.35,-91.71 1256.27,-82.27"/>
<polygon fill="#63b8ff" stroke="#63b8ff" points="1258.1,-79.29 1247.71,-77.25 1254.56,-85.33 1258.1,-79.29"/>
</a>
</g>
</g>
<!-- Node25&#45;&gt;Node23 -->
<g id="edge31_Node000025_Node000023" class="edge">
<title>Node25&#45;&gt;Node23</title>
<g id="a_edge31_Node000025_Node000023"><a xlink:title=" ">
<path fill="none" stroke="#63b8ff" d="M1319.99,-111.59C1318.38,-104.93 1316.17,-95.75 1314.17,-87.44"/>
<polygon fill="#63b8ff" stroke="#63b8ff" points="1317.59,-86.67 1311.84,-77.77 1310.78,-88.31 1317.59,-86.67"/>
</a>
</g>
</g>
<!-- Node25&#45;&gt;Node24 -->
<g id="edge29_Node000025_Node000024" class="edge">
<title>Node25&#45;&gt;Node24</title>
<g id="a_edge29_Node000025_Node000024"><a xlink:title=" ">
<path fill="none" stroke="#63b8ff" d="M1331.66,-111.59C1339.17,-104.08 1349.9,-93.35 1358.95,-84.3"/>
<polygon fill="#63b8ff" stroke="#63b8ff" points="1361.29,-86.91 1365.88,-77.37 1356.34,-81.96 1361.29,-86.91"/>
</a>
</g>
</g>
</g>
</svg>
