<?xml version="1.0" encoding="UTF-8" standalone="no"?>
<!DOCTYPE svg PUBLIC "-//W3C//DTD SVG 1.1//EN"
 "http://www.w3.org/Graphics/SVG/1.1/DTD/svg11.dtd">
<!-- Generated by graphviz version 10.0.1 (20240210.2158)
 -->
<!-- Title: MetaDataHandler::PNGChunk Pages: 1 -->
<svg width="147pt" height="172pt"
 viewBox="0.00 0.00 147.00 172.00" xmlns="http://www.w3.org/2000/svg" xmlns:xlink="http://www.w3.org/1999/xlink">

<svg id="main" version="1.1" xmlns="http://www.w3.org/2000/svg" xmlns:xlink="http://www.w3.org/1999/xlink" xml:space="preserve" onload="init(evt)">
<style type="text/css"><![CDATA[
.node, .edge {opacity: 0.7;}
.node.selected, .edge.selected {opacity: 1;}
.edge:hover path { stroke: red; }
.edge:hover polygon { stroke: red; fill: red; }
]]></style>
<script type="application/ecmascript" xlink:href="svg.min.js"/>
<svg id="graph" class="graph">
<g id="graph0" class="graph" transform="scale(1 1) rotate(0) translate(4 168)">
<title>MetaDataHandler::PNGChunk</title>
<!-- Node1 -->
<g id="Node000001" class="node">
<title>Node1</title>
<g id="a_Node000001"><a xlink:title="Represents a chunk of a PNG file.">
<polygon fill="#999999" stroke="none" points="139,-52 0,-52 0,0 139,0 139,-52"/>
<text text-anchor="start" x="4.62" y="-38.5" font-family="Helvetica,sans-Serif" font-size="10.00">MetaDataHandler::PNGChunk</text>
<text text-anchor="start" x="68" y="-22.5" font-family="Helvetica,sans-Serif" font-size="10.00"> </text>
<text text-anchor="start" x="68" y="-6.5" font-family="Helvetica,sans-Serif" font-size="10.00"> </text>
<polygon fill="#666666" stroke="#666666" points="0,-34 0,-34 139,-34 139,-34 0,-34"/>
<polygon fill="#666666" stroke="#666666" points="0,-18 0,-18 139,-18 139,-18 0,-18"/>
<polygon fill="none" stroke="#666666" points="0,0 0,-52 139,-52 139,0 0,0"/>
</a>
</g>
</g>
<!-- Node2 -->
<g id="Node000002" class="node">
<title>Node2</title>
<g id="a_Node000002"><a xlink:title=" ">
<polygon fill="white" stroke="none" points="61.5,-164 17.5,-164 17.5,-112 61.5,-112 61.5,-164"/>
<text text-anchor="start" x="22.25" y="-150.5" font-family="Helvetica,sans-Serif" font-size="10.00">uint32_t</text>
<text text-anchor="start" x="38" y="-134.5" font-family="Helvetica,sans-Serif" font-size="10.00"> </text>
<text text-anchor="start" x="38" y="-118.5" font-family="Helvetica,sans-Serif" font-size="10.00"> </text>
<polygon fill="#666666" stroke="#666666" points="17.5,-146 17.5,-146 61.5,-146 61.5,-146 17.5,-146"/>
<polygon fill="#666666" stroke="#666666" points="17.5,-130 17.5,-130 61.5,-130 61.5,-130 17.5,-130"/>
<polygon fill="none" stroke="#666666" points="17.5,-112 17.5,-164 61.5,-164 61.5,-112 17.5,-112"/>
</a>
</g>
</g>
<!-- Node2&#45;&gt;Node1 -->
<g id="edge1_Node000001_Node000002" class="edge">
<title>Node2&#45;&gt;Node1</title>
<g id="a_edge1_Node000001_Node000002"><a xlink:title=" ">
<path fill="none" stroke="#63b8ff" d="M39.13,-112.02C39.57,-99.2 41.08,-83.5 45.25,-70 45.94,-67.76 46.76,-65.51 47.67,-63.28"/>
<polygon fill="none" stroke="#63b8ff" points="47.67,-63.29 46.65,-56.15 52.85,-52.46 53.87,-59.6 47.67,-63.29"/>
</a>
</g>
<text text-anchor="middle" x="60.62" y="-84.5" font-family="Helvetica,sans-Serif" font-size="10.00" fill="grey"> +crc</text>
<text text-anchor="middle" x="60.62" y="-72.5" font-family="Helvetica,sans-Serif" font-size="10.00" fill="grey">+length</text>
</g>
<!-- Node3 -->
<g id="Node000003" class="node">
<title>Node3</title>
<g id="a_Node000003"><a xlink:title=" ">
<polygon fill="white" stroke="none" points="119,-164 80,-164 80,-112 119,-112 119,-164"/>
<text text-anchor="start" x="84.88" y="-150.5" font-family="Helvetica,sans-Serif" font-size="10.00">uint8_t</text>
<text text-anchor="start" x="98" y="-134.5" font-family="Helvetica,sans-Serif" font-size="10.00"> </text>
<text text-anchor="start" x="98" y="-118.5" font-family="Helvetica,sans-Serif" font-size="10.00"> </text>
<polygon fill="#666666" stroke="#666666" points="80,-146 80,-146 119,-146 119,-146 80,-146"/>
<polygon fill="#666666" stroke="#666666" points="80,-130 80,-130 119,-130 119,-130 80,-130"/>
<polygon fill="none" stroke="#666666" points="80,-112 80,-164 119,-164 119,-112 80,-112"/>
</a>
</g>
</g>
<!-- Node3&#45;&gt;Node1 -->
<g id="edge2_Node000001_Node000003" class="edge">
<title>Node3&#45;&gt;Node1</title>
<g id="a_edge2_Node000001_Node000003"><a xlink:title=" ">
<path fill="none" stroke="#63b8ff" d="M92.69,-112.04C88.86,-97.98 83.99,-80.13 79.71,-64.42"/>
<polygon fill="none" stroke="#63b8ff" points="79.68,-64.31 74.24,-59.57 76.52,-52.73 81.96,-57.47 79.68,-64.31"/>
</a>
</g>
<text text-anchor="middle" x="100.38" y="-84.5" font-family="Helvetica,sans-Serif" font-size="10.00" fill="grey"> +data</text>
<text text-anchor="middle" x="100.38" y="-72.5" font-family="Helvetica,sans-Serif" font-size="10.00" fill="grey">+type</text>
</g>
</g>
</svg>
</svg>

<style type='text/css'>
<![CDATA[
[data-mouse-over-selected='false'] { opacity: 0.7; }
[data-mouse-over-selected='true']  { opacity: 1.0; }
]]>
</style>
<script type="application/ecmascript"><![CDATA[
document.addEventListener('DOMContentLoaded', (event) => {
  highlightEdges();
  highlightAdjacentNodes();
});
]]></script>
</svg>
