<?xml version="1.0" encoding="UTF-8" standalone="no"?>
<!DOCTYPE svg PUBLIC "-//W3C//DTD SVG 1.1//EN"
 "http://www.w3.org/Graphics/SVG/1.1/DTD/svg11.dtd">
<!-- Generated by graphviz version 10.0.1 (20240210.2158)
 -->
<!-- Title: MetaDataHandler::PNGHeader Pages: 1 -->
<svg width="176pt" height="220pt"
 viewBox="0.00 0.00 175.75 220.00" xmlns="http://www.w3.org/2000/svg" xmlns:xlink="http://www.w3.org/1999/xlink">

<svg id="main" version="1.1" xmlns="http://www.w3.org/2000/svg" xmlns:xlink="http://www.w3.org/1999/xlink" xml:space="preserve" onload="init(evt)">
<style type="text/css"><![CDATA[
.node, .edge {opacity: 0.7;}
.node.selected, .edge.selected {opacity: 1;}
.edge:hover path { stroke: red; }
.edge:hover polygon { stroke: red; fill: red; }
]]></style>
<script type="application/ecmascript" xlink:href="svg.min.js"/>
<svg id="graph" class="graph">
<g id="graph0" class="graph" transform="scale(1 1) rotate(0) translate(4 216)">
<title>MetaDataHandler::PNGHeader</title>
<!-- Node1 -->
<g id="Node000001" class="node">
<title>Node1</title>
<g id="a_Node000001"><a xlink:title="Represents the header of a PNG file.">
<polygon fill="#999999" stroke="none" points="148.5,-52 6.5,-52 6.5,0 148.5,0 148.5,-52"/>
<text text-anchor="start" x="11.12" y="-38.5" font-family="Helvetica,sans-Serif" font-size="10.00">MetaDataHandler::PNGHeader</text>
<text text-anchor="start" x="76" y="-22.5" font-family="Helvetica,sans-Serif" font-size="10.00"> </text>
<text text-anchor="start" x="76" y="-6.5" font-family="Helvetica,sans-Serif" font-size="10.00"> </text>
<polygon fill="#666666" stroke="#666666" points="6.5,-34 6.5,-34 148.5,-34 148.5,-34 6.5,-34"/>
<polygon fill="#666666" stroke="#666666" points="6.5,-18 6.5,-18 148.5,-18 148.5,-18 6.5,-18"/>
<polygon fill="none" stroke="#666666" points="6.5,0 6.5,-52 148.5,-52 148.5,0 6.5,0"/>
</a>
</g>
</g>
<!-- Node2 -->
<g id="Node000002" class="node">
<title>Node2</title>
<g id="a_Node000002"><a xlink:title=" ">
<polygon fill="white" stroke="none" points="39,-212 0,-212 0,-160 39,-160 39,-212"/>
<text text-anchor="start" x="4.88" y="-198.5" font-family="Helvetica,sans-Serif" font-size="10.00">uint8_t</text>
<text text-anchor="start" x="18" y="-182.5" font-family="Helvetica,sans-Serif" font-size="10.00"> </text>
<text text-anchor="start" x="18" y="-166.5" font-family="Helvetica,sans-Serif" font-size="10.00"> </text>
<polygon fill="#666666" stroke="#666666" points="0,-194 0,-194 39,-194 39,-194 0,-194"/>
<polygon fill="#666666" stroke="#666666" points="0,-178 0,-178 39,-178 39,-178 0,-178"/>
<polygon fill="none" stroke="#666666" points="0,-160 0,-212 39,-212 39,-160 0,-160"/>
</a>
</g>
</g>
<!-- Node2&#45;&gt;Node1 -->
<g id="edge1_Node000001_Node000002" class="edge">
<title>Node2&#45;&gt;Node1</title>
<g id="a_edge1_Node000001_Node000002"><a xlink:title=" ">
<path fill="none" stroke="#63b8ff" d="M13.75,-160.19C9.44,-135.85 6.47,-98.35 20.75,-70 22.31,-66.9 24.22,-63.96 26.36,-61.19"/>
<polygon fill="none" stroke="#63b8ff" points="26.26,-61.3 27.43,-54.18 34.45,-52.52 33.28,-59.64 26.26,-61.3"/>
</a>
</g>
<text text-anchor="middle" x="68.38" y="-132.5" font-family="Helvetica,sans-Serif" font-size="10.00" fill="grey"> +bitDepth</text>
<text text-anchor="middle" x="68.38" y="-120.5" font-family="Helvetica,sans-Serif" font-size="10.00" fill="grey">+colorType</text>
<text text-anchor="middle" x="68.38" y="-108.5" font-family="Helvetica,sans-Serif" font-size="10.00" fill="grey">+compressionMethod</text>
<text text-anchor="middle" x="68.38" y="-96.5" font-family="Helvetica,sans-Serif" font-size="10.00" fill="grey">+filterMethod</text>
<text text-anchor="middle" x="68.38" y="-84.5" font-family="Helvetica,sans-Serif" font-size="10.00" fill="grey">+interlaceMethod</text>
<text text-anchor="middle" x="68.38" y="-72.5" font-family="Helvetica,sans-Serif" font-size="10.00" fill="grey">+signature</text>
</g>
<!-- Node3 -->
<g id="Node000003" class="node">
<title>Node3</title>
<g id="a_Node000003"><a xlink:title=" ">
<polygon fill="white" stroke="none" points="158.5,-212 114.5,-212 114.5,-160 158.5,-160 158.5,-212"/>
<text text-anchor="start" x="119.25" y="-198.5" font-family="Helvetica,sans-Serif" font-size="10.00">uint32_t</text>
<text text-anchor="start" x="135" y="-182.5" font-family="Helvetica,sans-Serif" font-size="10.00"> </text>
<text text-anchor="start" x="135" y="-166.5" font-family="Helvetica,sans-Serif" font-size="10.00"> </text>
<polygon fill="#666666" stroke="#666666" points="114.5,-194 114.5,-194 158.5,-194 158.5,-194 114.5,-194"/>
<polygon fill="#666666" stroke="#666666" points="114.5,-178 114.5,-178 158.5,-178 158.5,-178 114.5,-178"/>
<polygon fill="none" stroke="#666666" points="114.5,-160 114.5,-212 158.5,-212 158.5,-160 114.5,-160"/>
</a>
</g>
</g>
<!-- Node3&#45;&gt;Node1 -->
<g id="edge2_Node000001_Node000003" class="edge">
<title>Node3&#45;&gt;Node1</title>
<g id="a_edge2_Node000001_Node000003"><a xlink:title=" ">
<path fill="none" stroke="#63b8ff" d="M135.44,-160.06C133.57,-135.95 128.46,-98.92 114.5,-70 113.25,-67.41 111.8,-64.84 110.21,-62.34"/>
<polygon fill="none" stroke="#63b8ff" points="110.16,-62.26 103.4,-59.75 103.12,-52.54 109.88,-55.05 110.16,-62.26"/>
</a>
</g>
<text text-anchor="middle" x="150.12" y="-108.5" font-family="Helvetica,sans-Serif" font-size="10.00" fill="grey"> +height</text>
<text text-anchor="middle" x="150.12" y="-96.5" font-family="Helvetica,sans-Serif" font-size="10.00" fill="grey">+width</text>
</g>
</g>
</svg>
</svg>

<style type='text/css'>
<![CDATA[
[data-mouse-over-selected='false'] { opacity: 0.7; }
[data-mouse-over-selected='true']  { opacity: 1.0; }
]]>
</style>
<script type="application/ecmascript"><![CDATA[
document.addEventListener('DOMContentLoaded', (event) => {
  highlightEdges();
  highlightAdjacentNodes();
});
]]></script>
</svg>
