<?xml version="1.0" encoding="UTF-8" standalone="no"?>
<!DOCTYPE svg PUBLIC "-//W3C//DTD SVG 1.1//EN"
 "http://www.w3.org/Graphics/SVG/1.1/DTD/svg11.dtd">
<!-- Generated by graphviz version 10.0.1 (20240210.2158)
 -->
<!-- Title: PNGMeta::PNGChunk Pages: 1 -->
<svg width="115pt" height="172pt"
 viewBox="0.00 0.00 115.00 172.00" xmlns="http://www.w3.org/2000/svg" xmlns:xlink="http://www.w3.org/1999/xlink">
<g id="graph0" class="graph" transform="scale(1 1) rotate(0) translate(4 168)">
<title>PNGMeta::PNGChunk</title>
<!-- Node1 -->
<g id="Node000001" class="node">
<title>Node1</title>
<g id="a_Node000001"><a xlink:title="Represents a chunk of a PNG file.">
<polygon fill="#999999" stroke="none" points="107,-52 0,-52 0,0 107,0 107,-52"/>
<text text-anchor="start" x="4.75" y="-38.5" font-family="Helvetica,sans-Serif" font-size="10.00">PNGMeta::PNGChunk</text>
<text text-anchor="start" x="52" y="-22.5" font-family="Helvetica,sans-Serif" font-size="10.00"> </text>
<text text-anchor="start" x="52" y="-6.5" font-family="Helvetica,sans-Serif" font-size="10.00"> </text>
<polygon fill="#666666" stroke="#666666" points="0,-34 0,-34 107,-34 107,-34 0,-34"/>
<polygon fill="#666666" stroke="#666666" points="0,-18 0,-18 107,-18 107,-18 0,-18"/>
<polygon fill="none" stroke="#666666" points="0,0 0,-52 107,-52 107,0 0,0"/>
</a>
</g>
</g>
<!-- Node2 -->
<g id="Node000002" class="node">
<title>Node2</title>
<g id="a_Node000002"><a xlink:title=" ">
<polygon fill="white" stroke="none" points="45.5,-164 1.5,-164 1.5,-112 45.5,-112 45.5,-164"/>
<text text-anchor="start" x="6.25" y="-150.5" font-family="Helvetica,sans-Serif" font-size="10.00">uint32_t</text>
<text text-anchor="start" x="22" y="-134.5" font-family="Helvetica,sans-Serif" font-size="10.00"> </text>
<text text-anchor="start" x="22" y="-118.5" font-family="Helvetica,sans-Serif" font-size="10.00"> </text>
<polygon fill="#666666" stroke="#666666" points="1.5,-146 1.5,-146 45.5,-146 45.5,-146 1.5,-146"/>
<polygon fill="#666666" stroke="#666666" points="1.5,-130 1.5,-130 45.5,-130 45.5,-130 1.5,-130"/>
<polygon fill="none" stroke="#666666" points="1.5,-112 1.5,-164 45.5,-164 45.5,-112 1.5,-112"/>
</a>
</g>
</g>
<!-- Node2&#45;&gt;Node1 -->
<g id="edge1_Node000001_Node000002" class="edge">
<title>Node2&#45;&gt;Node1</title>
<g id="a_edge1_Node000001_Node000002"><a xlink:title=" ">
<path fill="none" stroke="#63b8ff" d="M23.13,-112.02C23.57,-99.2 25.08,-83.5 29.25,-70 29.94,-67.76 30.76,-65.51 31.67,-63.28"/>
<polygon fill="none" stroke="#63b8ff" points="31.67,-63.29 30.65,-56.15 36.85,-52.46 37.87,-59.6 31.67,-63.29"/>
</a>
</g>
<text text-anchor="middle" x="44.62" y="-84.5" font-family="Helvetica,sans-Serif" font-size="10.00" fill="grey"> +crc</text>
<text text-anchor="middle" x="44.62" y="-72.5" font-family="Helvetica,sans-Serif" font-size="10.00" fill="grey">+length</text>
</g>
<!-- Node3 -->
<g id="Node000003" class="node">
<title>Node3</title>
<g id="a_Node000003"><a xlink:title=" ">
<polygon fill="white" stroke="none" points="103,-164 64,-164 64,-112 103,-112 103,-164"/>
<text text-anchor="start" x="68.88" y="-150.5" font-family="Helvetica,sans-Serif" font-size="10.00">uint8_t</text>
<text text-anchor="start" x="82" y="-134.5" font-family="Helvetica,sans-Serif" font-size="10.00"> </text>
<text text-anchor="start" x="82" y="-118.5" font-family="Helvetica,sans-Serif" font-size="10.00"> </text>
<polygon fill="#666666" stroke="#666666" points="64,-146 64,-146 103,-146 103,-146 64,-146"/>
<polygon fill="#666666" stroke="#666666" points="64,-130 64,-130 103,-130 103,-130 64,-130"/>
<polygon fill="none" stroke="#666666" points="64,-112 64,-164 103,-164 103,-112 64,-112"/>
</a>
</g>
</g>
<!-- Node3&#45;&gt;Node1 -->
<g id="edge2_Node000001_Node000003" class="edge">
<title>Node3&#45;&gt;Node1</title>
<g id="a_edge2_Node000001_Node000003"><a xlink:title=" ">
<path fill="none" stroke="#63b8ff" d="M76.69,-112.04C72.86,-97.98 67.99,-80.13 63.71,-64.42"/>
<polygon fill="none" stroke="#63b8ff" points="63.68,-64.31 58.24,-59.57 60.52,-52.73 65.96,-57.47 63.68,-64.31"/>
</a>
</g>
<text text-anchor="middle" x="84.38" y="-84.5" font-family="Helvetica,sans-Serif" font-size="10.00" fill="grey"> +data</text>
<text text-anchor="middle" x="84.38" y="-72.5" font-family="Helvetica,sans-Serif" font-size="10.00" fill="grey">+type</text>
</g>
</g>
</svg>
